<?xml version="1.0" encoding="UTF-8" standalone="no"?>
<svg
   xmlns:dc="http://purl.org/dc/elements/1.1/"
   xmlns:cc="http://creativecommons.org/ns#"
   xmlns:rdf="http://www.w3.org/1999/02/22-rdf-syntax-ns#"
   xmlns:svg="http://www.w3.org/2000/svg"
   xmlns="http://www.w3.org/2000/svg"
   xmlns:sodipodi="http://sodipodi.sourceforge.net/DTD/sodipodi-0.dtd"
   xmlns:inkscape="http://www.inkscape.org/namespaces/inkscape"
   width="300mm"
   height="300mm"
   viewBox="0 0 300 300"
   version="1.1"
   id="svg61"
   inkscape:version="1.0.2 (e86c870879, 2021-01-15)"
   sodipodi:docname="alchemyQuickView.svg">
  <defs
     id="defs55" />
  <sodipodi:namedview
     id="base"
     pagecolor="#ffffff"
     bordercolor="#666666"
     borderopacity="1.0"
     inkscape:pageopacity="0.0"
     inkscape:pageshadow="2"
     inkscape:zoom="0.74999999"
     inkscape:cx="594.86961"
     inkscape:cy="633.91848"
     inkscape:document-units="mm"
     inkscape:current-layer="layer1"
     inkscape:document-rotation="0"
     showgrid="false"
     inkscape:window-width="1920"
     inkscape:window-height="1002"
     inkscape:window-x="-8"
     inkscape:window-y="-8"
     inkscape:window-maximized="1"
     inkscape:snap-global="true"
     showguides="true"
     inkscape:guide-bbox="true" />
  <metadata
     id="metadata58">
    <rdf:RDF>
      <cc:Work
         rdf:about="">
        <dc:format>image/svg+xml</dc:format>
        <dc:type
           rdf:resource="http://purl.org/dc/dcmitype/StillImage" />
        <dc:title></dc:title>
      </cc:Work>
    </rdf:RDF>
  </metadata>
  <g
     inkscape:label="Layer 1"
     inkscape:groupmode="layer"
     id="layer1"
     sodipodi:insensitive="true"
     style="display:none">
    <circle
       style="opacity:1;fill:#ffffff;fill-opacity:1;stroke:#000000;stroke-width:0.265;stroke-miterlimit:4;stroke-dasharray:none;stroke-opacity:1"
       id="path63"
       cx="150"
       cy="150"
       r="150" />
  </g>
  <g
     inkscape:groupmode="layer"
     id="layer3"
     inkscape:label="Layer 2"
     style="display:inline" />
  <g
     inkscape:groupmode="layer"
     id="layer2"
     inkscape:label="Layer 3" />
  <g
     inkscape:groupmode="layer"
     id="layer4"
     inkscape:label="Layer 4">
    <g
       id="g1826"
       transform="rotate(30,150,150.50221)">
      <path
         style="fill:none;stroke:#000000;stroke-width:1.175;stroke-linecap:butt;stroke-linejoin:miter;stroke-miterlimit:4;stroke-dasharray:none;stroke-opacity:1"
         d="M 135.5325,94.353342 V 202.54117"
         id="path1717" />
      <path
         style="fill:none;stroke:#000000;stroke-width:1.175;stroke-linecap:butt;stroke-linejoin:miter;stroke-miterlimit:4;stroke-dasharray:none;stroke-opacity:1"
         d="M 164.5005,94.353342 V 202.54117"
         id="path1717-7"
         sodipodi:nodetypes="cc" />
      <path
         id="path1739"
         style="fill:none;stroke:#000000;stroke-width:1.175;stroke-linecap:square;stroke-miterlimit:4;stroke-dasharray:none;stroke-opacity:1"
         d="m 164.5163,203.00639 a 14.500537,9.6561691 0 0 1 -7.25027,8.36248 14.500537,9.6561691 0 0 1 -14.50054,0 14.500537,9.6561691 0 0 1 -7.25027,-8.36248" />
      <path
         id="rect1743"
         style="fill:none;stroke:#000000;stroke-width:1.35753;stroke-linecap:square;stroke-miterlimit:4;stroke-dasharray:none;stroke-opacity:1"
         d="m 131.9223,88.428766 h 36.1554 c 0.68892,0 1.24353,0.554619 1.24353,1.243539 v 3.284652 c 0,0.68892 -0.55461,1.243538 -1.24353,1.243538 h -36.1554 c -0.68892,0 -1.24353,-0.554618 -1.24353,-1.243538 v -3.284652 c 0,-0.68892 0.55461,-1.243539 1.24353,-1.243539 z" />
      <path
         style="fill:none;stroke:#000000;stroke-width:0.264583px;stroke-linecap:butt;stroke-linejoin:miter;stroke-opacity:1"
         d="m 135.5325,94.353342 h 28.968"
         id="path1789" />
      <path
         style="fill:none;fill-opacity:1;stroke:none;stroke-width:5.89606;stroke-linecap:square;stroke-miterlimit:4;stroke-dasharray:none;stroke-opacity:1"
         d="m 547.71052,797.33057 c -9.97759,-2.6871 -18.92434,-7.59126 -24.62097,-13.49602 -9.80257,-10.16072 -9.0651,7.77 -9.0651,-220.40571 V 358.05268 h 52.66667 52.66667 v 206.71979 c 0,203.0739 -0.0464,206.81064 -2.62797,211.87103 -4.59778,9.0124 -16.42982,16.95824 -31.04661,20.84947 -8.88762,2.36602 -28.90207,2.28042 -37.97269,-0.1624 z"
         id="path1792"
         transform="scale(0.26458333)" />
      <path
         style="fill:none;fill-opacity:1;stroke:none;stroke-width:5.89606;stroke-linecap:square;stroke-miterlimit:4;stroke-dasharray:none;stroke-opacity:1"
         d="m 547.71052,797.33057 c -9.97759,-2.6871 -18.92434,-7.59126 -24.62097,-13.49602 -9.80257,-10.16072 -9.0651,7.77 -9.0651,-220.40571 V 358.05268 h 52.66667 52.66667 v 206.71979 c 0,203.0739 -0.0464,206.81064 -2.62797,211.87103 -4.59778,9.0124 -16.42982,16.95824 -31.04661,20.84947 -8.88762,2.36602 -28.90207,2.28042 -37.97269,-0.1624 z"
         id="path1794"
         transform="scale(0.26458333)" />
      <path
         style="fill:none;fill-opacity:1;stroke:none;stroke-width:5.89606;stroke-linecap:square;stroke-miterlimit:4;stroke-dasharray:none;stroke-opacity:1"
         d="m 547.71052,797.33057 c -9.97759,-2.6871 -18.92434,-7.59126 -24.62097,-13.49602 -9.80257,-10.16072 -9.0651,7.77 -9.0651,-220.40571 V 358.05268 h 52.66667 52.66667 v 206.71979 c 0,203.0739 -0.0464,206.81064 -2.62797,211.87103 -4.59778,9.0124 -16.42982,16.95824 -31.04661,20.84947 -8.88762,2.36602 -28.90207,2.28042 -37.97269,-0.1624 z"
         id="path1796"
         transform="scale(0.26458333)" />
      <path
         style="fill:none;fill-opacity:1;stroke:none;stroke-width:5.89606;stroke-linecap:square;stroke-miterlimit:4;stroke-dasharray:none;stroke-opacity:1"
         d="m 547.71052,797.33057 c -9.97759,-2.6871 -18.92434,-7.59126 -24.62097,-13.49602 -9.80257,-10.16072 -9.0651,7.77 -9.0651,-220.40571 V 358.05268 h 52.66667 52.66667 v 206.71979 c 0,203.0739 -0.0464,206.81064 -2.62797,211.87103 -4.59778,9.0124 -16.42982,16.95824 -31.04661,20.84947 -8.88762,2.36602 -28.90207,2.28042 -37.97269,-0.1624 z"
         id="path1798"
         transform="scale(0.26458333)" />
      <path
         style="fill:none;fill-opacity:1;stroke:none;stroke-width:5.89606;stroke-linecap:square;stroke-miterlimit:4;stroke-dasharray:none;stroke-opacity:1"
         d="m 547.71052,797.33057 c -9.97759,-2.6871 -18.92434,-7.59126 -24.62097,-13.49602 -9.80257,-10.16072 -9.0651,7.77 -9.0651,-220.40571 V 358.05268 h 52.66667 52.66667 v 206.71979 c 0,203.0739 -0.0464,206.81064 -2.62797,211.87103 -4.59778,9.0124 -16.42982,16.95824 -31.04661,20.84947 -8.88762,2.36602 -28.90207,2.28042 -37.97269,-0.1624 z"
         id="path1800"
         transform="scale(0.26458333)" />
      <path
         style="fill:#ce66e9;fill-opacity:1;stroke:none;stroke-width:0.314961;stroke-linecap:square;stroke-miterlimit:4;stroke-dasharray:none;stroke-opacity:1"
         d="m 560.87111,801.36451 c -12.24657,-1.06928 -23.00882,-4.53537 -31.36699,-10.10206 -7.11492,-4.73865 -11.9983,-10.69111 -14.03415,-17.10651 -0.68335,-2.15338 -0.99685,-4.09987 -1.05289,-6.53726 -0.0253,-1.1 -0.0272,-33.66876 -0.004,-72.37501 l 0.0417,-70.375 h 52.58501 52.58502 l -0.0468,72.70834 -0.0468,72.70833 -0.36063,1.5 c -1.54484,6.4256 -5.05182,11.80483 -10.83325,16.61672 -8.07299,6.71915 -19.37042,11.11352 -32.71589,12.72552 -2.61592,0.31598 -12.0999,0.46831 -14.75,0.23693 z"
         id="path1810"
         transform="scale(0.26458333)" />
      <path
         style="fill:#ce66e9;fill-opacity:1;stroke:none;stroke-width:0.356677;stroke-linecap:square;stroke-miterlimit:4;stroke-dasharray:none;stroke-opacity:1"
         d="m 146.64986,211.56098 c -4.3373,-0.88291 -7.94187,-3.29106 -9.5755,-6.39721 -0.98555,-1.87391 -0.93389,0.36511 -0.93389,-40.47235 v -37.5612 h 13.88627 13.88627 l -0.0453,38.05402 -0.0453,38.05402 -0.45641,1.11477 c -1.27922,3.12439 -4.31065,5.59967 -8.34405,6.81326 -2.15725,0.64906 -6.18875,0.83913 -8.37208,0.39469 z"
         id="path1812" />
    </g>
  </g>
</svg>
