<?xml version="1.0" encoding="UTF-8" standalone="no"?>
<svg
   xmlns:osb="http://www.openswatchbook.org/uri/2009/osb"
   xmlns:dc="http://purl.org/dc/elements/1.1/"
   xmlns:cc="http://creativecommons.org/ns#"
   xmlns:rdf="http://www.w3.org/1999/02/22-rdf-syntax-ns#"
   xmlns:svg="http://www.w3.org/2000/svg"
   xmlns="http://www.w3.org/2000/svg"
   xmlns:sodipodi="http://sodipodi.sourceforge.net/DTD/sodipodi-0.dtd"
   xmlns:inkscape="http://www.inkscape.org/namespaces/inkscape"
   width="300mm"
   height="300mm"
   viewBox="0 0 300 300"
   version="1.1"
   id="svg61"
   inkscape:version="1.0.2 (e86c870879, 2021-01-15)"
   sodipodi:docname="barearth.svg">
  <defs
     id="defs55">
    <linearGradient
       id="linearGradient1699"
       osb:paint="solid">
      <stop
         style="stop-color:#808000;stop-opacity:1;"
         offset="0"
         id="stop1697" />
    </linearGradient>
  </defs>
  <sodipodi:namedview
     id="base"
     pagecolor="#ffffff"
     bordercolor="#666666"
     borderopacity="1.0"
     inkscape:pageopacity="0.0"
     inkscape:pageshadow="2"
     inkscape:zoom="0.6363961"
     inkscape:cx="705.65798"
     inkscape:cy="556.34885"
     inkscape:document-units="mm"
     inkscape:current-layer="layer3"
     inkscape:document-rotation="0"
     showgrid="false"
     inkscape:window-width="1920"
     inkscape:window-height="1002"
     inkscape:window-x="-8"
     inkscape:window-y="-8"
     inkscape:window-maximized="1"
     inkscape:snap-global="true"
     showguides="true"
     inkscape:guide-bbox="true" />
  <metadata
     id="metadata58">
    <rdf:RDF>
      <cc:Work
         rdf:about="">
        <dc:format>image/svg+xml</dc:format>
        <dc:type
           rdf:resource="http://purl.org/dc/dcmitype/StillImage" />
        <dc:title></dc:title>
      </cc:Work>
    </rdf:RDF>
  </metadata>
  <g
     inkscape:label="Layer 1"
     inkscape:groupmode="layer"
     id="layer1"
     sodipodi:insensitive="true"
     style="display:none">
    <circle
       style="opacity:1;fill:#ffffff;fill-opacity:1;stroke:#000000;stroke-width:0.265;stroke-miterlimit:4;stroke-dasharray:none;stroke-opacity:1"
       id="path63"
       cx="150"
       cy="150"
       r="150" />
  </g>
  <g
     inkscape:groupmode="layer"
     id="layer3"
     inkscape:label="Layer 2">
    <path
       id="path1067-7-0-1"
       style="fill:none;fill-opacity:1;fill-rule:evenodd;stroke:#000000;stroke-width:0.83791;stroke-linecap:butt;stroke-linejoin:miter;stroke-miterlimit:4;stroke-dasharray:none;stroke-opacity:1"
       d="m 58.83973,71.269907 c 0,0 -4.340983,125.658773 91.16094,164.729073 M 241.1616,71.269905 c 0,0 4.34098,125.658775 -91.16094,164.729075 M 241.1616,71.269907 c 0,0 -39.00776,24.117313 -91.16094,-7.296521 m -91.16093,7.296521 c 0,0 39.007761,24.117313 91.16093,-7.296521 M 49.187616,62.933903 c 0,0 -4.800606,138.963517 100.813054,182.170577 M 250.81371,62.933901 c 0,0 4.80061,138.963519 -100.81305,182.170579 M 250.81371,62.933903 c 0,0 -43.1379,26.670853 -100.81305,-8.069076 M 49.187616,62.933903 c 0,0 43.1379,26.670853 100.813044,-8.069076" />
    <path
       style="fill:#7e7d68;fill-opacity:1;stroke:none;stroke-width:5.93895;stroke-linecap:round"
       d="M 548.21812,916.76782 C 459.65806,876.27834 387.15978,815.77772 329.08343,733.89749 249.99726,622.39611 200.339,468.42804 188.70532,298.64771 c -1.84999,-26.99861 -2.07624,-58.62808 -0.4138,-57.85066 0.64818,0.30311 6.12825,2.88075 12.17795,5.72808 57.64187,27.12959 132.63026,35.81947 204.77166,23.72957 48.85663,-8.1877 98.38285,-25.91826 145.0659,-51.93412 l 16.95329,-9.44785 10.66611,6.20196 c 50.82977,29.55571 109.90983,50.07609 166.22959,57.73681 27.69765,3.76748 72.56047,3.44402 100.66375,-0.72579 33.47241,-4.96645 70.91868,-16.16557 94.81464,-28.35639 3.40882,-1.73904 6.42908,-2.47577 6.7117,-1.63717 1.18585,3.51875 -1.75613,68.71747 -4.14733,91.9109 -26.06033,252.77212 -129.1502,445.5835 -293.56997,549.0707 -18.07154,11.37439 -51.64442,29.12348 -69.46936,36.72664 l -12.57578,5.36412 z m 38.24161,-32.10959 c 133.65803,-61.06087 229.99222,-176.90671 283.21546,-340.57831 17.04427,-52.41435 31.14434,-118.61644 37.88249,-177.86423 3.58544,-31.52652 6.45717,-93.97055 4.41549,-96.01224 -1.16294,-1.16294 -4.14569,-0.39721 -9.99125,2.56496 -22.44962,11.37608 -57.30305,21.71131 -87.9009,26.0656 -21.68458,3.08588 -70.43315,2.67792 -91.92388,-0.76928 -50.77904,-8.14515 -102.79276,-26.82387 -146.56613,-52.63358 l -8.12935,-4.79324 -14.57614,7.85887 c -59.36655,32.00807 -109.30856,47.62131 -166.34098,52.00275 -51.36905,3.94637 -106.99607,-5.52115 -150.54665,-25.62248 -7.25085,-3.34673 -13.43804,-6.08496 -13.74929,-6.08496 -1.19449,0 -0.49243,44.48829 1.00688,63.80426 10.38735,133.82307 46.5215,256.38791 103.53222,351.17503 50.8922,84.61434 120.40232,150.69138 201.82521,191.8571 16.64874,8.41726 35.86685,16.89534 38.41705,16.9477 1.10422,0.0226 9.84761,-3.54041 19.42977,-7.91795 z"
       id="path5601"
       transform="scale(0.26458333)" />
    <g
       id="g4872"
       transform="matrix(0.77800158,0,0,0.77800158,35.044294,31.689338)">
      <circle
         style="display:inline;fill:#8a4607;fill-opacity:1;stroke:#8a4607;stroke-width:1;stroke-linecap:round;stroke-miterlimit:4;stroke-dasharray:none;stroke-opacity:1"
         id="path4155"
         cx="149.63889"
         cy="144.69998"
         r="74.410912" />
      <path
         style="display:inline;fill:#d7ae1c;fill-opacity:1;stroke:#d7ae1c;stroke-width:2;stroke-linecap:butt;stroke-linejoin:miter;stroke-miterlimit:4;stroke-dasharray:none;stroke-opacity:1"
         d="M 113.24167,79.727779 131.93889,104.06944 123.825,74.436112"
         id="path4171"
         sodipodi:nodetypes="ccc" />
      <path
         style="display:inline;fill:#d7ae1c;fill-opacity:1;stroke:#d7ae1c;stroke-width:2;stroke-linecap:butt;stroke-linejoin:miter;stroke-miterlimit:4;stroke-dasharray:none;stroke-opacity:1"
         d="m 179.91667,75.863357 -19.40278,45.508343 31.75,-38.452788"
         id="path4173"
         sodipodi:nodetypes="ccc" />
      <path
         style="display:inline;fill:#d7ae1c;fill-opacity:1;stroke:#d7ae1c;stroke-width:2;stroke-linecap:butt;stroke-linejoin:miter;stroke-miterlimit:4;stroke-dasharray:none;stroke-opacity:1"
         d="m 221.54444,123.11944 -12.34722,8.11389 15.16945,5.99722"
         id="path4175" />
      <path
         style="display:inline;fill:#d7ae1c;fill-opacity:1;stroke:#d7ae1c;stroke-width:2;stroke-linecap:butt;stroke-linejoin:miter;stroke-miterlimit:4;stroke-dasharray:none;stroke-opacity:1"
         d="m 219.42778,170.74444 -29.28056,-15.52222 27.51667,20.81389"
         id="path4177" />
      <path
         style="display:inline;fill:#d7ae1c;fill-opacity:1;stroke:#d7ae1c;stroke-width:2;stroke-linecap:butt;stroke-linejoin:miter;stroke-miterlimit:4;stroke-dasharray:none;stroke-opacity:1"
         d="m 176.38889,214.48889 -14.81667,-54.68056 -1.41111,58.91389"
         id="path4179" />
      <path
         style="display:inline;fill:#d7ae1c;fill-opacity:1;stroke:#d7ae1c;stroke-width:2;stroke-linecap:butt;stroke-linejoin:miter;stroke-miterlimit:4;stroke-dasharray:none;stroke-opacity:1"
         d="M 101.24722,201.78889 127,169.68611 111.47778,209.19722"
         id="path4181"
         sodipodi:nodetypes="ccc" />
      <path
         style="display:inline;fill:#d7ae1c;fill-opacity:1;stroke:#d7ae1c;stroke-width:2;stroke-linecap:butt;stroke-linejoin:miter;stroke-miterlimit:4;stroke-dasharray:none;stroke-opacity:1"
         d="m 74.289986,140.82925 45.540744,3.64579 -42.365744,-20.21166"
         id="path4183"
         sodipodi:nodetypes="ccc" />
      <path
         style="display:inline;fill:#d7ae1c;fill-opacity:1;stroke:#d7ae1c;stroke-width:2;stroke-linecap:butt;stroke-linejoin:miter;stroke-miterlimit:4;stroke-dasharray:none;stroke-opacity:1"
         d="m 85.724999,183.79722 c 11.454312,-5.99083 9.314008,-12.42429 10.583333,-24.69444"
         id="path4185" />
      <path
         style="display:inline;fill:#d7ae1c;fill-opacity:1;stroke:#d7ae1c;stroke-width:2;stroke-linecap:butt;stroke-linejoin:miter;stroke-miterlimit:4;stroke-dasharray:none;stroke-opacity:1"
         d="m 96.308332,169.33333 c 4.498578,-2.33394 8.222668,1.64454 10.583338,2.11667"
         id="path4187" />
      <path
         style="display:inline;fill:#d7ae1c;fill-opacity:1;stroke:#d7ae1c;stroke-width:2;stroke-linecap:butt;stroke-linejoin:miter;stroke-miterlimit:4;stroke-dasharray:none;stroke-opacity:1"
         d="m 95.249999,93.486112 c 7.225381,7.463698 10.668461,12.453208 17.638891,19.755558 2.40566,-0.29426 4.58108,-0.22906 7.05556,-0.35278"
         id="path4189" />
      <path
         style="display:inline;fill:#d7ae1c;fill-opacity:1;stroke:#d7ae1c;stroke-width:2;stroke-linecap:butt;stroke-linejoin:miter;stroke-miterlimit:4;stroke-dasharray:none;stroke-opacity:1"
         d="m 112.88889,113.24167 c 0.0368,5.85335 0.88921,10.12922 1.41111,15.52222"
         id="path4191" />
      <path
         style="display:inline;fill:#d7ae1c;fill-opacity:1;stroke:#d7ae1c;stroke-width:2;stroke-linecap:butt;stroke-linejoin:miter;stroke-miterlimit:4;stroke-dasharray:none;stroke-opacity:1"
         d="m 140.81886,70.366631 c 1.86938,12.011388 12.62551,23.265721 19.34225,27.000034"
         id="path4193"
         sodipodi:nodetypes="cc" />
      <path
         style="display:inline;fill:#d7ae1c;fill-opacity:1;stroke:#d7ae1c;stroke-width:2;stroke-linecap:butt;stroke-linejoin:miter;stroke-miterlimit:4;stroke-dasharray:none;stroke-opacity:1"
         d="m 213.04502,105.44442 c -7.94155,16.08749 -20.21508,9.51776 -27.23554,12.02505"
         id="path4195"
         sodipodi:nodetypes="cc" />
      <path
         style="display:inline;fill:#d7ae1c;fill-opacity:1;stroke:#d7ae1c;stroke-width:2;stroke-linecap:butt;stroke-linejoin:miter;stroke-miterlimit:4;stroke-dasharray:none;stroke-opacity:1"
         d="m 223.30833,158.75 c -6.48519,-4.71173 -10.74216,-9.65206 -15.875,-13.75833"
         id="path4197" />
      <path
         style="display:inline;fill:#d7ae1c;fill-opacity:1;stroke:#d7ae1c;stroke-width:2;stroke-linecap:butt;stroke-linejoin:miter;stroke-miterlimit:4;stroke-dasharray:none;stroke-opacity:1"
         d="m 215.28004,151.69444 c 2.66881,3.39977 0.90357,7.68089 2.03107,11.28889"
         id="path4199"
         sodipodi:nodetypes="cc" />
      <path
         style="display:inline;fill:#d7ae1c;fill-opacity:1;stroke:#d7ae1c;stroke-width:2;stroke-linecap:butt;stroke-linejoin:miter;stroke-miterlimit:4;stroke-dasharray:none;stroke-opacity:1"
         d="m 206.68497,192.71999 c -9.62505,-5.90974 -14.2244,-7.9454 -23.5933,-8.56999"
         id="path4201"
         sodipodi:nodetypes="cc" />
      <path
         style="display:inline;fill:#d7ae1c;fill-opacity:1;stroke:#d7ae1c;stroke-width:2;stroke-linecap:butt;stroke-linejoin:miter;stroke-miterlimit:4;stroke-dasharray:none;stroke-opacity:1"
         d="m 183.09167,184.15 c -3.03426,-4.39409 0.17848,-14.90616 -0.35278,-19.05"
         id="path4205" />
      <path
         style="display:inline;fill:#d7ae1c;fill-opacity:1;stroke:#d7ae1c;stroke-width:2;stroke-linecap:butt;stroke-linejoin:miter;stroke-miterlimit:4;stroke-dasharray:none;stroke-opacity:1"
         d="m 190.14722,185.56111 c 1.69724,4.5075 3.95643,9.66689 5.29167,13.40556"
         id="path4207" />
    </g>
  </g>
  <g
     inkscape:groupmode="layer"
     id="layer2"
     inkscape:label="Layer 3"
     style="display:inline" />
  <g
     inkscape:groupmode="layer"
     id="layer5"
     inkscape:label="Layer 4" />
</svg>
