<?xml version="1.0" encoding="UTF-8" standalone="no"?>
<svg
   fill="none"
   viewBox="0 0 24 24"
   stroke-width="1.5"
   stroke="currentColor"
   class="w-6 h-6"
   version="1.1"
   id="svg1835"
   sodipodi:docname="calculatorDisabled.svg"
   inkscape:version="1.2.2 (732a01da63, 2022-12-09)"
   xmlns:inkscape="http://www.inkscape.org/namespaces/inkscape"
   xmlns:sodipodi="http://sodipodi.sourceforge.net/DTD/sodipodi-0.dtd"
   xmlns="http://www.w3.org/2000/svg"
   xmlns:svg="http://www.w3.org/2000/svg">
  <defs
     id="defs1839" />
  <sodipodi:namedview
     id="namedview1837"
     pagecolor="#ffffff"
     bordercolor="#000000"
     borderopacity="0.25"
     inkscape:showpageshadow="2"
     inkscape:pageopacity="0.0"
     inkscape:pagecheckerboard="0"
     inkscape:deskcolor="#d1d1d1"
     showgrid="false"
     inkscape:zoom="45.916667"
     inkscape:cx="11.989111"
     inkscape:cy="12"
     inkscape:window-width="2560"
     inkscape:window-height="1334"
     inkscape:window-x="-11"
     inkscape:window-y="-11"
     inkscape:window-maximized="1"
     inkscape:current-layer="svg1835" />
  <path
     stroke-linecap="round"
     stroke-linejoin="round"
     d="M15.75 15.75V18m-7.5-6.75h.008v.008H8.25v-.008zm0 2.25h.008v.008H8.25V13.5zm0 2.25h.008v.008H8.25v-.008zm0 2.25h.008v.008H8.25V18zm2.498-6.75h.007v.008h-.007v-.008zm0 2.25h.007v.008h-.007V13.5zm0 2.25h.007v.008h-.007v-.008zm0 2.25h.007v.008h-.007V18zm2.504-6.75h.008v.008h-.008v-.008zm0 2.25h.008v.008h-.008V13.5zm0 2.25h.008v.008h-.008v-.008zm0 2.25h.008v.008h-.008V18zm2.498-6.75h.008v.008h-.008v-.008zm0 2.25h.008v.008h-.008V13.5zM8.25 6h7.5v2.25h-7.5V6zM12 2.25c-1.892 0-3.758.11-5.593.322C5.307 2.7 4.5 3.65 4.5 4.757V19.5a2.25 2.25 0 002.25 2.25h10.5a2.25 2.25 0 002.25-2.25V4.757c0-1.108-.806-2.057-1.907-2.185A48.507 48.507 0 0012 2.25z"
     id="path1833"
     style="stroke:#909090;stroke-opacity:1;fill:#cccccc;fill-opacity:1" />
</svg>
