<?xml version="1.0" encoding="UTF-8" standalone="no"?>
<svg
   width="300mm"
   height="300mm"
   viewBox="0 0 300 300"
   version="1.1"
   id="svg61"
   inkscape:version="1.2.2 (732a01da63, 2022-12-09)"
   sodipodi:docname="electrify.svg"
   xmlns:inkscape="http://www.inkscape.org/namespaces/inkscape"
   xmlns:sodipodi="http://sodipodi.sourceforge.net/DTD/sodipodi-0.dtd"
   xmlns="http://www.w3.org/2000/svg"
   xmlns:svg="http://www.w3.org/2000/svg"
   xmlns:rdf="http://www.w3.org/1999/02/22-rdf-syntax-ns#"
   xmlns:cc="http://creativecommons.org/ns#"
   xmlns:dc="http://purl.org/dc/elements/1.1/">
  <defs
     id="defs55" />
  <sodipodi:namedview
     id="base"
     pagecolor="#ffffff"
     bordercolor="#666666"
     borderopacity="1.0"
     inkscape:pageopacity="0.0"
     inkscape:pageshadow="2"
     inkscape:zoom="0.74999999"
     inkscape:cx="378.00001"
     inkscape:cy="473.33334"
     inkscape:document-units="mm"
     inkscape:current-layer="layer1"
     inkscape:document-rotation="0"
     showgrid="false"
     inkscape:window-width="2560"
     inkscape:window-height="1346"
     inkscape:window-x="-11"
     inkscape:window-y="-11"
     inkscape:window-maximized="1"
     inkscape:snap-global="true"
     inkscape:showpageshadow="2"
     inkscape:pagecheckerboard="0"
     inkscape:deskcolor="#d1d1d1"
     showguides="true" />
  <metadata
     id="metadata58">
    <rdf:RDF>
      <cc:Work
         rdf:about="">
        <dc:format>image/svg+xml</dc:format>
        <dc:type
           rdf:resource="http://purl.org/dc/dcmitype/StillImage" />
      </cc:Work>
    </rdf:RDF>
  </metadata>
  <g
     inkscape:label="Layer 1"
     inkscape:groupmode="layer"
     id="layer1">
    <path
       style="display:inline;fill:#fff30b;fill-opacity:1;stroke:#000000;stroke-width:1.07926;stroke-miterlimit:4;stroke-dasharray:none;stroke-opacity:1"
       d="m 154.54068,144.35687 c -0.0669,-0.0463 -2.88956,-4.456 -6.2711,-9.80208 -3.3815,-5.34607 -7.37898,-11.65582 -8.88324,-14.02169 -1.50426,-2.36587 -5.39038,-8.50092 -8.63584,-13.63346 -3.24544,-5.13253 -6.04765,-9.381976 -6.22717,-9.443209 -0.24886,-0.0851 -2.05241,1.975157 -7.60274,8.684649 -4.00202,4.83779 -7.33528,8.82337 -7.4073,8.85687 -0.0719,0.0334 -1.11205,-3.77832 -2.31121,-8.47073 -1.19915,-4.6924 -4.31465,-16.82078 -6.92332,-26.951927 -7.413181,-28.790211 -9.453794,-36.828536 -9.360369,-36.872421 0.04759,-0.02226 2.049301,2.58146 4.448155,5.786306 2.398864,3.204808 6.296444,8.412223 8.661274,11.572011 13.42869,17.94279 15.32461,20.400294 15.58934,20.207035 0.15789,-0.115319 3.50976,-4.369128 7.4485,-9.452947 3.93875,-5.083835 7.26947,-9.325774 7.40165,-9.426562 0.20708,-0.157841 1.25785,3.771293 2.7466,10.27001 0.22636,0.988166 1.13706,4.780979 2.02376,8.428515 0.88671,3.647545 2.16648,8.968346 2.84395,11.824033 1.05843,4.461534 2.7198,11.355597 6.47911,26.885617 0.4518,1.86644 1.31188,5.46377 1.91126,7.99411 0.59939,2.53029 1.59,6.65582 2.20135,9.16777 1.47199,6.04818 2.01665,8.49773 1.86734,8.3981 z"
       id="path8495-2" />
    <path
       style="display:inline;fill:#fff30b;fill-opacity:1;stroke:#000000;stroke-width:1.07926;stroke-miterlimit:4;stroke-dasharray:none;stroke-opacity:1"
       d="m 154.33142,144.11962 c -0.0669,0.0463 -2.88955,4.456 -6.27109,9.80208 -3.38151,5.34607 -7.37899,11.65583 -8.88325,14.0217 -1.50426,2.36586 -5.39038,8.50091 -8.63583,13.63346 -3.24545,5.13252 -6.04765,9.38197 -6.22717,9.4432 -0.24886,0.0851 -2.05242,-1.97515 -7.60275,-8.68465 -4.00202,-4.83779 -7.33528,-8.82337 -7.4073,-8.85687 -0.0719,-0.0334 -1.11204,3.77832 -2.31121,8.47073 -1.19915,4.6924 -4.31464,16.82079 -6.92331,26.95193 -7.41319,28.79021 -9.453804,36.82854 -9.360379,36.87242 0.04759,0.0222 2.049302,-2.58145 4.448156,-5.7863 2.398864,-3.20481 6.296453,-8.41222 8.661283,-11.57202 13.42868,-17.94279 15.32461,-20.40028 15.58934,-20.20702 0.15789,0.11532 3.50976,4.36912 7.4485,9.45294 3.93875,5.08384 7.26947,9.32577 7.40164,9.42656 0.20708,0.15784 1.25786,-3.77129 2.7466,-10.27001 0.22636,-0.98817 1.13706,-4.78098 2.02377,-8.42852 0.8867,-3.64754 2.16648,-8.96834 2.84395,-11.82402 1.05842,-4.46154 2.7198,-11.35561 6.47911,-26.88562 0.45179,-1.86645 1.31187,-5.46378 1.91125,-7.99412 0.59939,-2.53029 1.59,-6.65581 2.20136,-9.16776 1.47199,-6.04818 2.01665,-8.49774 1.86733,-8.39811 z"
       id="path8495-2-4" />
    <path
       style="display:inline;fill:#fff30b;fill-opacity:1;stroke:#000000;stroke-width:1.07926;stroke-miterlimit:4;stroke-dasharray:none;stroke-opacity:1"
       d="m 39.702988,146.46242 c 0.07352,0.0326 5.054071,0.0115 11.069107,-0.0501 6.015024,-0.0616 13.117965,-0.12846 15.784321,-0.1488 2.666352,-0.0203 9.572254,-0.0859 15.346451,-0.14595 5.774182,-0.06 10.62054,-0.008 10.769677,0.11573 0.206898,0.17127 -0.340309,2.93803 -2.306683,11.66313 -1.417812,6.29114 -2.565193,11.50604 -2.549764,11.58873 0.01604,0.0823 3.522737,-1.17175 7.794036,-2.78761 4.271291,-1.61584 15.320407,-5.77814 24.553567,-9.2495 26.23828,-9.86481 33.54747,-12.64485 33.52778,-12.75237 -0.0103,-0.0547 -3.14185,-0.338 -6.9596,-0.62936 -3.81772,-0.29134 -10.0209,-0.76455 -13.78479,-1.05151 -21.37326,-1.62963 -24.3329,-1.90287 -24.33603,-2.24679 -0.002,-0.20517 1.34004,-5.58935 2.98203,-11.96486 1.64198,-6.37551 2.98686,-11.73428 2.98857,-11.90844 0.003,-0.27282 -3.60047,1.039 -9.41792,3.42874 -0.88459,0.36337 -4.30363,1.72117 -7.597934,3.01732 -3.294321,1.29617 -8.092042,3.19903 -10.661628,4.22858 -4.01456,1.6085 -10.23269,4.07118 -24.24964,9.60393 -1.684592,0.66496 -4.92533,1.956 -7.201661,2.86905 -2.276288,0.91304 -5.995278,2.38991 -8.264376,3.28191 -5.463444,2.14773 -7.646805,3.06306 -7.485513,3.13812 z"
       id="path8495-2-4-2" />
    <path
       style="display:inline;fill:#fff30b;fill-opacity:1;stroke:#000000;stroke-width:1.07926;stroke-miterlimit:4;stroke-dasharray:none;stroke-opacity:1"
       d="m 154.24946,144.40645 c 0.0669,-0.0463 2.88956,-4.456 6.2711,-9.80208 3.3815,-5.34607 7.37898,-11.65583 8.88324,-14.0217 1.50426,-2.36586 5.39038,-8.50091 8.63584,-13.63346 3.24544,-5.13252 6.04765,-9.381972 6.22717,-9.443204 0.24886,-0.0851 2.05241,1.975157 7.60274,8.684644 4.00202,4.8378 7.33528,8.82338 7.4073,8.85688 0.0719,0.0334 1.11205,-3.77832 2.31121,-8.47073 1.19915,-4.6924 4.31465,-16.820781 6.92332,-26.95193 7.41318,-28.790207 9.4538,-36.828536 9.36037,-36.872416 -0.0476,-0.02224 -2.0493,2.581454 -4.44815,5.78631 -2.39887,3.204802 -6.29645,8.412213 -8.66128,11.572007 -13.42869,17.942793 -15.32461,20.400288 -15.58934,20.207028 -0.15789,-0.115319 -3.50976,-4.369121 -7.4485,-9.452939 -3.93875,-5.08384 -7.26947,-9.325779 -7.40165,-9.426562 -0.20708,-0.157846 -1.25785,3.771291 -2.7466,10.27001 -0.22636,0.988164 -1.13706,4.780976 -2.02376,8.428512 -0.88671,3.647548 -2.16648,8.968345 -2.84395,11.824029 -1.05843,4.461534 -2.7198,11.355601 -6.47911,26.885611 -0.4518,1.86645 -1.31188,5.46378 -1.91126,7.99412 -0.59939,2.53029 -1.59,6.65581 -2.20135,9.16776 -1.47199,6.04818 -2.01665,8.49774 -1.86734,8.39811 z"
       id="path8495-2-7" />
    <path
       style="display:inline;fill:#fff30b;fill-opacity:1;stroke:#000000;stroke-width:1.07926;stroke-miterlimit:4;stroke-dasharray:none;stroke-opacity:1"
       d="m 154.45872,144.1692 c 0.0669,0.0463 2.88955,4.456 6.27109,9.80208 3.38151,5.34607 7.37899,11.65582 8.88325,14.02169 1.50426,2.36587 5.39038,8.50092 8.63583,13.63346 3.24545,5.13253 6.04765,9.38198 6.22717,9.44321 0.24886,0.0851 2.05242,-1.97516 7.60275,-8.68465 4.00202,-4.83779 7.33528,-8.82337 7.4073,-8.85687 0.0719,-0.0334 1.11204,3.77832 2.31121,8.47073 1.19915,4.6924 4.31464,16.82078 6.92331,26.95193 7.41319,28.79021 9.4538,36.82854 9.36038,36.87242 -0.0476,0.0222 -2.0493,-2.58146 -4.44816,-5.7863 -2.39886,-3.20482 -6.29645,-8.41223 -8.66128,-11.57202 -13.42868,-17.94279 -15.32461,-20.40029 -15.58934,-20.20703 -0.15789,0.11532 -3.50976,4.36912 -7.4485,9.45294 -3.93875,5.08384 -7.26947,9.32578 -7.40164,9.42656 -0.20708,0.15785 -1.25786,-3.77129 -2.7466,-10.27001 -0.22636,-0.98816 -1.13706,-4.78097 -2.02377,-8.42851 -0.8867,-3.64755 -2.16648,-8.96835 -2.84395,-11.82403 -1.05842,-4.46153 -2.7198,-11.3556 -6.47911,-26.88562 -0.45179,-1.86644 -1.31187,-5.46377 -1.91125,-7.99411 -0.59939,-2.53029 -1.59,-6.65582 -2.20136,-9.16777 -1.47199,-6.04818 -2.01665,-8.49773 -1.86733,-8.3981 z"
       id="path8495-2-4-5" />
    <path
       style="display:inline;fill:#fff30b;fill-opacity:1;stroke:#000000;stroke-width:1.07926;stroke-miterlimit:4;stroke-dasharray:none;stroke-opacity:1"
       d="m 269.08715,146.512 c -0.0735,0.0325 -5.05407,0.0115 -11.0691,-0.0501 -6.01503,-0.0616 -13.11797,-0.12846 -15.78433,-0.1488 -2.66635,-0.0203 -9.57225,-0.086 -15.34645,-0.14595 -5.77418,-0.06 -10.62053,-0.008 -10.76968,0.11573 -0.20689,0.17126 0.34032,2.93802 2.30669,11.66313 1.41781,6.29113 2.56519,11.50603 2.54976,11.58872 -0.016,0.0823 -3.52274,-1.17174 -7.79403,-2.78761 -4.2713,-1.61584 -15.32041,-5.77814 -24.55357,-9.2495 -26.23828,-9.86481 -33.54747,-12.64485 -33.52778,-12.75237 0.0103,-0.0547 3.14185,-0.338 6.9596,-0.62935 3.81772,-0.29135 10.0209,-0.76455 13.78479,-1.05152 21.37326,-1.62962 24.3329,-1.90286 24.33603,-2.24678 0.002,-0.20518 -1.34004,-5.58936 -2.98203,-11.96487 -1.64198,-6.3755 -2.98686,-11.73428 -2.98857,-11.90844 -0.003,-0.27282 3.60047,1.039 9.41792,3.42874 0.88459,0.36338 4.30363,1.72117 7.59793,3.01732 3.29433,1.29618 8.09204,3.19904 10.66163,4.22859 4.01457,1.60849 10.23269,4.07118 24.24965,9.60393 1.68459,0.66495 4.92532,1.956 7.20165,2.86905 2.27629,0.91304 5.99528,2.3899 8.26438,3.2819 5.46344,2.14774 7.6468,3.06307 7.48551,3.13813 z"
       id="path8495-2-4-2-1" />
  </g>
  <g
     inkscape:groupmode="layer"
     id="layer4"
     inkscape:label="Layer 4" />
  <g
     inkscape:groupmode="layer"
     id="layer3"
     inkscape:label="Layer 2"
     style="display:inline" />
  <g
     inkscape:groupmode="layer"
     id="layer2"
     inkscape:label="Layer 3" />
</svg>
