<?xml version="1.0" encoding="UTF-8" standalone="no"?>
<svg
   width="300mm"
   height="300mm"
   viewBox="0 0 300 300"
   version="1.1"
   id="svg61"
   inkscape:version="1.2.2 (732a01da63, 2022-12-09)"
   sodipodi:docname="elementalStrike.svg"
   xmlns:inkscape="http://www.inkscape.org/namespaces/inkscape"
   xmlns:sodipodi="http://sodipodi.sourceforge.net/DTD/sodipodi-0.dtd"
   xmlns="http://www.w3.org/2000/svg"
   xmlns:svg="http://www.w3.org/2000/svg"
   xmlns:rdf="http://www.w3.org/1999/02/22-rdf-syntax-ns#"
   xmlns:cc="http://creativecommons.org/ns#"
   xmlns:dc="http://purl.org/dc/elements/1.1/">
  <defs
     id="defs55" />
  <sodipodi:namedview
     id="base"
     pagecolor="#ffffff"
     bordercolor="#666666"
     borderopacity="1.0"
     inkscape:pageopacity="0.0"
     inkscape:pageshadow="2"
     inkscape:zoom="0.375"
     inkscape:cx="254.66667"
     inkscape:cy="612"
     inkscape:document-units="mm"
     inkscape:current-layer="layer2"
     inkscape:document-rotation="0"
     showgrid="false"
     inkscape:window-width="1920"
     inkscape:window-height="991"
     inkscape:window-x="-9"
     inkscape:window-y="-9"
     inkscape:window-maximized="1"
     inkscape:snap-global="true"
     showguides="true"
     inkscape:guide-bbox="true"
     inkscape:showpageshadow="2"
     inkscape:pagecheckerboard="0"
     inkscape:deskcolor="#d1d1d1">
    <sodipodi:guide
       position="107.95,192.75555"
       orientation="0,-1"
       id="guide14678"
       inkscape:locked="false" />
    <sodipodi:guide
       position="220.83889,36.827774"
       orientation="1,0"
       id="guide14680"
       inkscape:locked="false" />
    <sodipodi:guide
       position="5.6444445,115.14444"
       orientation="0,-1"
       id="guide14682"
       inkscape:locked="false" />
  </sodipodi:namedview>
  <metadata
     id="metadata58">
    <rdf:RDF>
      <cc:Work
         rdf:about="">
        <dc:format>image/svg+xml</dc:format>
        <dc:type
           rdf:resource="http://purl.org/dc/dcmitype/StillImage" />
      </cc:Work>
    </rdf:RDF>
  </metadata>
  <g
     inkscape:label="Layer 1"
     inkscape:groupmode="layer"
     id="layer1"
     style="display:inline" />
  <g
     inkscape:groupmode="layer"
     id="layer3"
     inkscape:label="Layer 2"
     style="display:inline" />
  <g
     inkscape:groupmode="layer"
     id="layer2"
     inkscape:label="Layer 3">
    <path
       style="display:inline;fill:#fff30b;fill-opacity:1;stroke:#000000;stroke-width:0.609283;stroke-miterlimit:4;stroke-dasharray:none;stroke-opacity:1"
       d="m 69.087907,148.07646 c -0.002,-0.0593 0.7982,-3.54129 1.77827,-7.73786 0.98007,-4.19656 2.135123,-9.1535 2.566796,-11.01542 0.431674,-1.86192 1.554926,-6.68121 2.496113,-10.70954 0.941184,-4.02832 1.690117,-7.43395 1.664285,-7.56807 -0.03581,-0.18602 -1.231205,-0.4679 -5.039319,-1.18834 -2.745795,-0.51947 -5.017455,-0.96958 -5.048125,-1.00026 -0.0306,-0.0306 1.02902,-2.18477 2.35487,-4.78689 1.32586,-2.60213 4.748563,-9.337573 7.605996,-14.967665 8.120111,-15.999298 10.39496,-20.448522 10.434899,-20.408894 0.02034,0.02023 -0.363625,2.280979 -0.853302,5.023946 -0.489678,2.74296 -1.285403,7.199745 -1.768285,9.903967 -2.742001,15.355896 -3.102635,17.493756 -2.965341,17.578606 0.0819,0.0506 2.452274,0.40523 5.26749,0.78802 2.815212,0.38279 5.175874,0.72925 5.245916,0.7699 0.109732,0.0637 -0.988178,2.27111 -2.8697,5.76973 -0.286094,0.53198 -1.373189,2.59944 -2.415771,4.59436 -1.042585,1.99491 -2.567049,4.89661 -3.387708,6.44821 -1.282138,2.42412 -3.256516,6.18575 -7.699713,14.66968 -0.533997,1.01962 -1.566038,2.97827 -2.293421,4.35254 -0.727382,1.37428 -1.90983,3.62309 -2.62764,4.99737 -1.72832,3.30892 -2.44186,4.61757 -2.44631,4.48661 z"
       id="path8495" />
    <g
       id="g9747"
       transform="matrix(0,0.37499999,-0.37499999,0,277.91245,55.159633)"
       style="display:inline">
      <path
         id="path9657"
         style="fill:#ac9cff;fill-opacity:1;stroke:#000000;stroke-width:0.376292px;stroke-linecap:butt;stroke-linejoin:miter;stroke-opacity:1"
         d="m 109.28458,50.156378 c 0,0 26.8126,17.937599 -14.04826,107.368922 -26.591378,58.2 25.58792,92.31723 25.58792,92.31723 m 0,0 c 0,0 -34.923247,-54.15822 0,-116.9017 29.6017,-53.182735 -11.53966,-82.784452 -11.53966,-82.784452" />
      <path
         id="path9657-3"
         style="display:inline;fill:#ac9cff;fill-opacity:1;stroke:#000000;stroke-width:0.376292px;stroke-linecap:butt;stroke-linejoin:miter;stroke-opacity:1"
         d="m 149.48558,50.156378 c 0,0 26.81261,17.937604 -14.04826,107.368922 -26.59138,58.2 25.58792,92.31723 25.58792,92.31723 m 0,0 c 0,0 -34.92325,-54.15822 0,-116.9017 29.6017,-53.18274 -11.53966,-82.784452 -11.53966,-82.784452" />
      <path
         id="path9657-3-4"
         style="display:inline;fill:#ac9cff;fill-opacity:1;stroke:#000000;stroke-width:0.376292px;stroke-linecap:butt;stroke-linejoin:miter;stroke-opacity:1"
         d="m 189.68616,50.156378 c 0,0 26.8126,17.937604 -14.04826,107.368922 -26.59138,58.2 25.58792,92.31723 25.58792,92.31723 m 0,0 c 0,0 -34.92325,-54.15822 0,-116.9017 29.6017,-53.18274 -11.53966,-82.784452 -11.53966,-82.784452" />
    </g>
    <path
       style="fill:#00baa1;fill-opacity:1;stroke:#000000;stroke-width:0.33054;stroke-linecap:butt;stroke-linejoin:miter;stroke-miterlimit:4;stroke-dasharray:none;stroke-opacity:1"
       d="m 33.509197,208.09247 c 0,0 8.76317,-0.59668 19.72182,-25.52238 14.32735,-32.58793 28.40536,-24.97201 40.23152,-18.23045 0,0 -21.40389,-3.11617 -8.9412,24.34479 0,0 8.66612,15.56121 21.706583,19.10824 z"
       id="path9894"
       sodipodi:nodetypes="cscccc" />
    <g
       id="g2779"
       transform="matrix(0.41666666,0,0,0.41666666,87.5,158.05354)"
       style="display:inline">
      <path
         d="m 97.671691,223.23691 c -15.726016,-18.13465 -1.57058,-58.0025 -6.522851,-71.71475 4.175435,2.04217 7.768936,5.93189 9.61469,9.23671 2.81602,-14.7821 4.56389,-30.53326 3.20446,-44.53675 6.21403,1.5559 10.48723,12.44631 13.11044,17.59959 6.99148,-21.00526 8.83724,-39.966021 3.88413,-51.247232 6.30912,0.680733 10.00063,8.071612 14.27383,16.434516 4.17544,-5.543032 1.97687,-9.169555 1.97687,-21.033329 0.6797,-5.640616 3.1696,-19.806525 6.66533,-22.825665 3.3986,26.550645 16.41043,24.310088 23.69276,53.87429 2.6218,-5.83666 3.10734,-12.155042 2.4276,-20.131446 8.54641,4.959557 16.0245,23.531506 20.00127,50.082166 3.78703,-1.94492 5.5349,-9.43277 6.9915,-17.89088 8.25553,11.76854 11.1696,26.44983 6.99148,43.95422 -2.13627,4.95954 -3.49575,10.01532 -2.81601,15.65594 3.49569,-2.13941 4.66097,-7.29304 6.70064,-11.57251 1.45652,6.31839 2.91309,13.80746 1.65078,19.25204 -4.17548,31.50788 -16.87089,45.0148 -36.89712,52.62834 -23.9996,9.12413 -58.12846,1.63249 -74.949799,-17.76525 z"
         style="font-style:normal;font-variant:normal;font-weight:normal;font-stretch:normal;letter-spacing:normal;word-spacing:normal;text-anchor:start;display:inline;fill:#ff0000;fill-opacity:1;fill-rule:evenodd;stroke:none;stroke-width:0;stroke-linecap:butt;stroke-linejoin:miter;stroke-miterlimit:10.433;stroke-dasharray:none;stroke-dashoffset:0;stroke-opacity:1"
         id="path23326-4"
         sodipodi:nodetypes="accccccccccccccccaa" />
      <path
         d="m 119.15706,216.3746 c -9.26911,-10.68878 -0.92573,-34.18738 -3.84465,-42.26954 2.46105,1.20367 4.57911,3.49632 5.66701,5.44422 1.65979,-8.71275 2.69002,-17.99668 1.88874,-26.2505 3.66264,0.91706 6.18131,7.336 7.72747,10.37341 4.12085,-12.38076 5.20877,-23.55646 2.28935,-30.20574 3.71867,0.40123 5.89449,4.7575 8.41316,9.6867 2.46107,-3.26713 1.1652,-5.40464 1.1652,-12.3973 0.40062,-3.32465 1.8682,-11.67421 3.92863,-13.45372 2.00317,15.64927 9.6725,14.32866 13.96479,31.75416 1.54533,-3.4402 1.83151,-7.16433 1.43087,-11.86572 5.03735,2.92322 9.44504,13.86975 11.78899,29.51904 2.23211,-1.14636 3.26234,-5.5598 4.12087,-10.54511 4.86592,6.93652 6.5835,15.58986 4.12087,25.90716 -1.25915,2.92321 -2.06043,5.90315 -1.6598,9.2278 2.06041,-1.26099 2.74724,-4.29861 3.94945,-6.82097 0.85848,3.72413 1.71701,8.13828 0.97299,11.34738 -2.46109,18.57113 -9.94391,26.53227 -21.74761,31.01978 -14.14567,5.37788 -34.26164,0.96221 -44.17633,-10.47105 z"
         style="font-style:normal;font-variant:normal;font-weight:normal;font-stretch:normal;letter-spacing:normal;word-spacing:normal;text-anchor:start;display:inline;fill:#ff7f2a;fill-opacity:1;fill-rule:evenodd;stroke:none;stroke-width:0;stroke-linecap:butt;stroke-linejoin:miter;stroke-miterlimit:10.433;stroke-dasharray:none;stroke-dashoffset:0;stroke-opacity:1"
         id="path23326-4-0"
         sodipodi:nodetypes="accccccccccccccccaa" />
    </g>
    <g
       id="g4872"
       transform="matrix(0.39860715,0,0,0.39860715,90.419289,12.181578)">
      <circle
         style="display:inline;fill:#8a4607;fill-opacity:1;stroke:#8a4607;stroke-width:1;stroke-linecap:round;stroke-miterlimit:4;stroke-dasharray:none;stroke-opacity:1"
         id="path4155"
         cx="149.63889"
         cy="144.69998"
         r="74.410912" />
      <path
         style="display:inline;fill:#d7ae1c;fill-opacity:1;stroke:#d7ae1c;stroke-width:2;stroke-linecap:butt;stroke-linejoin:miter;stroke-miterlimit:4;stroke-dasharray:none;stroke-opacity:1"
         d="M 113.24167,79.727779 131.93889,104.06944 123.825,74.436112"
         id="path4171"
         sodipodi:nodetypes="ccc" />
      <path
         style="display:inline;fill:#d7ae1c;fill-opacity:1;stroke:#d7ae1c;stroke-width:2;stroke-linecap:butt;stroke-linejoin:miter;stroke-miterlimit:4;stroke-dasharray:none;stroke-opacity:1"
         d="m 179.91667,75.863357 -19.40278,45.508343 31.75,-38.452788"
         id="path4173"
         sodipodi:nodetypes="ccc" />
      <path
         style="display:inline;fill:#d7ae1c;fill-opacity:1;stroke:#d7ae1c;stroke-width:2;stroke-linecap:butt;stroke-linejoin:miter;stroke-miterlimit:4;stroke-dasharray:none;stroke-opacity:1"
         d="m 221.54444,123.11944 -12.34722,8.11389 15.16945,5.99722"
         id="path4175" />
      <path
         style="display:inline;fill:#d7ae1c;fill-opacity:1;stroke:#d7ae1c;stroke-width:2;stroke-linecap:butt;stroke-linejoin:miter;stroke-miterlimit:4;stroke-dasharray:none;stroke-opacity:1"
         d="m 219.42778,170.74444 -29.28056,-15.52222 27.51667,20.81389"
         id="path4177" />
      <path
         style="display:inline;fill:#d7ae1c;fill-opacity:1;stroke:#d7ae1c;stroke-width:2;stroke-linecap:butt;stroke-linejoin:miter;stroke-miterlimit:4;stroke-dasharray:none;stroke-opacity:1"
         d="m 176.38889,214.48889 -14.81667,-54.68056 -1.41111,58.91389"
         id="path4179" />
      <path
         style="display:inline;fill:#d7ae1c;fill-opacity:1;stroke:#d7ae1c;stroke-width:2;stroke-linecap:butt;stroke-linejoin:miter;stroke-miterlimit:4;stroke-dasharray:none;stroke-opacity:1"
         d="M 101.24722,201.78889 127,169.68611 111.47778,209.19722"
         id="path4181"
         sodipodi:nodetypes="ccc" />
      <path
         style="display:inline;fill:#d7ae1c;fill-opacity:1;stroke:#d7ae1c;stroke-width:2;stroke-linecap:butt;stroke-linejoin:miter;stroke-miterlimit:4;stroke-dasharray:none;stroke-opacity:1"
         d="m 74.289986,140.82925 45.540744,3.64579 -42.365744,-20.21166"
         id="path4183"
         sodipodi:nodetypes="ccc" />
      <path
         style="display:inline;fill:#d7ae1c;fill-opacity:1;stroke:#d7ae1c;stroke-width:2;stroke-linecap:butt;stroke-linejoin:miter;stroke-miterlimit:4;stroke-dasharray:none;stroke-opacity:1"
         d="m 85.724999,183.79722 c 11.454312,-5.99083 9.314008,-12.42429 10.583333,-24.69444"
         id="path4185" />
      <path
         style="display:inline;fill:#d7ae1c;fill-opacity:1;stroke:#d7ae1c;stroke-width:2;stroke-linecap:butt;stroke-linejoin:miter;stroke-miterlimit:4;stroke-dasharray:none;stroke-opacity:1"
         d="m 96.308332,169.33333 c 4.498578,-2.33394 8.222668,1.64454 10.583338,2.11667"
         id="path4187" />
      <path
         style="display:inline;fill:#d7ae1c;fill-opacity:1;stroke:#d7ae1c;stroke-width:2;stroke-linecap:butt;stroke-linejoin:miter;stroke-miterlimit:4;stroke-dasharray:none;stroke-opacity:1"
         d="m 95.249999,93.486112 c 7.225381,7.463698 10.668461,12.453208 17.638891,19.755558 2.40566,-0.29426 4.58108,-0.22906 7.05556,-0.35278"
         id="path4189" />
      <path
         style="display:inline;fill:#d7ae1c;fill-opacity:1;stroke:#d7ae1c;stroke-width:2;stroke-linecap:butt;stroke-linejoin:miter;stroke-miterlimit:4;stroke-dasharray:none;stroke-opacity:1"
         d="m 112.88889,113.24167 c 0.0368,5.85335 0.88921,10.12922 1.41111,15.52222"
         id="path4191" />
      <path
         style="display:inline;fill:#d7ae1c;fill-opacity:1;stroke:#d7ae1c;stroke-width:2;stroke-linecap:butt;stroke-linejoin:miter;stroke-miterlimit:4;stroke-dasharray:none;stroke-opacity:1"
         d="m 140.81886,70.366631 c 1.86938,12.011388 12.62551,23.265721 19.34225,27.000034"
         id="path4193"
         sodipodi:nodetypes="cc" />
      <path
         style="display:inline;fill:#d7ae1c;fill-opacity:1;stroke:#d7ae1c;stroke-width:2;stroke-linecap:butt;stroke-linejoin:miter;stroke-miterlimit:4;stroke-dasharray:none;stroke-opacity:1"
         d="m 213.04502,105.44442 c -7.94155,16.08749 -20.21508,9.51776 -27.23554,12.02505"
         id="path4195"
         sodipodi:nodetypes="cc" />
      <path
         style="display:inline;fill:#d7ae1c;fill-opacity:1;stroke:#d7ae1c;stroke-width:2;stroke-linecap:butt;stroke-linejoin:miter;stroke-miterlimit:4;stroke-dasharray:none;stroke-opacity:1"
         d="m 223.30833,158.75 c -6.48519,-4.71173 -10.74216,-9.65206 -15.875,-13.75833"
         id="path4197" />
      <path
         style="display:inline;fill:#d7ae1c;fill-opacity:1;stroke:#d7ae1c;stroke-width:2;stroke-linecap:butt;stroke-linejoin:miter;stroke-miterlimit:4;stroke-dasharray:none;stroke-opacity:1"
         d="m 215.28004,151.69444 c 2.66881,3.39977 0.90357,7.68089 2.03107,11.28889"
         id="path4199"
         sodipodi:nodetypes="cc" />
      <path
         style="display:inline;fill:#d7ae1c;fill-opacity:1;stroke:#d7ae1c;stroke-width:2;stroke-linecap:butt;stroke-linejoin:miter;stroke-miterlimit:4;stroke-dasharray:none;stroke-opacity:1"
         d="m 206.68497,192.71999 c -9.62505,-5.90974 -14.2244,-7.9454 -23.5933,-8.56999"
         id="path4201"
         sodipodi:nodetypes="cc" />
      <path
         style="display:inline;fill:#d7ae1c;fill-opacity:1;stroke:#d7ae1c;stroke-width:2;stroke-linecap:butt;stroke-linejoin:miter;stroke-miterlimit:4;stroke-dasharray:none;stroke-opacity:1"
         d="m 183.09167,184.15 c -3.03426,-4.39409 0.17848,-14.90616 -0.35278,-19.05"
         id="path4205" />
      <path
         style="display:inline;fill:#d7ae1c;fill-opacity:1;stroke:#d7ae1c;stroke-width:2;stroke-linecap:butt;stroke-linejoin:miter;stroke-miterlimit:4;stroke-dasharray:none;stroke-opacity:1"
         d="m 190.14722,185.56111 c 1.69724,4.5075 3.95643,9.66689 5.29167,13.40556"
         id="path4207" />
    </g>
    <g
       id="g14672"
       transform="matrix(0.79732612,0,0,0.79732612,-67.456547,118.03993)">
      <rect
         style="fill:#d9dbbf;fill-opacity:1;stroke:none;stroke-width:1.453;stroke-miterlimit:4;stroke-dasharray:none;stroke-opacity:1"
         id="rect129-3"
         width="35.225491"
         height="31.631052"
         x="259.83997"
         y="357.76962"
         transform="matrix(0.5547002,-0.83205029,0.5547002,0.83205029,0,0)" />
      <path
         sodipodi:type="star"
         style="fill:#d9dbbf;fill-opacity:1;stroke:none;stroke-width:1.396;stroke-miterlimit:4;stroke-dasharray:none;stroke-opacity:1"
         id="path156-4"
         sodipodi:sides="5"
         sodipodi:cx="337.39658"
         sodipodi:cy="60.489311"
         sodipodi:r1="11.414897"
         sodipodi:r2="5.7074485"
         sodipodi:arg1="0.5880026"
         sodipodi:arg2="1.2163211"
         inkscape:flatsided="false"
         inkscape:rounded="0"
         inkscape:randomized="0"
         inkscape:transform-center-x="0.95391865"
         inkscape:transform-center-y="0.14217322"
         d="m 346.89434,66.821157 -7.51672,-0.979236 -5.06802,5.636953 -1.39148,-7.451429 -6.92717,-3.078056 6.65674,-3.626 0.7868,-7.539297 5.50557,5.210438 7.41343,-1.581485 -3.2541,6.846227 z" />
      <path
         sodipodi:type="star"
         style="fill:#d9dbbf;fill-opacity:1;stroke:none;stroke-width:1.396;stroke-miterlimit:4;stroke-dasharray:none;stroke-opacity:1"
         id="path156-7-6"
         sodipodi:sides="5"
         sodipodi:cx="-385.09232"
         sodipodi:cy="101.50413"
         sodipodi:r1="11.414897"
         sodipodi:r2="5.7074485"
         sodipodi:arg1="0.5880026"
         sodipodi:arg2="1.2163211"
         inkscape:flatsided="false"
         inkscape:rounded="0"
         inkscape:randomized="0"
         inkscape:transform-center-x="-0.95392757"
         inkscape:transform-center-y="0.14217203"
         transform="scale(-1,1)"
         d="m -375.59455,107.83597 -7.51672,-0.97923 -5.06802,5.63695 -1.39148,-7.45143 -6.92717,-3.07805 6.65674,-3.626005 0.78679,-7.539296 5.50558,5.210437 7.41343,-1.581485 -3.2541,6.846229 z" />
    </g>
    <g
       transform="matrix(0.08036136,0,0,0.08036136,115.89471,106.85481)"
       id="layer1-4"
       style="fill:#a3b9cc;fill-opacity:1">
      <g
         id="g11476"
         style="fill:#a3b9cc;fill-opacity:1">
        <path
           d="M 474.50888,718.22841 H 303.49547 v -22.30134 c -2.4e-4,-37.95108 4.30352,-68.76211 12.9113,-92.43319 8.60728,-23.67032 23.63352,-45.28695 40.65324,-64.84996 17.01914,-19.56211 41.98734,-26.33264 101.45793,-75.63085 31.69095,-25.82203 55.2813,-77.1523 55.28175,-98.67174 2.21232,-56.92245 -13.93983,-79.3422 -34.56287,-99.96524 -22.67355,-19.67717 -60.67027,-30.06998 -90.99892,-30.06998 -27.77921,6.9e-4 -68.46735,8.08871 -87.7666,25.37047 -25.93817,17.28308 -65.23747,73.70611 -57.04687,130.54577 l -194.516943,1.70222 c 0,-157.21399 29.393699,-198.69465 99.004113,-263.03032 67.39739,-54.376643 126.53128,-73.268365 243.84757,-73.268365 89.71791,0 161.89728,17.80281 214.32552,53.405855 71.20714,48.12472 122.30105,111.18354 122.30105,230.11281 -6.9e-4,44.32081 -19.15253,90.78638 -43.0726,128.33299 -18.38947,30.90938 -60.37511,66.45236 -118.21237,104.41628 -42.83607,25.7686 -66.67196,53.11926 -77.03964,72.0946 -10.36863,18.97603 -15.55271,43.72267 -15.55225,74.23999 z"
           style="font-style:normal;font-weight:normal;font-size:1201.92px;font-family:'Bitstream Vera Sans';text-align:center;text-anchor:middle;fill:#a3b9cc;fill-opacity:1;stroke:none;stroke-width:1px;stroke-linecap:butt;stroke-linejoin:miter;stroke-opacity:1"
           id="path11472" />
        <path
           d="m 482.38298,869.80902 a 94.042557,73.021278 0 1 1 -188.08511,0 94.042557,73.021278 0 1 1 188.08511,0 z"
           transform="translate(1.106383,-5.5319149)"
           style="fill:#a3b9cc;fill-opacity:1;stroke:none;stroke-width:3;stroke-linecap:square;stroke-linejoin:miter;stroke-miterlimit:4;stroke-dasharray:none;stroke-dashoffset:0;stroke-opacity:1"
           id="path11474" />
      </g>
    </g>
  </g>
</svg>
