<?xml version="1.0" encoding="UTF-8" standalone="no"?>
<svg
   xmlns:dc="http://purl.org/dc/elements/1.1/"
   xmlns:cc="http://creativecommons.org/ns#"
   xmlns:rdf="http://www.w3.org/1999/02/22-rdf-syntax-ns#"
   xmlns:svg="http://www.w3.org/2000/svg"
   xmlns="http://www.w3.org/2000/svg"
   xmlns:sodipodi="http://sodipodi.sourceforge.net/DTD/sodipodi-0.dtd"
   xmlns:inkscape="http://www.inkscape.org/namespaces/inkscape"
   width="300mm"
   height="300mm"
   viewBox="0 0 300 300"
   version="1.1"
   id="svg61"
   inkscape:version="1.0.2 (e86c870879, 2021-01-15)"
   sodipodi:docname="enair.svg">
  <defs
     id="defs55" />
  <sodipodi:namedview
     id="base"
     pagecolor="#ffffff"
     bordercolor="#666666"
     borderopacity="1.0"
     inkscape:pageopacity="0.0"
     inkscape:pageshadow="2"
     inkscape:zoom="0.37499999"
     inkscape:cx="-129.14986"
     inkscape:cy="621.18872"
     inkscape:document-units="mm"
     inkscape:current-layer="layer1"
     inkscape:document-rotation="0"
     showgrid="false"
     inkscape:window-width="1920"
     inkscape:window-height="1002"
     inkscape:window-x="-8"
     inkscape:window-y="-8"
     inkscape:window-maximized="1"
     inkscape:snap-global="true"
     showguides="true"
     inkscape:guide-bbox="true" />
  <metadata
     id="metadata58">
    <rdf:RDF>
      <cc:Work
         rdf:about="">
        <dc:format>image/svg+xml</dc:format>
        <dc:type
           rdf:resource="http://purl.org/dc/dcmitype/StillImage" />
        <dc:title></dc:title>
      </cc:Work>
    </rdf:RDF>
  </metadata>
  <g
     inkscape:label="Layer 1"
     inkscape:groupmode="layer"
     id="layer1"
     style="display:inline">
    <g
       id="g9747"
       transform="matrix(0,0.53352329,-0.53352329,0,149.8785,-16.427766)"
       style="display:inline">
      <path
         id="path9657"
         style="fill:#ac9cff;fill-opacity:1;stroke:#000000;stroke-width:0.376292px;stroke-linecap:butt;stroke-linejoin:miter;stroke-opacity:1"
         d="m 109.28458,50.156378 c 0,0 26.8126,17.937599 -14.04826,107.368922 -26.591378,58.2 25.58792,92.31723 25.58792,92.31723 m 0,0 c 0,0 -34.923247,-54.15822 0,-116.9017 29.6017,-53.182735 -11.53966,-82.784452 -11.53966,-82.784452" />
      <path
         id="path9657-3"
         style="display:inline;fill:#ac9cff;fill-opacity:1;stroke:#000000;stroke-width:0.376292px;stroke-linecap:butt;stroke-linejoin:miter;stroke-opacity:1"
         d="m 149.48558,50.156378 c 0,0 26.81261,17.937604 -14.04826,107.368922 -26.59138,58.2 25.58792,92.31723 25.58792,92.31723 m 0,0 c 0,0 -34.92325,-54.15822 0,-116.9017 29.6017,-53.18274 -11.53966,-82.784452 -11.53966,-82.784452" />
      <path
         id="path9657-3-4"
         style="display:inline;fill:#ac9cff;fill-opacity:1;stroke:#000000;stroke-width:0.376292px;stroke-linecap:butt;stroke-linejoin:miter;stroke-opacity:1"
         d="m 189.68616,50.156378 c 0,0 26.8126,17.937604 -14.04826,107.368922 -26.59138,58.2 25.58792,92.31723 25.58792,92.31723 m 0,0 c 0,0 -34.92325,-54.15822 0,-116.9017 29.6017,-53.18274 -11.53966,-82.784452 -11.53966,-82.784452" />
    </g>
  </g>
  <g
     inkscape:groupmode="layer"
     id="layer3"
     inkscape:label="Layer 2"
     style="display:inline" />
  <g
     inkscape:groupmode="layer"
     id="layer2"
     inkscape:label="Layer 3">
    <g
       id="g4782"
       transform="matrix(0.99122895,0,0,0.99122895,237.42088,-39.097286)">
      <path
         id="rect1225"
         style="fill:#b3b3b3;stroke:none;stroke-width:2.92813"
         d="m 1.28289,102.77413 v 0 0 l -16.79982,52.59076 -34.32992,34.32991 -69.02535,69.02535 -34.69529,-34.69529 69.02535,-69.02535 34.32992,-34.32991 z"
         sodipodi:nodetypes="cccccccccc" />
      <path
         style="fill:#999999;stroke:none;stroke-width:0.264583px;stroke-linecap:butt;stroke-linejoin:miter;stroke-opacity:1"
         d="m 1.28289,102.77413 -137.5345,137.5345 17.37941,18.41152 103.35527,-103.35526 16.79982,-52.59076"
         id="path1155" />
      <rect
         style="fill:#000000;stroke:none;stroke-width:2.92813"
         id="rect1816"
         width="97.100113"
         height="3.6154296"
         x="25.02936"
         y="265.96539"
         transform="rotate(45)" />
      <rect
         style="fill:#000000;stroke:none;stroke-width:2.92813"
         id="rect1824"
         width="19.626614"
         height="46.484093"
         x="64.282593"
         y="269.06433"
         transform="rotate(45)" />
    </g>
  </g>
</svg>
