<?xml version="1.0" encoding="UTF-8" standalone="no"?>
<svg
   xmlns:dc="http://purl.org/dc/elements/1.1/"
   xmlns:cc="http://creativecommons.org/ns#"
   xmlns:rdf="http://www.w3.org/1999/02/22-rdf-syntax-ns#"
   xmlns:svg="http://www.w3.org/2000/svg"
   xmlns="http://www.w3.org/2000/svg"
   xmlns:sodipodi="http://sodipodi.sourceforge.net/DTD/sodipodi-0.dtd"
   xmlns:inkscape="http://www.inkscape.org/namespaces/inkscape"
   width="300mm"
   height="300mm"
   viewBox="0 0 300 300"
   version="1.1"
   id="svg61"
   inkscape:version="1.0.2 (e86c870879, 2021-01-15)"
   sodipodi:docname="enlightning.svg">
  <defs
     id="defs55" />
  <sodipodi:namedview
     id="base"
     pagecolor="#ffffff"
     bordercolor="#666666"
     borderopacity="1.0"
     inkscape:pageopacity="0.0"
     inkscape:pageshadow="2"
     inkscape:zoom="0.37499999"
     inkscape:cx="-129.14986"
     inkscape:cy="621.18872"
     inkscape:document-units="mm"
     inkscape:current-layer="layer1"
     inkscape:document-rotation="0"
     showgrid="false"
     inkscape:window-width="1920"
     inkscape:window-height="1002"
     inkscape:window-x="-8"
     inkscape:window-y="-8"
     inkscape:window-maximized="1"
     inkscape:snap-global="true"
     showguides="true"
     inkscape:guide-bbox="true" />
  <metadata
     id="metadata58">
    <rdf:RDF>
      <cc:Work
         rdf:about="">
        <dc:format>image/svg+xml</dc:format>
        <dc:type
           rdf:resource="http://purl.org/dc/dcmitype/StillImage" />
        <dc:title></dc:title>
      </cc:Work>
    </rdf:RDF>
  </metadata>
  <g
     inkscape:label="Layer 1"
     inkscape:groupmode="layer"
     id="layer1"
     style="display:inline">
    <path
       style="display:inline;fill:#fff30b;fill-opacity:1;stroke:#000000;stroke-width:0.938078;stroke-miterlimit:4;stroke-dasharray:none;stroke-opacity:1"
       d="m 32.55301,117.92656 c -0.0038,-0.074 1.517413,-4.4158 3.38057,-9.64869 1.863156,-5.23288 4.058963,-11.413917 4.879593,-13.735627 0.82063,-2.32171 2.955982,-8.3311 4.74522,-13.354212 1.789232,-5.023096 3.212988,-9.269731 3.16388,-9.436972 -0.06808,-0.231956 -2.340576,-0.583445 -9.579969,-1.481795 -5.219877,-0.647751 -9.538402,-1.209013 -9.596708,-1.24727 -0.05818,-0.03816 1.956212,-2.724289 4.476713,-5.968991 2.520517,-3.244715 9.027228,-11.643446 14.459334,-18.663864 15.43669,-19.950255 19.761279,-25.498195 19.837205,-25.448781 0.03866,0.02523 -0.691268,2.844257 -1.622166,6.264587 -0.930899,3.420322 -2.443607,8.977691 -3.361589,12.349708 -5.212664,19.147968 -5.898246,21.813763 -5.637244,21.919566 0.155696,0.0631 4.661881,0.5053 10.013733,0.982618 5.351842,0.477318 9.839564,0.909335 9.972717,0.960024 0.208605,0.07943 -1.878571,2.83195 -5.455426,7.194539 -0.543878,0.66335 -2.610493,3.24136 -4.592488,5.728917 -1.982,2.487544 -4.880074,6.105806 -6.440182,8.040567 -2.437402,3.022749 -6.190781,7.713289 -14.637495,18.292286 -1.015151,1.27141 -2.977107,3.71374 -4.359894,5.42738 -1.382785,1.71365 -3.630673,4.5178 -4.995261,6.23145 -3.285613,4.12604 -4.642083,5.75786 -4.650543,5.59456 z"
       id="path8495" />
  </g>
  <g
     inkscape:groupmode="layer"
     id="layer3"
     inkscape:label="Layer 2"
     style="display:inline" />
  <g
     inkscape:groupmode="layer"
     id="layer2"
     inkscape:label="Layer 3">
    <g
       id="g4782"
       transform="matrix(0.99122895,0,0,0.99122895,237.42088,-39.097286)">
      <path
         id="rect1225"
         style="fill:#b3b3b3;stroke:none;stroke-width:2.92813"
         d="m 1.28289,102.77413 v 0 0 l -16.79982,52.59076 -34.32992,34.32991 -69.02535,69.02535 -34.69529,-34.69529 69.02535,-69.02535 34.32992,-34.32991 z"
         sodipodi:nodetypes="cccccccccc" />
      <path
         style="fill:#999999;stroke:none;stroke-width:0.264583px;stroke-linecap:butt;stroke-linejoin:miter;stroke-opacity:1"
         d="m 1.28289,102.77413 -137.5345,137.5345 17.37941,18.41152 103.35527,-103.35526 16.79982,-52.59076"
         id="path1155" />
      <rect
         style="fill:#000000;stroke:none;stroke-width:2.92813"
         id="rect1816"
         width="97.100113"
         height="3.6154296"
         x="25.02936"
         y="265.96539"
         transform="rotate(45)" />
      <rect
         style="fill:#000000;stroke:none;stroke-width:2.92813"
         id="rect1824"
         width="19.626614"
         height="46.484093"
         x="64.282593"
         y="269.06433"
         transform="rotate(45)" />
    </g>
  </g>
</svg>
