<?xml version="1.0" encoding="UTF-8" standalone="no"?>
<svg
   xmlns:dc="http://purl.org/dc/elements/1.1/"
   xmlns:cc="http://creativecommons.org/ns#"
   xmlns:rdf="http://www.w3.org/1999/02/22-rdf-syntax-ns#"
   xmlns:svg="http://www.w3.org/2000/svg"
   xmlns="http://www.w3.org/2000/svg"
   xmlns:sodipodi="http://sodipodi.sourceforge.net/DTD/sodipodi-0.dtd"
   xmlns:inkscape="http://www.inkscape.org/namespaces/inkscape"
   width="300mm"
   height="300mm"
   viewBox="0 0 300 300"
   version="1.1"
   id="svg61"
   inkscape:version="1.0.2 (e86c870879, 2021-01-15)"
   sodipodi:docname="explodingPotion.svg">
  <defs
     id="defs55" />
  <sodipodi:namedview
     id="base"
     pagecolor="#ffffff"
     bordercolor="#666666"
     borderopacity="1.0"
     inkscape:pageopacity="0.0"
     inkscape:pageshadow="2"
     inkscape:zoom="0.74999999"
     inkscape:cx="396.46151"
     inkscape:cy="619.22274"
     inkscape:document-units="mm"
     inkscape:current-layer="layer1"
     inkscape:document-rotation="0"
     showgrid="false"
     inkscape:window-width="1920"
     inkscape:window-height="1002"
     inkscape:window-x="-8"
     inkscape:window-y="-8"
     inkscape:window-maximized="1"
     inkscape:snap-global="true" />
  <metadata
     id="metadata58">
    <rdf:RDF>
      <cc:Work
         rdf:about="">
        <dc:format>image/svg+xml</dc:format>
        <dc:type
           rdf:resource="http://purl.org/dc/dcmitype/StillImage" />
        <dc:title />
      </cc:Work>
    </rdf:RDF>
  </metadata>
  <g
     inkscape:label="Layer 1"
     inkscape:groupmode="layer"
     id="layer1"
     style="display:inline" />
  <g
     inkscape:groupmode="layer"
     id="layer3"
     inkscape:label="Layer 2"
     style="display:inline" />
  <g
     inkscape:groupmode="layer"
     id="layer2"
     inkscape:label="Layer 3">
    <circle
       style="fill:none;stroke:#000000;stroke-width:1.22;stroke-linecap:round;stroke-miterlimit:4;stroke-dasharray:none;stroke-opacity:1"
       id="path863"
       sodipodi:type="arc"
       sodipodi:cx="-41.18396"
       sodipodi:cy="227.04527"
       sodipodi:rx="86.12925"
       sodipodi:ry="85.47509"
       sodipodi:start="0"
       sodipodi:end="5.7246799"
       sodipodi:open="true"
       sodipodi:arc-type="arc"
       d="M 44.94529,227.04527 A 86.12925,85.47509 0 0 1 -29.197084,311.68853 86.12925,85.47509 0 0 1 -123.97671,250.6054 86.12925,85.47509 0 0 1 -76.215885,148.95989 86.12925,85.47509 0 0 1 31.857784,181.75037"
       transform="rotate(-45)" />
    <path
       style="fill:none;stroke:#000000;stroke-width:1;stroke-linecap:butt;stroke-linejoin:miter;stroke-miterlimit:4;stroke-dasharray:none;stroke-opacity:1"
       d="m 192.34337,128.46659 45.65294,-79.073203 c 0,0 -43.57675,7.48647 -43.57675,-25.159049 l -43.37579,81.755722"
       id="path871" />
    <path
       style="fill:none;stroke:#000000;stroke-width:0.996713;stroke-linecap:butt;stroke-linejoin:miter;stroke-miterlimit:4;stroke-dasharray:none;stroke-opacity:1"
       d="m 58.988265,146.10237 c 0,0 56.063835,64.21712 153.825145,17.99491 z"
       id="path873" />
    <path
       style="fill:#ececec;stroke:#000000;stroke-width:1.33333;stroke-linecap:round;stroke-miterlimit:4;stroke-dasharray:none;stroke-opacity:1"
       d="m 194.22937,161.54162 c -8.63424,-1.03099 -42.44799,-4.9928 -75.14167,-8.80401 -32.69368,-3.81121 -59.653909,-6.99843 -59.911616,-7.08271 -0.317968,-0.10399 0.295172,-1.25887 1.907728,-3.59331 8.507375,-12.31582 19.127893,-21.62943 32.25111,-28.28246 16.645698,-8.43879 34.805268,-11.19684 53.348748,-8.10254 2.49351,0.41609 4.58671,0.69641 4.65156,0.62295 0.0649,-0.0735 9.28467,-17.437315 20.48849,-38.586345 11.20381,-21.149027 20.78506,-39.167155 21.29165,-40.04028 l 0.92108,-1.587499 0.25367,2.225018 c 1.45275,12.74222 10.99502,20.280358 27.80869,21.968116 3.83643,0.385101 12.08439,0.22484 14.08092,-0.273598 0.71843,-0.179355 0.8129,-0.111373 0.6035,0.434314 -0.13654,0.355825 -10.06162,17.643649 -22.05573,38.417389 -11.99411,20.773725 -22.08024,38.301175 -22.41361,38.949885 l -0.60614,1.17945 2.25502,2.34832 c 6.11371,6.36666 11.8079,14.96844 15.49505,23.40719 1.39018,3.1817 3.11599,7.86725 3.11599,8.45987 0,0.4757 -1.90224,0.30359 -18.34444,-1.65975 z"
       id="path881" />
    <path
       style="fill:#ff7f2a;stroke:#000000;stroke-width:1.33333;stroke-linecap:round;stroke-miterlimit:4;stroke-dasharray:none;stroke-opacity:1"
       d="m 121.55714,274.42414 c -18.75164,-2.07076 -36.022352,-10.18262 -49.512784,-23.2556 -7.321722,-7.09516 -12.889084,-14.75059 -17.231214,-23.69388 -4.223655,-8.69927 -6.738993,-17.2091 -8.067397,-27.29342 -0.780897,-5.92802 -0.534041,-17.37727 0.505817,-23.45972 1.670952,-9.77393 4.901573,-19.2316 9.304755,-27.23973 l 1.787438,-3.25084 3.208083,3.0534 c 7.526184,7.16332 17.20832,13.87596 27.323825,18.94365 12.841387,6.43332 25.953277,10.32335 41.324537,12.26013 5.77734,0.72795 23.61782,0.61954 29.80972,-0.18114 16.65809,-2.15406 32.84947,-6.77834 48.83593,-13.9476 2.21823,-0.99479 4.07739,-1.8087 4.13147,-1.8087 0.23259,0 1.27132,4.02396 2.04896,7.9375 2.23168,11.23106 2.10758,23.59932 -0.35041,34.925 -4.81908,22.20492 -19.07018,42.37909 -38.43817,54.41398 -16.42895,10.20863 -35.83155,14.67848 -54.68056,12.59697 z"
       id="path883" />
    <path
       style="fill:#ff9955;stroke:#000000;stroke-width:1.33333;stroke-linecap:round;stroke-miterlimit:4;stroke-dasharray:none;stroke-opacity:1"
       d="m 137.43214,180.21474 c -28.51745,-1.74083 -54.24129,-12.39127 -74.637001,-30.90196 -1.431099,-1.29883 -2.526974,-2.42549 -2.435275,-2.5037 0.0917,-0.0782 10.644224,1.09235 23.450058,2.60121 43.057178,5.07326 126.289548,14.78963 126.823608,14.80513 1.651,0.0479 -11.19207,5.38506 -19.864,8.25486 -10.43469,3.45314 -22.89681,6.18724 -32.87627,7.2128 -3.84618,0.39527 -17.06769,0.73881 -20.46112,0.53166 z"
       id="path885" />
  </g>
</svg>
