<?xml version="1.0" encoding="UTF-8" standalone="no"?>
<svg
   xmlns:dc="http://purl.org/dc/elements/1.1/"
   xmlns:cc="http://creativecommons.org/ns#"
   xmlns:rdf="http://www.w3.org/1999/02/22-rdf-syntax-ns#"
   xmlns:svg="http://www.w3.org/2000/svg"
   xmlns="http://www.w3.org/2000/svg"
   xmlns:sodipodi="http://sodipodi.sourceforge.net/DTD/sodipodi-0.dtd"
   xmlns:inkscape="http://www.inkscape.org/namespaces/inkscape"
   width="300mm"
   height="300mm"
   viewBox="0 0 300 300"
   version="1.1"
   id="svg61"
   inkscape:version="1.0.2 (e86c870879, 2021-01-15)"
   sodipodi:docname="fire.svg">
  <defs
     id="defs55" />
  <sodipodi:namedview
     id="base"
     pagecolor="#ffffff"
     bordercolor="#666666"
     borderopacity="1.0"
     inkscape:pageopacity="0.0"
     inkscape:pageshadow="2"
     inkscape:zoom="0.26516504"
     inkscape:cx="-311.84491"
     inkscape:cy="109.96109"
     inkscape:document-units="mm"
     inkscape:current-layer="layer3"
     inkscape:document-rotation="0"
     showgrid="false"
     inkscape:window-width="1920"
     inkscape:window-height="1002"
     inkscape:window-x="-8"
     inkscape:window-y="-8"
     inkscape:window-maximized="1"
     inkscape:snap-global="true" />
  <metadata
     id="metadata58">
    <rdf:RDF>
      <cc:Work
         rdf:about="">
        <dc:format>image/svg+xml</dc:format>
        <dc:type
           rdf:resource="http://purl.org/dc/dcmitype/StillImage" />
        <dc:title />
      </cc:Work>
    </rdf:RDF>
  </metadata>
  <g
     inkscape:label="Layer 1"
     inkscape:groupmode="layer"
     id="layer1"
     sodipodi:insensitive="true"
     style="display:none">
    <circle
       style="opacity:1;fill:#ffffff;fill-opacity:1;stroke:#000000;stroke-width:0.265;stroke-miterlimit:4;stroke-dasharray:none;stroke-opacity:1"
       id="path63"
       cx="150"
       cy="150"
       r="150" />
  </g>
  <g
     inkscape:groupmode="layer"
     id="layer3"
     inkscape:label="Layer 2"
     style="display:inline">
    <g
       id="g2779"
       transform="matrix(1.4628397,0,0,1.4628397,-69.425952,-69.429083)">
      <path
         d="m 97.671691,223.23691 c -15.726016,-18.13465 -1.57058,-58.0025 -6.522851,-71.71475 4.175435,2.04217 7.768936,5.93189 9.61469,9.23671 2.81602,-14.7821 4.56389,-30.53326 3.20446,-44.53675 6.21403,1.5559 10.48723,12.44631 13.11044,17.59959 6.99148,-21.00526 8.83724,-39.966021 3.88413,-51.247232 6.30912,0.680733 10.00063,8.071612 14.27383,16.434516 4.17544,-5.543032 1.97687,-9.169555 1.97687,-21.033329 0.6797,-5.640616 3.1696,-19.806525 6.66533,-22.825665 3.3986,26.550645 16.41043,24.310088 23.69276,53.87429 2.6218,-5.83666 3.10734,-12.155042 2.4276,-20.131446 8.54641,4.959557 16.0245,23.531506 20.00127,50.082166 3.78703,-1.94492 5.5349,-9.43277 6.9915,-17.89088 8.25553,11.76854 11.1696,26.44983 6.99148,43.95422 -2.13627,4.95954 -3.49575,10.01532 -2.81601,15.65594 3.49569,-2.13941 4.66097,-7.29304 6.70064,-11.57251 1.45652,6.31839 2.91309,13.80746 1.65078,19.25204 -4.17548,31.50788 -16.87089,45.0148 -36.89712,52.62834 -23.9996,9.12413 -58.12846,1.63249 -74.949799,-17.76525 z"
         style="font-style:normal;font-variant:normal;font-weight:normal;font-stretch:normal;letter-spacing:normal;word-spacing:normal;text-anchor:start;display:inline;fill:#ff0000;fill-opacity:1;fill-rule:evenodd;stroke:none;stroke-width:0;stroke-linecap:butt;stroke-linejoin:miter;stroke-miterlimit:10.433;stroke-dasharray:none;stroke-dashoffset:0;stroke-opacity:1"
         id="path23326-4"
         sodipodi:nodetypes="accccccccccccccccaa" />
      <path
         d="m 119.15706,216.3746 c -9.26911,-10.68878 -0.92573,-34.18738 -3.84465,-42.26954 2.46105,1.20367 4.57911,3.49632 5.66701,5.44422 1.65979,-8.71275 2.69002,-17.99668 1.88874,-26.2505 3.66264,0.91706 6.18131,7.336 7.72747,10.37341 4.12085,-12.38076 5.20877,-23.55646 2.28935,-30.20574 3.71867,0.40123 5.89449,4.7575 8.41316,9.6867 2.46107,-3.26713 1.1652,-5.40464 1.1652,-12.3973 0.40062,-3.32465 1.8682,-11.67421 3.92863,-13.45372 2.00317,15.64927 9.6725,14.32866 13.96479,31.75416 1.54533,-3.4402 1.83151,-7.16433 1.43087,-11.86572 5.03735,2.92322 9.44504,13.86975 11.78899,29.51904 2.23211,-1.14636 3.26234,-5.5598 4.12087,-10.54511 4.86592,6.93652 6.5835,15.58986 4.12087,25.90716 -1.25915,2.92321 -2.06043,5.90315 -1.6598,9.2278 2.06041,-1.26099 2.74724,-4.29861 3.94945,-6.82097 0.85848,3.72413 1.71701,8.13828 0.97299,11.34738 -2.46109,18.57113 -9.94391,26.53227 -21.74761,31.01978 -14.14567,5.37788 -34.26164,0.96221 -44.17633,-10.47105 z"
         style="font-style:normal;font-variant:normal;font-weight:normal;font-stretch:normal;letter-spacing:normal;word-spacing:normal;text-anchor:start;display:inline;fill:#ff7f2a;fill-opacity:1;fill-rule:evenodd;stroke:none;stroke-width:0;stroke-linecap:butt;stroke-linejoin:miter;stroke-miterlimit:10.433;stroke-dasharray:none;stroke-dashoffset:0;stroke-opacity:1"
         id="path23326-4-0"
         sodipodi:nodetypes="accccccccccccccccaa" />
    </g>
  </g>
  <g
     inkscape:groupmode="layer"
     id="layer2"
     inkscape:label="Layer 3" />
</svg>
