<?xml version="1.0" encoding="UTF-8" standalone="no"?>
<svg
   xmlns:dc="http://purl.org/dc/elements/1.1/"
   xmlns:cc="http://creativecommons.org/ns#"
   xmlns:rdf="http://www.w3.org/1999/02/22-rdf-syntax-ns#"
   xmlns:svg="http://www.w3.org/2000/svg"
   xmlns="http://www.w3.org/2000/svg"
   xmlns:sodipodi="http://sodipodi.sourceforge.net/DTD/sodipodi-0.dtd"
   xmlns:inkscape="http://www.inkscape.org/namespaces/inkscape"
   fill="none"
   viewBox="0 0 24 24"
   stroke-width="1.5"
   stroke="currentColor"
   class="w-6 h-6"
   version="1.1"
   id="svg2166"
   sodipodi:docname="gameTextDisabled.svg"
   inkscape:version="1.0.2 (e86c870879, 2021-01-15)">
  <metadata
     id="metadata2172">
    <rdf:RDF>
      <cc:Work
         rdf:about="">
        <dc:format>image/svg+xml</dc:format>
        <dc:type
           rdf:resource="http://purl.org/dc/dcmitype/StillImage" />
        <dc:title></dc:title>
      </cc:Work>
    </rdf:RDF>
  </metadata>
  <defs
     id="defs2170" />
  <sodipodi:namedview
     pagecolor="#ffffff"
     bordercolor="#666666"
     borderopacity="1"
     objecttolerance="10"
     gridtolerance="10"
     guidetolerance="10"
     inkscape:pageopacity="0"
     inkscape:pageshadow="2"
     inkscape:window-width="1920"
     inkscape:window-height="1002"
     id="namedview2168"
     showgrid="false"
     inkscape:zoom="35"
     inkscape:cx="12"
     inkscape:cy="12"
     inkscape:window-x="-8"
     inkscape:window-y="-8"
     inkscape:window-maximized="1"
     inkscape:current-layer="svg2166" />
  <path
     stroke-linecap="round"
     stroke-linejoin="round"
     d="M8.625 9.75a.375.375 0 11-.75 0 .375.375 0 01.75 0zm0 0H8.25m4.125 0a.375.375 0 11-.75 0 .375.375 0 01.75 0zm0 0H12m4.125 0a.375.375 0 11-.75 0 .375.375 0 01.75 0zm0 0h-.375m-13.5 3.01c0 1.6 1.123 2.994 2.707 3.227 1.087.16 2.185.283 3.293.369V21l4.184-4.183a1.14 1.14 0 01.778-.332 48.294 48.294 0 005.83-.498c1.585-.233 2.708-1.626 2.708-3.228V6.741c0-1.602-1.123-2.995-2.707-3.228A48.394 48.394 0 0012 3c-2.392 0-4.744.175-7.043.513C3.373 3.746 2.25 5.14 2.25 6.741v6.018z"
     id="path2164"
     style="fill:#cccccc;fill-opacity:1;stroke:#cccccc;stroke-opacity:1" />
</svg>
