<?xml version="1.0" encoding="UTF-8" standalone="no"?>
<svg
   xmlns:osb="http://www.openswatchbook.org/uri/2009/osb"
   xmlns:dc="http://purl.org/dc/elements/1.1/"
   xmlns:cc="http://creativecommons.org/ns#"
   xmlns:rdf="http://www.w3.org/1999/02/22-rdf-syntax-ns#"
   xmlns:svg="http://www.w3.org/2000/svg"
   xmlns="http://www.w3.org/2000/svg"
   xmlns:sodipodi="http://sodipodi.sourceforge.net/DTD/sodipodi-0.dtd"
   xmlns:inkscape="http://www.inkscape.org/namespaces/inkscape"
   width="300mm"
   height="300mm"
   viewBox="0 0 300 300"
   version="1.1"
   id="svg61"
   inkscape:version="1.0.2 (e86c870879, 2021-01-15)"
   sodipodi:docname="heavenlyShield.svg">
  <defs
     id="defs55">
    <linearGradient
       id="linearGradient1699"
       osb:paint="solid">
      <stop
         style="stop-color:#808000;stop-opacity:1;"
         offset="0"
         id="stop1697" />
    </linearGradient>
  </defs>
  <sodipodi:namedview
     id="base"
     pagecolor="#ffffff"
     bordercolor="#666666"
     borderopacity="1.0"
     inkscape:pageopacity="0.0"
     inkscape:pageshadow="2"
     inkscape:zoom="0.6363961"
     inkscape:cx="705.65798"
     inkscape:cy="556.34885"
     inkscape:document-units="mm"
     inkscape:current-layer="layer3"
     inkscape:document-rotation="0"
     showgrid="false"
     inkscape:window-width="1920"
     inkscape:window-height="1002"
     inkscape:window-x="-8"
     inkscape:window-y="-8"
     inkscape:window-maximized="1"
     inkscape:snap-global="true"
     showguides="true"
     inkscape:guide-bbox="true" />
  <metadata
     id="metadata58">
    <rdf:RDF>
      <cc:Work
         rdf:about="">
        <dc:format>image/svg+xml</dc:format>
        <dc:type
           rdf:resource="http://purl.org/dc/dcmitype/StillImage" />
        <dc:title></dc:title>
      </cc:Work>
    </rdf:RDF>
  </metadata>
  <g
     inkscape:label="Layer 1"
     inkscape:groupmode="layer"
     id="layer1"
     sodipodi:insensitive="true"
     style="display:none">
    <circle
       style="opacity:1;fill:#ffffff;fill-opacity:1;stroke:#000000;stroke-width:0.265;stroke-miterlimit:4;stroke-dasharray:none;stroke-opacity:1"
       id="path63"
       cx="150"
       cy="150"
       r="150" />
  </g>
  <g
     inkscape:groupmode="layer"
     id="layer3"
     inkscape:label="Layer 2">
    <path
       id="path1067-7-0"
       style="fill:none;fill-opacity:1;fill-rule:evenodd;stroke:#000000;stroke-width:0.870171;stroke-linecap:butt;stroke-linejoin:miter;stroke-miterlimit:4;stroke-dasharray:none;stroke-opacity:1"
       d="m 55.329871,68.238633 c 0,0 -4.508119,130.496857 94.670799,171.071437 M 244.67146,68.238631 c 0,0 4.50812,130.496859 -94.6708,171.071439 m 94.6708,-171.071437 c 0,0 -40.50963,25.045873 -94.6708,-7.57745 m -94.670789,7.57745 c 0,0 40.509629,25.045873 94.670789,-7.57745"
       sodipodi:nodetypes="cccccccc" />
    <path
       style="fill:#ffcc00;fill-opacity:1;fill-rule:nonzero;stroke-width:1.36734;stroke-miterlimit:4;stroke-dasharray:none"
       d="M 143.90321,235.88751 C 119.35822,224.33852 99.489554,205.98658 84.484747,181.0049 80.719583,174.73624 73.986784,160.74058 71.207581,153.40528 62.862178,131.3788 57.744946,106.85657 56.252056,81.737042 55.880279,75.481496 55.773166,69.542825 56.032113,69.542825 c 0.08014,0 1.474773,0.599945 3.099183,1.333214 6.418434,2.897321 14.197931,5.114442 22.079861,6.292664 6.841485,1.022692 19.744243,0.931891 26.741533,-0.188189 12.92138,-2.068374 23.22178,-5.554633 35.70631,-12.085106 l 6.48545,-3.392446 3.43193,1.984395 c 11.1636,6.454949 25.21871,11.375145 38.66963,13.536872 5.78316,0.929424 19.64829,1.123624 25.15211,0.352289 8.31574,-1.16541 16.46048,-3.391338 22.8169,-6.235773 1.57412,-0.704403 3.06128,-1.369893 3.30478,-1.478862 0.34168,-0.152901 0.44274,0.937434 0.44274,4.77629 0,8.65441 -1.11816,20.769373 -3.01154,32.629017 -3.43582,21.52122 -9.09405,40.66306 -17.14562,58.00392 -7.94623,17.11399 -16.69033,30.14284 -28.53028,42.51054 -12.16755,12.70992 -25.19373,21.96896 -40.97306,29.12373 -2.07288,0.93989 -4.0652,1.70284 -4.42741,1.69544 -0.3622,-0.007 -3.04934,-1.13839 -5.97142,-2.51331 z"
       id="path1758" />
    <path
       style="fill:#ffcc00;fill-opacity:1;fill-rule:nonzero;stroke-width:1.36734;stroke-miterlimit:4;stroke-dasharray:none"
       d="M 146.02836,236.61179 C 121.24397,225.63888 100.06583,206.4027 84.751303,180.95364 81.884548,176.18979 75.426148,163.14428 72.940595,157.09686 64.273299,136.00908 58.514347,110.48547 56.608171,84.711734 c -0.530677,-7.17535 -0.490958,-14.933218 0.07517,-14.681961 12.772888,5.668818 23.51206,8.007549 36.784568,8.010789 7.239171,0.0019 13.404861,-0.586652 19.747441,-1.88458 10.53881,-2.156636 18.38043,-4.995523 30.07811,-10.889117 l 6.8283,-3.44027 5.39134,2.900244 c 9.24347,4.972484 19.25849,8.713997 29.65352,11.078271 7.70415,1.752255 10.40501,2.012812 21.07444,2.033097 8.02296,0.01526 10.64994,-0.109879 13.75237,-0.655082 7.46193,-1.311328 15.82691,-3.800233 21.37408,-6.359628 1.09754,-0.506398 2.06839,-0.844722 2.15742,-0.751833 0.35453,0.369873 0.0516,12.637593 -0.44862,18.166894 -3.14812,34.799422 -12.38887,66.063252 -26.94566,91.164102 -14.64467,25.25237 -35.63798,44.88052 -60.18509,56.27133 -2.80993,1.30392 -5.4736,2.3659 -5.91923,2.35995 -0.44563,-0.006 -2.24472,-0.64592 -3.99797,-1.42215 z"
       id="path1760" />
    <path
       style="fill:#ffcc00;fill-opacity:1;fill-rule:nonzero;stroke-width:1.36734;stroke-miterlimit:4;stroke-dasharray:none"
       d="M 144.96578,236.7973 C 100.95409,216.59505 71.888786,175.09238 60.181601,115.73305 58.892677,109.19778 57.533677,100.00107 56.796133,92.822698 55.8314,83.433133 55.176612,68.80378 55.721081,68.80378 c 0.103881,0 1.000747,0.429214 1.993037,0.953809 3.03993,1.60712 8.036948,3.465341 12.939071,4.811602 12.445268,3.417825 26.498637,3.980345 39.919781,1.59789 11.70521,-2.077851 25.38787,-7.087199 35.798,-13.105972 l 3.53034,-2.041121 6.20995,3.302162 c 15.96958,8.491878 30.66033,12.647552 46.76498,13.228732 13.3389,0.481374 26.32156,-1.900316 37.45583,-6.87133 l 3.98466,-1.778995 v 5.095857 c 0,8.789833 -1.19279,21.875839 -3.04647,33.422396 -9.00182,56.07211 -34.05696,98.53325 -71.82185,121.71701 -6.3921,3.9241 -18.08613,9.67203 -19.59243,9.63022 -0.35195,-0.01 -2.55253,-0.8957 -4.8902,-1.96874 z"
       id="path1762" />
  </g>
  <g
     inkscape:groupmode="layer"
     id="layer2"
     inkscape:label="Layer 3"
     style="display:inline">
    <path
       style="fill:#7fbffa;fill-opacity:1;fill-rule:nonzero;stroke:#000000;stroke-width:0.779257;stroke-miterlimit:4;stroke-dasharray:none;stroke-opacity:1"
       d="m 145.99587,220.2562 c -35.57072,-16.32769 -59.061625,-49.87058 -68.523496,-97.84545 -1.041725,-5.28187 -2.140082,-12.71476 -2.73617,-18.51639 -0.779707,-7.588753 -1.308916,-19.412355 -0.868869,-19.412355 0.08395,0 0.808813,0.346895 1.61079,0.770878 2.456909,1.298892 6.495548,2.800727 10.457498,3.88879 10.058406,2.762323 21.416487,3.216957 32.263607,1.291432 9.46027,-1.679342 20.51875,-5.727952 28.93233,-10.592388 l 2.85326,-1.649657 5.01895,2.668843 c 12.90678,6.863228 24.78,10.221888 37.79595,10.691604 10.78064,0.389052 21.27339,-1.535855 30.27222,-5.553483 l 3.22046,-1.437803 v 4.118527 c 0,7.104038 -0.96404,17.680292 -2.46222,27.012352 -7.27534,45.31808 -27.52519,79.63565 -58.04718,98.37301 -5.16617,3.17149 -14.61741,7.81703 -15.83482,7.78325 -0.28445,-0.008 -2.06298,-0.72391 -3.95231,-1.59116 z"
       id="path1762-1" />
  </g>
  <g
     inkscape:groupmode="layer"
     id="layer5"
     inkscape:label="Layer 4" />
</svg>
