<?xml version="1.0" encoding="UTF-8" standalone="no"?>
<svg
   xmlns:dc="http://purl.org/dc/elements/1.1/"
   xmlns:cc="http://creativecommons.org/ns#"
   xmlns:rdf="http://www.w3.org/1999/02/22-rdf-syntax-ns#"
   xmlns:svg="http://www.w3.org/2000/svg"
   xmlns="http://www.w3.org/2000/svg"
   xmlns:sodipodi="http://sodipodi.sourceforge.net/DTD/sodipodi-0.dtd"
   xmlns:inkscape="http://www.inkscape.org/namespaces/inkscape"
   width="300mm"
   height="300mm"
   viewBox="0 0 300 300"
   version="1.1"
   id="svg61"
   inkscape:version="1.0.2 (e86c870879, 2021-01-15)"
   sodipodi:docname="insanity.svg">
  <defs
     id="defs55" />
  <sodipodi:namedview
     id="base"
     pagecolor="#ffffff"
     bordercolor="#666666"
     borderopacity="1.0"
     inkscape:pageopacity="0.0"
     inkscape:pageshadow="2"
     inkscape:zoom="0.375"
     inkscape:cx="864.93771"
     inkscape:cy="499.16889"
     inkscape:document-units="mm"
     inkscape:current-layer="layer3"
     inkscape:document-rotation="0"
     showgrid="false"
     inkscape:window-width="1920"
     inkscape:window-height="1002"
     inkscape:window-x="-8"
     inkscape:window-y="-8"
     inkscape:window-maximized="1"
     inkscape:snap-global="false"
     showguides="true"
     inkscape:guide-bbox="true"
     inkscape:snap-bbox="false" />
  <metadata
     id="metadata58">
    <rdf:RDF>
      <cc:Work
         rdf:about="">
        <dc:format>image/svg+xml</dc:format>
        <dc:type
           rdf:resource="http://purl.org/dc/dcmitype/StillImage" />
        <dc:title></dc:title>
      </cc:Work>
    </rdf:RDF>
  </metadata>
  <g
     inkscape:label="Layer 1"
     inkscape:groupmode="layer"
     id="layer1" />
  <g
     inkscape:groupmode="layer"
     id="layer3"
     inkscape:label="Layer 2"
     style="display:inline">
    <path
       id="rect2857"
       style="fill:#eeeeee;fill-opacity:1;stroke:#000000;stroke-width:0.751578;stroke-linecap:square;stroke-miterlimit:4;stroke-dasharray:none;stroke-opacity:1"
       d="m 190.19906,159.52794 c -0.35032,-1.16039 -0.67864,-2.32129 -0.98618,-3.48128 -0.30753,-1.15999 -0.59426,-2.31916 -0.86107,-3.47644 -0.26683,-1.15727 -0.51379,-2.31252 -0.74198,-3.46476 -0.22816,-1.15225 -0.43728,-2.30173 -0.62886,-3.44664 -0.19156,-1.14491 -0.36545,-2.28521 -0.52247,-3.42048 -0.15704,-1.13524 -0.29723,-2.26534 -0.42175,-3.38862 -0.24903,-2.24659 -0.43532,-4.46681 -0.56668,-6.65164 -0.13136,-2.18483 -0.20773,-4.33402 -0.23782,-6.43858 -0.0301,-2.10457 -0.0139,-4.16458 0.0408,-6.17037 0.0548,-2.00579 0.14801,-3.95763 0.27117,-5.84616 0.12315,-1.8885 0.27617,-3.71364 0.45132,-5.46638 0.17514,-1.75271 0.37244,-3.43299 0.58316,-5.0314 0.21073,-1.59841 0.43493,-3.11487 0.66481,-4.540477 0.22989,-1.4256 0.46515,-2.76048 0.69777,-3.994767 0.23263,-1.234278 0.46273,-2.368211 0.68167,-3.392666 0.43787,-2.048889 0.8319,-3.659463 1.11652,-4.757945 0.28462,-1.098503 0.45956,-1.684663 0.45956,-1.684663 -1.58199,-0.455639 -3.11512,-0.855996 -4.6009,-1.203784 -1.48576,-0.3478 -2.92401,-0.643282 -4.31659,-0.889256 -1.39257,-0.245974 -2.73929,-0.44222 -4.04169,-0.592426 -1.30238,-0.150205 -2.56053,-0.254077 -3.77576,-0.314539 -1.21523,-0.06047 -2.38774,-0.07759 -3.51883,-0.0543 -1.13109,0.02318 -2.22054,0.08678 -3.27051,0.187663 -1.04997,0.100875 -2.06045,0.239103 -3.03229,0.411603 -0.97186,0.17249 -1.9052,0.379325 -2.80197,0.617394 -0.89676,0.23809 -1.75664,0.507059 -2.58135,0.804682 -0.82469,0.297611 -1.61407,0.623524 -2.36972,0.974622 -0.75563,0.351109 -1.47751,0.727491 -2.16711,1.126061 -0.68961,0.398571 -1.34725,0.819384 -1.97383,1.25937 -0.6266,0.439975 -1.22224,0.899176 -1.78883,1.374541 -0.56658,0.475366 -1.10391,0.966916 -1.61352,1.471605 -0.50961,0.504698 -0.9916,1.022543 -1.44724,1.550539 -0.45563,0.527996 -0.88486,1.0661 -1.28954,1.611367 -0.40471,0.545257 -0.78485,1.097563 -1.14161,1.654035 -0.35677,0.556494 -0.69041,1.117384 -1.00227,1.679025 -0.31187,0.561662 -0.60198,1.124254 -0.87193,1.685065 -0.26998,0.560786 -0.51988,1.119472 -0.75098,1.673376 -0.46218,1.107785 -0.84939,2.196075 -1.17418,3.240025 -0.32479,1.04396 -0.58698,2.04364 -0.79853,2.97543 -0.21154,0.93181 -0.3727,1.79574 -0.49514,2.56706 -0.12245,0.77133 -0.20621,1.44996 -0.26367,2.01249 -0.11499,1.12507 -0.12436,1.78453 -0.12436,1.78453 v 19.44101 c 0,0 0.01,0.65905 0.12436,1.78414 0.0575,0.56252 0.14122,1.24155 0.26367,2.01289 0.12244,0.77132 0.2836,1.63484 0.49514,2.56665 0.21155,0.93178 0.47374,1.93188 0.79853,2.97583 0.32479,1.04396 0.712,2.13184 1.17418,3.23963 0.2311,0.5539 0.481,1.11259 0.75098,1.67337 0.26995,0.56081 0.56006,1.12382 0.87193,1.68546 0.31186,0.56167 0.6455,1.12214 1.00227,1.67862 0.35676,0.55649 0.7369,1.1088 1.14161,1.65406 0.40468,0.54525 0.83391,1.08335 1.28954,1.61135 0.45564,0.52799 0.93763,1.04585 1.44724,1.55055 0.50961,0.50469 1.04694,0.99624 1.61352,1.4716 0.56659,0.47538 1.16223,0.93457 1.78883,1.37454 0.62658,0.44001 1.28422,0.8608 1.97383,1.25938 0.6896,0.39856 1.41148,0.77495 2.16711,1.12606 0.75565,0.35111 1.54503,0.677 2.36972,0.97463 0.82471,0.29761 1.68459,0.56699 2.58135,0.80507 0.89677,0.23808 1.83011,0.4449 2.80197,0.61741 0.97184,0.17248 1.98232,0.31071 3.03229,0.41159 1.04997,0.10087 2.13942,0.16444 3.27051,0.18766 1.13109,0.0233 2.3036,0.008 3.51883,-0.0543 1.21523,-0.0605 2.47338,-0.16433 3.77576,-0.31452 1.3024,-0.15022 2.64912,-0.34686 4.04169,-0.59284 1.39258,-0.24598 2.83083,-0.54146 4.31659,-0.88927 1.48578,-0.34777 3.01891,-0.74772 4.6009,-1.20337 z" />
    <ellipse
       style="fill:#eeeeee;fill-opacity:1;stroke:#000000;stroke-width:0.826273;stroke-linecap:square;stroke-miterlimit:4;stroke-dasharray:none;stroke-opacity:1"
       id="path2690"
       cx="122.26321"
       cy="-59.018093"
       rx="38.538944"
       ry="9.5575457"
       transform="rotate(90)" />
    <path
       id="path2861"
       style="fill:#eeeeee;fill-opacity:1;stroke:#000000;stroke-width:0.751578;stroke-linecap:butt;stroke-linejoin:round;stroke-miterlimit:4;stroke-dasharray:none;stroke-dashoffset:0;stroke-opacity:1;paint-order:markers fill stroke"
       d="m 195.16624,125.7595 c 0.0301,-2.10457 0.0139,-4.16458 -0.0409,-6.17037 -0.0548,-2.00579 -0.14803,-3.95763 -0.27117,-5.84616 -0.12315,-1.8885 -0.27618,-3.71364 -0.45134,-5.46638 -0.17514,-1.75271 -0.37243,-3.43299 -0.58315,-5.0314 -0.21072,-1.59841 -0.43494,-3.11487 -0.66482,-4.540477 -0.22987,-1.4256 -0.46514,-2.76048 -0.69777,-3.994767 -0.23262,-1.234278 -0.46273,-2.368211 -0.68166,-3.392666 -0.43787,-2.048889 -0.83191,-3.659463 -1.11652,-4.757945 -0.28461,-1.098503 -0.45994,-1.684663 -0.45994,-1.684663 0,0 -0.17494,0.58616 -0.45957,1.684663 -0.28461,1.098482 -0.67862,2.709056 -1.1165,4.757945 -0.21893,1.024455 -0.44904,2.158388 -0.68167,3.392666 -0.2326,1.234287 -0.46789,2.569167 -0.69778,3.994767 -0.22988,1.425607 -0.45408,2.942067 -0.66481,4.540477 -0.21072,1.59841 -0.40802,3.27869 -0.58317,5.0314 -0.17513,1.75274 -0.32815,3.57788 -0.45131,5.46638 -0.12315,1.88853 -0.21645,3.84037 -0.27116,5.84616 -0.0548,2.00579 -0.071,4.0658 -0.0409,6.17037 0.0301,2.10456 0.10648,4.25375 0.23784,6.43858 0.13136,2.18483 0.31764,4.40505 0.56668,6.65164 0.12451,1.12328 0.26472,2.25338 0.42173,3.38862 0.15703,1.13527 0.33092,2.27557 0.52249,3.42048 0.19157,1.14491 0.40068,2.29439 0.62887,3.44664 0.22815,1.15224 0.47512,2.30749 0.74196,3.46476 0.26683,1.15728 0.55353,2.31645 0.86106,3.47644 0.30755,1.15999 0.63589,2.32089 0.98618,3.48128 0.3503,-1.16039 0.67902,-2.32129 0.98655,-3.48128 0.30754,-1.15999 0.59424,-2.31916 0.86106,-3.47644 0.26684,-1.15727 0.51381,-2.31252 0.74198,-3.46476 0.22817,-1.15225 0.43729,-2.30173 0.62885,-3.44664 0.19158,-1.14491 0.36548,-2.28521 0.5225,-3.42048 0.15701,-1.13524 0.29722,-2.26534 0.42172,-3.38862 0.24905,-2.24659 0.43532,-4.46681 0.5667,-6.65164 0.13135,-2.18483 0.20773,-4.33402 0.23783,-6.43858 z" />
    <path
       id="path2852"
       style="fill:#eeeeee;fill-opacity:1;stroke:#000000;stroke-width:0.751578;stroke-linecap:square;stroke-miterlimit:4;stroke-dasharray:none;stroke-opacity:1"
       d="m 138.9867,112.48079 c -1.18734,0.28883 -2.37856,0.55956 -3.57275,0.81313 -1.19421,0.25357 -2.3914,0.49004 -3.58964,0.71004 -2.39643,0.44 -4.79794,0.81458 -7.19345,1.13048 -2.39553,0.31591 -4.78486,0.57315 -7.15677,0.7785 -2.3719,0.20533 -4.72629,0.35845 -7.05188,0.46677 -2.3256,0.1083 -4.62263,0.17171 -6.87923,0.19653 -2.25659,0.0249 -4.47271,0.0112 -6.637594,-0.0339 -2.164905,-0.0452 -4.278468,-0.12198 -6.328993,-0.22353 -2.05051,-0.1015 -4.037992,-0.22772 -5.95145,-0.37213 -1.91344,-0.14441 -3.752803,-0.3071 -5.50649,-0.48087 -1.753688,-0.17373 -3.421786,-0.35857 -4.993025,-0.54811 -3.142486,-0.37909 -5.897492,-0.7763 -8.174023,-1.13734 -2.276523,-0.36103 -4.074496,-0.68598 -5.303518,-0.92065 -1.22903,-0.23467 -1.889192,-0.37899 -1.889192,-0.37899 v 19.441 c 0,0 0.660162,-0.14469 1.889192,-0.37936 1.229022,-0.23468 3.026995,-0.55964 5.303518,-0.92067 2.276531,-0.36104 5.031537,-0.75784 8.174023,-1.13693 1.571239,-0.18953 3.239337,-0.37478 4.993025,-0.54854 1.753687,-0.17374 3.59305,-0.33604 5.50649,-0.48048 1.913458,-0.14441 3.90094,-0.27096 5.95145,-0.37252 2.050525,-0.1016 4.164088,-0.17839 6.328993,-0.22351 2.164884,-0.0452 4.381004,-0.0587 6.637594,-0.034 2.2566,0.0249 4.55363,0.0883 6.87923,0.19654 2.32559,0.10831 4.67998,0.26184 7.05188,0.46717 2.37191,0.20534 4.76124,0.46259 7.15677,0.7785 2.39551,0.31591 4.79702,0.69046 7.19345,1.13047 1.19824,0.22003 2.39543,0.45607 3.58964,0.70965 1.19419,0.25356 2.38541,0.52471 3.57275,0.81353 z" />
    <path
       style="fill:#c42c58;fill-opacity:1;stroke:none;stroke-width:0.243313px;stroke-linecap:butt;stroke-linejoin:miter;stroke-opacity:1"
       d="m 148.43257,153.88466 38.98877,-2.04235 2.65467,7.61204 c 0,0 -27.92767,9.65438 -41.64344,-5.56969 z"
       id="path9140"
       sodipodi:nodetypes="cccc" />
    <ellipse
       style="fill:#c42c58;fill-opacity:1;stroke:none;stroke-width:0.84221;stroke-linecap:square;stroke-opacity:1"
       id="path9144"
       cx="205.48343"
       cy="197.02992"
       rx="46.801304"
       ry="27.231909" />
    <path
       style="fill:#c42c58;fill-opacity:1;stroke:none;stroke-width:0.243313px;stroke-linecap:butt;stroke-linejoin:miter;stroke-opacity:1"
       d="m 187.86379,151.36657 28.31643,19.50582 -40.26243,4.75753 z"
       id="path9146" />
  </g>
  <g
     inkscape:groupmode="layer"
     id="layer2"
     inkscape:label="Layer 3" />
</svg>
