<?xml version="1.0" encoding="UTF-8" standalone="no"?>
<svg
   xmlns:dc="http://purl.org/dc/elements/1.1/"
   xmlns:cc="http://creativecommons.org/ns#"
   xmlns:rdf="http://www.w3.org/1999/02/22-rdf-syntax-ns#"
   xmlns:svg="http://www.w3.org/2000/svg"
   xmlns="http://www.w3.org/2000/svg"
   xmlns:sodipodi="http://sodipodi.sourceforge.net/DTD/sodipodi-0.dtd"
   xmlns:inkscape="http://www.inkscape.org/namespaces/inkscape"
   width="300mm"
   height="300mm"
   viewBox="0 0 300 300"
   version="1.1"
   id="svg61"
   inkscape:version="1.0.2 (e86c870879, 2021-01-15)"
   sodipodi:docname="jumpQuickView.svg">
  <defs
     id="defs55" />
  <sodipodi:namedview
     id="base"
     pagecolor="#ffffff"
     bordercolor="#666666"
     borderopacity="1.0"
     inkscape:pageopacity="0.0"
     inkscape:pageshadow="2"
     inkscape:zoom="0.375"
     inkscape:cx="510.09085"
     inkscape:cy="660.75312"
     inkscape:document-units="mm"
     inkscape:current-layer="layer4"
     inkscape:document-rotation="0"
     showgrid="false"
     inkscape:window-width="1920"
     inkscape:window-height="1002"
     inkscape:window-x="-8"
     inkscape:window-y="-8"
     inkscape:window-maximized="1"
     inkscape:snap-global="false"
     showguides="true"
     inkscape:guide-bbox="true"
     inkscape:snap-nodes="true" />
  <metadata
     id="metadata58">
    <rdf:RDF>
      <cc:Work
         rdf:about="">
        <dc:format>image/svg+xml</dc:format>
        <dc:type
           rdf:resource="http://purl.org/dc/dcmitype/StillImage" />
        <dc:title></dc:title>
      </cc:Work>
    </rdf:RDF>
  </metadata>
  <g
     inkscape:label="Layer 1"
     inkscape:groupmode="layer"
     id="layer1"
     sodipodi:insensitive="true"
     style="display:none">
    <circle
       style="opacity:1;fill:#ffffff;fill-opacity:1;stroke:#000000;stroke-width:0.265;stroke-miterlimit:4;stroke-dasharray:none;stroke-opacity:1"
       id="path63"
       cx="150"
       cy="150"
       r="150" />
  </g>
  <g
     inkscape:groupmode="layer"
     id="layer3"
     inkscape:label="Layer 2"
     style="display:inline" />
  <g
     inkscape:groupmode="layer"
     id="layer2"
     inkscape:label="Layer 3" />
  <g
     inkscape:groupmode="layer"
     id="layer4"
     inkscape:label="Layer 4">
    <path
       style="fill:#cccccc;fill-opacity:1;stroke:none;stroke-width:3.12558px;stroke-linecap:butt;stroke-linejoin:miter;stroke-opacity:1"
       d="M 151.92297,30.232248 C 12.146542,33.290008 131.69175,272.94356 153.48575,262.04656 214.68729,231.4458 277.32733,64.43346 151.92297,30.232248 Z"
       id="path4857" />
    <ellipse
       style="fill:#dd1d00;fill-opacity:1;stroke:#dd1d00;stroke-width:19.991;stroke-opacity:1"
       id="path4767"
       cx="149.97374"
       cy="106.056"
       rx="34.304085"
       ry="34.304092" />
    <path
       id="path4777-9"
       style="fill:#dd1d00;fill-opacity:1;stroke:#dd1d00;stroke-width:1.25023;stroke-opacity:1"
       d="M 150.00001,19.225508 V 42.60025 c -16.29978,-0.0474 -32.94854,5.81554 -46.42588,19.21741 -23.636881,23.50456 -24.665701,55.66916 -3.10122,96.69784 0.60482,1.15178 5.65026,11.37566 11.2143,22.72158 10.3596,21.12512 12.3088,24.7499 27.20848,50.54658 5.86444,10.15372 8.41574,14.74126 11.10432,14.15662 v 34.78442 c -3.69104,0.25518 -7.2433,-0.25516 -9.08366,-2.28312 -6.36688,-7.01624 -26.71056,-41.13394 -44.167221,-74.07396 -3.64402,-6.87636 -7.08286,-13.34518 -7.6369,-14.37648 -0.9037,-1.68196 -4.57846,-9.68838 -12.05066,-26.2562 -18.99086,-42.10758 -21.23774,-67.74538 -8.3085,-94.68934 15.3526,-31.99379 45.010321,-49.917412 81.246941,-49.820092 z m 0,0 V 42.60025 c 16.2998,-0.0474 32.94854,5.81554 46.4259,19.21753 23.63686,23.50454 24.66568,55.66904 3.1012,96.69772 -0.60484,1.15178 -5.65026,11.37566 -11.2143,22.72158 -10.35962,21.12512 -12.3088,24.7499 -27.20848,50.54658 -5.86444,10.15372 -8.41576,14.74126 -11.10432,14.15662 v 34.78442 c 3.69104,0.25518 7.24328,-0.25516 9.08368,-2.28312 6.36686,-7.01624 26.71054,-41.13394 44.1672,-74.07396 3.64402,-6.87636 7.08286,-13.34518 7.6369,-14.37648 0.90372,-1.68196 4.57846,-9.68838 12.05068,-26.2561 18.99084,-42.10768 21.23772,-67.74548 8.30838,-94.68944 -15.3525,-31.99379 -45.01022,-49.917412 -81.24684,-49.820092 z" />
  </g>
</svg>
