<?xml version="1.0" encoding="UTF-8" standalone="no"?>
<svg
   width="300mm"
   height="300mm"
   viewBox="0 0 300 300"
   version="1.1"
   id="svg61"
   inkscape:version="1.2.2 (732a01da63, 2022-12-09)"
   sodipodi:docname="largeLightning.svg"
   xmlns:inkscape="http://www.inkscape.org/namespaces/inkscape"
   xmlns:sodipodi="http://sodipodi.sourceforge.net/DTD/sodipodi-0.dtd"
   xmlns="http://www.w3.org/2000/svg"
   xmlns:svg="http://www.w3.org/2000/svg"
   xmlns:rdf="http://www.w3.org/1999/02/22-rdf-syntax-ns#"
   xmlns:cc="http://creativecommons.org/ns#"
   xmlns:dc="http://purl.org/dc/elements/1.1/">
  <defs
     id="defs55" />
  <sodipodi:namedview
     id="base"
     pagecolor="#ffffff"
     bordercolor="#666666"
     borderopacity="1.0"
     inkscape:pageopacity="0.0"
     inkscape:pageshadow="2"
     inkscape:zoom="0.74999999"
     inkscape:cx="398.00001"
     inkscape:cy="568.00001"
     inkscape:document-units="mm"
     inkscape:current-layer="layer3"
     inkscape:document-rotation="0"
     showgrid="false"
     inkscape:window-width="2560"
     inkscape:window-height="1346"
     inkscape:window-x="-11"
     inkscape:window-y="-11"
     inkscape:window-maximized="1"
     inkscape:snap-global="true"
     inkscape:showpageshadow="2"
     inkscape:pagecheckerboard="0"
     inkscape:deskcolor="#d1d1d1" />
  <metadata
     id="metadata58">
    <rdf:RDF>
      <cc:Work
         rdf:about="">
        <dc:format>image/svg+xml</dc:format>
        <dc:type
           rdf:resource="http://purl.org/dc/dcmitype/StillImage" />
      </cc:Work>
    </rdf:RDF>
  </metadata>
  <g
     inkscape:label="Layer 1"
     inkscape:groupmode="layer"
     id="layer1" />
  <g
     inkscape:groupmode="layer"
     id="layer3"
     inkscape:label="Layer 2"
     style="display:inline">
    <path
       style="fill:#fff30b;fill-opacity:1;stroke:#000000;stroke-width:2.17434;stroke-miterlimit:4;stroke-dasharray:none;stroke-opacity:1"
       d="m 110.49576,291.63075 c -0.007,-0.21156 2.84855,-12.63776 6.34609,-27.61403 3.49757,-14.97623 7.6196,-32.66603 9.16011,-39.31066 1.54052,-6.64461 5.54905,-23.84317 8.90786,-38.21903 3.3588,-14.37584 6.03151,-26.5295 5.93932,-27.00814 -0.12779,-0.66383 -4.39379,-1.66979 -17.98378,-4.24082 -9.79889,-1.85381 -17.90574,-3.46012 -18.01519,-3.5696 -0.1093,-0.1093 3.67225,-7.79677 8.40381,-17.08288 4.73159,-9.28613 16.94614,-33.32285 27.14344,-53.414913 28.97818,-57.096565 37.09641,-72.9744756 37.23894,-72.8330569 0.0726,0.072189 -1.29766,8.1401139 -3.04517,17.9289149 -1.74751,9.78878 -4.58721,25.693674 -6.31046,35.34421 -9.78536,54.800465 -11.07235,62.429795 -10.58239,62.732595 0.29229,0.18069 8.75141,1.44614 18.79805,2.8122 10.04662,1.36605 18.4711,2.60244 18.72106,2.74751 0.3916,0.22728 -3.52651,8.10485 -10.24108,20.59033 -1.02098,1.89846 -4.90049,9.27659 -8.62114,16.39583 -3.72066,7.11924 -9.16101,17.4745 -12.08969,23.01168 -4.57555,8.65095 -11.6215,22.07505 -27.4779,52.3516 -1.90567,3.63871 -5.58871,10.6285 -8.18451,15.53288 -2.59581,4.90436 -6.81559,12.92969 -9.37723,17.83406 -6.16786,11.80851 -8.71426,16.47869 -8.73014,16.01132 z"
       id="path8495" />
  </g>
  <g
     inkscape:groupmode="layer"
     id="layer2"
     inkscape:label="Layer 3" />
</svg>
