<?xml version="1.0" encoding="UTF-8" standalone="no"?>
<svg
   xmlns:dc="http://purl.org/dc/elements/1.1/"
   xmlns:cc="http://creativecommons.org/ns#"
   xmlns:rdf="http://www.w3.org/1999/02/22-rdf-syntax-ns#"
   xmlns:svg="http://www.w3.org/2000/svg"
   xmlns="http://www.w3.org/2000/svg"
   xmlns:sodipodi="http://sodipodi.sourceforge.net/DTD/sodipodi-0.dtd"
   xmlns:inkscape="http://www.inkscape.org/namespaces/inkscape"
   width="300mm"
   height="300mm"
   viewBox="0 0 300 300"
   version="1.1"
   id="svg61"
   inkscape:version="1.0.2 (e86c870879, 2021-01-15)"
   sodipodi:docname="lightning.svg">
  <defs
     id="defs55" />
  <sodipodi:namedview
     id="base"
     pagecolor="#ffffff"
     bordercolor="#666666"
     borderopacity="1.0"
     inkscape:pageopacity="0.0"
     inkscape:pageshadow="2"
     inkscape:zoom="0.74999999"
     inkscape:cx="396.46151"
     inkscape:cy="567.04751"
     inkscape:document-units="mm"
     inkscape:current-layer="layer1"
     inkscape:document-rotation="0"
     showgrid="false"
     inkscape:window-width="1920"
     inkscape:window-height="1002"
     inkscape:window-x="-8"
     inkscape:window-y="-8"
     inkscape:window-maximized="1"
     inkscape:snap-global="true" />
  <metadata
     id="metadata58">
    <rdf:RDF>
      <cc:Work
         rdf:about="">
        <dc:format>image/svg+xml</dc:format>
        <dc:type
           rdf:resource="http://purl.org/dc/dcmitype/StillImage" />
        <dc:title></dc:title>
      </cc:Work>
    </rdf:RDF>
  </metadata>
  <g
     inkscape:label="Layer 1"
     inkscape:groupmode="layer"
     id="layer1" />
  <g
     inkscape:groupmode="layer"
     id="layer3"
     inkscape:label="Layer 2"
     style="display:inline">
    <path
       style="fill:#fff30b;fill-opacity:1;stroke:#000000;stroke-width:1.59937;stroke-miterlimit:4;stroke-dasharray:none;stroke-opacity:1"
       d="m 120.95438,254.17916 c -0.005,-0.15562 2.0953,-9.29593 4.66798,-20.31198 2.5727,-11.01603 5.60473,-24.02807 6.73788,-28.91564 1.13315,-4.88756 4.0817,-17.53826 6.55233,-28.11267 2.47062,-10.5744 4.43658,-19.51424 4.36877,-19.86631 -0.094,-0.48829 -3.23193,-1.22824 -13.22828,-3.11941 -7.20775,-1.3636 -13.17088,-2.54515 -13.25139,-2.62568 -0.0804,-0.0804 2.70119,-5.73505 6.18157,-12.56561 3.4804,-6.83057 12.46503,-24.5112 19.96583,-39.290265 21.3154,-41.99837 27.28691,-53.677643 27.39175,-53.57362 0.0534,0.0531 -0.95452,5.987602 -2.23993,13.187925 -1.28541,7.200307 -3.3742,18.899428 -4.64177,25.998047 -7.19779,40.309433 -8.14446,45.921323 -7.78406,46.144053 0.215,0.13291 6.43725,1.06373 13.82723,2.06856 7.38997,1.00482 13.58674,1.91427 13.7706,2.02098 0.28805,0.16718 -2.59398,5.96166 -7.533,15.14557 -0.751,1.39645 -3.60464,6.82356 -6.34143,12.06024 -2.7368,5.23668 -6.73854,12.85367 -8.89278,16.92664 -3.36563,6.36336 -8.5484,16.23769 -20.21185,38.50813 -1.40175,2.67652 -4.11087,7.81798 -6.02026,11.42548 -1.90939,3.60749 -5.01332,9.51066 -6.89758,13.11815 -4.53688,8.68596 -6.40993,12.12119 -6.42161,11.77741 z"
       id="path8495" />
  </g>
  <g
     inkscape:groupmode="layer"
     id="layer2"
     inkscape:label="Layer 3" />
</svg>
