<?xml version="1.0" encoding="UTF-8" standalone="no"?>
<svg
   xmlns:dc="http://purl.org/dc/elements/1.1/"
   xmlns:cc="http://creativecommons.org/ns#"
   xmlns:rdf="http://www.w3.org/1999/02/22-rdf-syntax-ns#"
   xmlns:svg="http://www.w3.org/2000/svg"
   xmlns="http://www.w3.org/2000/svg"
   xmlns:sodipodi="http://sodipodi.sourceforge.net/DTD/sodipodi-0.dtd"
   xmlns:inkscape="http://www.inkscape.org/namespaces/inkscape"
   viewBox="0 0 16 16"
   fill="currentColor"
   class="w-6 h-6"
   version="1.1"
   id="svg3673"
   sodipodi:docname="pause.svg"
   inkscape:version="1.0.2 (e86c870879, 2021-01-15)"
   width="16"
   height="16">
  <metadata
     id="metadata3679">
    <rdf:RDF>
      <cc:Work
         rdf:about="">
        <dc:format>image/svg+xml</dc:format>
        <dc:type
           rdf:resource="http://purl.org/dc/dcmitype/StillImage" />
        <dc:title></dc:title>
      </cc:Work>
    </rdf:RDF>
  </metadata>
  <defs
     id="defs3677" />
  <sodipodi:namedview
     pagecolor="#ffffff"
     bordercolor="#666666"
     borderopacity="1"
     objecttolerance="10"
     gridtolerance="10"
     guidetolerance="10"
     inkscape:pageopacity="0"
     inkscape:pageshadow="2"
     inkscape:window-width="1920"
     inkscape:window-height="1002"
     id="namedview3675"
     showgrid="false"
     inkscape:zoom="35"
     inkscape:cx="12"
     inkscape:cy="12"
     inkscape:window-x="-8"
     inkscape:window-y="-8"
     inkscape:window-maximized="1"
     inkscape:current-layer="svg3673" />
  <path
     fill-rule="evenodd"
     d="M 3.8,2.6 A 0.60000001,0.60000001 0 0 1 4.4,2 H 5.6 A 0.60000001,0.60000001 0 0 1 6.1999997,2.6 V 13.4 A 0.60000001,0.60000001 0 0 1 5.6,14 H 4.4 A 0.60000001,0.60000001 0 0 1 3.8,13.4 Z m 6,0 A 0.60000001,0.60000001 0 0 1 10.4,2 h 1.2 a 0.60000001,0.60000001 0 0 1 0.6,0.6 V 13.4 A 0.60000001,0.60000001 0 0 1 11.6,14 H 10.4 A 0.60000001,0.60000001 0 0 1 9.8,13.4 Z"
     clip-rule="evenodd"
     id="path3671"
     style="stroke-width:0.800002;fill:#a3b9cc;fill-opacity:1" />
</svg>
