<?xml version="1.0" encoding="UTF-8" standalone="no"?>
<svg
   xmlns:dc="http://purl.org/dc/elements/1.1/"
   xmlns:cc="http://creativecommons.org/ns#"
   xmlns:rdf="http://www.w3.org/1999/02/22-rdf-syntax-ns#"
   xmlns:svg="http://www.w3.org/2000/svg"
   xmlns="http://www.w3.org/2000/svg"
   xmlns:sodipodi="http://sodipodi.sourceforge.net/DTD/sodipodi-0.dtd"
   xmlns:inkscape="http://www.inkscape.org/namespaces/inkscape"
   width="300mm"
   height="300mm"
   viewBox="0 0 300 300"
   version="1.1"
   id="svg61"
   inkscape:version="1.0.2 (e86c870879, 2021-01-15)"
   sodipodi:docname="plunge.svg">
  <defs
     id="defs55" />
  <sodipodi:namedview
     id="base"
     pagecolor="#ffffff"
     bordercolor="#666666"
     borderopacity="1.0"
     inkscape:pageopacity="0.0"
     inkscape:pageshadow="2"
     inkscape:zoom="1.0606602"
     inkscape:cx="618.86907"
     inkscape:cy="634.80745"
     inkscape:document-units="mm"
     inkscape:current-layer="layer1"
     inkscape:document-rotation="0"
     showgrid="false"
     inkscape:window-width="1920"
     inkscape:window-height="1002"
     inkscape:window-x="-8"
     inkscape:window-y="-8"
     inkscape:window-maximized="1"
     inkscape:snap-global="false"
     showguides="true"
     inkscape:guide-bbox="true"
     inkscape:snap-bbox="true" />
  <metadata
     id="metadata58">
    <rdf:RDF>
      <cc:Work
         rdf:about="">
        <dc:format>image/svg+xml</dc:format>
        <dc:type
           rdf:resource="http://purl.org/dc/dcmitype/StillImage" />
        <dc:title />
      </cc:Work>
    </rdf:RDF>
  </metadata>
  <g
     inkscape:label="Layer 1"
     inkscape:groupmode="layer"
     id="layer1">
    <path
       id="path4116"
       style="fill:#00baa1;fill-opacity:1;stroke:#000000;stroke-width:1;stroke-linecap:butt;stroke-linejoin:miter;stroke-miterlimit:4;stroke-dasharray:none;stroke-opacity:1"
       d="m 167.13255,162.14352 c 0,0 12.48784,-1.49005 19.95612,0.9978 m 0.24945,-0.4989 c 0,0 -9.22971,11.47477 -26.19241,14.46819 0,0 11.47477,-14.46819 5.98684,-14.96709"
       sodipodi:nodetypes="ccccc" />
  </g>
  <g
     inkscape:groupmode="layer"
     id="layer3"
     inkscape:label="Layer 2"
     style="display:inline" />
  <g
     inkscape:groupmode="layer"
     id="layer2"
     inkscape:label="Layer 3">
    <g
       id="g3543"
       transform="matrix(1.2966557,0,0,1.2966557,-32.003779,-3.0650072)"
       style="stroke-width:1.00026553;stroke-miterlimit:4;stroke-dasharray:none;fill:#00baa1;fill-opacity:1">
      <path
         id="rect3534"
         style="fill:#00baa1;fill-opacity:1;stroke:#000000;stroke-width:3.78053118;stroke-linejoin:round;stroke-miterlimit:4;stroke-dasharray:none;stroke-opacity:1;paint-order:markers fill stroke"
         d="m 596.3418,348.11523 c -4.81981,0.31473 -9.71926,0.72382 -14.73438,1.27735 -5.32422,0.58764 -10.75781,1.31347 -16.30469,2.1875 -5.54687,0.87402 -11.20637,1.89608 -16.97851,3.07422 -5.77214,1.17814 -11.6582,2.51172 -17.6582,4.01172 -2.29902,0.57475 -4.50454,1.22505 -6.77149,1.82617 0,0 0,0 0,0 -3.64937,0.96768 -7.33373,1.90813 -10.90039,2.9414 -5.78223,1.67513 -11.45703,3.4336 -17.02344,5.26953 -5.5664,1.83594 -11.02441,3.74805 -16.37695,5.73047 -5.35254,1.98243 -10.59961,4.03581 -15.74023,6.15039 -5.14063,2.11459 -10.17481,4.29102 -15.10547,6.52344 -4.93067,2.23242 -9.75782,4.51953 -14.48047,6.85547 -4.72266,2.33594 -9.34082,4.72135 -13.85742,7.14649 -4.5166,2.42513 -8.93164,4.89062 -13.24414,7.39062 -8.625,5 -16.84376,10.13607 -24.66407,15.34961 -7.82031,5.21354 -15.24218,10.50391 -22.27343,15.81641 -7.03125,5.3125 -13.67188,10.64648 -19.92969,15.94336 -6.25781,5.29687 -12.13281,10.55794 -17.63281,15.7246 -5.5,5.16667 -10.625,10.23829 -15.38282,15.16016 -4.75781,4.92188 -9.14843,9.69336 -13.17968,14.25586 -4.03125,4.5625 -7.70313,8.91732 -11.02344,13.00586 -3.32031,4.08854 -6.28906,7.91016 -8.91406,11.41016 -5.25,7 -9.125,12.70963 -11.6875,16.66796 -2.5625,3.95834 -3.8125,6.16602 -3.8125,6.16602 L 213.33398,557.33398 264,576 l 14.66602,38.66602 16.69726,-52.37305 c 0,0 4.31836,-2.16643 12.16992,-5.79492 7.85157,-3.62849 19.23528,-8.719 33.36524,-14.56641 7.06498,-2.92371 14.81664,-6.03585 23.15625,-9.25 8.3396,-3.21414 17.26796,-6.52903 26.68554,-9.85742 9.41759,-3.32839 19.32414,-6.67107 29.62305,-9.9375 10.29892,-3.26644 20.98906,-6.45804 31.97266,-9.48633 10.9836,-3.02829 22.26078,-5.89191 33.73242,-8.50586 11.47163,-2.61394 23.13932,-4.97659 34.90234,-7 5.88152,-1.0117 11.78564,-1.9385 17.70313,-2.76953 5.91749,-0.83103 11.84651,-1.56698 17.77539,-2.19531 5.92888,-0.62834 11.85774,-1.14912 17.77344,-1.55274 5.91569,-0.40361 11.81933,-0.69078 17.69726,-0.84765 5.87793,-0.15687 11.73129,-0.18417 17.54688,-0.0723 5.81558,0.1119 11.59361,0.36293 17.32226,0.76563 5.72866,0.40269 11.40825,0.95636 17.02539,1.67187 5.61715,0.71551 11.17129,1.59418 16.65235,2.64453 5.48105,1.05035 10.8886,2.27247 16.20898,3.67969 5.32038,1.40722 10.55433,2.99905 15.68945,4.78516 5.13513,1.78611 10.17041,3.7661 15.09571,5.95312 4.92529,2.18703 9.74076,4.58144 14.43164,7.19141 L 782.66602,524 c 5.49999,2.91667 10.552,5.47583 15.18945,7.71094 4.63745,2.2351 8.861,4.14551 12.70508,5.76562 3.84407,1.62012 7.30786,2.94979 10.42773,4.02149 3.11987,1.07169 5.89649,1.88672 8.36133,2.47656 2.46484,0.58984 4.61906,0.95435 6.49805,1.12891 1.87898,0.17456 3.48144,0.15852 4.84375,-0.0156 1.3623,-0.17415 2.48364,-0.50659 3.39843,-0.96289 0.9148,-0.4563 1.6237,-1.03711 2.16016,-1.70898 0.53646,-0.67188 0.90161,-1.43498 1.12891,-2.25586 0.22729,-0.82089 0.31738,-1.69825 0.30468,-2.60157 -0.0254,-1.80664 -0.46289,-3.71224 -1.0332,-5.44921 -0.57031,-1.73698 -1.27409,-3.30665 -1.83594,-4.44141 -0.56185,-1.13477 -0.98047,-1.83399 -0.98047,-1.83399 0,0 -1.95833,-1.95963 -4.90625,-5.05859 -2.94791,-3.09896 -6.88541,-7.33789 -10.84375,-11.90039 -1.97916,-2.28125 -3.96354,-4.64388 -5.83203,-6.98438 -1.86849,-2.34049 -3.62109,-4.6582 -5.13672,-6.85351 -1.51562,-2.19531 -2.79427,-4.26758 -3.71484,-6.11328 -0.92057,-1.84571 -1.48307,-3.46615 -1.56641,-4.75781 -0.10784,-1.67151 -0.41563,-3.73955 -0.87109,-6.08008 -0.45546,-2.34054 -1.05986,-4.95222 -1.75977,-7.71094 -1.39981,-5.51744 -3.18478,-11.62156 -4.94335,-17.30664 C 800.74261,441.6982 797.33398,432 797.33398,432 c 0,0 -1.16731,-1.89518 -3.58398,-5.11914 -1.20833,-1.61198 -2.72852,-3.55664 -4.57227,-5.76172 -1.84375,-2.20508 -4.01171,-4.67187 -6.51171,-7.32812 -2.5,-2.65625 -5.33269,-5.50131 -8.50977,-8.4668 -3.17708,-2.9655 -6.69727,-6.05078 -10.57227,-9.1836 -3.875,-3.13281 -8.10546,-6.31445 -12.69921,-9.47265 -4.59375,-3.1582 -9.55144,-6.29232 -14.88477,-9.33399 -5.33333,-3.04166 -11.04102,-5.99023 -17.13477,-8.77343 -3.04687,-1.3916 -6.19075,-2.7426 -9.43164,-4.04297 -3.24088,-1.30038 -6.58007,-2.55078 -10.01757,-3.74219 -3.4375,-1.19141 -6.97266,-2.32397 -10.60938,-3.38867 -3.63672,-1.0647 -7.37435,-2.06022 -11.21289,-2.98047 -3.83854,-0.92025 -7.7793,-1.76538 -11.82227,-2.52344 -4.04296,-0.75805 -8.1875,-1.42968 -12.4375,-2.00781 -4.25,-0.57813 -8.60481,-1.06095 -13.06445,-1.44141 -4.45963,-0.38045 -9.02539,-0.65918 -13.69726,-0.82421 -4.67188,-0.16504 -9.44922,-0.21656 -14.33594,-0.14844 -4.88672,0.0681 -9.88216,0.25716 -14.98633,0.57617 -0.29633,0.0185 -0.61114,0.0587 -0.9082,0.0781 z"
         transform="scale(0.26458333)" />
      <path
         id="path3538"
         style="fill:#00baa1;fill-opacity:1;stroke:#000000;stroke-width:3.78053118;stroke-linejoin:round;stroke-miterlimit:4;stroke-dasharray:none;stroke-opacity:1;paint-order:markers fill stroke"
         d="m 504,277.33398 c 0,0 2.38664,4.71389 5.67578,11.91211 1.64457,3.59912 3.5159,7.81947 5.42578,12.38086 1.90988,4.56139 3.85824,9.46421 5.66211,14.42969 1.80387,4.96548 3.46252,9.9933 4.78906,14.80469 0.66328,2.40569 1.24444,4.75702 1.71875,7.01953 0.47432,2.26251 0.84113,4.43677 1.08008,6.48633 0.23895,2.04955 0.34947,3.97536 0.30664,5.74219 -0.0428,1.76682 -0.23834,3.37473 -0.60937,4.78906 -0.37103,1.41432 -0.91842,2.6349 -1.66406,3.62695 -0.65021,0.86507 -1.52215,1.47248 -2.49024,1.9668 2.26695,-0.60112 4.47247,-1.25142 6.77149,-1.82617 6,-1.5 11.88606,-2.83358 17.6582,-4.01172 5.77214,-1.17814 11.43164,-2.2002 16.97851,-3.07422 5.54688,-0.87403 10.98047,-1.59986 16.30469,-2.1875 5.01512,-0.55353 9.91457,-0.96262 14.73438,-1.27735 -0.63211,-0.82719 -2.71961,-3.60072 -7.4043,-9.09375 -2.65625,-3.11458 -5.86914,-6.76562 -9.5332,-10.71093 -3.66406,-3.94532 -7.77995,-8.1849 -12.23828,-12.47657 -4.45834,-4.29166 -9.25977,-8.63541 -14.29883,-12.78906 -2.51953,-2.07682 -5.09798,-4.10709 -7.72266,-6.05859 -2.62467,-1.9515 -5.29492,-3.82422 -7.99805,-5.58985 -2.70312,-1.76562 -5.43847,-3.42415 -8.19336,-4.94336 -2.75488,-1.5192 -5.53059,-2.89908 -8.31054,-4.11132 -2.77995,-1.21224 -5.56543,-2.25684 -8.34375,-3.10157 C 509.52051,278.39551 506.75,277.75065 504,277.33398 Z"
         transform="scale(0.26458333)" />
    </g>
  </g>
</svg>
