<?xml version="1.0" encoding="UTF-8" standalone="no"?>
<svg
   xmlns:dc="http://purl.org/dc/elements/1.1/"
   xmlns:cc="http://creativecommons.org/ns#"
   xmlns:rdf="http://www.w3.org/1999/02/22-rdf-syntax-ns#"
   xmlns:svg="http://www.w3.org/2000/svg"
   xmlns="http://www.w3.org/2000/svg"
   xmlns:sodipodi="http://sodipodi.sourceforge.net/DTD/sodipodi-0.dtd"
   xmlns:inkscape="http://www.inkscape.org/namespaces/inkscape"
   width="300mm"
   height="300mm"
   viewBox="0 0 300 300"
   version="1.1"
   id="svg61"
   inkscape:version="1.0.2 (e86c870879, 2021-01-15)"
   sodipodi:docname="poisonFang.svg">
  <defs
     id="defs55" />
  <sodipodi:namedview
     id="base"
     pagecolor="#ffffff"
     bordercolor="#666666"
     borderopacity="1.0"
     inkscape:pageopacity="0.0"
     inkscape:pageshadow="2"
     inkscape:zoom="0.74999999"
     inkscape:cx="671.78898"
     inkscape:cy="567.04751"
     inkscape:document-units="mm"
     inkscape:current-layer="layer1"
     inkscape:document-rotation="0"
     showgrid="false"
     inkscape:window-width="1920"
     inkscape:window-height="1002"
     inkscape:window-x="-8"
     inkscape:window-y="-8"
     inkscape:window-maximized="1"
     inkscape:snap-global="false" />
  <metadata
     id="metadata58">
    <rdf:RDF>
      <cc:Work
         rdf:about="">
        <dc:format>image/svg+xml</dc:format>
        <dc:type
           rdf:resource="http://purl.org/dc/dcmitype/StillImage" />
        <dc:title />
      </cc:Work>
    </rdf:RDF>
  </metadata>
  <g
     inkscape:label="Layer 1"
     inkscape:groupmode="layer"
     id="layer1"
     style="display:inline" />
  <g
     inkscape:groupmode="layer"
     id="layer3"
     inkscape:label="Layer 2"
     style="display:inline" />
  <g
     inkscape:groupmode="layer"
     id="layer2"
     inkscape:label="Layer 3">
    <path
       id="rect4988"
       style="opacity:1;fill:#800080;stroke-width:0.489586;stroke-linecap:round"
       d="m 183.3908,204.57963 c 0,0 1.55303,2.6402 3.82011,6.39318 2.26711,3.75292 5.24819,8.61857 8.10431,13.06944 5.71219,8.90175 10.43866,17.98832 8.92418,23.738 -1.51444,5.74964 -3.27353,7.96125 -6.74478,11.04046 -3.47133,3.0792 -8.16912,5.18199 -14.10384,5.18197 -5.93473,0 -10.63252,-2.10277 -14.10378,-5.18197 -3.47132,-3.07921 -5.23044,-5.29078 -6.74485,-11.04044 -1.51447,-5.7497 3.21204,-14.83627 8.92423,-23.73802 2.85606,-4.45087 5.8372,-9.31652 8.10426,-13.06944 2.26707,-3.75298 3.82016,-6.39318 3.82016,-6.39318 z"
       sodipodi:nodetypes="csszacszssc" />
    <path
       id="path1621"
       style="fill:#f9f9f9;stroke:#000000;stroke-width:1.02838;stroke-linecap:butt;stroke-linejoin:miter;stroke-miterlimit:4;stroke-dasharray:none;stroke-opacity:1"
       d="m 183.26062,202.56309 c 0,0 -86.707011,-34.46514 -89.246545,-154.5489 m 0,0 h 88.158175 c 0,0 -47.8884,52.60467 1.08837,154.5489" />
  </g>
</svg>
