<?xml version="1.0" encoding="UTF-8" standalone="no"?>
<svg
   xmlns:dc="http://purl.org/dc/elements/1.1/"
   xmlns:cc="http://creativecommons.org/ns#"
   xmlns:rdf="http://www.w3.org/1999/02/22-rdf-syntax-ns#"
   xmlns:svg="http://www.w3.org/2000/svg"
   xmlns="http://www.w3.org/2000/svg"
   xmlns:sodipodi="http://sodipodi.sourceforge.net/DTD/sodipodi-0.dtd"
   xmlns:inkscape="http://www.inkscape.org/namespaces/inkscape"
   width="300mm"
   height="300mm"
   viewBox="0 0 300 300"
   version="1.1"
   id="svg61"
   inkscape:version="1.0.2 (e86c870879, 2021-01-15)"
   sodipodi:docname="poisonousToxin.svg">
  <defs
     id="defs55">
    <inkscape:path-effect
       effect="fillet_chamfer"
       id="path-effect881"
       is_visible="true"
       lpeversion="1"
       satellites_param="F,0,0,1,0,0,0,1 @ F,0,0,1,0,10.583333,0,1 @ F,0,0,1,0,10.583333,0,1 @ F,0,0,1,0,10.583333,0,1 @ F,0,0,1,0,10.583333,0,1 @ F,0,0,1,0,10.583333,0,1 @ F,0,0,1,0,10.583333,0,1"
       unit="px"
       method="auto"
       mode="F"
       radius="40"
       chamfer_steps="1"
       flexible="false"
       use_knot_distance="true"
       apply_no_radius="true"
       apply_with_radius="true"
       only_selected="false"
       hide_knots="false" />
    <inkscape:path-effect
       effect="fillet_chamfer"
       id="path-effect5511"
       is_visible="true"
       lpeversion="1"
       satellites_param="F,0,0,1,0,0,0,1 @ F,0,0,1,0,10.583333,0,1 @ F,0,0,1,0,10.583333,0,1 @ F,0,0,1,0,10.583333,0,1 @ F,0,0,1,0,10.583333,0,1 @ F,0,0,1,0,10.583333,0,1 @ F,0,0,1,0,10.583333,0,1"
       unit="px"
       method="auto"
       mode="F"
       radius="40"
       chamfer_steps="1"
       flexible="false"
       use_knot_distance="true"
       apply_no_radius="true"
       apply_with_radius="true"
       only_selected="false"
       hide_knots="false" />
    <inkscape:path-effect
       effect="fillet_chamfer"
       id="path-effect5464"
       is_visible="true"
       lpeversion="1"
       satellites_param="F,0,0,1,0,0,0,1 @ F,0,0,1,0,10.583333,0,1 @ F,0,0,1,0,10.583333,0,1 @ F,0,0,1,0,10.583333,0,1 @ F,0,0,1,0,10.583333,0,1 @ F,0,0,1,0,10.583333,0,1 @ F,0,0,1,0,10.583333,0,1"
       unit="px"
       method="auto"
       mode="F"
       radius="40"
       chamfer_steps="1"
       flexible="false"
       use_knot_distance="true"
       apply_no_radius="true"
       apply_with_radius="true"
       only_selected="false"
       hide_knots="false" />
    <inkscape:path-effect
       effect="bspline"
       id="path-effect5462"
       is_visible="true"
       lpeversion="1"
       weight="33.333333"
       steps="2"
       helper_size="0"
       apply_no_weight="true"
       apply_with_weight="true"
       only_selected="false" />
  </defs>
  <sodipodi:namedview
     id="base"
     pagecolor="#ffffff"
     bordercolor="#666666"
     borderopacity="1.0"
     inkscape:pageopacity="0.0"
     inkscape:pageshadow="2"
     inkscape:zoom="0.5303301"
     inkscape:cx="356.09912"
     inkscape:cy="468.09787"
     inkscape:document-units="mm"
     inkscape:current-layer="layer4"
     inkscape:document-rotation="0"
     showgrid="false"
     inkscape:window-width="1920"
     inkscape:window-height="1002"
     inkscape:window-x="-8"
     inkscape:window-y="-8"
     inkscape:window-maximized="1"
     inkscape:snap-global="true"
     showguides="true"
     inkscape:guide-bbox="true" />
  <metadata
     id="metadata58">
    <rdf:RDF>
      <cc:Work
         rdf:about="">
        <dc:format>image/svg+xml</dc:format>
        <dc:type
           rdf:resource="http://purl.org/dc/dcmitype/StillImage" />
        <dc:title />
      </cc:Work>
    </rdf:RDF>
  </metadata>
  <g
     inkscape:label="Layer 1"
     inkscape:groupmode="layer"
     id="layer1"
     sodipodi:insensitive="true"
     style="display:none">
    <circle
       style="opacity:1;fill:#ffffff;fill-opacity:1;stroke:#000000;stroke-width:0.265;stroke-miterlimit:4;stroke-dasharray:none;stroke-opacity:1"
       id="path63"
       cx="150"
       cy="150"
       r="150" />
  </g>
  <g
     inkscape:groupmode="layer"
     id="layer3"
     inkscape:label="Layer 2"
     style="display:inline" />
  <g
     inkscape:groupmode="layer"
     id="layer2"
     inkscape:label="Layer 3" />
  <g
     inkscape:groupmode="layer"
     id="layer4"
     inkscape:label="Layer 4">
    <g
       id="g3570"
       transform="matrix(1.287676,0,0,1.287676,-43.560164,-40.192263)"
       style="stroke-width:1.55318574;stroke-miterlimit:4;stroke-dasharray:none">
      <path
         style="fill:#ececec;fill-opacity:1;stroke:#000000;stroke-width:1.55318574;stroke-linecap:butt;stroke-linejoin:miter;stroke-opacity:1;stroke-miterlimit:4;stroke-dasharray:none"
         d="m 140.3305,96.226287 v 34.191133 l -14.10435,24.10917 47.51497,-0.063 -14.07085,-24.04617 V 96.226287 H 140.3305"
         id="path2739" />
      <path
         style="fill:none;stroke:#000000;stroke-width:1.55318574;stroke-linecap:butt;stroke-linejoin:miter;stroke-miterlimit:4;stroke-dasharray:none;stroke-opacity:1"
         d="M 140.3305,96.226288 V 130.41742"
         id="path1717" />
      <path
         style="fill:none;stroke:#000000;stroke-width:1.55318574;stroke-linecap:butt;stroke-linejoin:miter;stroke-miterlimit:4;stroke-dasharray:none;stroke-opacity:1"
         d="M 159.67027,96.226288 V 130.41742"
         id="path1717-7"
         sodipodi:nodetypes="cc" />
      <path
         id="rect1743"
         style="fill:none;stroke:#000000;stroke-width:1.55318574;stroke-linecap:square;stroke-miterlimit:4;stroke-dasharray:none;stroke-opacity:1"
         d="m 131.92229,89.920283 h 36.1554 c 0.68892,0 1.24353,0.554619 1.24353,1.243539 v 3.284652 c 0,0.68892 -0.55461,1.243538 -1.24353,1.243538 h -36.1554 c -0.68892,0 -1.24353,-0.554618 -1.24353,-1.243538 v -3.284652 c 0,-0.68892 0.55461,-1.243539 1.24353,-1.243539 z" />
      <path
         style="fill:none;fill-opacity:1;stroke:none;stroke-width:1.55318574;stroke-linecap:square;stroke-miterlimit:4;stroke-dasharray:none;stroke-opacity:1"
         d="m 147.05792,212.45189 c -2.63991,-0.71096 -5.00707,-2.00852 -6.5143,-3.57082 -2.5936,-2.68835 -2.39847,2.05582 -2.39847,-58.31567 V 96.226288 h 13.93472 13.93472 V 150.9209 c 0,53.72997 -0.0123,54.71865 -0.69532,56.05754 -1.21649,2.38453 -4.34705,4.48687 -8.21441,5.51642 -2.35152,0.62601 -7.64701,0.60336 -10.04694,-0.043 z"
         id="path1792" />
      <path
         style="fill:none;fill-opacity:1;stroke:none;stroke-width:1.55318574;stroke-linecap:square;stroke-miterlimit:4;stroke-dasharray:none;stroke-opacity:1"
         d="m 147.05792,212.45189 c -2.63991,-0.71096 -5.00707,-2.00852 -6.5143,-3.57082 -2.5936,-2.68835 -2.39847,2.05582 -2.39847,-58.31567 V 96.226288 h 13.93472 13.93472 V 150.9209 c 0,53.72997 -0.0123,54.71865 -0.69532,56.05754 -1.21649,2.38453 -4.34705,4.48687 -8.21441,5.51642 -2.35152,0.62601 -7.64701,0.60336 -10.04694,-0.043 z"
         id="path1794" />
      <path
         style="fill:none;fill-opacity:1;stroke:none;stroke-width:1.55318574;stroke-linecap:square;stroke-miterlimit:4;stroke-dasharray:none;stroke-opacity:1"
         d="m 147.05792,212.45189 c -2.63991,-0.71096 -5.00707,-2.00852 -6.5143,-3.57082 -2.5936,-2.68835 -2.39847,2.05582 -2.39847,-58.31567 V 96.226288 h 13.93472 13.93472 V 150.9209 c 0,53.72997 -0.0123,54.71865 -0.69532,56.05754 -1.21649,2.38453 -4.34705,4.48687 -8.21441,5.51642 -2.35152,0.62601 -7.64701,0.60336 -10.04694,-0.043 z"
         id="path1796" />
      <path
         style="fill:none;fill-opacity:1;stroke:none;stroke-width:1.55318574;stroke-linecap:square;stroke-miterlimit:4;stroke-dasharray:none;stroke-opacity:1"
         d="m 147.05792,212.45189 c -2.63991,-0.71096 -5.00707,-2.00852 -6.5143,-3.57082 -2.5936,-2.68835 -2.39847,2.05582 -2.39847,-58.31567 V 96.226288 h 13.93472 13.93472 V 150.9209 c 0,53.72997 -0.0123,54.71865 -0.69532,56.05754 -1.21649,2.38453 -4.34705,4.48687 -8.21441,5.51642 -2.35152,0.62601 -7.64701,0.60336 -10.04694,-0.043 z"
         id="path1798" />
      <path
         style="fill:none;fill-opacity:1;stroke:none;stroke-width:1.55318574;stroke-linecap:square;stroke-miterlimit:4;stroke-dasharray:none;stroke-opacity:1"
         d="m 147.05792,212.45189 c -2.63991,-0.71096 -5.00707,-2.00852 -6.5143,-3.57082 -2.5936,-2.68835 -2.39847,2.05582 -2.39847,-58.31567 V 96.226288 h 13.93472 13.93472 V 150.9209 c 0,53.72997 -0.0123,54.71865 -0.69532,56.05754 -1.21649,2.38453 -4.34705,4.48687 -8.21441,5.51642 -2.35152,0.62601 -7.64701,0.60336 -10.04694,-0.043 z"
         id="path1800" />
      <path
         style="fill:none;stroke:#000000;stroke-width:1.55318574;stroke-linecap:round;stroke-linejoin:miter;stroke-miterlimit:4;stroke-dasharray:none;stroke-opacity:1"
         d="m 140.3305,130.41742 -18.32265,30.13221 -23.821328,39.17499 a 5.950908,5.950908 60.651364 0 0 5.084658,9.04276 h 14.31068 14.31067 18.03803"
         id="path5460"
         sodipodi:nodetypes="ccccccc"
         inkscape:path-effect="#path-effect5464"
         inkscape:original-d="m 140.3305,130.41742 -23.82133,39.17497 -23.821322,39.17499 h 14.310682 14.31067 14.31068 14.31068" />
      <path
         style="fill:none;stroke:#000000;stroke-width:1.55318574;stroke-linecap:round;stroke-linejoin:miter;stroke-miterlimit:4;stroke-dasharray:none;stroke-opacity:1"
         d="m 159.67027,130.41742 18.32266,30.13221 23.82133,39.17499 a 5.9509083,5.9509083 119.34864 0 1 -5.08466,9.04276 h -14.31068 -14.31068 -18.03802"
         id="path5460-4"
         sodipodi:nodetypes="ccccccc"
         inkscape:path-effect="#path-effect5511"
         inkscape:original-d="m 159.67027,130.41742 23.82134,39.17497 23.82132,39.17499 H 193.00225 178.69157 164.3809 150.07022" />
      <circle
         id="path884"
         style="fill:#ff7f2a;stroke:#dc551b;stroke-width:1.55318574;stroke-miterlimit:4;stroke-dasharray:none"
         cx="63.610146"
         cy="177.60951"
         r="0.083067372" />
      <circle
         id="path886"
         style="fill:#ff7f2a;stroke:#dc551b;stroke-width:1.55318574;stroke-miterlimit:4;stroke-dasharray:none"
         cx="68.848633"
         cy="185.09306"
         r="0.083067372" />
      <circle
         id="path888"
         style="fill:#ff7f2a;stroke:#dc551b;stroke-width:1.55318574;stroke-miterlimit:4;stroke-dasharray:none"
         cx="68.100273"
         cy="185.09306"
         r="0.083067372" />
      <path
         style="fill:#008000;stroke:none;stroke-width:5.87030838;stroke-linecap:round;stroke-miterlimit:4;stroke-dasharray:none"
         d="m 386.72883,786.91904 c -6.24107,-1.04112 -11.98399,-5.48505 -15.0157,-11.6193 -1.39535,-2.82329 -1.73661,-4.09828 -1.91313,-7.14761 -0.24188,-4.17828 0.4242,-7.68601 2.06475,-10.87345 0.6005,-1.16672 24.51852,-40.62328 53.15115,-87.68124 l 52.05934,-85.55992 89.79206,-0.11906 89.79206,-0.11906 52.78652,86.85749 c 29.03259,47.77163 53.15812,87.81209 53.6123,88.97882 1.83634,4.71739 1.34842,11.60461 -1.17215,16.54534 -2.10825,4.1325 -6.77233,8.13515 -11.65168,9.9993 l -2.7026,1.03252 -179.13372,0.0646 c -103.8861,0.0374 -180.19879,-0.11311 -181.6692,-0.3584 z"
         id="path894"
         transform="scale(0.26458333)" />
      <path
         style="fill:#ececec;stroke-width:5.87030838;stroke-miterlimit:4;stroke-dasharray:none"
         d="m 496.75386,359.04846 c -0.69627,-0.83895 -0.99715,-4.20143 -0.82255,-9.19239 l 0.27531,-7.86955 h 70.71068 70.71067 l 0.27531,7.86955 c 0.1746,4.99096 -0.12628,8.35344 -0.82255,9.19239 -1.64259,1.97921 -138.68427,1.97921 -140.32687,0 z"
         id="path2737"
         transform="scale(0.26458333)" />
    </g>
  </g>
</svg>
