<?xml version="1.0" encoding="UTF-8" standalone="no"?>
<svg
   width="300mm"
   height="300mm"
   viewBox="0 0 300 300"
   version="1.1"
   id="svg61"
   inkscape:version="1.2.2 (732a01da63, 2022-12-09)"
   sodipodi:docname="puncture.svg"
   xml:space="preserve"
   xmlns:inkscape="http://www.inkscape.org/namespaces/inkscape"
   xmlns:sodipodi="http://sodipodi.sourceforge.net/DTD/sodipodi-0.dtd"
   xmlns="http://www.w3.org/2000/svg"
   xmlns:svg="http://www.w3.org/2000/svg"
   xmlns:rdf="http://www.w3.org/1999/02/22-rdf-syntax-ns#"
   xmlns:cc="http://creativecommons.org/ns#"
   xmlns:dc="http://purl.org/dc/elements/1.1/"><defs
     id="defs55" /><sodipodi:namedview
     id="base"
     pagecolor="#ffffff"
     bordercolor="#666666"
     borderopacity="1.0"
     inkscape:pageopacity="0.0"
     inkscape:pageshadow="2"
     inkscape:zoom="0.74999999"
     inkscape:cx="328"
     inkscape:cy="570.00001"
     inkscape:document-units="mm"
     inkscape:current-layer="layer3"
     inkscape:document-rotation="0"
     showgrid="false"
     inkscape:window-width="1920"
     inkscape:window-height="991"
     inkscape:window-x="-9"
     inkscape:window-y="-9"
     inkscape:window-maximized="1"
     inkscape:snap-global="true"
     inkscape:showpageshadow="2"
     inkscape:pagecheckerboard="0"
     inkscape:deskcolor="#d1d1d1"
     showguides="true" /><metadata
     id="metadata58"><rdf:RDF><cc:Work
         rdf:about=""><dc:format>image/svg+xml</dc:format><dc:type
           rdf:resource="http://purl.org/dc/dcmitype/StillImage" /></cc:Work></rdf:RDF></metadata><g
     inkscape:label="Layer 1"
     inkscape:groupmode="layer"
     id="layer1" /><g
     inkscape:groupmode="layer"
     id="layer3"
     inkscape:label="Layer 2"
     style="display:inline"><path
       style="fill:#713a42;fill-opacity:1;stroke:#f51919;stroke-width:0.55974;stroke-dasharray:none;stroke-opacity:1"
       d="m 227.91607,253.12206 c -0.2091,-0.42922 -3.63273,-7.25942 -7.60794,-15.17823 -3.97521,-7.91879 -7.55714,-15.44132 -7.95984,-16.71674 -0.61632,-1.9519 -1.0586,-2.3932 -2.79462,-2.78843 -1.98488,-0.45186 -2.06999,-0.58621 -2.26289,-3.57133 -0.16865,-2.61128 -0.55564,-3.46539 -2.4465,-5.40086 -1.7772,-1.81916 -2.24608,-2.77356 -2.24608,-4.57221 0,-2.72613 -2.05668,-6.17426 -5.84155,-9.79349 -2.46844,-2.36045 -2.67458,-2.77957 -2.32294,-4.72243 0.36833,-2.035 0.2532,-2.21877 -2.52879,-4.03672 -2.62504,-1.71539 -2.95925,-2.18899 -3.36299,-4.76611 -0.41156,-2.62691 -0.7654,-3.10629 -4.31666,-5.84843 l -3.86837,-2.98698 0.1832,-3.52805 0.1832,-3.52807 -2.92607,-1.37585 c -3.44314,-1.61902 -3.6711,-1.84948 -4.2345,-4.28093 -0.24705,-1.06609 -2.00201,-3.51081 -4.12745,-5.74967 -2.03374,-2.14226 -4.43165,-5.3525 -5.32869,-7.13388 -1.18798,-2.3591 -2.25125,-3.56516 -3.91441,-4.44012 -1.41662,-0.74524 -3.12859,-2.47196 -4.50993,-4.54879 -1.83592,-2.76021 -2.2018,-3.83507 -2.08557,-6.12626 0.1943,-3.83133 -1.72219,-6.37294 -4.80563,-6.37294 h -2.16113 l -0.23621,-4.14741 -0.23623,-4.14739 -3.30244,-2.74621 c -9.50529,-7.90422 -14.20264,-13.79316 -14.93037,-18.717754 l -0.43811,-2.964808 -2.91121,-0.348149 c -3.20021,-0.382699 -3.60029,-0.768067 -4.77249,-4.597104 -0.50151,-1.638174 -1.78258,-3.499173 -3.58145,-5.202708 -1.54036,-1.458717 -4.0498,-4.137248 -5.5765,-5.952271 -1.52671,-1.815052 -3.77388,-3.769674 -4.99375,-4.343638 -1.71725,-0.808005 -2.2179,-1.386557 -2.2179,-2.563005 0,-1.159353 -2.33726,-3.952162 -9.862404,-11.784786 C 88.14654,52.494358 83.258033,47.523766 82.707553,47.094543 c -0.550479,-0.429223 0.409939,1.326692 2.134225,3.90204 1.724311,2.575352 7.525888,11.584914 12.892376,20.021273 5.366526,8.436358 10.272936,15.861591 10.903126,16.500525 0.63022,0.638914 1.33294,2.286345 1.5616,3.660946 0.26158,1.572513 1.24385,3.479929 2.649,5.143835 1.22828,1.454538 2.44182,3.557187 2.69675,4.672568 0.26591,1.16347 1.95491,3.72517 3.96207,6.00924 3.22746,3.67279 3.49855,4.20892 3.49855,6.91943 0,1.65257 0.44825,3.62946 1.02443,4.518 0.56345,0.86891 0.94237,2.48616 0.84208,3.59392 -0.10029,1.10773 0.073,2.19963 0.38495,2.42643 0.31575,0.22951 0.35119,0.0663 0.0799,-0.36802 -0.26808,-0.42923 0.15065,-0.19507 0.93063,0.52026 0.77993,0.71537 1.23052,1.0107 1.00132,0.6563 -0.27478,-0.42494 -0.0732,-0.53924 0.59205,-0.33569 0.55481,0.1697 0.81546,0.55806 0.57927,0.86285 -0.2687,0.34674 -0.0261,0.43072 0.64832,0.22437 0.5928,-0.1813 1.03389,-0.16262 0.98026,0.0417 -0.0535,0.20431 0.21033,0.95678 0.58633,1.67215 0.37611,0.71536 1.74348,3.39245 3.0386,5.94906 1.71607,3.38767 2.97472,5.05596 4.64069,6.15108 2.04223,1.34244 2.28596,1.77287 2.28596,4.03674 0,2.21612 0.22636,2.64069 1.80413,3.38395 0.99227,0.46744 2.43567,1.59275 3.20754,2.5007 0.77189,0.90796 2.14105,2.47024 3.04258,3.47176 1.25368,1.39272 1.80186,2.91734 2.33099,6.48279 l 0.69185,4.66183 3.62117,2.91823 c 3.29826,2.65801 3.74975,3.30935 5.06297,7.30443 1.04674,3.18432 1.79933,4.51487 2.7466,4.85584 2.25036,0.81002 8.33693,7.03796 11.17848,11.4381 2.55079,3.94991 2.89287,4.24974 5.33274,4.67405 2.51251,0.43695 2.64835,0.56913 3.74308,3.64191 0.62477,1.75368 1.16722,4.32842 1.20544,5.72166 0.0673,2.45171 0.15361,2.56045 2.68865,3.38176 3.85552,1.24918 4.03219,1.39654 5.23477,4.36657 0.78338,1.93466 2.15357,3.58469 4.72307,5.68762 3.35764,2.74793 3.64153,3.17329 3.92277,5.87798 0.30063,2.89103 0.33004,2.92652 3.48181,4.20019 2.92371,1.18147 3.17864,1.43598 3.17864,3.17317 0,1.39486 0.60801,2.4804 2.32554,4.15193 1.27907,1.24478 2.90363,3.61011 3.61017,5.25629 1.12286,2.61617 2.11936,3.61538 7.91393,7.93563 3.64613,2.71842 6.45819,4.59139 6.24902,4.16217 z m -53.36889,-6.07802 c -1.07377,-2.05524 -1.76756,-4.12071 -1.54176,-4.58992 0.23646,-0.49123 -0.17458,-1.48437 -0.96891,-2.34104 -0.75869,-0.81835 -1.64641,-2.43549 -1.97271,-3.59364 -0.32631,-1.15816 -1.21301,-2.94335 -1.97047,-3.96714 -0.77376,-1.04583 -1.37715,-2.76016 -1.37715,-3.91274 0,-1.66035 -0.23351,-2.05134 -1.22568,-2.05134 -1.0014,0 -1.5581,-0.97576 -3.04253,-5.33279 -0.99928,-2.93303 -2.36113,-5.89635 -3.02636,-6.58515 -0.66522,-0.68879 -1.05533,-1.6397 -0.86689,-2.11316 0.19406,-0.48783 -0.49975,-1.74862 -1.60144,-2.9098 -1.2537,-1.32141 -1.95045,-2.67689 -1.96216,-3.8172 -0.0173,-1.6856 -5.36859,-10.43015 -6.41322,-10.47987 -0.25034,-0.0118 -1.56496,-0.80375 -2.92146,-1.75967 -2.33808,-1.64765 -2.49863,-1.96433 -3.0884,-6.09152 -0.35099,-2.45629 -0.99735,-4.58024 -1.48315,-4.87378 -0.47357,-0.28615 -2.12827,-1.86649 -3.67708,-3.51184 -1.54882,-1.64537 -3.24371,-2.99157 -3.76643,-2.99157 -0.52272,0 -1.80857,-0.68434 -2.85743,-1.52078 -1.54349,-1.23092 -1.907,-1.9677 -1.907,-3.86533 0,-1.672 -0.81277,-3.74103 -2.83335,-7.21281 -2.58911,-4.4486 -3.05852,-4.93881 -5.44516,-5.68644 -2.27386,-0.71232 -2.66601,-1.08005 -3.03104,-2.84244 -0.23055,-1.11336 -0.42254,-2.65717 -0.42648,-3.43068 -0.005,-1.15301 -0.50876,-1.58333 -2.79109,-2.38845 -2.47951,-0.87469 -2.90715,-1.29381 -3.91084,-3.83303 -0.61982,-1.56802 -1.8625,-3.40203 -2.76149,-4.07555 -0.95316,-0.71409 -1.63458,-1.80386 -1.63458,-2.61409 0,-0.76421 -0.61138,-1.83074 -1.35866,-2.37003 -0.74724,-0.53931 -1.74606,-1.71996 -2.21953,-2.62367 -0.7018,-1.33948 -27.01587,-29.88431 -29.199976,-31.67538 -0.348951,-0.28614 0.0964,0.65034 0.989803,2.08108 0.893327,1.43073 4.185249,7.04967 7.315369,12.48651 3.130145,5.43685 6.963862,11.33981 8.519414,13.11769 2.443901,2.79321 2.753602,3.44016 2.27889,4.7602 -0.47905,1.33204 -0.270714,1.74307 1.626944,3.20983 1.416503,1.09488 2.326176,2.38959 2.605565,3.70839 0.322676,1.52307 1.079561,2.44254 3.048185,3.70292 2.576156,1.64936 2.612526,1.71996 2.229326,4.32692 -0.36555,2.48677 -0.28463,2.68832 1.31245,3.26862 1.44773,0.52605 1.64333,0.8525 1.3092,2.18489 -0.34661,1.38201 -0.12373,1.69305 1.89279,2.64189 2.22809,1.04836 2.27524,1.13814 1.87157,3.56486 -0.41139,2.47311 -0.40034,2.49184 1.68326,2.85678 1.7622,0.30866 2.35384,0.82989 3.70261,3.26208 0.88292,1.59209 2.76189,3.94254 4.17546,5.22321 2.02728,1.83667 2.57016,2.74544 2.57016,4.30246 0,2.92859 0.88132,4.28132 3.78915,5.81591 l 2.61558,1.38036 -0.36318,4.22563 -0.36318,4.22563 4.30256,3.47245 c 3.90474,3.1514 4.34364,3.7249 4.74726,6.20279 0.38179,2.34383 0.7456,2.8786 2.57013,3.77785 2.09323,1.03168 2.89963,2.27902 2.91717,4.51215 0.005,0.65585 0.81553,1.59323 1.91916,2.21992 1.05061,0.59659 2.26081,1.95875 2.6893,3.027 0.42851,1.06824 1.86586,3.11285 3.19408,4.54362 1.32824,1.43073 2.96506,3.83048 3.63735,5.33278 1.13981,2.54688 1.36797,2.73142 3.37692,2.73142 1.98258,0 2.15452,0.13096 2.15452,1.64177 0,1.97448 2.34647,4.58565 5.53145,6.15542 1.97379,0.97282 2.29735,1.40976 2.29735,3.10248 0,1.61745 0.49944,2.37835 2.78942,4.24982 1.5342,1.25378 4.02901,3.45021 5.54406,4.88096 l 2.75463,2.60135 z m -47.92061,-0.94565 c -0.26684,-0.5723 -1.38482,-3.03057 -2.48438,-5.46285 -1.09956,-2.43227 -2.68591,-5.16758 -3.52523,-6.07847 -0.8393,-0.91088 -1.52602,-2.03033 -1.52602,-2.48763 0,-0.45728 -0.44036,-0.9662 -0.9786,-1.13091 -0.65342,-0.19995 -0.9786,-1.0205 -0.9786,-2.46926 0,-1.19339 -0.45437,-2.68713 -1.00972,-3.31945 -0.68655,-0.78165 -0.87723,-1.71289 -0.59576,-2.90941 0.45604,-1.93864 -0.99496,-4.73249 -3.87589,-7.46288 -1.04213,-0.98765 -1.50338,-1.9283 -1.27986,-2.60996 0.22389,-0.68254 -0.0908,-1.32153 -0.87456,-1.77698 -0.87972,-0.51114 -1.4278,-1.8649 -1.94842,-4.81256 -0.59356,-3.36056 -1.0243,-4.3003 -2.38484,-5.20271 -1.02356,-0.67893 -2.06714,-2.24887 -2.72087,-4.09314 -0.88063,-2.4845 -1.61841,-3.36664 -4.351262,-5.20271 -2.677434,-1.79884 -3.941111,-3.281 -6.779531,-7.95183 -2.308663,-3.79906 -4.158951,-6.13606 -5.470226,-6.90919 -1.357408,-0.80031 -1.983492,-1.61398 -1.98783,-2.58345 -0.005,-0.82769 -0.951606,-2.36347 -2.28339,-3.69952 -1.252394,-1.25642 -2.27706,-2.47032 -2.27706,-2.69756 0,-0.22725 -0.304499,-1.05186 -0.676667,-1.83246 -0.514251,-1.07867 -0.858702,-1.27409 -1.435269,-0.81427 -1.122095,0.89482 -1.802472,0.73698 -1.802472,-0.41819 0,-0.56274 -1.247731,-2.19539 -2.772708,-3.62809 -1.525001,-1.43269 -3.73038,-3.60613 -4.900851,-4.82986 -4.138126,-4.32639 -10.796948,-11.0795 -11.65931,-11.82436 -0.480592,-0.4151 1.764438,3.74281 4.988917,9.2398 3.224504,5.49702 5.862725,10.65977 5.862725,11.47281 0,0.96442 1.108832,2.64632 3.190067,4.83875 4.884405,5.14543 7.370565,9.41865 7.176457,12.33499 -0.107684,1.6192 0.221185,2.88765 0.992699,3.8265 0.634634,0.77241 1.310273,2.40835 1.501397,3.63536 0.247986,1.59197 0.982582,2.7621 2.564747,4.08522 l 2.217213,1.85421 -1.010838,2.2848 c -1.108531,2.5056 -0.906665,3.63178 0.650981,3.63178 0.557512,0 2.328206,0.9663 3.934882,2.14735 2.913423,2.14161 2.921233,2.15685 2.921233,5.70963 0,3.43186 0.07146,3.59183 1.957204,4.36939 1.660403,0.68473 1.957205,1.11083 1.957205,2.80982 0,1.76357 0.214277,2.03931 1.794086,2.30937 1.434905,0.24529 2.620545,1.40413 5.922011,5.78803 2.27035,3.01474 4.52924,5.48134 5.01973,5.48134 1.79254,0 4.387,2.38066 4.79937,4.40387 0.36463,1.78895 0.71248,2.09199 3.24719,2.82899 2.36647,0.6881 3.44216,1.51846 6.46502,4.99056 4.14081,4.75619 5.14178,5.69796 4.42703,4.16513 z m 113.08326,-50.55236 c -4.47336,-11.76707 -5.01884,-12.81846 -8.48679,-16.3584 -1.57112,-1.60372 -1.75351,-2.11366 -1.2534,-3.50424 0.53583,-1.48999 0.37527,-1.77085 -1.90163,-3.32589 -1.56968,-1.07204 -2.78924,-2.50385 -3.30666,-3.8821 -0.53031,-1.41263 -1.66967,-2.72831 -3.22685,-3.72625 -2.34236,-1.50114 -2.39579,-1.61273 -1.98746,-4.15095 0.38305,-2.38113 0.28824,-2.65605 -1.08822,-3.1562 -1.13689,-0.4131 -1.50779,-0.97485 -1.50779,-2.28362 0,-1.46377 -0.34966,-1.8687 -2.23156,-2.58437 -1.54382,-0.58711 -2.15974,-1.13789 -1.99855,-1.78725 1.0622,-4.27909 1.06811,-4.25825 -1.31347,-4.61456 -2.6348,-0.39418 -3.0412,-0.74703 -4.53765,-3.93974 -0.62206,-1.32713 -2.278,-3.30615 -3.67988,-4.39781 -1.90481,-1.4833 -2.54892,-2.4019 -2.54892,-3.63519 0,-3.64895 -0.71714,-4.88842 -3.61094,-6.24083 l -2.78627,-1.30217 0.35715,-4.15545 0.35716,-4.15543 -4.66116,-3.83352 c -4.36899,-3.5932 -4.66114,-3.97938 -4.66114,-6.16103 0,-2.13908 -0.21131,-2.43905 -2.60961,-3.70473 -1.7418,-0.91922 -2.61255,-1.76402 -2.6185,-2.54043 -0.0173,-2.166448 -0.73045,-3.321053 -2.59692,-4.200317 -1.11495,-0.525228 -2.03263,-1.501534 -2.29011,-2.436372 -0.23621,-0.857951 -1.72136,-2.930299 -3.30015,-4.605202 -1.5788,-1.674904 -3.48329,-4.322204 -4.23224,-5.882901 -1.27569,-2.658467 -1.48244,-2.823519 -3.27407,-2.61381 -1.67339,0.195853 -1.91243,0.06368 -1.91243,-1.057833 0,-1.835457 -3.60532,-5.550067 -6.23826,-6.427372 -2.08313,-0.694109 -2.24293,-0.913695 -2.24293,-3.081605 0,-1.283837 -0.27922,-2.334232 -0.62049,-2.334232 -0.34125,0 -3.5055,-2.048574 -7.03164,-4.552387 -3.52617,-2.503792 -6.91522,-4.872714 -7.53127,-5.26424 -0.61603,-0.391546 0.22834,1.077207 1.87643,3.263841 1.81137,2.403362 2.83728,4.306489 2.594,4.812082 -0.23621,0.491108 0.27592,1.545611 1.24085,2.554488 0.90382,0.944985 1.64481,2.260533 1.64664,2.92346 0.003,0.662938 0.72664,2.141818 1.61064,3.286405 0.88402,1.144618 1.61646,2.849522 1.62765,3.78875 0.0148,1.263023 0.38517,1.815262 1.42151,2.120973 1.10773,0.326795 1.79185,1.527226 3.26702,5.732704 1.02622,2.92564 2.49033,5.992899 3.25353,6.81615 0.76323,0.823221 1.2331,1.817972 1.04421,2.210557 -0.18888,0.392596 0.50547,1.621819 1.54311,2.731607 1.15557,1.235894 1.88662,2.659564 1.88662,3.674014 0,1.91666 4.52882,8.87279 6.70229,10.29449 5.91485,3.86904 5.69331,3.56075 5.69331,7.92269 0,3.19662 0.23375,4.17187 1.1417,4.76543 0.72469,0.4737 0.78426,0.61632 0.16299,0.39046 -0.53823,-0.19566 -0.2308,0.19666 0.68321,0.87189 0.91399,0.67523 1.34048,1.11066 0.9478,0.96758 -0.39273,-0.14315 0.0337,0.29234 0.94778,0.96758 0.91398,0.67523 1.2371,1.04266 0.71801,0.81652 -0.55561,-0.24205 -0.35402,0.24937 0.49007,1.19471 1.07315,1.20185 1.80301,1.54138 2.90102,1.34949 1.20443,-0.21049 1.29188,-0.15103 0.48852,0.33229 -0.80273,0.48287 -0.68546,0.56111 0.65239,0.43535 1.03247,-0.0972 1.57116,0.0854 1.46789,0.49697 -0.0898,0.35769 0.0572,0.59181 0.3262,0.52027 0.26911,-0.0716 0.58355,0.10402 0.69876,0.39021 0.11508,0.28615 0.64353,0.71399 1.17406,0.95078 0.71448,0.31885 0.9273,1.2556 0.82066,3.61222 -0.0936,2.06928 0.12448,3.25313 0.62412,3.38592 0.42242,0.11228 0.60211,0.41829 0.39927,0.67999 -0.20268,0.2617 -0.0404,0.47584 0.36064,0.47584 0.40118,0 0.54798,0.23412 0.3262,0.52027 -0.22167,0.28615 -0.10154,0.52028 0.26722,0.52028 0.36876,0 0.50146,0.35118 0.29491,0.7804 -0.20664,0.42922 -0.0861,0.78042 0.26753,0.78042 0.69544,0 2.52607,3.10713 2.2451,3.81063 -0.0941,0.23588 0.13537,0.27777 0.51004,0.093 1.0715,-0.52808 5.12668,0.74792 5.47045,1.72135 0.17064,0.48308 0.51077,2.13652 0.75591,3.67428 0.42323,2.65466 0.57482,2.83637 3.00022,3.59614 2.19688,0.6882 2.65457,1.11718 3.26936,3.06421 0.39316,1.24522 1.70368,3.25583 2.91224,4.46807 1.20855,1.21224 2.20023,2.70219 2.2037,3.31097 0.003,0.60879 0.48889,1.42627 1.07866,1.8166 0.58976,0.39035 1.54388,1.5584 2.12031,2.59571 1.74431,3.13912 10.65443,12.22553 13.53136,13.79911 2.02341,1.10672 4.36444,3.5899 9.36941,9.93836 3.66963,4.65464 6.75034,8.46301 6.84599,8.46301 0.0957,0 -1.84338,-5.30648 -4.30898,-11.79215 z"
       id="path1590"
       sodipodi:nodetypes="cssssssssssscccsssssssscccsscssssssssssssssssssssssssscsssssssscssssssssssssssssccssssssssscsscsssssssssscsssssssssssssssssssssssscccssscsssssssssscsssssssssssssssssscssssssssssssssscssssssssssssscssssssssssssssscccssscsssssssssssssscscssssssssssssssssscsssssscsssssscssssscssssscc" /></g><g
     inkscape:groupmode="layer"
     id="layer2"
     inkscape:label="Layer 3" /></svg>
