<?xml version="1.0" encoding="UTF-8" standalone="no"?>
<svg
   xmlns:dc="http://purl.org/dc/elements/1.1/"
   xmlns:cc="http://creativecommons.org/ns#"
   xmlns:rdf="http://www.w3.org/1999/02/22-rdf-syntax-ns#"
   xmlns:svg="http://www.w3.org/2000/svg"
   xmlns="http://www.w3.org/2000/svg"
   xmlns:sodipodi="http://sodipodi.sourceforge.net/DTD/sodipodi-0.dtd"
   xmlns:inkscape="http://www.inkscape.org/namespaces/inkscape"
   width="300mm"
   height="300mm"
   viewBox="0 0 300 300"
   version="1.1"
   id="svg61"
   inkscape:version="1.0.2 (e86c870879, 2021-01-15)"
   sodipodi:docname="revelry.svg">
  <defs
     id="defs55" />
  <sodipodi:namedview
     id="base"
     pagecolor="#ffffff"
     bordercolor="#666666"
     borderopacity="1.0"
     inkscape:pageopacity="0.0"
     inkscape:pageshadow="2"
     inkscape:zoom="0.53033009"
     inkscape:cx="1074.4189"
     inkscape:cy="514.01159"
     inkscape:document-units="mm"
     inkscape:current-layer="layer3"
     inkscape:document-rotation="0"
     showgrid="false"
     inkscape:window-width="1920"
     inkscape:window-height="1002"
     inkscape:window-x="-8"
     inkscape:window-y="-8"
     inkscape:window-maximized="1"
     inkscape:snap-global="false"
     showguides="true"
     inkscape:guide-bbox="true"
     inkscape:snap-bbox="false" />
  <metadata
     id="metadata58">
    <rdf:RDF>
      <cc:Work
         rdf:about="">
        <dc:format>image/svg+xml</dc:format>
        <dc:type
           rdf:resource="http://purl.org/dc/dcmitype/StillImage" />
        <dc:title />
      </cc:Work>
    </rdf:RDF>
  </metadata>
  <g
     inkscape:label="Layer 1"
     inkscape:groupmode="layer"
     id="layer1" />
  <g
     inkscape:groupmode="layer"
     id="layer3"
     inkscape:label="Layer 2"
     style="display:inline">
    <path
       id="rect2857"
       style="fill:#eeeeee;fill-opacity:1;stroke:#000000;stroke-width:0.965392;stroke-linecap:square;stroke-miterlimit:4;stroke-dasharray:none;stroke-opacity:1"
       d="m 196.23686,59.607266 c -1.43738,0.466581 -2.87541,0.903915 -4.31229,1.31354 -1.43689,0.409627 -2.87277,0.791513 -4.3063,1.146917 -1.43353,0.355405 -2.86454,0.684359 -4.29183,0.988274 -1.42731,0.303916 -2.85118,0.582453 -4.26939,0.837614 -1.4182,0.255161 -2.8307,0.48679 -4.23696,0.695933 -1.40624,0.209142 -2.80611,0.395879 -4.19753,0.561735 -2.78287,0.331709 -5.53308,0.579831 -8.23945,0.7548 -2.70637,0.174968 -5.36859,0.276688 -7.97553,0.316785 -2.60695,0.0401 -5.1587,0.01852 -7.64329,-0.05438 -2.4846,-0.0729 -4.90236,-0.197156 -7.24169,-0.361187 -2.33931,-0.164034 -4.60013,-0.367855 -6.77125,-0.601147 -2.17111,-0.233289 -4.25249,-0.49607 -6.23246,-0.776749 -1.97997,-0.280678 -3.85842,-0.579311 -5.62433,-0.885506 -1.76591,-0.306195 -3.41944,-0.619566 -4.94836,-0.929406 -1.52891,-0.30984 -2.93353,-0.616342 -4.20252,-0.907955 -2.53799,-0.583228 -4.53302,-1.108052 -5.89373,-1.487151 -1.36071,-0.379099 -2.0868,-0.612121 -2.0868,-0.612121 -0.56441,2.107146 -1.06033,4.149205 -1.49114,6.128197 -0.43082,1.978989 -0.79683,3.894692 -1.10152,5.749548 -0.3047,1.854857 -0.54779,3.648635 -0.73385,5.383375 -0.18606,1.734741 -0.31472,3.410529 -0.38962,5.029174 -0.0749,1.618643 -0.09613,3.180373 -0.06735,4.686943 0.02877,1.506568 0.10751,2.957674 0.23247,4.356188 0.12497,1.398512 0.29618,2.744426 0.50985,4.038903 0.21368,1.294474 0.46987,2.537631 0.76478,3.732091 0.29491,1.194461 0.6281,2.339789 0.99676,3.438259 0.36866,1.09846 0.77236,2.1499 1.20728,3.15638 0.43493,1.00649 0.90115,1.96798 1.39485,2.88651 0.49372,0.91853 1.01499,1.79449 1.56,2.62907 0.54501,0.8346 1.11382,1.62797 1.70266,2.38264 0.58884,0.75468 1.19772,1.47039 1.8229,2.14916 0.62516,0.67878 1.26663,1.32076 1.92067,1.92766 0.65403,0.60689 1.32058,1.17859 1.996,1.71762 0.67542,0.53905 1.35957,1.04539 2.04888,1.52058 0.68932,0.47521 1.3841,0.91961 2.07982,1.33499 0.69573,0.41539 1.39263,0.80181 2.08731,1.16139 0.69465,0.35959 1.3867,0.69244 2.07282,1.00025 1.37223,0.61561 2.7203,1.13136 4.01346,1.56397 1.29315,0.43261 2.53147,0.78183 3.68569,1.06362 1.15424,0.28176 2.2244,0.49641 3.17984,0.6595 0.95546,0.1631 1.79608,0.27465 2.49289,0.35121 1.39364,0.15315 2.21053,0.16563 2.21053,0.16563 h 24.08175 c 0,0 0.81638,-0.0125 2.21003,-0.16563 0.69681,-0.0765 1.53793,-0.18811 2.49338,-0.35121 0.95544,-0.16309 2.02511,-0.37774 3.17934,-0.6595 1.15422,-0.28179 2.39304,-0.63101 3.68619,-1.06362 1.29316,-0.43261 2.64073,-0.94836 4.01296,-1.56397 0.68612,-0.30781 1.37817,-0.64066 2.07283,-1.00025 0.69467,-0.35958 1.39207,-0.746 2.0878,-1.16139 0.69573,-0.41538 1.39,-0.85978 2.07931,-1.33499 0.68932,-0.47519 1.37347,-0.98153 2.0489,-1.52058 0.67541,-0.53903 1.34196,-1.11073 1.996,-1.71762 0.65403,-0.6069 1.2955,-1.24888 1.92067,-1.92766 0.62517,-0.67877 1.23406,-1.39448 1.82289,-2.14916 0.58885,-0.75467 1.15766,-1.54804 1.70266,-2.38264 0.54502,-0.83458 1.06628,-1.71054 1.56,-2.62907 0.4937,-0.91853 0.95993,-1.88002 1.39485,-2.88651 0.43493,-1.00648 0.83863,-2.05792 1.20729,-3.15638 0.36865,-1.09847 0.70234,-2.243798 0.99725,-3.438259 0.2949,-1.19446 0.5511,-2.437617 0.76478,-3.732091 0.21367,-1.294477 0.38489,-2.640391 0.50985,-4.038903 0.12496,-1.398514 0.2037,-2.84962 0.23247,-4.356188 0.0288,-1.50657 0.008,-3.0683 -0.0673,-4.686943 -0.0749,-1.618645 -0.20356,-3.294433 -0.38962,-5.029174 -0.18606,-1.73474 -0.42966,-3.528518 -0.73435,-5.383375 -0.30469,-1.854856 -0.67071,-3.770559 -1.10152,-5.749548 -0.43081,-1.978992 -0.92623,-4.021051 -1.49064,-6.128197 z" />
    <ellipse
       style="fill:#eeeeee;fill-opacity:1;stroke:#000000;stroke-width:1.06134;stroke-linecap:square;stroke-miterlimit:4;stroke-dasharray:none;stroke-opacity:1"
       id="path2690"
       cx="150.07669"
       cy="234.3354"
       rx="47.738556"
       ry="12.73028" />
    <path
       style="fill:#c42c58;fill-opacity:1;stroke:none;stroke-width:0.255424px;stroke-linecap:butt;stroke-linejoin:miter;stroke-opacity:1"
       d="m 199.48766,89.468293 c -49.12661,23.359227 -98.85525,-0.240817 -98.85525,-0.240817 0,0 -0.666804,34.605304 36.99798,38.154334 h 24.08176 c 0,0 35.21444,-0.34611 37.77551,-37.913517 z"
       id="path2864"
       sodipodi:nodetypes="ccccc" />
    <path
       id="path2861"
       style="fill:#eeeeee;fill-opacity:1;stroke:#000000;stroke-width:0.965392;stroke-linecap:butt;stroke-linejoin:round;stroke-miterlimit:4;stroke-dasharray:none;stroke-dashoffset:0;stroke-opacity:1;paint-order:markers fill stroke"
       d="m 154.40758,52.991167 c -2.60695,-0.0401 -5.1587,-0.01853 -7.64329,0.05438 -2.4846,0.0729 -4.90236,0.197153 -7.24169,0.361186 -2.33931,0.164033 -4.60013,0.367855 -6.77125,0.601147 -2.17111,0.23329 -4.25249,0.49607 -6.23246,0.77675 -1.97997,0.280678 -3.85842,0.579311 -5.62433,0.885505 -1.76591,0.306194 -3.41944,0.619567 -4.94836,0.929406 -1.52891,0.309841 -2.93353,0.616341 -4.20252,0.907955 -2.53799,0.583228 -4.53302,1.108053 -5.89373,1.487151 -1.36071,0.379098 -2.0868,0.612621 -2.0868,0.612621 0,0 0.72609,0.233022 2.0868,0.61212 1.36071,0.379099 3.35574,0.903922 5.89373,1.487151 1.26899,0.291613 2.67361,0.598115 4.20252,0.907955 1.52892,0.30984 3.18245,0.623211 4.94836,0.929406 1.76591,0.306196 3.64436,0.604828 5.62433,0.885506 1.97997,0.280679 4.06135,0.543459 6.23246,0.776749 2.17112,0.233292 4.43194,0.437113 6.77125,0.601148 2.33933,0.164031 4.75709,0.288281 7.24169,0.361185 2.48459,0.0729 5.03634,0.09448 7.64329,0.05438 2.60694,-0.0401 5.26916,-0.141817 7.97553,-0.316785 2.70637,-0.174969 5.45658,-0.423091 8.23945,-0.7548 1.39142,-0.165856 2.79129,-0.352594 4.19753,-0.561736 1.40626,-0.209141 2.81876,-0.440771 4.23696,-0.695932 1.41821,-0.255162 2.84208,-0.533697 4.26939,-0.837615 1.42729,-0.303914 2.8583,-0.632868 4.29183,-0.988273 1.43353,-0.355404 2.86941,-0.737289 4.3063,-1.146917 1.43688,-0.409626 2.87491,-0.846959 4.31229,-1.31354 -1.43738,-0.466583 -2.87541,-0.904415 -4.31229,-1.314041 -1.43689,-0.409626 -2.87277,-0.791513 -4.3063,-1.146916 -1.43353,-0.355405 -2.86454,-0.684358 -4.29183,-0.988274 -1.42731,-0.303917 -2.85118,-0.582452 -4.26939,-0.837613 -1.4182,-0.255162 -2.8307,-0.486791 -4.23696,-0.695934 -1.40624,-0.20914 -2.80611,-0.395878 -4.19753,-0.561733 -2.78287,-0.331712 -5.53308,-0.579833 -8.23945,-0.754801 -2.70637,-0.174968 -5.36859,-0.276689 -7.97553,-0.316787 z" />
    <path
       id="path2852"
       style="fill:#eeeeee;fill-opacity:1;stroke:#000000;stroke-width:0.965392;stroke-linecap:square;stroke-miterlimit:4;stroke-dasharray:none;stroke-opacity:1"
       d="m 137.95913,127.82012 c 0.35777,1.58149 0.69312,3.16816 1.00722,4.75879 0.31411,1.59062 0.60701,3.18524 0.87952,4.78123 0.54505,3.19197 1.00904,6.39067 1.40035,9.58141 0.39132,3.19074 0.70997,6.37325 0.96432,9.53254 0.25436,3.15928 0.44404,6.29522 0.5782,9.39283 0.13416,3.09761 0.21271,6.15716 0.24345,9.16287 0.0308,3.00569 0.0139,5.9575 -0.0419,8.84109 -0.0559,2.88358 -0.1511,5.69878 -0.27688,8.43001 -0.12577,2.73122 -0.28207,5.37848 -0.46095,7.92714 -0.17889,2.54865 -0.38044,4.99862 -0.59567,7.33448 -0.21522,2.33585 -0.44417,4.55769 -0.67896,6.65052 -0.46959,4.18567 -0.96161,7.85523 -1.40883,10.88748 -0.44722,3.03224 -0.84974,5.42707 -1.14043,7.06408 -0.29069,1.63702 -0.46944,2.51633 -0.46944,2.51633 h 24.08175 c 0,0 -0.17924,-0.87931 -0.46994,-2.51633 -0.29069,-1.63701 -0.69321,-4.03184 -1.14043,-7.06408 -0.44722,-3.03225 -0.93875,-6.70181 -1.40833,-10.88748 -0.23478,-2.09283 -0.46424,-4.31467 -0.67947,-6.65052 -0.21522,-2.33586 -0.41626,-4.78583 -0.59517,-7.33448 -0.17888,-2.54866 -0.33566,-5.19592 -0.46145,-7.92714 -0.12578,-2.73123 -0.22098,-5.54643 -0.27688,-8.43001 -0.0559,-2.88359 -0.0726,-5.8354 -0.0419,-8.84109 0.0308,-3.00571 0.10929,-6.06526 0.24345,-9.16287 0.13417,-3.09761 0.32435,-6.23355 0.5787,-9.39283 0.25435,-3.15929 0.573,-6.3418 0.96433,-9.53254 0.39132,-3.19074 0.85529,-6.38944 1.40033,-9.58141 0.27254,-1.59599 0.56493,-3.19061 0.87904,-4.78123 0.3141,-1.59063 0.64995,-3.1773 1.00772,-4.75879 z" />
    <path
       style="fill:#9b2c58;fill-opacity:1;stroke:#000000;stroke-width:0.241347;stroke-linecap:butt;stroke-linejoin:miter;stroke-miterlimit:4;stroke-dasharray:none;stroke-opacity:1"
       d="m 199.48766,89.468293 c -47.68171,-5.29797 -98.85525,-0.240817 -98.85525,-0.240817 0,0 47.9225,25.767384 98.85525,0.240817 z"
       id="path2870"
       sodipodi:nodetypes="ccc" />
  </g>
  <g
     inkscape:groupmode="layer"
     id="layer2"
     inkscape:label="Layer 3" />
</svg>
