<?xml version="1.0" encoding="UTF-8" standalone="no"?>
<svg
   xmlns:dc="http://purl.org/dc/elements/1.1/"
   xmlns:cc="http://creativecommons.org/ns#"
   xmlns:rdf="http://www.w3.org/1999/02/22-rdf-syntax-ns#"
   xmlns:svg="http://www.w3.org/2000/svg"
   xmlns="http://www.w3.org/2000/svg"
   xmlns:sodipodi="http://sodipodi.sourceforge.net/DTD/sodipodi-0.dtd"
   xmlns:inkscape="http://www.inkscape.org/namespaces/inkscape"
   width="300mm"
   height="300mm"
   viewBox="0 0 300 300"
   version="1.1"
   id="svg61"
   inkscape:version="1.0.2 (e86c870879, 2021-01-15)"
   sodipodi:docname="skull.svg">
  <defs
     id="defs55" />
  <sodipodi:namedview
     id="base"
     pagecolor="#ffffff"
     bordercolor="#666666"
     borderopacity="1.0"
     inkscape:pageopacity="0.0"
     inkscape:pageshadow="2"
     inkscape:zoom="0.53033008"
     inkscape:cx="683.57742"
     inkscape:cy="532.81007"
     inkscape:document-units="mm"
     inkscape:current-layer="layer1"
     inkscape:document-rotation="0"
     showgrid="false"
     inkscape:window-width="1920"
     inkscape:window-height="1002"
     inkscape:window-x="-8"
     inkscape:window-y="-8"
     inkscape:window-maximized="1"
     inkscape:snap-global="true" />
  <metadata
     id="metadata58">
    <rdf:RDF>
      <cc:Work
         rdf:about="">
        <dc:format>image/svg+xml</dc:format>
        <dc:type
           rdf:resource="http://purl.org/dc/dcmitype/StillImage" />
        <dc:title />
      </cc:Work>
    </rdf:RDF>
  </metadata>
  <g
     inkscape:label="Layer 1"
     inkscape:groupmode="layer"
     id="layer1"
     style="display:inline" />
  <g
     inkscape:groupmode="layer"
     id="layer3"
     inkscape:label="Layer 2"
     style="display:inline" />
  <g
     inkscape:groupmode="layer"
     id="layer2"
     inkscape:label="Layer 3"
     style="display:inline">
    <path
       id="path15012"
       style="color:#000000;opacity:0.8;fill:#cccccc;stroke-width:1.55163"
       inkscape:connector-curvature="0"
       d="m 150.00346,85.5 c -27.61431,0 -50.004288,22.39151 -50.004288,50.00582 0,13.80636 5.581208,26.31404 14.636528,35.36776 4.52609,4.52762 7.4478,33.0295 13.43244,35.56329 2.99229,1.26381 12.47349,1.89571 21.95471,1.89571 9.48121,0 18.96243,-0.6319 21.95475,-1.89571 5.98464,-2.53379 8.86753,-31.03567 13.39362,-35.56329 9.0553,-9.05372 14.67529,-21.5614 14.67529,-35.36776 0,-27.61431 -22.42874,-50.00582 -50.04305,-50.00582 z m -81.56904,26.55606 c -5.939604,0.14251 -11.51027,3.75182 -13.821254,9.62786 -1.540673,3.91708 -1.344626,8.09676 0.215916,11.68238 1.560543,3.58561 4.485581,6.57714 8.402891,8.11793 3.80554,1.49573 7.866294,1.2832 11.376097,-0.1554 l 21.196754,8.30742 c -1.182331,-4.55097 -2.018655,-9.2198 -2.018655,-14.13067 0,-3.35309 0.403469,-6.59131 0.971319,-9.78461 l -12.152346,-4.77434 c -1.588848,-3.44464 -4.386469,-6.34617 -8.192601,-7.84348 -1.958121,-0.76957 -3.998523,-1.0954 -5.978121,-1.04732 z m 163.13808,0 c -1.9861,-0.0527 -4.01871,0.27798 -5.98927,1.04734 -3.80149,1.49736 -6.59441,4.36166 -8.19259,7.80472 l -12.14462,4.77434 c 0.57237,3.20565 1.01015,6.4563 1.01015,9.82336 0,4.91707 -0.8612,9.61541 -2.05747,14.16942 l 21.22936,-8.34618 c 3.52216,1.43837 7.54088,1.61213 11.34236,0.11613 7.83574,-3.08151 11.69928,-11.88857 8.62703,-19.72273 -2.31187,-5.87603 -7.88224,-9.51303 -13.82495,-9.66662 z m -101.99311,11.37498 c 7.8419,0 14.20978,6.36788 14.20978,14.20978 0,7.84195 -6.36788,14.20983 -14.20978,14.20983 -7.84188,0 -14.20976,-6.36788 -14.20976,-14.20983 0,-7.8419 6.36788,-14.20978 14.20976,-14.20978 z m 40.84191,0 c 7.84195,0 14.20983,6.36788 14.20983,14.20978 0,7.84195 -6.36788,14.20983 -14.20983,14.20983 -7.84189,0 -14.20978,-6.36788 -14.20978,-14.20983 0,-7.8419 6.36789,-14.20978 14.20978,-14.20978 z m -67.59507,42.55027 -28.224088,11.10345 c -3.509739,-1.43684 -7.570493,-1.61218 -11.376033,-0.11613 -7.83462,3.08152 -11.700205,11.92734 -8.618807,19.7615 3.081334,7.83574 11.965514,11.66045 19.798732,8.58052 3.806132,-1.49736 6.603752,-4.36008 8.192588,-7.80314 L 113.3084,185.43275 c -0.49026,-1.93181 -1.00698,-4.10404 -1.47561,-5.66808 -0.92475,-3.08468 -2.56638,-5.44001 -1.63071,-4.5044 -2.79915,-2.79756 -5.21969,-5.93808 -7.37644,-9.27874 z m 94.34202,0 c -2.1676,3.34529 -4.61452,6.47801 -7.41519,9.27874 0.93871,-0.93878 -0.70913,1.41971 -1.63078,4.50433 -0.46388,1.5532 -0.98839,3.71153 -1.4756,5.62932 l 30.74085,12.11354 c 1.59817,3.44306 4.3911,6.30735 8.19259,7.80313 7.83569,3.07999 16.72649,-0.74479 19.81428,-8.58046 3.07219,-7.83416 -0.79135,-16.67999 -8.62709,-19.76155 -3.80149,-1.49578 -7.82019,-1.32044 -11.34236,0.11613 l -28.2598,-11.10345 z"
       sodipodi:nodetypes="ssccsccssccscccscccccccccsccccccsssssssssscccccccccccccccccccccc" />
  </g>
  <g
     inkscape:groupmode="layer"
     id="layer4"
     inkscape:label="Layer 4" />
</svg>
