<?xml version="1.0" encoding="UTF-8" standalone="no"?>
<svg
   xmlns:dc="http://purl.org/dc/elements/1.1/"
   xmlns:cc="http://creativecommons.org/ns#"
   xmlns:rdf="http://www.w3.org/1999/02/22-rdf-syntax-ns#"
   xmlns:svg="http://www.w3.org/2000/svg"
   xmlns="http://www.w3.org/2000/svg"
   xmlns:sodipodi="http://sodipodi.sourceforge.net/DTD/sodipodi-0.dtd"
   xmlns:inkscape="http://www.inkscape.org/namespaces/inkscape"
   width="210mm"
   height="297mm"
   viewBox="0 0 210 297"
   version="1.1"
   id="svg8"
   inkscape:version="1.0.2 (e86c870879, 2021-01-15)"
   sodipodi:docname="testsvg.svg">
  <defs
     id="defs2" />
  <sodipodi:namedview
     id="base"
     pagecolor="#ffffff"
     bordercolor="#666666"
     borderopacity="1.0"
     inkscape:pageopacity="0.0"
     inkscape:pageshadow="2"
     inkscape:zoom="0.35"
     inkscape:cx="400"
     inkscape:cy="560"
     inkscape:document-units="mm"
     inkscape:current-layer="layer1"
     inkscape:document-rotation="0"
     showgrid="false"
     inkscape:window-width="1920"
     inkscape:window-height="1002"
     inkscape:window-x="-8"
     inkscape:window-y="-8"
     inkscape:window-maximized="1" />
  <metadata
     id="metadata5">
    <rdf:RDF>
      <cc:Work
         rdf:about="">
        <dc:format>image/svg+xml</dc:format>
        <dc:type
           rdf:resource="http://purl.org/dc/dcmitype/StillImage" />
        <dc:title></dc:title>
      </cc:Work>
    </rdf:RDF>
  </metadata>
  <g
     inkscape:label="Layer 1"
     inkscape:groupmode="layer"
     id="layer1">
    <path
       style="fill:#c8beb7;stroke-width:0.264583"
       id="path18"
       d="m 50.012501,248.17078 c 5.079839,-11.40348 11.118324,-22.34433 16.989555,-33.34984 7.893291,-14.79583 5.412158,-10.13404 13.341225,-25.18621 10.134214,-18.76669 19.051339,-38.14964 28.142939,-57.43261 2.60346,-5.71464 5.54826,-11.29254 7.77487,-17.17363 1.27892,-3.378 2.18854,-6.37813 3.29053,-9.82103 3.33223,-10.18785 6.12576,-20.543686 8.9085,-30.892353 1.8934,-6.902558 3.95837,-13.776052 6.5695,-20.444184 2.01164,-5.441868 4.35641,-10.744928 6.73892,-16.031139 1.45826,-2.663462 2.52277,-5.422521 2.91079,-8.433056 0.27816,-1.599345 0.62075,-3.185197 1.15211,-4.719007 0,0 -10.1091,4.772969 -10.1091,4.772969 v 0 c -0.44406,1.602226 -0.82668,3.224337 -1.07158,4.870299 -0.48873,2.864678 -1.61978,5.494983 -2.89668,8.096715 -2.30733,5.3184 -4.58748,10.647561 -6.6756,16.057041 -2.56186,6.630969 -4.25048,13.559912 -6.1822,20.391694 -2.76892,10.34351 -5.62333,20.670004 -8.94843,30.850951 -1.43856,4.38072 -1.74282,5.52348 -3.42177,9.7882 -2.27985,5.79109 -5.1168,11.3425 -7.591406,17.04888 -8.478412,19.22594 -17.022945,38.44632 -27.108981,56.90065 -5.856015,11.03784 -7.573552,14.33461 -13.482822,25.24061 -5.489964,10.13215 -11.172016,20.16871 -16.518554,30.37816 -0.665861,1.27149 -1.274027,2.57237 -1.911038,3.85856 0,0 10.099222,-4.77167 10.099222,-4.77167 z" />
    <path
       style="fill:#c8beb7;stroke-width:0.264583"
       id="path20"
       d="m 39.612599,174.46964 c 9.142044,4.09202 18.403702,7.89683 27.26197,12.59499 7.1936,3.81528 8.943512,5.05763 15.663368,9.24246 1.985393,1.33758 3.970787,2.67515 5.956178,4.01273 0,0 8.705942,-5.58234 8.705942,-5.58234 v 0 c -2.045155,-1.3116 -4.09031,-2.62319 -6.135465,-3.93479 -7.110103,-4.30681 -8.315227,-5.15421 -15.855976,-9.21259 -8.655672,-4.65843 -17.694463,-8.52138 -26.291595,-13.28417 0,0 -9.304422,6.16371 -9.304422,6.16371 z" />
    <path
       style="fill:#c8beb7;stroke-width:0.264583"
       id="path22"
       d="m 82.514034,197.62053 c 2.790015,0.21361 5.427631,1.14786 7.890801,2.43034 0,0 9.308518,-6.09125 9.308518,-6.09125 v 0 c -2.517759,-1.36516 -5.219136,-2.39712 -8.061748,-2.83978 0,0 -9.137571,6.50069 -9.137571,6.50069 z" />
  </g>
</svg>
