<?xml version="1.0" encoding="UTF-8" standalone="no"?>
<svg
   xmlns:dc="http://purl.org/dc/elements/1.1/"
   xmlns:cc="http://creativecommons.org/ns#"
   xmlns:rdf="http://www.w3.org/1999/02/22-rdf-syntax-ns#"
   xmlns:svg="http://www.w3.org/2000/svg"
   xmlns="http://www.w3.org/2000/svg"
   xmlns:sodipodi="http://sodipodi.sourceforge.net/DTD/sodipodi-0.dtd"
   xmlns:inkscape="http://www.inkscape.org/namespaces/inkscape"
   width="300mm"
   height="300mm"
   viewBox="0 0 300 300"
   version="1.1"
   id="svg61"
   inkscape:version="1.0.2 (e86c870879, 2021-01-15)"
   sodipodi:docname="throwingStone.svg">
  <defs
     id="defs55" />
  <sodipodi:namedview
     id="base"
     pagecolor="#ffffff"
     bordercolor="#666666"
     borderopacity="1.0"
     inkscape:pageopacity="0.0"
     inkscape:pageshadow="2"
     inkscape:zoom="0.5"
     inkscape:cx="361.46112"
     inkscape:cy="527.83189"
     inkscape:document-units="mm"
     inkscape:current-layer="layer3"
     inkscape:document-rotation="0"
     showgrid="false"
     inkscape:window-width="1920"
     inkscape:window-height="1002"
     inkscape:window-x="-8"
     inkscape:window-y="-8"
     inkscape:window-maximized="1" />
  <metadata
     id="metadata58">
    <rdf:RDF>
      <cc:Work
         rdf:about="">
        <dc:format>image/svg+xml</dc:format>
        <dc:type
           rdf:resource="http://purl.org/dc/dcmitype/StillImage" />
        <dc:title />
      </cc:Work>
    </rdf:RDF>
  </metadata>
  <g
     inkscape:label="Layer 1"
     inkscape:groupmode="layer"
     id="layer1"
     sodipodi:insensitive="true"
     style="display:none">
    <circle
       style="opacity:1;fill:#ffffff;fill-opacity:1;stroke:#000000;stroke-width:0.265;stroke-miterlimit:4;stroke-dasharray:none;stroke-opacity:1"
       id="path63"
       cx="150"
       cy="150"
       r="150" />
  </g>
  <g
     inkscape:groupmode="layer"
     id="layer3"
     inkscape:label="Layer 2">
    <path
       id="rect19"
       style="opacity:1;fill:#808080;stroke-width:1;stroke:#000000;stroke-opacity:1;stroke-miterlimit:4;stroke-dasharray:none"
       d="m 77.406488,103.71287 c 4.938893,-6.006805 10.080309,-12.231828 16.736488,-16.252978 13.874284,-8.38177 30.098544,-13.418298 46.218634,-15.119047 15.40752,-1.625569 31.04974,1.761154 46.21864,4.91369 11.54206,2.398773 24.6837,3.042861 33.74541,10.583333 6.62669,5.514233 9.18636,14.744772 12.09524,22.860082 4.88076,13.61654 10.07997,28.11659 8.69345,42.51484 -1.19632,12.42315 -8.98744,23.31378 -14.36309,34.57735 -3.30146,6.91753 -5.65026,14.68754 -10.96131,20.21425 -7.34215,7.6403 -17.14776,13.28472 -27.31982,16.25298 -15.52264,4.52959 -32.32706,0.92687 -48.4865,1.5119 -15.28319,0.55331 -31.13213,6.07812 -45.840654,1.88988 -6.04417,-1.72107 -11.33656,-5.96864 -15.60256,-10.58333 -6.050512,-6.54506 -10.292105,-14.82259 -13.229166,-23.23806 -4.599685,-13.17934 -6.430999,-27.42197 -6.425596,-41.38091 0.0035,-8.98745 0.945258,-18.24615 4.157739,-26.63985 3.140807,-8.20643 8.782493,-15.31686 14.363095,-22.10413 z"
       sodipodi:nodetypes="aaaaaaaaaaaaaaaaa" />
  </g>
</svg>
