<?xml version="1.0" encoding="UTF-8" standalone="no"?>
<svg
   xmlns:dc="http://purl.org/dc/elements/1.1/"
   xmlns:cc="http://creativecommons.org/ns#"
   xmlns:rdf="http://www.w3.org/1999/02/22-rdf-syntax-ns#"
   xmlns:svg="http://www.w3.org/2000/svg"
   xmlns="http://www.w3.org/2000/svg"
   xmlns:sodipodi="http://sodipodi.sourceforge.net/DTD/sodipodi-0.dtd"
   xmlns:inkscape="http://www.inkscape.org/namespaces/inkscape"
   width="300mm"
   height="300mm"
   viewBox="0 0 300 300"
   version="1.1"
   id="svg61"
   inkscape:version="1.0.2 (e86c870879, 2021-01-15)"
   sodipodi:docname="witheringToxin.svg">
  <defs
     id="defs55">
    <inkscape:path-effect
       effect="fillet_chamfer"
       id="path-effect881"
       is_visible="true"
       lpeversion="1"
       satellites_param="F,0,0,1,0,0,0,1 @ F,0,0,1,0,10.583333,0,1 @ F,0,0,1,0,10.583333,0,1 @ F,0,0,1,0,10.583333,0,1 @ F,0,0,1,0,10.583333,0,1 @ F,0,0,1,0,10.583333,0,1 @ F,0,0,1,0,10.583333,0,1"
       unit="px"
       method="auto"
       mode="F"
       radius="40"
       chamfer_steps="1"
       flexible="false"
       use_knot_distance="true"
       apply_no_radius="true"
       apply_with_radius="true"
       only_selected="false"
       hide_knots="false" />
    <inkscape:path-effect
       effect="fillet_chamfer"
       id="path-effect5511"
       is_visible="true"
       lpeversion="1"
       satellites_param="F,0,0,1,0,0,0,1 @ F,0,0,1,0,10.583333,0,1 @ F,0,0,1,0,10.583333,0,1 @ F,0,0,1,0,10.583333,0,1 @ F,0,0,1,0,10.583333,0,1 @ F,0,0,1,0,10.583333,0,1 @ F,0,0,1,0,10.583333,0,1"
       unit="px"
       method="auto"
       mode="F"
       radius="40"
       chamfer_steps="1"
       flexible="false"
       use_knot_distance="true"
       apply_no_radius="true"
       apply_with_radius="true"
       only_selected="false"
       hide_knots="false" />
    <inkscape:path-effect
       effect="fillet_chamfer"
       id="path-effect5464"
       is_visible="true"
       lpeversion="1"
       satellites_param="F,0,0,1,0,0,0,1 @ F,0,0,1,0,10.583333,0,1 @ F,0,0,1,0,10.583333,0,1 @ F,0,0,1,0,10.583333,0,1 @ F,0,0,1,0,10.583333,0,1 @ F,0,0,1,0,10.583333,0,1 @ F,0,0,1,0,10.583333,0,1"
       unit="px"
       method="auto"
       mode="F"
       radius="40"
       chamfer_steps="1"
       flexible="false"
       use_knot_distance="true"
       apply_no_radius="true"
       apply_with_radius="true"
       only_selected="false"
       hide_knots="false" />
    <inkscape:path-effect
       effect="bspline"
       id="path-effect5462"
       is_visible="true"
       lpeversion="1"
       weight="33.333333"
       steps="2"
       helper_size="0"
       apply_no_weight="true"
       apply_with_weight="true"
       only_selected="false" />
  </defs>
  <sodipodi:namedview
     id="base"
     pagecolor="#ffffff"
     bordercolor="#666666"
     borderopacity="1.0"
     inkscape:pageopacity="0.0"
     inkscape:pageshadow="2"
     inkscape:zoom="0.74999999"
     inkscape:cx="763.85152"
     inkscape:cy="614.57998"
     inkscape:document-units="mm"
     inkscape:current-layer="layer4"
     inkscape:document-rotation="0"
     showgrid="false"
     inkscape:window-width="1920"
     inkscape:window-height="1002"
     inkscape:window-x="-8"
     inkscape:window-y="-8"
     inkscape:window-maximized="1"
     inkscape:snap-global="true"
     showguides="true"
     inkscape:guide-bbox="true" />
  <metadata
     id="metadata58">
    <rdf:RDF>
      <cc:Work
         rdf:about="">
        <dc:format>image/svg+xml</dc:format>
        <dc:type
           rdf:resource="http://purl.org/dc/dcmitype/StillImage" />
        <dc:title></dc:title>
      </cc:Work>
    </rdf:RDF>
  </metadata>
  <g
     inkscape:label="Layer 1"
     inkscape:groupmode="layer"
     id="layer1"
     sodipodi:insensitive="true"
     style="display:none">
    <circle
       style="opacity:1;fill:#ffffff;fill-opacity:1;stroke:#000000;stroke-width:0.265;stroke-miterlimit:4;stroke-dasharray:none;stroke-opacity:1"
       id="path63"
       cx="150"
       cy="150"
       r="150" />
  </g>
  <g
     inkscape:groupmode="layer"
     id="layer3"
     inkscape:label="Layer 2"
     style="display:inline" />
  <g
     inkscape:groupmode="layer"
     id="layer2"
     inkscape:label="Layer 3" />
  <g
     inkscape:groupmode="layer"
     id="layer4"
     inkscape:label="Layer 4">
    <path
       style="fill:#3f5f86;stroke:#000000;stroke-width:0.264583px;stroke-linecap:butt;stroke-linejoin:miter;stroke-opacity:1;fill-opacity:1"
       d="m 118.97844,158.78783 61.18389,-0.0811 38.85614,62.55682 c 0,0 0.42207,9.49993 -7.89614,6.74558 -8.31821,-2.75435 -122.924691,-0.10003 -122.924691,-0.10003 0,0 -12.364366,2.08526 -5.629172,-10.63677 6.735191,-12.72203 36.409973,-58.48448 36.409973,-58.48448 z"
       id="path8369" />
    <path
       style="fill:#ececec;fill-opacity:1;stroke:none;stroke-width:2.00001;stroke-linecap:butt;stroke-linejoin:miter;stroke-miterlimit:4;stroke-dasharray:none;stroke-opacity:1"
       d="m 137.14027,83.715928 h 24.90336 v 44.027102 l 18.1187,30.96368 -61.18389,0.0811 18.16183,-31.0448 z"
       id="path2147" />
    <path
       style="fill:none;stroke:#000000;stroke-width:2.00001;stroke-linecap:butt;stroke-linejoin:miter;stroke-miterlimit:4;stroke-dasharray:none;stroke-opacity:1"
       d="m 137.14027,83.71593 v 44.0271"
       id="path1717" />
    <path
       style="fill:none;stroke:#000000;stroke-width:2.00001;stroke-linecap:butt;stroke-linejoin:miter;stroke-miterlimit:4;stroke-dasharray:none;stroke-opacity:1"
       d="m 162.04363,83.71593 v 44.0271"
       id="path1717-7"
       sodipodi:nodetypes="cc" />
    <path
       id="rect1743"
       style="fill:#ececec;fill-opacity:1;stroke:#000000;stroke-width:2.00001;stroke-linecap:square;stroke-miterlimit:4;stroke-dasharray:none;stroke-opacity:1"
       d="m 126.31322,75.595838 h 46.55644 c 0.88711,0 1.60127,0.71417 1.60127,1.601276 v 4.229567 c 0,0.887106 -0.71416,1.601274 -1.60127,1.601274 h -46.55644 c -0.8871,0 -1.60126,-0.714168 -1.60126,-1.601274 v -4.229567 c 0,-0.887106 0.71416,-1.601276 1.60126,-1.601276 z" />
    <path
       style="fill:none;fill-opacity:1;stroke:none;stroke-width:2.00001;stroke-linecap:square;stroke-miterlimit:4;stroke-dasharray:none;stroke-opacity:1"
       d="m 145.80301,233.37685 c -3.39935,-0.91549 -6.44748,-2.58633 -8.38831,-4.59806 -3.33972,-3.46173 -3.08845,2.64723 -3.08845,-75.09169 V 83.71593 h 17.9434 17.94341 v 70.42894 c 0,69.18679 -0.0158,70.45989 -0.89535,72.18395 -1.56644,3.0705 -5.59759,5.77763 -10.5775,7.10336 -3.02799,0.8061 -9.84687,0.77693 -12.9372,-0.0554 z"
       id="path1792" />
    <path
       style="fill:none;fill-opacity:1;stroke:none;stroke-width:2.00001;stroke-linecap:square;stroke-miterlimit:4;stroke-dasharray:none;stroke-opacity:1"
       d="m 145.80301,233.37685 c -3.39935,-0.91549 -6.44748,-2.58633 -8.38831,-4.59806 -3.33972,-3.46173 -3.08845,2.64723 -3.08845,-75.09169 V 83.71593 h 17.9434 17.94341 v 70.42894 c 0,69.18679 -0.0158,70.45989 -0.89535,72.18395 -1.56644,3.0705 -5.59759,5.77763 -10.5775,7.10336 -3.02799,0.8061 -9.84687,0.77693 -12.9372,-0.0554 z"
       id="path1794" />
    <path
       style="fill:none;fill-opacity:1;stroke:none;stroke-width:2.00001;stroke-linecap:square;stroke-miterlimit:4;stroke-dasharray:none;stroke-opacity:1"
       d="m 145.80301,233.37685 c -3.39935,-0.91549 -6.44748,-2.58633 -8.38831,-4.59806 -3.33972,-3.46173 -3.08845,2.64723 -3.08845,-75.09169 V 83.71593 h 17.9434 17.94341 v 70.42894 c 0,69.18679 -0.0158,70.45989 -0.89535,72.18395 -1.56644,3.0705 -5.59759,5.77763 -10.5775,7.10336 -3.02799,0.8061 -9.84687,0.77693 -12.9372,-0.0554 z"
       id="path1796" />
    <path
       style="fill:none;fill-opacity:1;stroke:none;stroke-width:2.00001;stroke-linecap:square;stroke-miterlimit:4;stroke-dasharray:none;stroke-opacity:1"
       d="m 145.80301,233.37685 c -3.39935,-0.91549 -6.44748,-2.58633 -8.38831,-4.59806 -3.33972,-3.46173 -3.08845,2.64723 -3.08845,-75.09169 V 83.71593 h 17.9434 17.94341 v 70.42894 c 0,69.18679 -0.0158,70.45989 -0.89535,72.18395 -1.56644,3.0705 -5.59759,5.77763 -10.5775,7.10336 -3.02799,0.8061 -9.84687,0.77693 -12.9372,-0.0554 z"
       id="path1798" />
    <path
       style="fill:none;fill-opacity:1;stroke:none;stroke-width:2.00001;stroke-linecap:square;stroke-miterlimit:4;stroke-dasharray:none;stroke-opacity:1"
       d="m 145.80301,233.37685 c -3.39935,-0.91549 -6.44748,-2.58633 -8.38831,-4.59806 -3.33972,-3.46173 -3.08845,2.64723 -3.08845,-75.09169 V 83.71593 h 17.9434 17.94341 v 70.42894 c 0,69.18679 -0.0158,70.45989 -0.89535,72.18395 -1.56644,3.0705 -5.59759,5.77763 -10.5775,7.10336 -3.02799,0.8061 -9.84687,0.77693 -12.9372,-0.0554 z"
       id="path1800" />
    <path
       style="fill:#3f5f86;fill-opacity:1;stroke:none;stroke-width:1;stroke-linecap:round;stroke-miterlimit:4;stroke-dasharray:none"
       d="m 88.197619,227.90898 c -2.126318,-0.35471 -4.082917,-1.86874 -5.115815,-3.95866 -0.475392,-0.96189 -0.591659,-1.39627 -0.651799,-2.43516 -0.08241,-1.42353 0.144524,-2.6186 0.703456,-3.70455 0.204589,-0.3975 8.353404,-13.84022 18.108469,-29.8727 l 17.7365,-29.14998 30.59195,-0.0406 30.59195,-0.0406 17.98425,29.59205 c 9.89134,16.27564 18.11085,29.91729 18.26559,30.31479 0.62563,1.60719 0.4594,3.95365 -0.39935,5.63694 -0.71828,1.40793 -2.30732,2.77161 -3.9697,3.40673 l -0.92077,0.35177 -61.03045,0.022 c -35.39376,0.0127 -61.393316,-0.0385 -61.894281,-0.1221 z"
       id="path894" />
    <path
       style="fill:none;stroke:#000000;stroke-width:2.00001;stroke-linecap:round;stroke-linejoin:miter;stroke-miterlimit:4;stroke-dasharray:none;stroke-opacity:1"
       d="m 137.14027,127.74303 -25.17547,41.40191 -30.674153,50.44469 a 5.9509074,5.9509074 60.651366 0 0 5.084658,9.04276 h 18.427525 18.4275 26.27171"
       id="path5460"
       sodipodi:nodetypes="ccccccc"
       inkscape:original-d="M 137.14027,127.74303 106.46612,178.1877 75.791972,228.63239 H 94.219494 112.647 131.07452 149.50204"
       inkscape:path-effect="#path-effect5464" />
    <path
       style="fill:none;stroke:#000000;stroke-width:2.00001;stroke-linecap:round;stroke-linejoin:miter;stroke-miterlimit:4;stroke-dasharray:none;stroke-opacity:1"
       d="m 162.04363,127.74303 25.17549,41.40191 30.67415,50.44469 a 5.9509082,5.9509082 119.34864 0 1 -5.08466,9.04276 h -18.42752 -18.42752 -26.27169"
       id="path5460-4"
       sodipodi:nodetypes="ccccccc"
       inkscape:original-d="m 162.04363,127.74303 30.67417,50.44467 30.67414,50.44469 H 204.96442 186.5369 168.10939 149.68188"
       inkscape:path-effect="#path-effect5511" />
  </g>
</svg>
