<?xml version="1.0" encoding="UTF-8" standalone="no"?>
<svg
   xmlns:dc="http://purl.org/dc/elements/1.1/"
   xmlns:cc="http://creativecommons.org/ns#"
   xmlns:rdf="http://www.w3.org/1999/02/22-rdf-syntax-ns#"
   xmlns:svg="http://www.w3.org/2000/svg"
   xmlns="http://www.w3.org/2000/svg"
   xmlns:sodipodi="http://sodipodi.sourceforge.net/DTD/sodipodi-0.dtd"
   xmlns:inkscape="http://www.inkscape.org/namespaces/inkscape"
   width="300mm"
   height="300mm"
   viewBox="0 0 300 300"
   version="1.1"
   id="svg61"
   inkscape:version="1.0.2 (e86c870879, 2021-01-15)"
   sodipodi:docname="alchemyQuickView.svg">
  <defs
     id="defs55" />
  <sodipodi:namedview
     id="base"
     pagecolor="#ffffff"
     bordercolor="#666666"
     borderopacity="1.0"
     inkscape:pageopacity="0.0"
     inkscape:pageshadow="2"
     inkscape:zoom="0.53033008"
     inkscape:cx="-133.27254"
     inkscape:cy="784.54221"
     inkscape:document-units="mm"
     inkscape:current-layer="layer4"
     inkscape:document-rotation="0"
     showgrid="false"
     inkscape:window-width="1920"
     inkscape:window-height="1002"
     inkscape:window-x="-8"
     inkscape:window-y="-8"
     inkscape:window-maximized="1"
     inkscape:snap-global="true"
     showguides="true"
     inkscape:guide-bbox="true" />
  <metadata
     id="metadata58">
    <rdf:RDF>
      <cc:Work
         rdf:about="">
        <dc:format>image/svg+xml</dc:format>
        <dc:type
           rdf:resource="http://purl.org/dc/dcmitype/StillImage" />
        <dc:title />
      </cc:Work>
    </rdf:RDF>
  </metadata>
  <g
     inkscape:label="Layer 1"
     inkscape:groupmode="layer"
     id="layer1"
     sodipodi:insensitive="true"
     style="display:none">
    <circle
       style="opacity:1;fill:#ffffff;fill-opacity:1;stroke:#000000;stroke-width:0.265;stroke-miterlimit:4;stroke-dasharray:none;stroke-opacity:1"
       id="path63"
       cx="150"
       cy="150"
       r="150" />
  </g>
  <g
     inkscape:groupmode="layer"
     id="layer3"
     inkscape:label="Layer 2"
     style="display:inline" />
  <g
     inkscape:groupmode="layer"
     id="layer2"
     inkscape:label="Layer 3" />
  <g
     inkscape:groupmode="layer"
     id="layer4"
     inkscape:label="Layer 4">
    <path
       style="fill:none;stroke:#a3b9cc;stroke-width:2.39605;stroke-linecap:butt;stroke-linejoin:miter;stroke-miterlimit:4;stroke-dasharray:none;stroke-opacity:1"
       d="M 173.83928,42.72111 63.531653,233.77955"
       id="path1717" />
    <path
       style="fill:none;stroke:#a3b9cc;stroke-width:2.39605;stroke-linecap:butt;stroke-linejoin:miter;stroke-miterlimit:4;stroke-dasharray:none;stroke-opacity:1"
       d="M 224.99644,72.2567 114.68879,263.31514"
       id="path1717-7"
       sodipodi:nodetypes="cc" />
    <path
       id="path1739"
       style="fill:none;stroke:#a3b9cc;stroke-width:2.39605;stroke-linecap:square;stroke-miterlimit:4;stroke-dasharray:none;stroke-opacity:1"
       d="m 114.24235,264.15282 a 29.569316,19.690741 30 0 1 -21.330207,7.37572 29.569316,19.690741 30 0 1 -25.60779,-14.78466 29.569316,19.690741 30 0 1 -4.27756,-22.16038" />
    <path
       id="rect1743"
       style="fill:#a3b9cc;fill-opacity:1;stroke:#a3b9cc;stroke-width:2.76826;stroke-linecap:square;stroke-miterlimit:4;stroke-dasharray:none;stroke-opacity:1"
       d="m 173.50437,28.577445 63.85002,36.863825 c 1.21662,0.70241 1.63057,2.24734 0.92816,3.46396 l -3.34902,5.80066 c -0.70242,1.21664 -2.24733,1.63059 -3.46397,0.92817 l -63.85,-36.863809 c -1.21662,-0.702418 -1.63058,-2.247345 -0.92816,-3.46397 l 3.34902,-5.800656 c 0.70242,-1.216625 2.24733,-1.630598 3.46395,-0.92818 z" />
    <path
       style="fill:none;fill-opacity:1;stroke:none;stroke-width:3.18113;stroke-linecap:square;stroke-miterlimit:4;stroke-dasharray:none;stroke-opacity:1"
       d="m 71.517013,258.2142 c -3.93716,-3.9472 -6.79456,-8.65222 -7.8634,-12.94797 -1.83922,-7.39203 -6.33178,1.18505 55.222627,-105.43028 l 55.40381,-95.96223 24.60855,14.20775 24.60857,14.20775 -55.76629,96.59006 c -54.78274,94.88648 -55.81247,96.61997 -58.38384,98.28801 -4.57957,2.97073 -12.251627,3.49154 -20.131067,1.36658 -4.79103,-1.29207 -14.1197,-6.73132 -17.69896,-10.31967 z"
       id="path1792" />
    <path
       style="fill:none;fill-opacity:1;stroke:none;stroke-width:3.18113;stroke-linecap:square;stroke-miterlimit:4;stroke-dasharray:none;stroke-opacity:1"
       d="m 71.517013,258.2142 c -3.93716,-3.9472 -6.79456,-8.65222 -7.8634,-12.94797 -1.83922,-7.39203 -6.33178,1.18505 55.222627,-105.43028 l 55.40381,-95.96223 24.60855,14.20775 24.60857,14.20775 -55.76629,96.59006 c -54.78274,94.88648 -55.81247,96.61997 -58.38384,98.28801 -4.57957,2.97073 -12.251627,3.49154 -20.131067,1.36658 -4.79103,-1.29207 -14.1197,-6.73132 -17.69896,-10.31967 z"
       id="path1794" />
    <path
       style="fill:none;fill-opacity:1;stroke:none;stroke-width:3.18113;stroke-linecap:square;stroke-miterlimit:4;stroke-dasharray:none;stroke-opacity:1"
       d="m 71.517013,258.2142 c -3.93716,-3.9472 -6.79456,-8.65222 -7.8634,-12.94797 -1.83922,-7.39203 -6.33178,1.18505 55.222627,-105.43028 l 55.40381,-95.96223 24.60855,14.20775 24.60857,14.20775 -55.76629,96.59006 c -54.78274,94.88648 -55.81247,96.61997 -58.38384,98.28801 -4.57957,2.97073 -12.251627,3.49154 -20.131067,1.36658 -4.79103,-1.29207 -14.1197,-6.73132 -17.69896,-10.31967 z"
       id="path1796" />
    <path
       style="fill:none;fill-opacity:1;stroke:none;stroke-width:3.18113;stroke-linecap:square;stroke-miterlimit:4;stroke-dasharray:none;stroke-opacity:1"
       d="m 71.517013,258.2142 c -3.93716,-3.9472 -6.79456,-8.65222 -7.8634,-12.94797 -1.83922,-7.39203 -6.33178,1.18505 55.222627,-105.43028 l 55.40381,-95.96223 24.60855,14.20775 24.60857,14.20775 -55.76629,96.59006 c -54.78274,94.88648 -55.81247,96.61997 -58.38384,98.28801 -4.57957,2.97073 -12.251627,3.49154 -20.131067,1.36658 -4.79103,-1.29207 -14.1197,-6.73132 -17.69896,-10.31967 z"
       id="path1798" />
    <path
       style="fill:none;fill-opacity:1;stroke:none;stroke-width:3.18113;stroke-linecap:square;stroke-miterlimit:4;stroke-dasharray:none;stroke-opacity:1"
       d="m 71.517013,258.2142 c -3.93716,-3.9472 -6.79456,-8.65222 -7.8634,-12.94797 -1.83922,-7.39203 -6.33178,1.18505 55.222627,-105.43028 l 55.40381,-95.96223 24.60855,14.20775 24.60857,14.20775 -55.76629,96.59006 c -54.78274,94.88648 -55.81247,96.61997 -58.38384,98.28801 -4.57957,2.97073 -12.251627,3.49154 -20.131067,1.36658 -4.79103,-1.29207 -14.1197,-6.73132 -17.69896,-10.31967 z"
       id="path1800" />
    <path
       style="fill:#ce66e9;fill-opacity:1;stroke:none;stroke-width:0.169932;stroke-linecap:square;stroke-miterlimit:4;stroke-dasharray:none;stroke-opacity:1"
       d="m 76.578073,263.64934 c -5.43377,-3.80335 -9.52739,-8.32618 -11.93105,-13.18198 -2.04612,-4.13351 -2.72211,-8.23218 -1.94269,-11.779 0.26161,-1.19052 0.64022,-2.18458 1.27158,-3.33858 0.28491,-0.52078 9.07002,-15.7391 19.52255,-33.81837 l 19.004367,-32.87154 24.57042,14.18573 24.57039,14.18573 -19.63621,33.96042 -19.63622,33.96041 -0.57315,0.6036 c -2.45524,2.58561 -5.54502,4.15299 -9.5445,4.84173 -5.584717,0.9617 -12.048907,-0.0326 -18.719457,-2.87968 -1.30754,-0.55805 -5.78003,-3.04535 -6.95587,-3.86836 z"
       id="path1810" />
    <path
       style="fill:#ce66e9;fill-opacity:1;stroke:none;stroke-width:0.727331;stroke-linecap:square;stroke-miterlimit:4;stroke-dasharray:none;stroke-opacity:1"
       d="m 73.968233,261.04363 c -6.75941,-5.98151 -10.6697,-13.90946 -10.38766,-21.06053 0.17007,-4.31416 -2.02151,-0.3074 39.616107,-72.42588 l 38.29717,-66.33264 24.52299,14.15835 24.523,14.15836 -38.87966,67.15677 -38.87964,67.15675 -1.94261,1.50333 c -5.44471,4.21335 -13.321947,5.49384 -21.682257,3.5246 -4.47147,-1.05329 -11.78483,-4.82813 -15.18742,-7.83911 z"
       id="path1812" />
    <path
       style="fill:#a3b9cc;fill-opacity:1;stroke:none;stroke-width:0.539534px;stroke-linecap:butt;stroke-linejoin:miter;stroke-opacity:1"
       d="m 141.49385,101.22458 32.7862,-57.35086 49.21712,28.4155 -32.95733,57.25207 z"
       id="path5467" />
  </g>
</svg>
