<?xml version="1.0" encoding="UTF-8" standalone="no"?>
<svg
   height="130.42999"
   width="134.88"
   version="1.1"
   id="svg1121"
   sodipodi:docname="alpha.svg"
   inkscape:version="1.2.2 (732a01da63, 2022-12-09)"
   xmlns:inkscape="http://www.inkscape.org/namespaces/inkscape"
   xmlns:sodipodi="http://sodipodi.sourceforge.net/DTD/sodipodi-0.dtd"
   xmlns="http://www.w3.org/2000/svg"
   xmlns:svg="http://www.w3.org/2000/svg">
  <defs
     id="defs1125" />
  <sodipodi:namedview
     id="namedview1123"
     pagecolor="#ffffff"
     bordercolor="#000000"
     borderopacity="0.25"
     inkscape:showpageshadow="2"
     inkscape:pageopacity="0.0"
     inkscape:pagecheckerboard="0"
     inkscape:deskcolor="#d1d1d1"
     showgrid="false"
     inkscape:zoom="4.57"
     inkscape:cx="138.18381"
     inkscape:cy="65.098468"
     inkscape:window-width="1920"
     inkscape:window-height="991"
     inkscape:window-x="-9"
     inkscape:window-y="-9"
     inkscape:window-maximized="1"
     inkscape:current-layer="svg1121" />
  <path
     d="M 83.068042,83.98112 H 42.169124 l -7.165624,16.7087 c -1.770624,4.10652 -2.651779,7.17394 -2.651779,9.2272 -2.4e-5,1.61268 0.766439,3.02585 2.302642,4.24783 1.529553,1.22198 4.846356,2.0117 9.975346,2.37746 v 2.88454 H 11.378556 v -2.88454 c 4.41409,-0.77891 7.27369,-1.79556 8.562172,-3.04248 2.651779,-2.49384 5.586193,-7.55632 8.811555,-15.212402 L 65.910447,11.003151 h 2.726595 l 36.742528,88.115556 c 2.95935,7.065873 5.65269,11.637903 8.0634,13.716103 2.41902,2.10313 5.77739,3.28355 10.05847,3.54956 v 2.88454 H 81.771247 v -2.88454 c 4.206271,-0.20782 7.049244,-0.9061 8.562172,-2.10314 1.479676,-1.19704 2.219514,-2.65178 2.219514,-4.36421 -8.3e-5,-2.28602 -1.039098,-5.89377 -3.117295,-10.806626 z M 80.890091,78.212044 62.934469,35.484313 44.563207,78.212044 Z"
     id="path1117"
     style="stroke-width:0.831279;fill:#e8c602;fill-opacity:1" />
</svg>
