<?xml version="1.0" encoding="UTF-8" standalone="no"?>
<svg
   xmlns:dc="http://purl.org/dc/elements/1.1/"
   xmlns:cc="http://creativecommons.org/ns#"
   xmlns:rdf="http://www.w3.org/1999/02/22-rdf-syntax-ns#"
   xmlns:svg="http://www.w3.org/2000/svg"
   xmlns="http://www.w3.org/2000/svg"
   xmlns:sodipodi="http://sodipodi.sourceforge.net/DTD/sodipodi-0.dtd"
   xmlns:inkscape="http://www.inkscape.org/namespaces/inkscape"
   width="300mm"
   height="300mm"
   viewBox="0 0 300 300"
   version="1.1"
   id="svg34"
   sodipodi:docname="attack.svg"
   inkscape:version="1.0.2 (e86c870879, 2021-01-15)">
  <defs
     id="defs28" />
  <sodipodi:namedview
     id="base"
     pagecolor="#ffffff"
     bordercolor="#666666"
     borderopacity="1.0"
     inkscape:pageopacity="0.0"
     inkscape:pageshadow="2"
     inkscape:zoom="0.35"
     inkscape:cx="400"
     inkscape:cy="560"
     inkscape:document-units="mm"
     inkscape:current-layer="layer2"
     inkscape:document-rotation="0"
     showgrid="false"
     inkscape:window-width="1920"
     inkscape:window-height="1002"
     inkscape:window-x="-8"
     inkscape:window-y="-8"
     inkscape:window-maximized="1" />
  <metadata
     id="metadata31">
    <rdf:RDF>
      <cc:Work
         rdf:about="">
        <dc:format>image/svg+xml</dc:format>
        <dc:type
           rdf:resource="http://purl.org/dc/dcmitype/StillImage" />
        <dc:title></dc:title>
      </cc:Work>
    </rdf:RDF>
  </metadata>
  <g
     inkscape:label="Layer 1"
     inkscape:groupmode="layer"
     id="layer1">
    <path
       style="fill:#c8beb7;stroke-width:0.264583"
       id="path38"
       d="m 36.049905,262.07562 c 1.938014,1.56215 3.90389,3.10702 5.72494,4.80622 0.913432,1.0984 1.926061,2.09082 2.84262,3.18427 0.883973,0.83579 1.777148,1.66007 2.697564,2.45562 1.072251,0.84807 2.15323,1.68944 3.396203,2.26941 1.15829,0.6186 2.370791,1.00902 3.661746,1.22357 1.352708,0.0874 2.640898,-0.35605 3.802065,-1.02892 10.800593,-6.25866 7.559791,-3.66257 11.853513,-7.24429 1.927275,-1.95 3.934597,-3.77582 6.047224,-5.52285 1.534734,-1.601 3.312763,-2.98682 5.161367,-4.20888 8.57718,-5.05937 -32.072693,18.833 2.43431,-1.38197 2.930652,-1.71684 -11.773146,6.78005 -8.815531,5.11008 1.703729,-0.96198 23.735559,-13.73042 1.522659,-0.86262 4.30268,-2.32154 -0.05508,0.0425 11.020697,-6.47045 0.399241,-0.23477 1.118614,-0.58533 1.483744,-0.86719 0.628002,-0.48478 1.186778,-1.0536 1.797243,-1.56029 2.32119,-2.29615 4.547576,-4.67162 6.852044,-6.98165 0,0 -10.282933,4.26072 -10.282933,4.26072 v 0 c -2.300012,2.30508 -4.453565,4.76116 -6.924244,6.88978 -0.86591,0.69859 -1.725808,1.30358 -2.659541,1.90203 -0.239927,0.15377 -0.957604,0.61715 -0.709435,0.47707 1.781161,-1.00537 12.513524,-7.17818 8.168076,-4.67907 -3.456861,1.97714 -6.878751,4.01672 -10.370584,5.93141 -2.978137,1.63301 11.768433,-6.78823 8.829193,-5.08621 -34.294066,19.85864 22.349575,-13.05988 -11.963286,6.90263 -0.275072,0.16003 -0.533053,0.34778 -0.799582,0.52167 -1.78776,1.33567 -3.515481,2.73961 -5.121288,4.29205 -2.076971,1.74766 -3.931692,3.71901 -6.006666,5.46606 -3.890145,2.82236 -1.216691,0.81592 7.181324,-3.91827 0.322733,-0.18193 -0.619218,0.40751 -0.938496,0.59545 -1.028509,0.60539 -0.651113,0.38298 -1.690806,0.72763 -0.230945,0.0766 -0.458357,0.16338 -0.687536,0.24508 -1.232427,-0.11552 -2.430227,-0.31851 -3.497805,-0.9929 -1.219774,-0.40011 -2.198407,-1.19878 -3.201691,-1.97766 -0.906883,-0.72144 -1.696471,-1.56882 -2.595515,-2.29715 -0.974161,-1.10332 -1.991225,-2.1441 -2.960142,-3.25563 -1.844191,-1.73001 -3.909396,-3.21016 -5.77351,-4.91947 0,0 -9.477941,5.99472 -9.477941,5.99472 z" />
    <path
       style="fill:#c8beb7;stroke-width:0.264583"
       id="path40"
       d="m 44.984532,260.76793 c 2.764015,-4.05401 6.030589,-7.79173 9.369245,-11.38588 3.499382,-3.5889 7.46234,-6.66794 11.343166,-9.82545 0.144103,-0.14092 2.450306,-2.40672 2.704404,-2.61719 0.414896,-0.34367 1.789787,-1.19669 1.320917,-0.93135 -16.233172,9.18664 -9.604582,5.09766 -6.386725,4.13432 0.725107,-0.21708 1.47269,-0.35043 2.209036,-0.52564 4.276936,-0.71418 8.522787,-1.60878 12.677875,-2.8522 0,0 8.792975,-6.80393 8.792975,-6.80393 v 0 c -4.139975,1.3431 -8.371663,2.38863 -12.688581,2.98827 -0.178324,0.0339 -3.778133,0.68608 -4.108667,0.86179 -6.773878,3.60091 -10.122878,5.27397 -14.768517,9.87462 -3.838043,3.19411 -7.805862,6.25813 -11.205215,9.93675 -3.353742,3.72016 -6.662497,7.52209 -9.524831,11.63714 0,0 10.264918,-4.49125 10.264918,-4.49125 z" />
    <path
       style="fill:#c8beb7;stroke-width:0.264583"
       id="path42"
       d="m 59.627124,213.72119 c -2.764412,1.60485 -5.548413,3.17642 -8.29323,4.81456 -0.503285,0.30037 1.023861,-0.57682 1.565955,-0.79965 0.598276,-0.24591 1.20773,-0.4897 1.844704,-0.60228 3.365537,-0.5948 6.474084,1.26521 9.395145,2.59279 7.780592,4.14037 14.761422,9.60933 21.209159,15.58587 2.747994,2.54717 6.315466,6.25866 8.960622,8.96474 5.953321,6.33525 12.705151,11.81171 19.313121,17.42905 2.93265,2.35157 5.60907,4.99314 8.62844,7.23356 2.94755,2.27838 5.91106,4.52202 9.05416,6.52544 0.53431,0.3528 1.06863,0.70562 1.60294,1.05844 0,0 9.32067,-5.97776 9.32067,-5.97776 v 0 c -0.54308,-0.35388 -1.08615,-0.70776 -1.62923,-1.06164 -3.12349,-1.9713 -6.05084,-4.2087 -8.95004,-6.49409 -3.01398,-2.24808 -5.80534,-4.76659 -8.78639,-7.05845 -6.68633,-5.53216 -13.57814,-10.84994 -19.59727,-17.1362 -9.249345,-9.24494 -18.753631,-18.41746 -30.177055,-24.97523 -2.283513,-1.16647 -4.74734,-2.6261 -7.29043,-3.25654 -1.99684,-0.49502 -4.048101,-0.0115 -5.800569,0.9719 -3.634637,2.03959 -7.221942,4.16241 -10.832912,6.24362 0,0 10.46221,-4.05813 10.46221,-4.05813 z" />
    <path
       style="fill:#c8beb7;stroke-width:0.264583"
       id="path46"
       d="m 87.032422,219.05887 c 11.969763,-22.2959 26.967698,-42.86471 42.465748,-62.80636 6.22883,-8.01475 12.56369,-15.95157 19.11315,-23.70651 6.1795,-7.31688 12.70882,-14.331 19.06323,-21.4965 13.53632,-14.870054 28.05429,-28.779883 42.84331,-42.38348 5.96562,-5.48745 12.01473,-10.879711 17.94324,-16.407309 2.60031,-2.511071 5.01505,-5.176615 8.05779,-7.154582 0.35618,-0.227248 0.72144,-0.440854 1.06853,-0.681744 0.3542,-0.245817 0.67629,-0.536316 1.03379,-0.777298 0.35319,-0.238078 1.46308,-0.872961 1.0954,-0.657942 -14.44767,8.448942 -9.54288,5.41165 -5.49562,3.623079 3.89319,-1.822796 7.96764,-3.188001 12.15399,-4.142589 2.08661,-0.525139 4.21977,-0.842743 6.26676,-1.51494 6.47205,-3.403103 20.66988,-11.881443 1.82597,-0.92051 -0.19466,0.113226 0.39551,-0.215828 0.5983,-0.313748 0.51245,-0.247443 0.41799,-0.196683 0.93814,-0.307766 1.34286,0.242554 1.52342,2.195531 1.73654,3.285382 0.3699,2.439937 0.44096,4.883644 0.0337,7.316949 -0.49854,2.368825 -0.87135,4.760539 -1.08832,7.17115 -0.0698,1.192157 -0.60909,2.230363 -0.97235,3.333953 -1.21426,3.688938 0.8141,-1.715288 -0.89141,2.689493 -3.24388,7.561577 -7.89739,14.421188 -12.18423,21.414443 -4.772,7.896037 -9.22808,16.018009 -14.68845,23.474289 -0.95863,1.30903 -1.98268,2.56888 -2.97402,3.85332 -2.54623,3.62582 -6.22008,6.26521 -8.95026,9.72296 -1.51154,1.91437 -4.6439,6.68456 -5.77702,8.37115 -9.28235,12.96715 -18.70708,25.84684 -28.43165,38.48782 -6.3217,7.9621 -13.02387,15.63649 -20.03182,23.00195 -1.16491,1.12108 -2.32006,2.25238 -3.49473,3.36323 -1.17434,1.11053 -2.33507,2.237 -3.55203,3.30065 -4.96145,4.33644 -10.43246,8.06099 -15.67774,12.03592 -5.66296,4.25666 -9.97417,9.87647 -14.61162,15.14642 -1.31555,1.32796 -1.30093,1.42905 -2.77306,2.48671 -0.45402,0.3262 -1.88993,1.1939 -1.4043,0.91695 15.27312,-8.71029 9.12799,-5.19183 5.69489,-3.48025 -0.45861,0.23064 -0.93065,0.43632 -1.37584,0.69191 -3.68514,2.11567 -7.36713,4.23767 -11.01286,6.42054 -1.27168,0.76142 -1.69595,1.30142 -2.83845,2.22676 -0.85898,0.69571 -1.75743,1.3412 -2.63523,2.01299 -2.27819,1.82184 -4.48828,3.7221 -6.73129,5.58334 -0.97218,1.09994 -2.079713,2.06733 -3.070228,3.14329 0,0 10.371388,-4.31256 10.371388,-4.31256 v 0 c 1.03138,-1.00081 1.97985,-2.08477 3.06649,-3.02788 2.17654,-1.89985 4.43945,-3.69822 6.69074,-5.50809 1.33467,-1.03329 2.63162,-2.13592 3.99861,-3.12555 0.48576,-0.35167 2.02017,-1.28985 1.49349,-1.00307 -2.69819,1.46919 -5.34235,3.03553 -8.01352,4.5533 0.44731,-0.23769 0.89462,-0.47537 1.34192,-0.71306 6.26188,-2.82741 12.7076,-5.99459 17.34111,-11.15405 4.45903,-5.26142 8.79623,-10.68077 14.39695,-14.81134 7.86553,-5.94368 15.89373,-11.60495 22.65431,-18.8613 6.92426,-7.34459 13.56826,-14.96881 19.70615,-22.98625 9.63903,-12.7628 19.02154,-25.72047 28.52802,-38.58161 2.20246,-3.09123 3.85049,-5.5692 6.2372,-8.4081 2.78864,-3.31699 6.17874,-6.12306 8.66205,-9.70897 2.8028,-3.7414 3.24312,-4.21351 5.87321,-8.216902 4.10636,-6.250476 7.77142,-12.77993 11.65767,-19.16581 4.42791,-7.122729 9.19123,-14.135738 12.59261,-21.824616 0.77288,-2.061287 1.62042,-4.121351 1.81396,-6.336136 0.22548,-2.383248 0.62042,-4.740466 1.06439,-7.092199 0.32737,-2.561275 0.25284,-5.132961 -0.1684,-7.683928 -0.36441,-1.716799 -0.79812,-3.613867 -2.43896,-4.545576 -0.71451,-0.205113 -1.25988,-0.276336 -1.94681,0.109775 -3.42682,1.926151 -6.84204,3.873659 -10.22872,5.869525 -2.80211,1.651362 12.93266,-7.209554 8.45464,-4.871188 -1.90573,1.078431 -4.16532,1.117515 -6.2266,1.763953 -4.22949,0.900332 -8.36296,2.205736 -12.30813,3.988615 -0.96,0.413589 -1.97285,0.716783 -2.88823,1.221502 -4.80739,2.650683 -9.49615,5.112948 -13.9237,8.249144 -2.78965,2.047905 -5.01591,4.684189 -7.47492,7.103465 -5.5031,5.359709 -11.12867,10.585794 -16.68876,15.886284 -14.13101,13.471237 -28.03801,27.187509 -41.07876,41.731982 -6.27236,7.14246 -12.70292,14.14905 -18.81709,21.42739 -6.53414,7.77829 -12.841,15.74609 -19.11928,23.73233 -16.3116,20.74905 -32.139174,41.95897 -46.013765,64.43581 0,0 10.120837,-4.45801 10.120837,-4.45801 z" />
    <circle
       style="fill:#c8beb7;stroke-width:0.264583"
       id="path52"
       cx="348.05951"
       cy="363.17856"
       r="150" />
  </g>
  <g
     inkscape:groupmode="layer"
     id="layer2"
     inkscape:label="Layer 2" />
</svg>
