<?xml version="1.0" encoding="UTF-8" standalone="no"?>
<svg
   xmlns:osb="http://www.openswatchbook.org/uri/2009/osb"
   xmlns:dc="http://purl.org/dc/elements/1.1/"
   xmlns:cc="http://creativecommons.org/ns#"
   xmlns:rdf="http://www.w3.org/1999/02/22-rdf-syntax-ns#"
   xmlns:svg="http://www.w3.org/2000/svg"
   xmlns="http://www.w3.org/2000/svg"
   xmlns:sodipodi="http://sodipodi.sourceforge.net/DTD/sodipodi-0.dtd"
   xmlns:inkscape="http://www.inkscape.org/namespaces/inkscape"
   width="300mm"
   height="300mm"
   viewBox="0 0 300 300"
   version="1.1"
   id="svg61"
   inkscape:version="1.0.2 (e86c870879, 2021-01-15)"
   sodipodi:docname="barholy.svg">
  <defs
     id="defs55">
    <linearGradient
       id="linearGradient1699"
       osb:paint="solid">
      <stop
         style="stop-color:#808000;stop-opacity:1;"
         offset="0"
         id="stop1697" />
    </linearGradient>
  </defs>
  <sodipodi:namedview
     id="base"
     pagecolor="#ffffff"
     bordercolor="#666666"
     borderopacity="1.0"
     inkscape:pageopacity="0.0"
     inkscape:pageshadow="2"
     inkscape:zoom="0.6363961"
     inkscape:cx="705.65798"
     inkscape:cy="556.34885"
     inkscape:document-units="mm"
     inkscape:current-layer="layer3"
     inkscape:document-rotation="0"
     showgrid="false"
     inkscape:window-width="1920"
     inkscape:window-height="1002"
     inkscape:window-x="-8"
     inkscape:window-y="-8"
     inkscape:window-maximized="1"
     inkscape:snap-global="true"
     showguides="true"
     inkscape:guide-bbox="true" />
  <metadata
     id="metadata58">
    <rdf:RDF>
      <cc:Work
         rdf:about="">
        <dc:format>image/svg+xml</dc:format>
        <dc:type
           rdf:resource="http://purl.org/dc/dcmitype/StillImage" />
        <dc:title></dc:title>
      </cc:Work>
    </rdf:RDF>
  </metadata>
  <g
     inkscape:label="Layer 1"
     inkscape:groupmode="layer"
     id="layer1"
     sodipodi:insensitive="true"
     style="display:none">
    <circle
       style="opacity:1;fill:#ffffff;fill-opacity:1;stroke:#000000;stroke-width:0.265;stroke-miterlimit:4;stroke-dasharray:none;stroke-opacity:1"
       id="path63"
       cx="150"
       cy="150"
       r="150" />
  </g>
  <g
     inkscape:groupmode="layer"
     id="layer3"
     inkscape:label="Layer 2">
    <path
       id="path1067-7-0-1"
       style="fill:none;fill-opacity:1;fill-rule:evenodd;stroke:#000000;stroke-width:0.83791;stroke-linecap:butt;stroke-linejoin:miter;stroke-miterlimit:4;stroke-dasharray:none;stroke-opacity:1"
       d="m 58.83973,71.269907 c 0,0 -4.340983,125.658773 91.16094,164.729073 M 241.1616,71.269905 c 0,0 4.34098,125.658775 -91.16094,164.729075 M 241.1616,71.269907 c 0,0 -39.00776,24.117313 -91.16094,-7.296521 m -91.16093,7.296521 c 0,0 39.007761,24.117313 91.16093,-7.296521 M 49.187616,62.933903 c 0,0 -4.800606,138.963517 100.813054,182.170577 M 250.81371,62.933901 c 0,0 4.80061,138.963519 -100.81305,182.170579 M 250.81371,62.933903 c 0,0 -43.1379,26.670853 -100.81305,-8.069076 M 49.187616,62.933903 c 0,0 43.1379,26.670853 100.813044,-8.069076" />
    <path
       style="fill:#7e7d68;fill-opacity:1;stroke:none;stroke-width:5.93895;stroke-linecap:round"
       d="M 548.21812,916.76782 C 459.65806,876.27834 387.15978,815.77772 329.08343,733.89749 249.99726,622.39611 200.339,468.42804 188.70532,298.64771 c -1.84999,-26.99861 -2.07624,-58.62808 -0.4138,-57.85066 0.64818,0.30311 6.12825,2.88075 12.17795,5.72808 57.64187,27.12959 132.63026,35.81947 204.77166,23.72957 48.85663,-8.1877 98.38285,-25.91826 145.0659,-51.93412 l 16.95329,-9.44785 10.66611,6.20196 c 50.82977,29.55571 109.90983,50.07609 166.22959,57.73681 27.69765,3.76748 72.56047,3.44402 100.66375,-0.72579 33.47241,-4.96645 70.91868,-16.16557 94.81464,-28.35639 3.40882,-1.73904 6.42908,-2.47577 6.7117,-1.63717 1.18585,3.51875 -1.75613,68.71747 -4.14733,91.9109 -26.06033,252.77212 -129.1502,445.5835 -293.56997,549.0707 -18.07154,11.37439 -51.64442,29.12348 -69.46936,36.72664 l -12.57578,5.36412 z m 38.24161,-32.10959 c 133.65803,-61.06087 229.99222,-176.90671 283.21546,-340.57831 17.04427,-52.41435 31.14434,-118.61644 37.88249,-177.86423 3.58544,-31.52652 6.45717,-93.97055 4.41549,-96.01224 -1.16294,-1.16294 -4.14569,-0.39721 -9.99125,2.56496 -22.44962,11.37608 -57.30305,21.71131 -87.9009,26.0656 -21.68458,3.08588 -70.43315,2.67792 -91.92388,-0.76928 -50.77904,-8.14515 -102.79276,-26.82387 -146.56613,-52.63358 l -8.12935,-4.79324 -14.57614,7.85887 c -59.36655,32.00807 -109.30856,47.62131 -166.34098,52.00275 -51.36905,3.94637 -106.99607,-5.52115 -150.54665,-25.62248 -7.25085,-3.34673 -13.43804,-6.08496 -13.74929,-6.08496 -1.19449,0 -0.49243,44.48829 1.00688,63.80426 10.38735,133.82307 46.5215,256.38791 103.53222,351.17503 50.8922,84.61434 120.40232,150.69138 201.82521,191.8571 16.64874,8.41726 35.86685,16.89534 38.41705,16.9477 1.10422,0.0226 9.84761,-3.54041 19.42977,-7.91795 z"
       id="path5601"
       transform="scale(0.26458333)" />
    <g
       id="g14672"
       transform="matrix(1.5601292,0,0,1.5601292,-413.58801,23.330384)">
      <rect
         style="fill:#d9dbbf;fill-opacity:1;stroke:none;stroke-width:1.453;stroke-miterlimit:4;stroke-dasharray:none;stroke-opacity:1"
         id="rect129-3"
         width="35.225491"
         height="31.631052"
         x="259.83997"
         y="357.76962"
         transform="matrix(0.5547002,-0.83205029,0.5547002,0.83205029,0,0)" />
      <path
         sodipodi:type="star"
         style="fill:#d9dbbf;fill-opacity:1;stroke:none;stroke-width:1.396;stroke-miterlimit:4;stroke-dasharray:none;stroke-opacity:1"
         id="path156-4"
         sodipodi:sides="5"
         sodipodi:cx="337.39658"
         sodipodi:cy="60.489311"
         sodipodi:r1="11.414897"
         sodipodi:r2="5.7074485"
         sodipodi:arg1="0.5880026"
         sodipodi:arg2="1.2163211"
         inkscape:flatsided="false"
         inkscape:rounded="0"
         inkscape:randomized="0"
         inkscape:transform-center-x="0.95391865"
         inkscape:transform-center-y="0.14217322"
         d="m 346.89434,66.821157 -7.51672,-0.979236 -5.06802,5.636953 -1.39148,-7.451429 -6.92717,-3.078056 6.65674,-3.626 0.7868,-7.539297 5.50557,5.210438 7.41343,-1.581485 -3.2541,6.846227 z" />
      <path
         sodipodi:type="star"
         style="fill:#d9dbbf;fill-opacity:1;stroke:none;stroke-width:1.396;stroke-miterlimit:4;stroke-dasharray:none;stroke-opacity:1"
         id="path156-7-6"
         sodipodi:sides="5"
         sodipodi:cx="-385.09232"
         sodipodi:cy="101.50413"
         sodipodi:r1="11.414897"
         sodipodi:r2="5.7074485"
         sodipodi:arg1="0.5880026"
         sodipodi:arg2="1.2163211"
         inkscape:flatsided="false"
         inkscape:rounded="0"
         inkscape:randomized="0"
         inkscape:transform-center-x="-0.95392757"
         inkscape:transform-center-y="0.14217203"
         transform="scale(-1,1)"
         d="m -375.59455,107.83597 -7.51672,-0.97923 -5.06802,5.63695 -1.39148,-7.45143 -6.92717,-3.07805 6.65674,-3.626005 0.78679,-7.539296 5.50558,5.210437 7.41343,-1.581485 -3.2541,6.846229 z" />
    </g>
  </g>
  <g
     inkscape:groupmode="layer"
     id="layer2"
     inkscape:label="Layer 3"
     style="display:inline" />
  <g
     inkscape:groupmode="layer"
     id="layer5"
     inkscape:label="Layer 4" />
</svg>
