<?xml version="1.0" encoding="UTF-8" standalone="no"?>
<svg
   xmlns:osb="http://www.openswatchbook.org/uri/2009/osb"
   xmlns:dc="http://purl.org/dc/elements/1.1/"
   xmlns:cc="http://creativecommons.org/ns#"
   xmlns:rdf="http://www.w3.org/1999/02/22-rdf-syntax-ns#"
   xmlns:svg="http://www.w3.org/2000/svg"
   xmlns="http://www.w3.org/2000/svg"
   xmlns:sodipodi="http://sodipodi.sourceforge.net/DTD/sodipodi-0.dtd"
   xmlns:inkscape="http://www.inkscape.org/namespaces/inkscape"
   width="300mm"
   height="300mm"
   viewBox="0 0 300 300"
   version="1.1"
   id="svg61"
   inkscape:version="1.0.2 (e86c870879, 2021-01-15)"
   sodipodi:docname="barlightning.svg">
  <defs
     id="defs55">
    <linearGradient
       id="linearGradient1699"
       osb:paint="solid">
      <stop
         style="stop-color:#808000;stop-opacity:1;"
         offset="0"
         id="stop1697" />
    </linearGradient>
  </defs>
  <sodipodi:namedview
     id="base"
     pagecolor="#ffffff"
     bordercolor="#666666"
     borderopacity="1.0"
     inkscape:pageopacity="0.0"
     inkscape:pageshadow="2"
     inkscape:zoom="0.6363961"
     inkscape:cx="705.65798"
     inkscape:cy="556.34885"
     inkscape:document-units="mm"
     inkscape:current-layer="layer3"
     inkscape:document-rotation="0"
     showgrid="false"
     inkscape:window-width="1920"
     inkscape:window-height="1002"
     inkscape:window-x="-8"
     inkscape:window-y="-8"
     inkscape:window-maximized="1"
     inkscape:snap-global="true"
     showguides="true"
     inkscape:guide-bbox="true" />
  <metadata
     id="metadata58">
    <rdf:RDF>
      <cc:Work
         rdf:about="">
        <dc:format>image/svg+xml</dc:format>
        <dc:type
           rdf:resource="http://purl.org/dc/dcmitype/StillImage" />
        <dc:title></dc:title>
      </cc:Work>
    </rdf:RDF>
  </metadata>
  <g
     inkscape:label="Layer 1"
     inkscape:groupmode="layer"
     id="layer1"
     sodipodi:insensitive="true"
     style="display:none">
    <circle
       style="opacity:1;fill:#ffffff;fill-opacity:1;stroke:#000000;stroke-width:0.265;stroke-miterlimit:4;stroke-dasharray:none;stroke-opacity:1"
       id="path63"
       cx="150"
       cy="150"
       r="150" />
  </g>
  <g
     inkscape:groupmode="layer"
     id="layer3"
     inkscape:label="Layer 2">
    <path
       id="path1067-7-0-1"
       style="fill:none;fill-opacity:1;fill-rule:evenodd;stroke:#000000;stroke-width:0.83791;stroke-linecap:butt;stroke-linejoin:miter;stroke-miterlimit:4;stroke-dasharray:none;stroke-opacity:1"
       d="m 58.83973,71.269907 c 0,0 -4.340983,125.658773 91.16094,164.729073 M 241.1616,71.269905 c 0,0 4.34098,125.658775 -91.16094,164.729075 M 241.1616,71.269907 c 0,0 -39.00776,24.117313 -91.16094,-7.296521 m -91.16093,7.296521 c 0,0 39.007761,24.117313 91.16093,-7.296521 M 49.187616,62.933903 c 0,0 -4.800606,138.963517 100.813054,182.170577 M 250.81371,62.933901 c 0,0 4.80061,138.963519 -100.81305,182.170579 M 250.81371,62.933903 c 0,0 -43.1379,26.670853 -100.81305,-8.069076 M 49.187616,62.933903 c 0,0 43.1379,26.670853 100.813044,-8.069076" />
    <path
       style="fill:#7e7d68;fill-opacity:1;stroke:none;stroke-width:5.93895;stroke-linecap:round"
       d="M 548.21812,916.76782 C 459.65806,876.27834 387.15978,815.77772 329.08343,733.89749 249.99726,622.39611 200.339,468.42804 188.70532,298.64771 c -1.84999,-26.99861 -2.07624,-58.62808 -0.4138,-57.85066 0.64818,0.30311 6.12825,2.88075 12.17795,5.72808 57.64187,27.12959 132.63026,35.81947 204.77166,23.72957 48.85663,-8.1877 98.38285,-25.91826 145.0659,-51.93412 l 16.95329,-9.44785 10.66611,6.20196 c 50.82977,29.55571 109.90983,50.07609 166.22959,57.73681 27.69765,3.76748 72.56047,3.44402 100.66375,-0.72579 33.47241,-4.96645 70.91868,-16.16557 94.81464,-28.35639 3.40882,-1.73904 6.42908,-2.47577 6.7117,-1.63717 1.18585,3.51875 -1.75613,68.71747 -4.14733,91.9109 -26.06033,252.77212 -129.1502,445.5835 -293.56997,549.0707 -18.07154,11.37439 -51.64442,29.12348 -69.46936,36.72664 l -12.57578,5.36412 z m 38.24161,-32.10959 c 133.65803,-61.06087 229.99222,-176.90671 283.21546,-340.57831 17.04427,-52.41435 31.14434,-118.61644 37.88249,-177.86423 3.58544,-31.52652 6.45717,-93.97055 4.41549,-96.01224 -1.16294,-1.16294 -4.14569,-0.39721 -9.99125,2.56496 -22.44962,11.37608 -57.30305,21.71131 -87.9009,26.0656 -21.68458,3.08588 -70.43315,2.67792 -91.92388,-0.76928 -50.77904,-8.14515 -102.79276,-26.82387 -146.56613,-52.63358 l -8.12935,-4.79324 -14.57614,7.85887 c -59.36655,32.00807 -109.30856,47.62131 -166.34098,52.00275 -51.36905,3.94637 -106.99607,-5.52115 -150.54665,-25.62248 -7.25085,-3.34673 -13.43804,-6.08496 -13.74929,-6.08496 -1.19449,0 -0.49243,44.48829 1.00688,63.80426 10.38735,133.82307 46.5215,256.38791 103.53222,351.17503 50.8922,84.61434 120.40232,150.69138 201.82521,191.8571 16.64874,8.41726 35.86685,16.89534 38.41705,16.9477 1.10422,0.0226 9.84761,-3.54041 19.42977,-7.91795 z"
       id="path5601"
       transform="scale(0.26458333)" />
    <path
       style="display:inline;fill:#fff30b;fill-opacity:1;stroke:#000000;stroke-width:1.36465;stroke-miterlimit:4;stroke-dasharray:none;stroke-opacity:1"
       d="m 118.33743,207.68488 c -0.006,-0.0929 2.55609,-5.54757 5.69457,-12.12167 3.13849,-6.57408 6.83732,-14.33933 8.21969,-17.2561 1.38234,-2.91678 4.97933,-10.46639 7.99331,-16.77693 3.01395,-6.31053 5.41229,-11.64559 5.32954,-11.85569 -0.11464,-0.29141 -3.94268,-0.73299 -16.13742,-1.86159 -8.7929,-0.81377 -16.06746,-1.51888 -16.16567,-1.56694 -0.098,-0.0479 3.29524,-3.42254 7.54102,-7.49886 4.24581,-4.07634 15.20635,-14.62769 24.35676,-23.44745 26.00309,-25.063554 33.28787,-32.033438 33.41577,-31.971356 0.065,0.03164 -1.16446,3.573232 -2.73257,7.870206 -1.56807,4.296959 -4.11624,11.2787 -5.66257,15.51497 -8.78073,24.05563 -9.93562,27.40467 -9.49594,27.53759 0.26227,0.0793 7.85293,0.63481 16.86813,1.23447 9.01517,0.59966 16.57473,1.1424 16.79902,1.20608 0.35142,0.0998 -3.16442,3.55778 -9.18966,9.03852 -0.91615,0.83336 -4.39738,4.07212 -7.73604,7.19725 -3.33867,3.1251 -8.22049,7.67074 -10.8485,10.10138 -4.10577,3.79748 -10.42835,9.69023 -24.65684,22.98065 -1.71,1.59728 -5.01495,4.66558 -7.34424,6.81843 -2.3293,2.15287 -6.11587,5.67572 -8.41452,7.82858 -5.53461,5.18356 -7.81959,7.23362 -7.83384,7.02846 z"
       id="path8495" />
  </g>
  <g
     inkscape:groupmode="layer"
     id="layer2"
     inkscape:label="Layer 3"
     style="display:inline" />
  <g
     inkscape:groupmode="layer"
     id="layer5"
     inkscape:label="Layer 4" />
</svg>
