<?xml version="1.0" encoding="UTF-8" standalone="no"?>
<svg
   xmlns:dc="http://purl.org/dc/elements/1.1/"
   xmlns:cc="http://creativecommons.org/ns#"
   xmlns:rdf="http://www.w3.org/1999/02/22-rdf-syntax-ns#"
   xmlns:svg="http://www.w3.org/2000/svg"
   xmlns="http://www.w3.org/2000/svg"
   xmlns:sodipodi="http://sodipodi.sourceforge.net/DTD/sodipodi-0.dtd"
   xmlns:inkscape="http://www.inkscape.org/namespaces/inkscape"
   width="300mm"
   height="300mm"
   viewBox="0 0 300 300"
   version="1.1"
   id="svg61"
   inkscape:version="1.0.2 (e86c870879, 2021-01-15)"
   sodipodi:docname="battlecry.svg">
  <defs
     id="defs55" />
  <sodipodi:namedview
     id="base"
     pagecolor="#ffffff"
     bordercolor="#666666"
     borderopacity="1.0"
     inkscape:pageopacity="0.0"
     inkscape:pageshadow="2"
     inkscape:zoom="0.53033008"
     inkscape:cx="523.10328"
     inkscape:cy="546.55746"
     inkscape:document-units="mm"
     inkscape:current-layer="layer1"
     inkscape:document-rotation="0"
     showgrid="false"
     inkscape:window-width="1920"
     inkscape:window-height="1002"
     inkscape:window-x="-8"
     inkscape:window-y="-8"
     inkscape:window-maximized="1"
     inkscape:snap-global="true" />
  <metadata
     id="metadata58">
    <rdf:RDF>
      <cc:Work
         rdf:about="">
        <dc:format>image/svg+xml</dc:format>
        <dc:type
           rdf:resource="http://purl.org/dc/dcmitype/StillImage" />
        <dc:title />
      </cc:Work>
    </rdf:RDF>
  </metadata>
  <g
     inkscape:label="Layer 1"
     inkscape:groupmode="layer"
     id="layer1"
     style="display:inline" />
  <g
     inkscape:groupmode="layer"
     id="layer3"
     inkscape:label="Layer 2"
     style="display:inline" />
  <g
     inkscape:groupmode="layer"
     id="layer2"
     inkscape:label="Layer 3">
    <path
       id="path4056-3"
       style="fill:#ff212b;stroke:#000000;stroke-width:1.13063;stroke-linecap:butt;stroke-linejoin:miter;stroke-miterlimit:4;stroke-dasharray:none;stroke-opacity:1;fill-opacity:1"
       d="m 150,77.811971 c 16.55158,0 19.33727,22.855769 9.57268,37.891839 5.92579,4.89522 10.48079,10.76768 21.13963,11.16811 6.36173,-1.75496 13.60672,-4.19338 21.13965,-4.78635 7.06728,-5.00596 7.31098,-8.42517 17.47414,-10.49071 -3.98861,-5.1852 -13.74177,-39.329067 -13.74177,-39.329067 0,0 -3.56521,-5.865132 -9.71527,-2.032186 -10.68704,-1.842589 -13.6229,-0.1851 -16.75218,-11.168116 2.66177,-2.022944 3.9433,-8.13407 9.97152,-7.578364 6.38306,2.051701 11.59955,3.036017 17.94875,5.982919 21.53851,13.162422 38.29069,62.222374 38.29069,62.222374 -8.50139,5.23161 -14.88913,10.51901 -20.74078,18.74647 -3.72032,2.72825 -4.53002,7.09118 -11.96585,8.77497 -4.03517,2.39119 -6.61662,2.52143 -10.76925,6.38176 -29.11686,54.24514 -19.14534,61.42464 -19.94305,64.21666 -0.79773,2.79203 6.38177,19.54421 6.38177,19.54421 l -38.68955,-2e-5 M 150,77.811971 c -17.39164,0 -19.33727,22.855769 -9.57268,37.891819 -5.92579,4.89523 -10.48079,10.76768 -21.13963,11.16811 -6.36173,-1.75495 -13.60672,-4.19337 -21.139648,-4.78633 -7.067283,-5.00597 -7.310989,-7.07038 -17.474144,-9.13592 3.98861,-5.1852 12.725681,-40.006463 12.725681,-40.006463 0,0 4.581292,-6.542526 10.731361,-2.70958 10.68704,-1.842589 13.62289,-0.1851 16.75218,-11.168116 -2.66176,-2.022944 -3.94331,-8.13407 -9.97153,-7.578364 -6.38307,2.051701 -11.599548,3.036017 -17.948742,5.982919 -21.538518,13.162422 -38.290689,62.222364 -38.290689,62.222364 8.501386,5.23161 14.889139,10.51901 20.740784,18.74647 3.720321,2.72824 4.530011,7.09118 11.965842,8.77496 4.035172,2.3912 6.616627,2.52144 10.769257,6.38177 29.116848,54.24513 19.145338,61.42464 19.943038,64.21667 0.79774,2.79201 -6.38176,19.54419 -6.38176,19.54419 h 37.89181"
       sodipodi:nodetypes="ccccccccccccccsccccccccccccccccscc" />
  </g>
</svg>
