<?xml version="1.0" encoding="UTF-8" standalone="no"?>
<svg
   xmlns:osb="http://www.openswatchbook.org/uri/2009/osb"
   xmlns:dc="http://purl.org/dc/elements/1.1/"
   xmlns:cc="http://creativecommons.org/ns#"
   xmlns:rdf="http://www.w3.org/1999/02/22-rdf-syntax-ns#"
   xmlns:svg="http://www.w3.org/2000/svg"
   xmlns="http://www.w3.org/2000/svg"
   xmlns:sodipodi="http://sodipodi.sourceforge.net/DTD/sodipodi-0.dtd"
   xmlns:inkscape="http://www.inkscape.org/namespaces/inkscape"
   width="300mm"
   height="300mm"
   viewBox="0 0 300 300"
   version="1.1"
   id="svg61"
   inkscape:version="1.0.2 (e86c870879, 2021-01-15)"
   sodipodi:docname="blindingLight.svg">
  <defs
     id="defs55">
    <linearGradient
       id="linearGradient1699"
       osb:paint="solid">
      <stop
         style="stop-color:#808000;stop-opacity:1;"
         offset="0"
         id="stop1697" />
    </linearGradient>
  </defs>
  <sodipodi:namedview
     id="base"
     pagecolor="#ffffff"
     bordercolor="#666666"
     borderopacity="1.0"
     inkscape:pageopacity="0.0"
     inkscape:pageshadow="2"
     inkscape:zoom="0.6363961"
     inkscape:cx="403.17341"
     inkscape:cy="556.34885"
     inkscape:document-units="mm"
     inkscape:current-layer="layer2"
     inkscape:document-rotation="0"
     showgrid="false"
     inkscape:window-width="1920"
     inkscape:window-height="1002"
     inkscape:window-x="-8"
     inkscape:window-y="-8"
     inkscape:window-maximized="1"
     inkscape:snap-global="false"
     showguides="true"
     inkscape:guide-bbox="true" />
  <metadata
     id="metadata58">
    <rdf:RDF>
      <cc:Work
         rdf:about="">
        <dc:format>image/svg+xml</dc:format>
        <dc:type
           rdf:resource="http://purl.org/dc/dcmitype/StillImage" />
        <dc:title />
      </cc:Work>
    </rdf:RDF>
  </metadata>
  <g
     inkscape:label="Layer 1"
     inkscape:groupmode="layer"
     id="layer1"
     sodipodi:insensitive="true"
     style="display:none">
    <circle
       style="opacity:1;fill:#ffffff;fill-opacity:1;stroke:#000000;stroke-width:0.265;stroke-miterlimit:4;stroke-dasharray:none;stroke-opacity:1"
       id="path63"
       cx="150"
       cy="150"
       r="150" />
  </g>
  <g
     inkscape:groupmode="layer"
     id="layer3"
     inkscape:label="Layer 2">
    <path
       id="path1067-7-0"
       style="fill:none;fill-opacity:1;fill-rule:evenodd;stroke:#000000;stroke-width:0.375979;stroke-linecap:butt;stroke-linejoin:miter;stroke-miterlimit:4;stroke-dasharray:none;stroke-opacity:1"
       d="m 41.326509,101.06057 c 0,0 13.514923,74.76653 49.604992,93.11394 M 101.35516,91.837737 c 0,0 16.37341,74.327353 -10.423659,102.336773 M 101.35516,91.837738 c 0,0 -9.974938,16.280802 -30.882082,0.282765 m -29.146569,8.940067 c 0,0 15.711319,12.33435 29.146569,-8.940067"
       sodipodi:nodetypes="cccccccc" />
    <path
       style="fill:#ffcc00;fill-opacity:1;fill-rule:nonzero;stroke-width:0.590792;stroke-miterlimit:4;stroke-dasharray:none"
       d="m 88.606428,192.51636 c -9.104269,-5.40182 -17.505031,-14.91765 -25.122977,-28.45767 -1.911574,-3.39759 -5.648886,-11.06473 -7.370017,-15.11968 -5.168237,-12.17623 -9.598825,-25.9354 -12.948754,-40.21232 -0.834236,-3.5554 -1.548278,-6.94268 -1.466183,-6.95529 0.02537,-0.004 0.536268,0.27088 1.135241,0.61064 2.366686,1.34246 5.086992,2.23006 7.720795,2.5192 2.286132,0.25097 6.366413,-0.4294 8.456551,-1.41008 3.859715,-1.81098 6.726106,-4.304251 9.936336,-8.642934 l 1.66765,-2.253856 1.315295,0.966425 c 4.278498,3.143644 9.297968,5.269706 13.809994,5.849399 1.939914,0.249259 6.357939,-0.315187 8.014531,-1.023911 2.502963,-1.070805 4.83025,-2.739109 6.51974,-4.673627 0.41839,-0.479069 0.81367,-0.931672 0.8784,-1.00578 0.0908,-0.103994 0.24771,0.513945 0.68733,2.70691 0.99108,4.943874 2.02395,11.919064 2.78181,18.786174 1.37527,12.46145 1.77347,23.67193 1.20664,33.97016 -0.55941,10.16352 -1.83959,18.03224 -4.17701,25.67407 -2.402071,7.85328 -5.471554,13.77705 -9.654872,18.63286 -0.549556,0.63788 -1.093829,1.17077 -1.209498,1.18419 -0.115638,0.0136 -1.097127,-0.50178 -2.181002,-1.14488 z"
       id="path1758" />
    <path
       style="fill:#ffcc00;fill-opacity:1;fill-rule:nonzero;stroke-width:0.590792;stroke-miterlimit:4;stroke-dasharray:none"
       d="m 89.363136,192.8266 c -9.114214,-5.06109 -18.031391,-15.01825 -25.801055,-28.81017 -1.454413,-2.58174 -4.995913,-9.71946 -6.476471,-13.05301 -5.162785,-11.6243 -9.911499,-25.92426 -13.467372,-40.55477 -0.98995,-4.07311 -1.865767,-8.50676 -1.657514,-8.3908 4.698676,2.61617 8.371236,3.42907 12.579508,2.78443 2.295322,-0.35154 4.182682,-0.98809 6.044894,-2.03848 3.094243,-1.74533 5.25523,-3.749032 8.288936,-7.685568 l 1.770867,-2.297879 2.041391,1.39417 c 3.49998,2.390299 7.103592,4.03983 10.669969,4.88408 2.643191,0.625718 3.529307,0.642996 6.914249,0.134881 2.545341,-0.382076 3.363862,-0.581519 4.285015,-1.044093 2.215554,-1.112574 4.582548,-2.941831 6.048127,-4.674101 0.28997,-0.342744 0.55902,-0.583303 0.59789,-0.534577 0.15475,0.194023 1.46358,7.216777 1.9382,10.399777 2.98708,20.03267 3.63765,38.34241 1.89705,53.39043 -1.75108,15.13888 -6.159017,27.37415 -12.636958,35.07689 -0.741528,0.88174 -1.464405,1.61814 -1.606363,1.63646 -0.141962,0.0182 -0.785641,-0.25965 -1.430374,-0.61767 z"
       id="path1760" />
    <path
       style="fill:#ffcc00;fill-opacity:1;fill-rule:nonzero;stroke-width:0.590792;stroke-miterlimit:4;stroke-dasharray:none"
       d="m 89.047497,192.98433 c -16.266938,-9.39682 -30.234543,-31.68965 -40.743862,-65.02867 -1.157041,-3.67053 -2.641079,-8.858 -3.696963,-12.92274 -1.381126,-5.31685 -3.264035,-13.64204 -3.091418,-13.66856 0.03285,-0.005 0.366431,0.19645 0.741097,0.4478 1.147823,0.76999 2.94487,1.58811 4.653204,2.11838 4.337037,1.34623 8.856914,0.98304 12.839113,-1.03169 3.473055,-1.75714 7.237327,-5.285239 9.848493,-9.230569 l 0.885508,-1.337969 2.346946,1.583887 c 6.03545,4.073148 11.168887,5.731505 16.341242,5.279057 4.284083,-0.374756 8.127348,-2.367694 11.088073,-5.749758 l 1.05956,-1.210354 0.58356,2.911031 c 1.00659,5.021235 2.127,12.554785 2.86161,19.241095 3.56731,32.46993 0.48642,57.94649 -8.831593,73.02985 -1.577159,2.55302 -4.626395,6.40617 -5.108737,6.45566 -0.112723,0.0114 -0.911823,-0.38735 -1.775833,-0.88645 z"
       id="path1762" />
  </g>
  <g
     inkscape:groupmode="layer"
     id="layer2"
     inkscape:label="Layer 3"
     style="display:inline">
    <path
       style="fill:#7fbffa;fill-opacity:1;fill-rule:nonzero;stroke:#000000;stroke-width:0.336697;stroke-miterlimit:4;stroke-dasharray:none;stroke-opacity:1"
       d="M 87.479828,183.48496 C 74.332717,175.89035 63.04394,157.87308 54.550199,130.92809 c -0.935137,-2.96655 -2.134549,-7.15913 -2.987924,-10.4443 -1.116245,-4.29713 -2.638034,-11.02564 -2.498521,-11.04707 0.02669,-0.004 0.296153,0.15877 0.598964,0.3619 0.927679,0.62233 2.380073,1.28354 3.760769,1.71211 3.505242,1.08804 7.158255,0.7945 10.376706,-0.83382 2.806962,-1.42015 5.849289,-4.2716 7.959661,-7.46026 l 0.715678,-1.08135 1.896832,1.28012 c 4.877912,3.29196 9.026812,4.63227 13.20716,4.26658 3.462437,-0.30288 6.568625,-1.91359 8.961511,-4.64701 l 0.856351,-0.97822 0.471644,2.35273 c 0.813538,4.05821 1.719061,10.1469 2.31276,15.55087 2.88316,26.24253 0.39314,46.83297 -7.137771,59.02351 -1.274695,2.06337 -3.739106,5.17753 -4.128941,5.21753 -0.09107,0.009 -0.736945,-0.31305 -1.43525,-0.71645 z"
       id="path1762-1" />
    <path
       id="path3772"
       style="opacity:0.8;fill:#ffe680;stroke-width:1.58457"
       inkscape:transform-center-x="7.195905"
       inkscape:transform-center-y="15.542174"
       transform="matrix(0.7372105,-0.51620036,0.4999376,0.71398489,-40.089981,80.880297)"
       d="M 238.53683,206.24618 125.95691,296.58831 84.706133,120.54164 Z"
       sodipodi:nodetypes="cccc" />
  </g>
  <g
     inkscape:groupmode="layer"
     id="layer5"
     inkscape:label="Layer 4" />
</svg>
