<?xml version="1.0" encoding="UTF-8" standalone="no"?>
<svg
   xmlns:dc="http://purl.org/dc/elements/1.1/"
   xmlns:cc="http://creativecommons.org/ns#"
   xmlns:rdf="http://www.w3.org/1999/02/22-rdf-syntax-ns#"
   xmlns:svg="http://www.w3.org/2000/svg"
   xmlns="http://www.w3.org/2000/svg"
   xmlns:sodipodi="http://sodipodi.sourceforge.net/DTD/sodipodi-0.dtd"
   xmlns:inkscape="http://www.inkscape.org/namespaces/inkscape"
   width="300mm"
   height="300mm"
   viewBox="0 0 300 300"
   version="1.1"
   id="svg61"
   inkscape:version="1.0.2 (e86c870879, 2021-01-15)"
   sodipodi:docname="boonOfDionysus.svg">
  <defs
     id="defs55" />
  <sodipodi:namedview
     id="base"
     pagecolor="#ffffff"
     bordercolor="#666666"
     borderopacity="1.0"
     inkscape:pageopacity="0.0"
     inkscape:pageshadow="2"
     inkscape:zoom="1.5"
     inkscape:cx="590.5523"
     inkscape:cy="463.88434"
     inkscape:document-units="mm"
     inkscape:current-layer="layer3"
     inkscape:document-rotation="0"
     showgrid="false"
     inkscape:window-width="1920"
     inkscape:window-height="1002"
     inkscape:window-x="-8"
     inkscape:window-y="-8"
     inkscape:window-maximized="1"
     inkscape:snap-global="false"
     showguides="true"
     inkscape:guide-bbox="true"
     inkscape:snap-bbox="false" />
  <metadata
     id="metadata58">
    <rdf:RDF>
      <cc:Work
         rdf:about="">
        <dc:format>image/svg+xml</dc:format>
        <dc:type
           rdf:resource="http://purl.org/dc/dcmitype/StillImage" />
        <dc:title></dc:title>
      </cc:Work>
    </rdf:RDF>
  </metadata>
  <g
     inkscape:label="Layer 1"
     inkscape:groupmode="layer"
     id="layer1" />
  <g
     inkscape:groupmode="layer"
     id="layer3"
     inkscape:label="Layer 2"
     style="display:inline">
    <path
       id="rect2857"
       style="fill:#eeeeee;fill-opacity:1;stroke:#000000;stroke-width:1.09887;stroke-linecap:square;stroke-miterlimit:4;stroke-dasharray:none;stroke-opacity:1"
       d="m 202.62992,47.103003 c -1.63612,0.531095 -3.27298,1.028897 -4.90854,1.495161 -1.63556,0.466265 -3.26999,0.900953 -4.90172,1.305498 -1.63174,0.404546 -3.26061,0.778984 -4.88526,1.12492 -1.62465,0.345939 -3.2454,0.662987 -4.8597,0.953429 -1.6143,0.290442 -3.2221,0.554098 -4.82279,0.792158 -1.60069,0.238059 -3.19411,0.450617 -4.77793,0.639405 -3.16764,0.377574 -6.29812,0.660003 -9.37869,0.859164 -3.08057,0.199161 -6.11089,0.314946 -9.07829,0.360587 -2.96741,0.04564 -5.87197,0.02108 -8.70011,-0.0619 -2.82813,-0.08298 -5.5802,-0.224415 -8.24298,-0.411126 -2.66277,-0.186715 -5.23618,-0.418718 -7.70749,-0.684267 -2.47131,-0.265546 -4.84047,-0.564661 -7.09421,-0.884148 -2.25374,-0.319487 -4.39192,-0.659411 -6.40199,-1.007943 -2.01008,-0.348532 -3.89224,-0.705232 -5.63256,-1.057913 -1.74031,-0.352681 -3.33915,-0.701562 -4.7836,-1.033496 -2.88891,-0.66387 -5.15979,-1.26126 -6.708641,-1.692776 -1.54885,-0.431515 -2.375336,-0.696757 -2.375336,-0.696757 -0.642454,2.398496 -1.206938,4.722906 -1.69732,6.975529 -0.49038,2.252619 -0.906998,4.433202 -1.253824,6.544524 -0.346822,2.111323 -0.62353,4.153123 -0.835312,6.127721 -0.211785,1.974601 -0.358237,3.882096 -0.443494,5.724546 -0.08526,1.84245 -0.109412,3.620117 -0.07666,5.334996 0.03275,1.714878 0.122376,3.366625 0.264618,4.958509 0.142243,1.59188 0.337127,3.123891 0.580347,4.597352 0.243223,1.473458 0.534839,2.888504 0.870524,4.248119 0.335681,1.359616 0.714945,2.66331 1.134573,3.913656 0.419627,1.250346 0.87915,2.447167 1.374207,3.592817 0.495058,1.145652 1.025752,2.240082 1.587723,3.285612 0.561972,1.04553 1.155315,2.04261 1.775685,2.99259 0.62037,0.94999 1.26783,1.85306 1.93809,2.71208 0.67025,0.85902 1.36332,1.67369 2.07494,2.44632 0.71161,0.77263 1.44177,1.50338 2.18624,2.19419 0.74447,0.69081 1.50318,1.34155 2.27198,1.95512 0.76881,0.61357 1.54756,1.18992 2.33218,1.73082 0.78463,0.54091 1.57547,1.04677 2.36739,1.51958 0.79193,0.47282 1.58519,0.91267 2.37591,1.32197 0.79071,0.4093 1.57845,0.78818 2.35943,1.13855 1.56197,0.70073 3.09644,1.28779 4.56839,1.78022 1.47196,0.49243 2.8815,0.88993 4.19531,1.21067 1.31382,0.32073 2.53196,0.56506 3.61951,0.7507 1.08756,0.18565 2.04441,0.31262 2.83757,0.39977 1.58633,0.17432 2.51617,0.18853 2.51617,0.18853 h 27.41148 c 0,0 0.92927,-0.0142 2.5156,-0.18853 0.79316,-0.0871 1.75058,-0.21412 2.83814,-0.39977 1.08755,-0.18564 2.30512,-0.42997 3.61894,-0.7507 1.31381,-0.32074 2.72392,-0.71824 4.19587,-1.21067 1.47196,-0.49243 3.00586,-1.07949 4.56783,-1.78022 0.78098,-0.35037 1.56872,-0.72925 2.35943,-1.13855 0.79072,-0.4093 1.58455,-0.84915 2.37648,-1.32197 0.79192,-0.47281 1.58219,-0.97867 2.36681,-1.51958 0.78463,-0.5409 1.56338,-1.11725 2.33219,-1.73082 0.7688,-0.61357 1.52751,-1.26431 2.27198,-1.95512 0.74447,-0.69081 1.47463,-1.42156 2.18624,-2.19419 0.71162,-0.77263 1.40469,-1.5873 2.07494,-2.44632 0.67026,-0.85902 1.31772,-1.76209 1.93809,-2.71208 0.62037,-0.94998 1.21371,-1.94706 1.77569,-2.99259 0.56197,-1.04553 1.09266,-2.13996 1.58772,-3.285612 0.49506,-1.14565 0.95458,-2.342471 1.37421,-3.592817 0.41962,-1.250346 0.79945,-2.55404 1.13514,-3.913656 0.33568,-1.359615 0.6273,-2.774661 0.87052,-4.248119 0.24322,-1.473461 0.4381,-3.005472 0.58035,-4.597352 0.14224,-1.591884 0.23187,-3.243631 0.26462,-4.958509 0.0327,-1.714879 0.009,-3.492546 -0.0767,-5.334996 -0.0853,-1.84245 -0.23171,-3.749945 -0.4435,-5.724546 -0.21178,-1.974598 -0.48906,-4.016398 -0.83588,-6.127721 -0.34682,-2.111322 -0.76344,-4.291905 -1.25382,-6.544524 -0.49038,-2.252623 -1.0543,-4.577033 -1.69675,-6.975529 z" />
    <ellipse
       style="fill:#eeeeee;fill-opacity:1;stroke:#000000;stroke-width:1.20809;stroke-linecap:square;stroke-miterlimit:4;stroke-dasharray:none;stroke-opacity:1"
       id="path2690"
       cx="150.0873"
       cy="245.9904"
       rx="54.339256"
       ry="14.490467" />
    <path
       style="fill:#a6002f;fill-opacity:1;stroke:none;stroke-width:0.290741px;stroke-linecap:butt;stroke-linejoin:miter;stroke-opacity:1"
       d="M 206.3302,81.092845 C 150.41097,107.68189 93.806467,80.818731 93.806467,80.818731 c 0,0 -0.759003,39.390099 42.113603,43.429849 h 27.41149 c 0,0 40.08346,-0.39397 42.99864,-43.155735 z"
       id="path2864"
       sodipodi:nodetypes="ccccc" />
    <path
       id="path2861"
       style="fill:#eeeeee;fill-opacity:1;stroke:#000000;stroke-width:1.09887;stroke-linecap:butt;stroke-linejoin:round;stroke-miterlimit:4;stroke-dasharray:none;stroke-dashoffset:0;stroke-opacity:1;paint-order:markers fill stroke"
       d="m 155.017,39.572112 c -2.96741,-0.04564 -5.87197,-0.02109 -8.70011,0.0619 -2.82813,0.08298 -5.5802,0.224413 -8.24298,0.411126 -2.66277,0.186714 -5.23618,0.418718 -7.70749,0.684266 -2.47131,0.265547 -4.84047,0.564662 -7.09421,0.88415 -2.25374,0.319487 -4.39192,0.65941 -6.40199,1.007942 -2.01008,0.348531 -3.89224,0.705233 -5.63256,1.057913 -1.74031,0.352681 -3.33915,0.701561 -4.7836,1.033496 -2.88891,0.663869 -5.15979,1.26126 -6.708641,1.692775 -1.54885,0.431515 -2.375336,0.697326 -2.375336,0.697326 0,0 0.826486,0.265242 2.375336,0.696757 1.548851,0.431516 3.819731,1.028906 6.708641,1.692776 1.44445,0.331934 3.04329,0.680815 4.7836,1.033496 1.74032,0.352681 3.62248,0.709381 5.63256,1.057913 2.01007,0.348532 4.14825,0.688456 6.40199,1.007943 2.25374,0.319487 4.6229,0.618602 7.09421,0.884148 2.47131,0.265549 5.04472,0.497552 7.70749,0.684267 2.66278,0.186711 5.41485,0.328142 8.24298,0.411126 2.82814,0.08298 5.7327,0.107536 8.70011,0.0619 2.9674,-0.04564 5.99772,-0.161426 9.07829,-0.360587 3.08057,-0.199161 6.21105,-0.48159 9.37869,-0.859164 1.58382,-0.188788 3.17724,-0.401346 4.77793,-0.639405 1.60069,-0.23806 3.20849,-0.501716 4.82279,-0.792158 1.6143,-0.290442 3.23505,-0.60749 4.8597,-0.953429 1.62465,-0.345936 3.25352,-0.720374 4.88526,-1.12492 1.63173,-0.404545 3.26616,-0.839233 4.90172,-1.305498 1.63556,-0.466264 3.27242,-0.964066 4.90854,-1.495161 -1.63612,-0.531096 -3.27298,-1.029465 -4.90854,-1.49573 -1.63556,-0.466264 -3.26999,-0.900953 -4.90172,-1.305498 -1.63174,-0.404545 -3.26061,-0.778982 -4.88526,-1.12492 -1.62465,-0.345939 -3.2454,-0.662986 -4.8597,-0.953428 -1.6143,-0.290443 -3.2221,-0.554098 -4.82279,-0.792158 -1.60069,-0.238059 -3.19411,-0.450616 -4.77793,-0.639404 -3.16764,-0.377576 -6.29812,-0.660004 -9.37869,-0.859165 -3.08057,-0.19916 -6.11089,-0.314946 -9.07829,-0.360588 z" />
    <path
       id="path2852"
       style="fill:#eeeeee;fill-opacity:1;stroke:#000000;stroke-width:1.09887;stroke-linecap:square;stroke-miterlimit:4;stroke-dasharray:none;stroke-opacity:1"
       d="m 136.29426,124.74749 c 0.40724,1.80016 0.78896,3.60621 1.14649,5.41677 0.35754,1.81056 0.69093,3.62566 1.00113,5.44232 0.62041,3.63332 1.14855,7.2743 1.59397,10.90622 0.44543,3.63191 0.80814,7.25445 1.09766,10.85057 0.28953,3.59611 0.50543,7.16566 0.65815,10.69157 0.15271,3.5259 0.24211,7.00849 0.27711,10.42979 0.035,3.42129 0.0159,6.78123 -0.0477,10.06352 -0.0636,3.28229 -0.17199,6.48674 -0.31516,9.59561 -0.14317,3.10887 -0.32107,6.12216 -0.52469,9.02321 -0.20363,2.90105 -0.43304,5.68977 -0.67803,8.3486 -0.24498,2.65883 -0.50559,5.18787 -0.77284,7.57007 -0.53451,4.76442 -1.09457,8.94136 -1.60363,12.39287 -0.50905,3.4515 -0.96723,6.17746 -1.29811,8.04082 -0.33089,1.86336 -0.53435,2.86426 -0.53435,2.86426 h 27.41148 c 0,0 -0.20403,-1.0009 -0.53492,-2.86426 -0.33088,-1.86336 -0.78906,-4.58932 -1.29811,-8.04082 -0.50906,-3.45151 -1.06855,-7.62845 -1.60306,-12.39287 -0.26725,-2.3822 -0.52843,-4.91124 -0.77341,-7.57007 -0.24499,-2.65883 -0.47383,-5.44755 -0.67746,-8.3486 -0.20362,-2.90105 -0.38209,-5.91434 -0.52526,-9.02321 -0.14317,-3.10887 -0.25153,-6.31332 -0.31516,-9.59561 -0.0636,-3.28229 -0.0827,-6.64223 -0.0477,-10.06352 0.035,-3.4213 0.1244,-6.90389 0.27711,-10.42979 0.15272,-3.52591 0.36919,-7.09546 0.65871,-10.69157 0.28953,-3.59612 0.65224,-7.21866 1.09767,-10.85057 0.44542,-3.63192 0.97355,-7.2729 1.59396,-10.90622 0.31021,-1.81666 0.64303,-3.63176 1.00057,-5.44232 0.35753,-1.81056 0.73982,-3.61661 1.14706,-5.41677 z" />
    <path
       style="fill:#86002f;fill-opacity:1;stroke:#000000;stroke-width:0.274717;stroke-linecap:butt;stroke-linejoin:miter;stroke-miterlimit:4;stroke-dasharray:none;stroke-opacity:1"
       d="M 206.3302,81.092845 C 152.05565,75.062337 93.806467,80.818731 93.806467,80.818731 c 0,0 54.548633,29.330179 112.523733,0.274114 z"
       id="path2870"
       sodipodi:nodetypes="ccc" />
  </g>
  <g
     inkscape:groupmode="layer"
     id="layer2"
     inkscape:label="Layer 3" />
</svg>
