<?xml version="1.0" encoding="UTF-8" standalone="no"?>
<svg
   xmlns:dc="http://purl.org/dc/elements/1.1/"
   xmlns:cc="http://creativecommons.org/ns#"
   xmlns:rdf="http://www.w3.org/1999/02/22-rdf-syntax-ns#"
   xmlns:svg="http://www.w3.org/2000/svg"
   xmlns="http://www.w3.org/2000/svg"
   xmlns:sodipodi="http://sodipodi.sourceforge.net/DTD/sodipodi-0.dtd"
   xmlns:inkscape="http://www.inkscape.org/namespaces/inkscape"
   width="24"
   height="24"
   version="1.1"
   id="svg88"
   sodipodi:docname="coda.svg"
   inkscape:version="1.0.2 (e86c870879, 2021-01-15)">
  <metadata
     id="metadata94">
    <rdf:RDF>
      <cc:Work
         rdf:about="">
        <dc:format>image/svg+xml</dc:format>
        <dc:type
           rdf:resource="http://purl.org/dc/dcmitype/StillImage" />
        <dc:title></dc:title>
      </cc:Work>
    </rdf:RDF>
  </metadata>
  <defs
     id="defs92" />
  <sodipodi:namedview
     pagecolor="#ffffff"
     bordercolor="#666666"
     borderopacity="1"
     objecttolerance="10"
     gridtolerance="10"
     guidetolerance="10"
     inkscape:pageopacity="0"
     inkscape:pageshadow="2"
     inkscape:window-width="1920"
     inkscape:window-height="1002"
     id="namedview90"
     showgrid="false"
     inkscape:zoom="32.307692"
     inkscape:cx="6.0416667"
     inkscape:cy="12.009524"
     inkscape:window-x="-8"
     inkscape:window-y="-8"
     inkscape:window-maximized="1"
     inkscape:current-layer="svg88"
     showguides="true"
     inkscape:guide-bbox="true"
     inkscape:document-rotation="0" />
  <g
     id="g100"
     style="fill:#ffffff;fill-opacity:1;stroke:none"
     transform="matrix(0.78348207,0,0,0.78348207,2.5981215,1.8135641)">
    <path
       d="M 0.513184,13.2156 0.54834,12.5166 4.55835,12.4785 C 4.84717,8.28442 7.67236,5.20239 11.5413,4.47046 l 0.008,-3.961915 c 0.3211,0 0.21,0.005859 0.554,0.005859 L 12.0862,13.0854 Z M 11.5364,5.32544 C 8.82837,6.17944 8.44434,10.7385 8.39526,12.3965 l 3.03904,0.0181 z"
       id="path80"
       style="fill:#ffffff;fill-opacity:1;stroke:none" />
    <path
       d="m 23.4873,13.2156 c -0.0151,-1.532 -0.0352,0.708 -0.0352,-0.699 L 19.4412,12.4785 C 19.1523,8.28442 16.3284,5.20239 12.4592,4.47046 l -0.009,-3.961915 -0.553,0.005859 0.0171,12.570996 c 3.98,0 7.4939,0.1302 11.573,0.1302 z M 12.4644,5.32544 c 2.708,0.854 3.0908,5.41306 3.1408,7.07106 l -3.039,0.0181 z"
       id="path82"
       style="fill:#ffffff;fill-opacity:1;stroke:none" />
    <path
       d="m 0.512939,12.7876 c 0.015137,1.532 0.035157,-0.708 0.035157,0.699 l 4.010014,0.0381 c 0.28881,4.1941 3.11401,7.2761 6.98289,8.008 l 0.0081,3.9619 0.5539,-0.0058 -0.0171,-12.5711 z M 11.5361,20.6777 C 8.82813,19.8237 8.44409,15.2646 8.39502,13.6067 l 3.03908,-0.0181 z"
       id="path84"
       style="fill:#ffffff;fill-opacity:1;stroke:none" />
    <path
       d="m 23.4871,12.7876 -0.0352,0.699 -4.011,0.0381 c -0.2888,4.1941 -3.1128,7.2761 -6.9819,8.008 l -0.009,3.9619 -0.553,-0.0058 0.0171,-12.5711 c 3.9799,0 7.4939,-0.1301 11.573,-0.1301 z m -11.023,7.8901 c 2.708,-0.854 3.0908,-5.4131 3.1409,-7.071 l -3.0391,-0.0181 z"
       id="path86"
       style="fill:#ffffff;fill-opacity:1;stroke:none" />
  </g>
</svg>
