<?xml version="1.0" encoding="UTF-8" standalone="no"?>
<svg
   xmlns:dc="http://purl.org/dc/elements/1.1/"
   xmlns:cc="http://creativecommons.org/ns#"
   xmlns:rdf="http://www.w3.org/1999/02/22-rdf-syntax-ns#"
   xmlns:svg="http://www.w3.org/2000/svg"
   xmlns="http://www.w3.org/2000/svg"
   xmlns:sodipodi="http://sodipodi.sourceforge.net/DTD/sodipodi-0.dtd"
   xmlns:inkscape="http://www.inkscape.org/namespaces/inkscape"
   width="16mm"
   height="16mm"
   viewBox="0 0 16 16"
   version="1.1"
   id="svg61"
   inkscape:version="1.0.2 (e86c870879, 2021-01-15)"
   sodipodi:docname="document.svg">
  <defs
     id="defs55" />
  <sodipodi:namedview
     id="base"
     pagecolor="#ffffff"
     bordercolor="#666666"
     borderopacity="1.0"
     inkscape:pageopacity="0.0"
     inkscape:pageshadow="2"
     inkscape:zoom="2.1213203"
     inkscape:cx="1.3161009"
     inkscape:cy="13.946076"
     inkscape:document-units="mm"
     inkscape:current-layer="layer2"
     inkscape:document-rotation="0"
     showgrid="false"
     inkscape:window-width="1920"
     inkscape:window-height="1002"
     inkscape:window-x="-8"
     inkscape:window-y="-8"
     inkscape:window-maximized="1"
     inkscape:snap-global="true" />
  <metadata
     id="metadata58">
    <rdf:RDF>
      <cc:Work
         rdf:about="">
        <dc:format>image/svg+xml</dc:format>
        <dc:type
           rdf:resource="http://purl.org/dc/dcmitype/StillImage" />
        <dc:title></dc:title>
      </cc:Work>
    </rdf:RDF>
  </metadata>
  <g
     inkscape:label="Layer 1"
     inkscape:groupmode="layer"
     id="layer1"
     sodipodi:insensitive="true"
     style="display:none">
    <circle
       style="opacity:1;fill:#ffffff;fill-opacity:1;stroke:#000000;stroke-width:0.265;stroke-miterlimit:4;stroke-dasharray:none;stroke-opacity:1"
       id="path63"
       cx="150"
       cy="150"
       r="150" />
  </g>
  <g
     inkscape:groupmode="layer"
     id="layer3"
     inkscape:label="Layer 2"
     style="display:inline" />
  <g
     inkscape:groupmode="layer"
     id="layer2"
     inkscape:label="Layer 3">
    <g
       style="fill:#a3b9cc;stroke:#49647a;stroke-width:1.5;stroke-opacity:1;fill-opacity:1"
       id="g2492"
       transform="matrix(0.72858672,0,0,0.57085346,-0.7322002,1.1437198)">
      <path
         stroke-linecap="round"
         stroke-linejoin="round"
         d="M 19.5,14.25 V 11.625 A 3.375,3.375 0 0 0 16.125,8.25 h -1.5 A 1.125,1.125 0 0 1 13.5,7.125 v -1.5 A 3.375,3.375 0 0 0 10.125,2.25 H 8.25 m 0,12.75 h 7.5 m -7.5,3 H 12 M 10.5,2.25 H 5.625 C 5.004,2.25 4.5,2.754 4.5,3.375 v 17.25 c 0,0.621 0.504,1.125 1.125,1.125 h 12.75 c 0.621,0 1.125,-0.504 1.125,-1.125 V 11.25 a 9,9 0 0 0 -9,-9 z"
         id="path2481"
         style="stroke:#49647a;stroke-opacity:1;fill:#a3b9cc;fill-opacity:1" />
    </g>
  </g>
</svg>
