<?xml version="1.0" encoding="UTF-8" standalone="no"?>
<svg
   xmlns:dc="http://purl.org/dc/elements/1.1/"
   xmlns:cc="http://creativecommons.org/ns#"
   xmlns:rdf="http://www.w3.org/1999/02/22-rdf-syntax-ns#"
   xmlns:svg="http://www.w3.org/2000/svg"
   xmlns="http://www.w3.org/2000/svg"
   xmlns:sodipodi="http://sodipodi.sourceforge.net/DTD/sodipodi-0.dtd"
   xmlns:inkscape="http://www.inkscape.org/namespaces/inkscape"
   width="300mm"
   height="300mm"
   viewBox="0 0 300 300"
   version="1.1"
   id="svg61"
   inkscape:version="1.0.2 (e86c870879, 2021-01-15)"
   sodipodi:docname="fortissimo.svg">
  <defs
     id="defs55" />
  <sodipodi:namedview
     id="base"
     pagecolor="#ffffff"
     bordercolor="#666666"
     borderopacity="1.0"
     inkscape:pageopacity="0.0"
     inkscape:pageshadow="2"
     inkscape:zoom="0.5"
     inkscape:cx="204.41453"
     inkscape:cy="729.28045"
     inkscape:document-units="mm"
     inkscape:current-layer="layer1"
     inkscape:document-rotation="0"
     showgrid="false"
     inkscape:window-width="1920"
     inkscape:window-height="1002"
     inkscape:window-x="-8"
     inkscape:window-y="-8"
     inkscape:window-maximized="1" />
  <metadata
     id="metadata58">
    <rdf:RDF>
      <cc:Work
         rdf:about="">
        <dc:format>image/svg+xml</dc:format>
        <dc:type
           rdf:resource="http://purl.org/dc/dcmitype/StillImage" />
        <dc:title />
      </cc:Work>
    </rdf:RDF>
  </metadata>
  <g
     inkscape:groupmode="layer"
     id="layer6"
     inkscape:label="Layer 0" />
  <g
     inkscape:label="Layer 1"
     inkscape:groupmode="layer"
     id="layer1">
    <path
       d="m 134.47881,133.67453 h 11.64559 c 1.62012,-0.0411 2.96889,-0.60033 4.04635,-1.67775 1.07731,-1.07734 1.63657,-2.42612 1.67775,-4.04635 -0.0412,-1.62014 -0.60044,-2.96892 -1.67775,-4.04636 -1.07746,-1.07733 -2.42623,-1.63657 -4.04635,-1.67775 h -8.29009 c 1.33639,-5.94198 3.15397,-11.42758 5.45271,-16.45681 2.29863,-5.02907 5.94198,-7.701966 10.93008,-8.01868 h 1.38169 c 1.13076,-0.02866 2.1259,0.07827 2.9854,0.320757 0.85937,0.242692 1.3117,0.793716 1.35702,1.653082 -0.3126,2.759321 -1.56269,4.593341 -3.75028,5.502041 -2.18773,0.90886 -3.43782,2.69353 -3.75028,5.35402 0.0657,2.43445 0.92106,4.47408 2.56598,6.11887 1.64478,1.64492 3.68441,2.50024 6.11887,2.56598 3.45002,-0.16443 6.02421,-1.75995 7.72261,-4.78654 1.69823,-3.02647 2.54533,-6.49712 2.54131,-10.41195 -0.12345,-4.963286 -1.8012,-9.100091 -5.03327,-12.410457 -3.23223,-3.310185 -7.27857,-5.029065 -12.13905,-5.15663 -9.16603,0.341407 -17.48079,4.00121 -24.94427,10.979433 -7.46359,6.978394 -12.96563,15.227344 -16.50615,24.746884 h -10.4613 c -1.6202,0.0411 -2.968985,0.60042 -4.046351,1.67775 -1.077399,1.07744 -1.636646,2.42622 -1.677752,4.04636 0.04112,1.62023 0.600353,2.96901 1.677752,4.04635 1.077366,1.07742 2.426151,1.63667 4.046351,1.67775 h 7.30317 l -13.027273,51.91172 c -1.032159,4.44522 -2.668794,8.43399 -4.909905,11.96635 -2.241122,3.5323 -5.407465,5.39921 -9.499053,5.60073 h -1.184292 c -1.225421,0.0328 -2.278127,-0.0822 -3.158132,-0.34541 -0.879992,-0.26321 -1.340559,-0.87181 -1.381687,-1.8258 0.312534,-2.66057 1.562625,-4.44525 3.750283,-5.35401 2.187659,-0.9088 3.437749,-2.74282 3.750272,-5.50205 -0.05346,-2.42618 -0.884105,-4.4329 -2.491958,-6.02018 -1.607842,-1.5873 -3.672138,-2.40973 -6.192889,-2.46728 -3.363716,0.15214 -5.913249,1.72298 -7.648599,4.71251 -1.735304,2.98952 -2.607074,6.48484 -2.61532,10.48597 0.123385,4.95511 1.801137,9.05902 5.033268,12.31176 3.232153,3.25268 7.278501,4.93865 12.139054,5.05795 6.5112,-0.25956 12.656867,-3.16182 18.437031,-8.70679 5.78013,-5.54502 10.81461,-12.17562 15.10345,-19.89182 4.28878,-7.71621 7.45177,-14.96088 9.48901,-21.73405 z m 63.61055,0 h 11.64561 c 1.62011,-0.0411 2.96889,-0.60033 4.04634,-1.67775 1.07731,-1.07734 1.63657,-2.42612 1.67776,-4.04635 -0.0412,-1.62014 -0.60045,-2.96892 -1.67776,-4.04636 -1.07745,-1.07733 -2.42623,-1.63657 -4.04634,-1.67775 h -8.29009 c 1.33639,-5.94198 3.15396,-11.42758 5.4527,-16.45681 2.29863,-5.02907 5.94199,-7.701966 10.93008,-8.01868 h 1.38168 c 1.13077,-0.02866 2.12591,0.07827 2.98542,0.320757 0.85936,0.242692 1.31169,0.793716 1.35701,1.653082 -0.3126,2.759321 -1.56269,4.593341 -3.75028,5.502041 -2.18773,0.90886 -3.43782,2.69353 -3.75027,5.35402 0.0657,2.43445 0.92105,4.47408 2.56598,6.11887 1.64478,1.64492 3.6844,2.50024 6.11887,2.56598 3.45001,-0.16443 6.0242,-1.75995 7.7226,-4.78654 1.69824,-3.02647 2.54533,-6.49712 2.54131,-10.41195 -0.12345,-4.963286 -1.8012,-9.100091 -5.03326,-12.410457 -3.23224,-3.310185 -7.27858,-5.029065 -12.13906,-5.15663 -9.16604,0.341407 -17.48079,4.00121 -24.94427,10.979433 -7.46358,6.978394 -12.96563,15.227344 -16.50615,24.746884 h -10.4613 c -1.6202,0.0411 -2.96898,0.60042 -4.04635,1.67775 -1.0774,1.07744 -1.63664,2.42622 -1.67775,4.04636 0.0411,1.62023 0.60035,2.96901 1.67775,4.04635 1.07737,1.07742 2.42615,1.63667 4.04635,1.67775 h 7.30317 l -13.02727,51.91172 c -1.03216,4.44522 -2.66879,8.43399 -4.9099,11.96635 -2.24113,3.5323 -5.40747,5.39921 -9.49906,5.60073 h -1.1843 c -1.22541,0.0328 -2.27812,-0.0822 -3.15812,-0.34541 -0.87999,-0.26321 -1.34056,-0.87181 -1.38169,-1.8258 0.31254,-2.66057 1.56263,-4.44525 3.75029,-5.35401 2.18765,-0.9088 3.43774,-2.74282 3.75027,-5.50205 -0.0535,-2.42618 -0.88411,-4.4329 -2.49196,-6.02018 -1.60785,-1.5873 -3.67214,-2.40973 -6.19289,-2.46728 -3.36373,0.15214 -5.91325,1.72298 -7.6486,4.71251 -1.7353,2.98952 -2.60707,6.48484 -2.61532,10.48597 0.12339,4.95511 1.80114,9.05902 5.03327,12.31176 3.23215,3.25268 7.2785,4.93865 12.13905,5.05795 6.5112,-0.25956 12.65687,-3.16182 18.43703,-8.70679 5.78013,-5.54502 10.81461,-12.17562 15.10345,-19.89182 4.28879,-7.71621 7.45178,-14.96088 9.489,-21.73405 z"
       id="text2502"
       style="font-style:normal;font-variant:normal;font-weight:normal;font-stretch:normal;font-size:174.261px;font-family:Emmentaler;-inkscape-font-specification:Emmentaler;text-align:center;text-anchor:middle;fill:#ffffff;fill-opacity:1;stroke:none;stroke-width:1.1327px;stroke-linecap:butt;stroke-linejoin:miter;stroke-opacity:1" />
  </g>
  <g
     inkscape:groupmode="layer"
     id="layer3"
     inkscape:label="Layer 2"
     style="display:none">
    <path
       style="fill:#ff0000;stroke:#000000;stroke-width:0.264583px;stroke-linecap:butt;stroke-linejoin:miter;stroke-opacity:1"
       d="m 83.948761,190.12606 c 0,0 -0.360513,-8.61761 -8.684847,-8.48746 -8.324332,0.13015 -9.118082,8.06765 -9.911831,10.97806 -0.79375,2.91042 -2.342862,20.16149 16.820234,21.59012 19.163103,1.42863 37.154763,-35.08387 37.154763,-35.08387 0,0 15.15173,-45.44838 15.15173,-45.44838 l 3.3555,-11.44821 c 0,0 6.09902,-20.36174 7.15735,-20.09715 1.05834,0.26458 3.50133,-6.352179 9.22544,-4.37834 5.72411,1.973839 4.0049,7.77142 5.72411,1.973839 1.7192,-5.797587 -7.50056,10.856061 -7.50056,10.856061 0,0 1.00619,8.88792 8.68485,8.68484 7.67866,-0.20307 9.53075,-9.72807 9.53075,-9.72807 0,0 1.32291,-14.287501 -4.7625,-18.256251 -6.08542,-3.96875 -10.58334,-7.408333 -25.66459,-1.322917 -15.08124,6.085417 -27.46248,32.267988 -27.46248,32.267988 l -3.15813,11.44821 c 0,0 -11.977301,60.26505 -17.004384,64.2338 -5.027084,3.96875 -12.73275,7.99966 -16.155959,3.07379 -3.423208,-4.92587 7.500554,-10.85606 7.500554,-10.85606"
       id="path3163" />
  </g>
</svg>
