<?xml version="1.0" encoding="UTF-8" standalone="no"?>
<svg
   width="300mm"
   height="300mm"
   viewBox="0 0 300 300"
   version="1.1"
   id="svg61"
   inkscape:version="1.2.2 (732a01da63, 2022-12-09)"
   sodipodi:docname="friendlyCompetition.svg"
   xmlns:inkscape="http://www.inkscape.org/namespaces/inkscape"
   xmlns:sodipodi="http://sodipodi.sourceforge.net/DTD/sodipodi-0.dtd"
   xmlns="http://www.w3.org/2000/svg"
   xmlns:svg="http://www.w3.org/2000/svg"
   xmlns:rdf="http://www.w3.org/1999/02/22-rdf-syntax-ns#"
   xmlns:cc="http://creativecommons.org/ns#"
   xmlns:dc="http://purl.org/dc/elements/1.1/">
  <defs
     id="defs55" />
  <sodipodi:namedview
     id="base"
     pagecolor="#ffffff"
     bordercolor="#666666"
     borderopacity="1.0"
     inkscape:pageopacity="0.0"
     inkscape:pageshadow="2"
     inkscape:zoom="0.74999999"
     inkscape:cx="406.66667"
     inkscape:cy="506.00001"
     inkscape:document-units="mm"
     inkscape:current-layer="layer1"
     inkscape:document-rotation="0"
     showgrid="false"
     inkscape:window-width="1920"
     inkscape:window-height="991"
     inkscape:window-x="-9"
     inkscape:window-y="-9"
     inkscape:window-maximized="1"
     inkscape:snap-global="true"
     inkscape:showpageshadow="2"
     inkscape:pagecheckerboard="0"
     inkscape:deskcolor="#d1d1d1"
     showguides="true" />
  <metadata
     id="metadata58">
    <rdf:RDF>
      <cc:Work
         rdf:about="">
        <dc:format>image/svg+xml</dc:format>
        <dc:type
           rdf:resource="http://purl.org/dc/dcmitype/StillImage" />
      </cc:Work>
    </rdf:RDF>
  </metadata>
  <g
     inkscape:label="Layer 1"
     inkscape:groupmode="layer"
     id="layer1" />
  <g
     inkscape:groupmode="layer"
     id="layer3"
     inkscape:label="Layer 2"
     style="display:inline">
    <g
       id="g6764"
       transform="matrix(1.1093823,0,0,1.1093823,-11.527701,-20.996338)">
      <path
         id="path2533"
         style="fill:none;stroke:#000000;stroke-width:0.621001;stroke-opacity:1"
         d="m 221.83717,72.309719 4.58102,57.143691 M 65.969445,92.427776 70.550462,149.57147 m 0,0 z m 0,0 c 0,0 49.388888,-31.39723 80.786108,0 31.39723,31.39722 75.08162,-20.11806 75.08162,-20.11806 M 65.969445,92.427778 c 0,0 49.388885,-31.397222 80.786105,0 31.39723,31.397222 75.08162,-20.118059 75.08162,-20.118059" />
      <path
         style="fill:#d063ee;fill-opacity:1;stroke:#000000;stroke-width:3.12945;stroke-opacity:1"
         d="m 642.66668,600.60458 c -26.31773,-4.13536 -44.57403,-14.29523 -74.63183,-41.53356 -25.85323,-23.42817 -51.70878,-36.76092 -86.06034,-44.37815 -13.60525,-3.01686 -54.41364,-4.2112 -71.55784,-2.09426 -42.91476,5.29902 -94.13433,22.27824 -132.07596,43.783 -9.39232,5.32344 -9.67555,5.39381 -10.24779,2.54657 -1.53001,-7.61272 -16.66849,-208.2139 -15.77739,-209.06724 2.3417,-2.24244 30.15983,-16.2179 44.63973,-22.4264 91.9474,-39.42399 174.03768,-38.2835 232.41532,3.22899 4.42049,3.14342 13.72049,10.94815 20.66667,17.34384 17.19098,15.8286 26.44912,22.5325 40.60948,29.4057 30.28306,14.6989 64.63417,15.72763 102.67801,3.07496 38.57679,-12.82992 82.5725,-42.1881 124.25854,-82.91728 l 18.91661,-18.48239 0.73268,4.45582 c 0.40297,2.4507 4.043,46.75582 8.08893,98.45583 4.04595,51.7 7.69924,96.77132 8.11846,100.15849 l 0.7622,6.15849 -11.76775,12.39488 c -6.47225,6.81719 -18.86001,18.63014 -27.52836,26.25098 -43.91616,38.60924 -83.31181,61.17128 -124.23937,71.15233 -12.45763,3.03807 -36.55483,4.2878 -48,2.4894 z"
         id="path5627"
         transform="scale(0.26458333)" />
      <path
         style="fill:none;fill-opacity:1;stroke:#000000;stroke-width:3;stroke-dasharray:none;stroke-opacity:1"
         d="m 65.969445,92.427776 12.7,143.933334"
         id="path5752" />
    </g>
  </g>
  <g
     inkscape:groupmode="layer"
     id="layer2"
     inkscape:label="Layer 3" />
</svg>
