<?xml version="1.0" encoding="UTF-8" standalone="no"?>
<svg
   width="16mm"
   height="16mm"
   viewBox="0 0 16 16"
   version="1.1"
   id="svg61"
   inkscape:version="1.2.2 (732a01da63, 2022-12-09)"
   sodipodi:docname="gearWhite.svg"
   xmlns:inkscape="http://www.inkscape.org/namespaces/inkscape"
   xmlns:sodipodi="http://sodipodi.sourceforge.net/DTD/sodipodi-0.dtd"
   xmlns="http://www.w3.org/2000/svg"
   xmlns:svg="http://www.w3.org/2000/svg"
   xmlns:rdf="http://www.w3.org/1999/02/22-rdf-syntax-ns#"
   xmlns:cc="http://creativecommons.org/ns#"
   xmlns:dc="http://purl.org/dc/elements/1.1/">
  <defs
     id="defs55" />
  <sodipodi:namedview
     id="base"
     pagecolor="#ffffff"
     bordercolor="#666666"
     borderopacity="1.0"
     inkscape:pageopacity="0.0"
     inkscape:pageshadow="2"
     inkscape:zoom="0.74999999"
     inkscape:cx="-145.33334"
     inkscape:cy="128"
     inkscape:document-units="mm"
     inkscape:current-layer="layer2"
     inkscape:document-rotation="0"
     showgrid="false"
     inkscape:window-width="2560"
     inkscape:window-height="1346"
     inkscape:window-x="-11"
     inkscape:window-y="-11"
     inkscape:window-maximized="1"
     inkscape:snap-global="true"
     inkscape:showpageshadow="2"
     inkscape:pagecheckerboard="0"
     inkscape:deskcolor="#d1d1d1" />
  <metadata
     id="metadata58">
    <rdf:RDF>
      <cc:Work
         rdf:about="">
        <dc:format>image/svg+xml</dc:format>
        <dc:type
           rdf:resource="http://purl.org/dc/dcmitype/StillImage" />
      </cc:Work>
    </rdf:RDF>
  </metadata>
  <g
     inkscape:label="Layer 1"
     inkscape:groupmode="layer"
     id="layer1"
     sodipodi:insensitive="true"
     style="display:none">
    <circle
       style="opacity:1;fill:#ffffff;fill-opacity:1;stroke:#000000;stroke-width:0.265;stroke-miterlimit:4;stroke-dasharray:none;stroke-opacity:1"
       id="path63"
       cx="150"
       cy="150"
       r="150" />
  </g>
  <g
     inkscape:groupmode="layer"
     id="layer3"
     inkscape:label="Layer 2"
     style="display:inline" />
  <g
     inkscape:groupmode="layer"
     id="layer2"
     inkscape:label="Layer 3">
    <g
       style="fill:#ffffff;fill-opacity:1"
       id="g2418"
       transform="matrix(0.61538461,0,0,0.61538461,0.61538463,0.61538469)">
      <path
         fill-rule="evenodd"
         d="m 11.828,2.25 c -0.916,0 -1.699,0.663 -1.85,1.567 L 9.887,4.366 A 0.798,0.798 0 0 1 9.37,4.974 7.45,7.45 0 0 0 8.892,5.172 0.798,0.798 0 0 1 8.096,5.108 L 7.643,4.784 a 1.875,1.875 0 0 0 -2.416,0.2 L 4.984,5.227 a 1.875,1.875 0 0 0 -0.2,2.416 L 5.108,8.096 A 0.798,0.798 0 0 1 5.172,8.892 7.448,7.448 0 0 0 4.974,9.37 0.798,0.798 0 0 1 4.366,9.887 L 3.816,9.979 A 1.875,1.875 0 0 0 2.25,11.828 v 0.344 c 0,0.916 0.663,1.699 1.567,1.85 l 0.549,0.091 c 0.281,0.047 0.508,0.25 0.608,0.517 0.06,0.162 0.127,0.321 0.198,0.478 a 0.798,0.798 0 0 1 -0.064,0.796 l -0.324,0.453 a 1.875,1.875 0 0 0 0.2,2.416 l 0.243,0.243 c 0.648,0.648 1.67,0.733 2.416,0.2 l 0.453,-0.324 a 0.798,0.798 0 0 1 0.796,-0.064 c 0.157,0.071 0.316,0.137 0.478,0.198 0.267,0.1 0.47,0.327 0.517,0.608 l 0.092,0.55 c 0.15,0.903 0.932,1.566 1.849,1.566 h 0.344 c 0.916,0 1.699,-0.663 1.85,-1.567 l 0.091,-0.549 a 0.798,0.798 0 0 1 0.517,-0.608 7.52,7.52 0 0 0 0.478,-0.198 0.798,0.798 0 0 1 0.796,0.064 l 0.453,0.324 a 1.875,1.875 0 0 0 2.416,-0.2 l 0.243,-0.243 c 0.648,-0.648 0.733,-1.67 0.2,-2.416 l -0.324,-0.453 a 0.798,0.798 0 0 1 -0.064,-0.796 c 0.071,-0.157 0.137,-0.316 0.198,-0.478 0.1,-0.267 0.327,-0.47 0.608,-0.517 l 0.55,-0.091 a 1.875,1.875 0 0 0 1.566,-1.85 v -0.344 c 0,-0.916 -0.663,-1.699 -1.567,-1.85 L 19.634,9.887 A 0.798,0.798 0 0 1 19.026,9.37 7.507,7.507 0 0 0 18.828,8.892 0.798,0.798 0 0 1 18.892,8.096 l 0.324,-0.453 a 1.875,1.875 0 0 0 -0.2,-2.416 L 18.773,4.984 a 1.875,1.875 0 0 0 -2.416,-0.2 L 15.904,5.108 A 0.798,0.798 0 0 1 15.108,5.172 7.462,7.462 0 0 0 14.63,4.974 0.798,0.798 0 0 1 14.113,4.366 L 14.022,3.816 A 1.875,1.875 0 0 0 12.172,2.25 Z M 12,15.75 a 3.75,3.75 0 1 0 0,-7.5 3.75,3.75 0 0 0 0,7.5 z"
         clip-rule="evenodd"
         id="path2407"
         style="fill:#ffffff;fill-opacity:1" />
    </g>
  </g>
</svg>
