<?xml version="1.0" encoding="UTF-8" standalone="no"?>
<svg
   width="300mm"
   height="300mm"
   viewBox="0 0 300 300"
   version="1.1"
   id="svg61"
   inkscape:version="1.2.2 (732a01da63, 2022-12-09)"
   sodipodi:docname="holyAbsorptionPotion.svg"
   xmlns:inkscape="http://www.inkscape.org/namespaces/inkscape"
   xmlns:sodipodi="http://sodipodi.sourceforge.net/DTD/sodipodi-0.dtd"
   xmlns="http://www.w3.org/2000/svg"
   xmlns:svg="http://www.w3.org/2000/svg"
   xmlns:rdf="http://www.w3.org/1999/02/22-rdf-syntax-ns#"
   xmlns:cc="http://creativecommons.org/ns#"
   xmlns:dc="http://purl.org/dc/elements/1.1/">
  <defs
     id="defs55" />
  <sodipodi:namedview
     id="base"
     pagecolor="#ffffff"
     bordercolor="#666666"
     borderopacity="1.0"
     inkscape:pageopacity="0.0"
     inkscape:pageshadow="2"
     inkscape:zoom="0.74999999"
     inkscape:cx="352.66667"
     inkscape:cy="565.33334"
     inkscape:document-units="mm"
     inkscape:current-layer="layer2"
     inkscape:document-rotation="0"
     showgrid="false"
     inkscape:window-width="2560"
     inkscape:window-height="1334"
     inkscape:window-x="-11"
     inkscape:window-y="-11"
     inkscape:window-maximized="1"
     inkscape:snap-global="true"
     inkscape:showpageshadow="2"
     inkscape:pagecheckerboard="0"
     inkscape:deskcolor="#d1d1d1" />
  <metadata
     id="metadata58">
    <rdf:RDF>
      <cc:Work
         rdf:about="">
        <dc:format>image/svg+xml</dc:format>
        <dc:type
           rdf:resource="http://purl.org/dc/dcmitype/StillImage" />
      </cc:Work>
    </rdf:RDF>
  </metadata>
  <g
     inkscape:label="Layer 1"
     inkscape:groupmode="layer"
     id="layer1"
     style="display:inline" />
  <g
     inkscape:groupmode="layer"
     id="layer3"
     inkscape:label="Layer 2"
     style="display:inline" />
  <g
     inkscape:groupmode="layer"
     id="layer2"
     inkscape:label="Layer 3">
    <circle
       style="fill:none;stroke:#000000;stroke-width:1.22;stroke-linecap:round;stroke-miterlimit:4;stroke-dasharray:none;stroke-opacity:1"
       id="path863"
       sodipodi:type="arc"
       sodipodi:cx="-41.18396"
       sodipodi:cy="227.04527"
       sodipodi:rx="86.12925"
       sodipodi:ry="85.47509"
       sodipodi:start="0"
       sodipodi:end="5.7246799"
       sodipodi:open="true"
       sodipodi:arc-type="arc"
       d="M 44.94529,227.04527 A 86.12925,85.47509 0 0 1 -29.197084,311.68853 86.12925,85.47509 0 0 1 -123.97671,250.6054 86.12925,85.47509 0 0 1 -76.215885,148.95989 86.12925,85.47509 0 0 1 31.857784,181.75037"
       transform="rotate(-45)" />
    <path
       style="fill:none;stroke:#000000;stroke-width:1;stroke-linecap:butt;stroke-linejoin:miter;stroke-miterlimit:4;stroke-dasharray:none;stroke-opacity:1"
       d="m 192.34337,128.46659 45.65294,-79.073203 c 0,0 -43.57675,7.48647 -43.57675,-25.159049 l -43.37579,81.755722"
       id="path871" />
    <path
       style="fill:none;stroke:#000000;stroke-width:0.996713;stroke-linecap:butt;stroke-linejoin:miter;stroke-miterlimit:4;stroke-dasharray:none;stroke-opacity:1"
       d="m 58.988265,146.10237 c 0,0 56.063835,64.21712 153.825145,17.99491 z"
       id="path873" />
    <path
       style="fill:#ececec;stroke:#000000;stroke-width:1.33333;stroke-linecap:round;stroke-miterlimit:4;stroke-dasharray:none;stroke-opacity:1"
       d="m 194.22937,161.54162 c -8.63424,-1.03099 -42.44799,-4.9928 -75.14167,-8.80401 -32.69368,-3.81121 -59.653909,-6.99843 -59.911616,-7.08271 -0.317968,-0.10399 0.295172,-1.25887 1.907728,-3.59331 8.507375,-12.31582 19.127893,-21.62943 32.25111,-28.28246 16.645698,-8.43879 34.805268,-11.19684 53.348748,-8.10254 2.49351,0.41609 4.58671,0.69641 4.65156,0.62295 0.0649,-0.0735 9.28467,-17.437315 20.48849,-38.586345 11.20381,-21.149027 20.78506,-39.167155 21.29165,-40.04028 l 0.92108,-1.587499 0.25367,2.225018 c 1.45275,12.74222 10.99502,20.280358 27.80869,21.968116 3.83643,0.385101 12.08439,0.22484 14.08092,-0.273598 0.71843,-0.179355 0.8129,-0.111373 0.6035,0.434314 -0.13654,0.355825 -10.06162,17.643649 -22.05573,38.417389 -11.99411,20.773725 -22.08024,38.301175 -22.41361,38.949885 l -0.60614,1.17945 2.25502,2.34832 c 6.11371,6.36666 11.8079,14.96844 15.49505,23.40719 1.39018,3.1817 3.11599,7.86725 3.11599,8.45987 0,0.4757 -1.90224,0.30359 -18.34444,-1.65975 z"
       id="path881" />
    <path
       style="fill:#effba1;stroke:#000000;stroke-width:1.33333;stroke-linecap:round;stroke-miterlimit:4;stroke-dasharray:none;stroke-opacity:1;fill-opacity:1"
       d="m 136.5502,180.21807 c -0.77611,-0.0763 -3.15291,-0.30771 -5.28178,-0.51414 -11.0224,-1.06883 -23.77453,-4.27578 -34.229332,-8.60812 -9.021013,-3.73819 -20.706148,-10.6365 -28.308001,-16.71161 -3.970131,-3.17277 -8.48175,-7.3263 -8.204498,-7.55331 0.09701,-0.0794 33.672639,3.78854 74.612501,8.59548 40.93986,4.80694 74.74567,8.74701 75.12403,8.75571 1.28224,0.0295 0.0602,0.68748 -5.9152,3.18476 -15.33294,6.40811 -29.92946,10.34468 -45.21994,12.19548 -4.30573,0.52117 -19.46889,0.96158 -22.57778,0.65575 z"
       id="path893" />
    <path
       style="fill:#d9ddbf;stroke:#000000;stroke-width:1.33333;stroke-linecap:round;stroke-miterlimit:4;stroke-dasharray:none;stroke-opacity:1;fill-opacity:1"
       d="M 122.96825,274.61213 C 102.76642,272.5111 84.916896,264.1091 70.920308,250.11253 57.93069,237.12291 49.52052,220.17025 46.937089,201.76874 44.398195,183.68447 48.291374,163.61799 57.363611,148.02768 l 1.095592,-1.88273 3.591333,3.48588 c 4.288062,4.16215 8.728564,7.65672 14.703829,11.57156 16.043852,10.51152 33.350375,16.77726 53.269445,19.28595 5.72326,0.72081 23.93567,0.61321 30.1625,-0.17821 16.09131,-2.04515 31.96752,-6.58504 48.29429,-13.80999 2.42292,-1.0722 4.48,-1.94945 4.57127,-1.94945 0.22978,0 1.85576,6.93358 2.49592,10.64316 2.95212,17.10697 -0.0447,36.52967 -8.10626,52.53783 -6.68913,13.28283 -18.25839,25.94998 -31.10867,34.06078 -9.63653,6.08235 -22.14208,10.65715 -33.60905,12.29492 -4.78118,0.68287 -15.49803,0.96753 -19.75556,0.52475 z"
       id="path895" />
  </g>
</svg>
