<?xml version="1.0" encoding="UTF-8" standalone="no"?>
<svg
   xmlns:dc="http://purl.org/dc/elements/1.1/"
   xmlns:cc="http://creativecommons.org/ns#"
   xmlns:rdf="http://www.w3.org/1999/02/22-rdf-syntax-ns#"
   xmlns:svg="http://www.w3.org/2000/svg"
   xmlns="http://www.w3.org/2000/svg"
   xmlns:sodipodi="http://sodipodi.sourceforge.net/DTD/sodipodi-0.dtd"
   xmlns:inkscape="http://www.inkscape.org/namespaces/inkscape"
   width="300mm"
   height="300mm"
   viewBox="0 0 300 300"
   version="1.1"
   id="svg61"
   inkscape:version="1.0.2 (e86c870879, 2021-01-15)"
   sodipodi:docname="insanity.svg">
  <defs
     id="defs55" />
  <sodipodi:namedview
     id="base"
     pagecolor="#ffffff"
     bordercolor="#666666"
     borderopacity="1.0"
     inkscape:pageopacity="0.0"
     inkscape:pageshadow="2"
     inkscape:zoom="0.375"
     inkscape:cx="864.93771"
     inkscape:cy="499.16889"
     inkscape:document-units="mm"
     inkscape:current-layer="layer3"
     inkscape:document-rotation="0"
     showgrid="false"
     inkscape:window-width="1920"
     inkscape:window-height="1002"
     inkscape:window-x="-8"
     inkscape:window-y="-8"
     inkscape:window-maximized="1"
     inkscape:snap-global="false"
     showguides="true"
     inkscape:guide-bbox="true"
     inkscape:snap-bbox="false" />
  <metadata
     id="metadata58">
    <rdf:RDF>
      <cc:Work
         rdf:about="">
        <dc:format>image/svg+xml</dc:format>
        <dc:type
           rdf:resource="http://purl.org/dc/dcmitype/StillImage" />
        <dc:title></dc:title>
      </cc:Work>
    </rdf:RDF>
  </metadata>
  <g
     inkscape:label="Layer 1"
     inkscape:groupmode="layer"
     id="layer1" />
  <g
     inkscape:groupmode="layer"
     id="layer3"
     inkscape:label="Layer 2"
     style="display:inline">
    <path
       id="rect2857"
       style="fill:#eeeeee;fill-opacity:1;stroke:#000000;stroke-width:0.773854;stroke-linecap:square;stroke-miterlimit:4;stroke-dasharray:none;stroke-opacity:1"
       d="m 191.3708,159.72592 c -0.3607,-1.19478 -0.69875,-2.39009 -1.01541,-3.58446 -0.31665,-1.19437 -0.61187,-2.3879 -0.88659,-3.57948 -0.27474,-1.19157 -0.52902,-2.38106 -0.76397,-3.56745 -0.23493,-1.18641 -0.45024,-2.36996 -0.6475,-3.5488 -0.19724,-1.17884 -0.37629,-2.35294 -0.53796,-3.52186 -0.16169,-1.16889 -0.30604,-2.33248 -0.43425,-3.48906 -0.25641,-2.31318 -0.44822,-4.5992 -0.58348,-6.84879 -0.13525,-2.24959 -0.21388,-4.46248 -0.24486,-6.62942 -0.031,-2.16694 -0.0143,-4.28801 0.042,-6.35325 0.0564,-2.06524 0.1524,-4.07494 0.27921,-6.01944 0.1268,-1.94448 0.28436,-3.82371 0.4647,-5.6284 0.18033,-1.80466 0.38348,-3.53474 0.60044,-5.18053 0.21698,-1.64579 0.44782,-3.207196 0.68452,-4.675055 0.2367,-1.467854 0.47894,-2.842299 0.71845,-4.11317 0.23952,-1.270861 0.47645,-2.438404 0.70187,-3.493223 0.45085,-2.109617 0.85656,-3.767928 1.14962,-4.898968 0.29305,-1.131062 0.47318,-1.734596 0.47318,-1.734596 -1.62888,-0.469144 -3.20745,-0.881367 -4.73727,-1.239464 -1.5298,-0.358108 -3.01068,-0.662348 -4.44453,-0.915613 -1.43385,-0.253264 -2.82048,-0.455327 -4.16149,-0.609985 -1.34098,-0.154657 -2.63642,-0.261608 -3.88767,-0.323862 -1.25125,-0.06226 -2.45851,-0.07989 -3.62312,-0.05591 -1.16462,0.02387 -2.28636,0.08935 -3.36745,0.193225 -1.08109,0.103865 -2.12152,0.24619 -3.12217,0.423803 -1.00066,0.177602 -1.96167,0.390568 -2.88501,0.635693 -0.92334,0.245147 -1.80871,0.522088 -2.65786,0.828532 -0.84914,0.306433 -1.66192,0.642005 -2.43996,1.00351 -0.77803,0.361516 -1.5213,0.749053 -2.23134,1.159437 -0.71005,0.410384 -1.38719,0.84367 -2.03234,1.296697 -0.64517,0.453016 -1.25846,0.925827 -1.84185,1.415282 -0.58337,0.489455 -1.13663,0.995575 -1.66134,1.515222 -0.52472,0.519657 -1.02099,1.052851 -1.49014,1.596497 -0.46913,0.543645 -0.91108,1.097698 -1.32776,1.659127 -0.4167,0.561418 -0.80811,1.130094 -1.17545,1.70306 -0.36734,0.572988 -0.71087,1.150502 -1.03197,1.72879 -0.32112,0.57831 -0.61982,1.157577 -0.89778,1.73501 -0.27798,0.577407 -0.53528,1.152652 -0.77323,1.722974 -0.47588,1.14062 -0.87457,2.261167 -1.20899,3.336057 -0.33441,1.0749 -0.60437,2.10421 -0.8222,3.06362 -0.21781,0.95943 -0.38374,1.84897 -0.50981,2.64315 -0.12608,0.79419 -0.21232,1.49293 -0.27149,2.07214 -0.11839,1.15841 -0.12804,1.83742 -0.12804,1.83742 v 20.01723 c 0,0 0.01,0.67859 0.12804,1.83702 0.0592,0.5792 0.14541,1.27835 0.27149,2.07255 0.12607,0.79419 0.292,1.6833 0.50981,2.64273 0.21783,0.9594 0.48779,1.98914 0.8222,3.06403 0.33442,1.0749 0.73311,2.19503 1.20899,3.33565 0.23795,0.57032 0.49525,1.14557 0.77323,1.72297 0.27796,0.57743 0.57666,1.15713 0.89778,1.73542 0.3211,0.57831 0.66463,1.1554 1.03197,1.72837 0.36734,0.57298 0.75875,1.14166 1.17545,1.70309 0.41668,0.56141 0.85863,1.11546 1.32776,1.65911 0.46915,0.54364 0.96542,1.07684 1.49014,1.5965 0.52471,0.51965 1.07797,1.02577 1.66134,1.51522 0.58339,0.48947 1.19668,0.96227 1.84185,1.41528 0.64515,0.45305 1.32229,0.88632 2.03234,1.29671 0.71004,0.41037 1.45331,0.79792 2.23134,1.15943 0.77804,0.36152 1.59082,0.69707 2.43996,1.00352 0.84915,0.30643 1.73452,0.5838 2.65786,0.82893 0.92334,0.24514 1.88435,0.45809 2.88501,0.63571 1.00065,0.1776 2.04108,0.31992 3.12217,0.42379 1.08109,0.10386 2.20283,0.16932 3.36745,0.19323 1.16461,0.024 2.37187,0.008 3.62312,-0.0559 1.25125,-0.0623 2.54669,-0.1692 3.88767,-0.32385 1.34101,-0.15467 2.72764,-0.35714 4.16149,-0.61041 1.43385,-0.25327 2.91473,-0.55751 4.44453,-0.91562 1.52982,-0.35808 3.10839,-0.76989 4.73727,-1.23904 z" />
    <ellipse
       style="fill:#eeeeee;fill-opacity:1;stroke:#000000;stroke-width:0.850763;stroke-linecap:square;stroke-miterlimit:4;stroke-dasharray:none;stroke-opacity:1"
       id="path2690"
       cx="121.35668"
       cy="-56.301689"
       rx="39.681221"
       ry="9.840827"
       transform="rotate(90)" />
    <path
       id="path2861"
       style="fill:#eeeeee;fill-opacity:1;stroke:#000000;stroke-width:0.773854;stroke-linecap:butt;stroke-linejoin:round;stroke-miterlimit:4;stroke-dasharray:none;stroke-dashoffset:0;stroke-opacity:1;paint-order:markers fill stroke"
       d="m 196.4852,124.9566 c 0.031,-2.16694 0.0143,-4.28801 -0.0421,-6.35325 -0.0564,-2.06524 -0.15241,-4.07494 -0.2792,-6.01944 -0.12681,-1.94448 -0.28437,-3.82371 -0.46472,-5.6284 -0.18033,-1.80466 -0.38347,-3.53474 -0.60044,-5.18053 -0.21696,-1.64579 -0.44783,-3.207196 -0.68452,-4.675055 -0.23669,-1.467854 -0.47893,-2.842299 -0.71845,-4.11317 -0.23952,-1.270861 -0.47645,-2.438404 -0.70187,-3.493223 -0.45085,-2.109617 -0.85656,-3.767928 -1.14961,-4.898968 -0.29305,-1.131062 -0.47357,-1.734596 -0.47357,-1.734596 0,0 -0.18013,0.603534 -0.47319,1.734596 -0.29305,1.13104 -0.69874,2.789351 -1.1496,4.898968 -0.22542,1.054819 -0.46235,2.222362 -0.70187,3.493223 -0.2395,1.270871 -0.48176,2.645316 -0.71846,4.11317 -0.2367,1.467859 -0.46754,3.029265 -0.68452,4.675055 -0.21696,1.64579 -0.42011,3.37587 -0.60045,5.18053 -0.18032,1.80469 -0.33788,3.68392 -0.46469,5.6284 -0.1268,1.9445 -0.22286,3.9542 -0.2792,6.01944 -0.0564,2.06524 -0.0731,4.18631 -0.0421,6.35325 0.031,2.16694 0.10964,4.37983 0.24489,6.62942 0.13525,2.24959 0.32706,4.53561 0.58348,6.84879 0.1282,1.15658 0.27256,2.32017 0.43423,3.48906 0.16168,1.16892 0.34073,2.34302 0.53797,3.52186 0.19725,1.17884 0.41256,2.36239 0.64751,3.5488 0.23492,1.18639 0.48921,2.37588 0.76395,3.56745 0.27474,1.19158 0.56994,2.38511 0.88659,3.57948 0.31666,1.19437 0.65473,2.38968 1.01541,3.58446 0.36068,-1.19478 0.69914,-2.39009 1.01579,-3.58446 0.31665,-1.19437 0.61185,-2.3879 0.88658,-3.57948 0.27475,-1.19157 0.52904,-2.38106 0.76397,-3.56745 0.23493,-1.18641 0.45025,-2.36996 0.64749,-3.5488 0.19726,-1.17884 0.37631,-2.35294 0.53799,-3.52186 0.16166,-1.16889 0.30602,-2.33248 0.43422,-3.48906 0.25643,-2.31318 0.44822,-4.5992 0.58349,-6.84879 0.13524,-2.24959 0.21389,-4.46248 0.24488,-6.62942 z" />
    <path
       id="path2852"
       style="fill:#eeeeee;fill-opacity:1;stroke:#000000;stroke-width:0.773854;stroke-linecap:square;stroke-miterlimit:4;stroke-dasharray:none;stroke-opacity:1"
       d="m 138.64053,111.28432 c -1.22253,0.29739 -2.44906,0.57614 -3.67865,0.83723 -1.2296,0.26109 -2.46228,0.50456 -3.69603,0.73108 -2.46746,0.45305 -4.94015,0.83873 -7.40666,1.16399 -2.46653,0.32528 -4.92668,0.59014 -7.36889,0.80158 -2.44221,0.21141 -4.86638,0.36907 -7.2609,0.4806 -2.39453,0.11151 -4.75964,0.1768 -7.08313,0.20236 -2.32347,0.0256 -4.605276,0.0115 -6.834326,-0.0349 -2.229071,-0.0465 -4.405279,-0.12559 -6.516581,-0.23015 -2.111286,-0.10451 -4.157676,-0.23447 -6.127848,-0.38316 -1.970154,-0.14869 -3.864035,-0.31621 -5.6697,-0.49513 -1.805667,-0.17888 -3.523206,-0.36919 -5.141016,-0.56435 -3.235628,-0.39033 -6.072291,-0.79931 -8.416297,-1.17105 -2.343998,-0.37173 -4.195262,-0.70631 -5.460712,-0.94794 -1.265458,-0.24163 -1.945187,-0.39022 -1.945187,-0.39022 v 20.01722 c 0,0 0.679729,-0.14898 1.945187,-0.39061 1.26545,-0.24163 3.116714,-0.57622 5.460712,-0.94795 2.344006,-0.37174 5.180669,-0.78031 8.416297,-1.17063 1.61781,-0.19515 3.335349,-0.38589 5.141016,-0.5648 1.805665,-0.17889 3.699546,-0.346 5.6697,-0.49472 1.970172,-0.14869 4.016562,-0.27899 6.127848,-0.38356 2.111302,-0.10461 4.28751,-0.18368 6.516581,-0.23014 2.22905,-0.0465 4.510856,-0.0604 6.834326,-0.035 2.32349,0.0256 4.6886,0.0909 7.08313,0.20236 2.39452,0.11152 4.81869,0.2696 7.2609,0.48102 2.44221,0.21142 4.90236,0.4763 7.36889,0.80157 2.46651,0.32528 4.9392,0.71093 7.40666,1.16398 1.23375,0.22655 2.46643,0.46959 3.69603,0.73068 1.22959,0.26108 2.45612,0.54026 3.67865,0.83764 z" />
    <path
       style="fill:#c42c58;fill-opacity:1;stroke:none;stroke-width:0.250525px;stroke-linecap:butt;stroke-linejoin:miter;stroke-opacity:1"
       d="m 148.36637,153.91538 40.14438,-2.10288 2.73335,7.83765 c 0,0 -28.75543,9.94053 -42.87773,-5.73477 z"
       id="path9140"
       sodipodi:nodetypes="cccc" />
    <ellipse
       style="fill:#c42c58;fill-opacity:1;stroke:none;stroke-width:0.867173;stroke-linecap:square;stroke-opacity:1"
       id="path9144"
       cx="207.10818"
       cy="198.33945"
       rx="48.188473"
       ry="28.039049" />
    <path
       style="fill:#c42c58;fill-opacity:1;stroke:none;stroke-width:0.250525px;stroke-linecap:butt;stroke-linejoin:miter;stroke-opacity:1"
       d="m 188.96631,151.32266 29.15572,20.08396 -41.45579,4.89854 z"
       id="path9146" />
  </g>
  <g
     inkscape:groupmode="layer"
     id="layer2"
     inkscape:label="Layer 3" />
</svg>
