<?xml version="1.0" encoding="UTF-8" standalone="no"?>
<svg
   xmlns:dc="http://purl.org/dc/elements/1.1/"
   xmlns:cc="http://creativecommons.org/ns#"
   xmlns:rdf="http://www.w3.org/1999/02/22-rdf-syntax-ns#"
   xmlns:svg="http://www.w3.org/2000/svg"
   xmlns="http://www.w3.org/2000/svg"
   xmlns:sodipodi="http://sodipodi.sourceforge.net/DTD/sodipodi-0.dtd"
   xmlns:inkscape="http://www.inkscape.org/namespaces/inkscape"
   width="300mm"
   height="300mm"
   viewBox="0 0 300 300"
   version="1.1"
   id="svg61"
   inkscape:version="1.0.2 (e86c870879, 2021-01-15)"
   sodipodi:docname="itemBeltOverviewDisabled.svg">
  <defs
     id="defs55" />
  <sodipodi:namedview
     id="base"
     pagecolor="#ffffff"
     bordercolor="#666666"
     borderopacity="1.0"
     inkscape:pageopacity="0.0"
     inkscape:pageshadow="2"
     inkscape:zoom="1.5"
     inkscape:cx="661.79458"
     inkscape:cy="651.14707"
     inkscape:document-units="mm"
     inkscape:current-layer="layer4"
     inkscape:document-rotation="0"
     showgrid="false"
     inkscape:window-width="1920"
     inkscape:window-height="1002"
     inkscape:window-x="-8"
     inkscape:window-y="-8"
     inkscape:window-maximized="1"
     inkscape:snap-global="true"
     inkscape:snap-nodes="true"
     showguides="true"
     inkscape:guide-bbox="true" />
  <metadata
     id="metadata58">
    <rdf:RDF>
      <cc:Work
         rdf:about="">
        <dc:format>image/svg+xml</dc:format>
        <dc:type
           rdf:resource="http://purl.org/dc/dcmitype/StillImage" />
        <dc:title />
      </cc:Work>
    </rdf:RDF>
  </metadata>
  <g
     inkscape:label="Layer 1"
     inkscape:groupmode="layer"
     id="layer1"
     sodipodi:insensitive="true"
     style="display:none">
    <circle
       style="opacity:1;fill:#ffffff;fill-opacity:1;stroke:#000000;stroke-width:0.265;stroke-miterlimit:4;stroke-dasharray:none;stroke-opacity:1"
       id="path63"
       cx="150"
       cy="150"
       r="150" />
  </g>
  <g
     inkscape:groupmode="layer"
     id="layer3"
     inkscape:label="Layer 2"
     style="display:none">
    <path
       style="fill:none;stroke:#000000;stroke-width:0.264583;stroke-opacity:1"
       d="m 235.15971,147.09276 c -10.49205,-0.9933 -18.65728,-3.59362 -25.4995,-8.12066 -2.72843,-1.80522 -6.82613,-5.88244 -8.64578,-8.60258 -3.95988,-5.91949 -5.57757,-11.65103 -5.57247,-19.74344 0.004,-6.52415 0.94682,-11.553961 3.13099,-16.705261 4.35513,-10.27142 13.77164,-20.74386 25.65825,-28.53544 2.54199,-1.66626 3.4476,-2.39643 3.33062,-2.68539 -0.4503,-1.11234 -0.38041,-2.34044 0.16419,-2.88505 0.35564,-0.35563 0.55454,-0.89292 0.55454,-1.49797 0,-0.51889 0.11656,-1.16123 0.25902,-1.42743 0.18817,-0.35159 0.15198,-0.57282 -0.13229,-0.80875 -0.87444,-0.72571 -0.2098,-3.03416 0.92664,-3.21843 0.49605,-0.0804 0.4783,-0.20688 -0.39262,-2.79613 -1.06135,-3.15543 -3.17496,-7.62301 -5.271,-11.14141 -0.81134,-1.36192 -1.47517,-2.62338 -1.47517,-2.80326 0,-0.83343 1.02364,-1.24031 3.7449,-1.48853 4.23468,-0.38627 5.43649,-0.68633 5.61617,-1.40223 0.28963,-1.15398 0.88852,-1.21242 10.80465,-1.05423 5.13443,0.0819 9.7871,0.26217 10.33927,0.40058 0.65505,0.1642 1.10451,0.47237 1.29332,0.88675 0.31573,0.69296 0.72139,0.81648 3.52356,1.07286 3.71885,0.34026 5.85115,1.07414 6.10929,2.10266 0.19163,0.76352 -0.33898,1.79489 -3.81002,7.40571 -2.99033,4.83377 -4.22463,7.23024 -4.44983,8.63967 -0.11901,0.74476 -0.0439,0.92951 0.4684,1.15165 0.87101,0.3777 1.22092,1.77169 0.65972,2.6282 -0.23802,0.36326 -0.43276,0.75491 -0.43276,0.87032 0,0.11542 1.57757,0.20891 3.50572,0.20775 3.29521,-0.002 3.59509,0.0418 4.99375,0.72894 2.56834,1.2618 4.72969,3.50251 4.72969,4.90335 0,0.70679 -0.83387,1.37706 -1.71319,1.37706 -0.51994,0 -1.13543,-0.36476 -2.03447,-1.2057 -1.86196,-1.74165 -3.08704,-2.22107 -5.69336,-2.22807 -1.96147,-0.005 -2.18137,0.0458 -2.33926,0.5433 -0.0959,0.302 -0.13365,0.58697 -0.084,0.63326 0.0497,0.0463 1.196,0.82174 2.54739,1.72322 5.62887,3.7549 12.26563,9.45062 16.27132,13.96418 9.56541,10.77816 13.68305,20.57696 13.68305,32.561661 0,19.97628 -12.99546,32.94102 -36.24791,36.16223 -3.61178,0.50035 -14.84305,0.7348 -18.52084,0.38661 z m 17.02329,-1.19461 c 6.55187,-0.73916 12.99718,-2.47751 17.94942,-4.84112 11.70228,-5.58527 18.31478,-15.63106 18.92274,-28.74767 0.3302,-7.12397 -1.10088,-14.057231 -4.23244,-20.505201 -4.52285,-9.31271 -14.16439,-19.68442 -25.24105,-27.1526 l -2.96242,-1.99734 -1.40321,0.39739 c -0.77176,0.21857 -2.08839,0.53509 -2.92585,0.70337 l -1.52264,0.30598 c 0,0 4.70068,0.34343 -8.26284,0.38252 l -7.85901,0.0236 c -0.74548,0.54857 -1.79003,-0.49151 -2.7067,-0.61948 -3.52306,-0.49185 -3.31311,-0.54927 -7.00554,1.91618 -15.23629,10.17332 -25.24219,23.09699 -27.90812,36.046261 -0.78171,3.79701 -0.97133,11.28606 -0.37727,14.90008 1.56023,9.49171 6.36975,16.88632 14.30227,21.98965 9.86527,6.34675 25.14171,9.0137 41.23266,7.19837 z m -0.89406,-82.509641 c 2.6698,-0.4995 5.04357,-1.16396 5.50046,-1.53968 0.47589,-0.39134 0.4072,-1.94499 -0.10881,-2.461 -0.48132,-0.48132 -0.71466,-0.45826 -3.67747,0.36344 -4.9514,1.37321 -17.05908,1.4769 -22.66581,0.1941 -1.2831,-0.29357 -1.5971,-0.28923 -2.05052,0.0284 -0.63945,0.44789 -0.7309,1.96381 -0.15331,2.54139 0.33363,0.33364 4.1217,0.93725 8.48144,1.35149 2.59379,0.24645 12.53202,-0.0774 14.67402,-0.4781 z m 17.15536,0.3169 c 0.57707,-0.57708 0.33242,-1.27672 -0.91149,-2.60656 -2.37906,-2.5434 -5.77617,-3.57022 -10.04647,-3.03668 -1.26665,0.15825 -1.44214,0.23833 -1.01497,0.4631 0.72932,0.38376 1.17785,1.01011 1.1784,1.6456 5.3e-4,0.51064 0.15369,0.54475 2.4474,0.54475 2.8347,0 3.74898,0.34363 5.70425,2.14398 1.25969,1.15989 2.0696,1.41909 2.64288,0.84581 z m -18.8648,-3.80812 c 3.83816,-0.54547 5.95313,-1.29103 5.95313,-2.09859 0,-0.26246 -0.28258,-0.24227 -1.25677,0.0898 -1.04571,0.35642 -2.58977,0.42983 -9.19427,0.43712 -7.97388,0.009 -10.37383,-0.17692 -14.11372,-1.09222 -1.72137,-0.42129 -1.97927,-0.35452 -2.26195,0.5857 -0.29042,0.96595 0.37259,1.42284 2.70082,1.86118 4.77252,0.89854 12.71025,0.99334 18.17276,0.21703 z m 3.16967,-2.239 c 2.7998,-0.52958 3.83201,-1.39742 3.3064,-2.77989 -0.25604,-0.67342 -0.33945,-0.7031 -1.52139,-0.54131 -6.63994,0.90889 -18.66251,0.49832 -22.84527,-0.78015 -1.08666,-0.33215 -2.43346,-0.19389 -2.78423,0.28581 -0.49676,0.67936 -0.44971,1.54989 0.11121,2.05751 0.88237,0.79854 5.08187,1.62713 10.35524,2.04318 3.51118,0.27702 11.28158,0.1114 13.37804,-0.28515 z m -4.88946,-3.71413 c 0,-2.14837 2.18981,-10.23109 4.34172,-16.02556 1.32097,-3.55702 1.41609,-3.95388 1.04569,-4.36316 -0.60554,-0.66911 -1.52983,-0.74107 -11.23088,-0.87434 -7.34967,-0.10097 -8.97796,-0.0578 -9.41691,0.24965 -0.52284,0.36621 -0.50019,0.4928 1.52504,8.52205 1.13067,4.48268 2.20253,9.13258 2.38191,10.33313 0.24691,1.65257 0.42826,2.19089 0.74655,2.21606 0.56665,0.0448 7.77578,0.3914 9.35011,0.44952 1.11376,0.0411 1.25677,-0.0166 1.25677,-0.50735 z m 1.98361,-0.99155 c 0.34813,-2.32705 2.90414,-9.30262 3.4087,-9.30262 0.0719,0 -0.20547,0.74414 -0.6164,1.65365 -1.02647,2.27182 -2.09354,5.74778 -2.29767,7.48458 l -0.16984,1.4451 h 0.81715 c 0.44944,0 1.40355,-0.12575 2.12025,-0.27946 1.24678,-0.26738 1.30896,-0.3231 1.4385,-1.28893 0.2014,-1.50152 1.4423,-3.9101 4.41971,-8.57861 1.46833,-2.30231 3.02367,-4.88725 3.45631,-5.7443 l 0.78661,-1.55828 -0.59586,-0.37385 c -0.32772,-0.20561 -1.02595,-0.51 -1.55161,-0.67641 -1.01265,-0.32057 -6.90461,-1.11237 -7.06724,-0.94973 -0.31342,0.31342 -3.56936,10.3575 -4.25039,13.1118 -0.83559,3.37938 -1.35442,6.24782 -1.16445,6.43779 0.0589,0.0589 0.32634,0.0497 0.59441,-0.0204 0.34727,-0.0908 0.54041,-0.48188 0.67182,-1.36028 z m -13.88986,0.0694 c 0,-1.35744 -3.91818,-18.14089 -4.3316,-18.55431 -0.0621,-0.0621 -0.57526,0.0116 -1.14037,0.16377 -0.56511,0.15217 -2.31982,0.38889 -3.89935,0.52604 -3.21647,0.27929 -3.9895,0.6535 -3.37677,1.63464 2.87643,4.60589 5.90857,10.83287 6.90015,14.17053 l 0.56111,1.88873 1.72927,0.32629 c 0.9511,0.17946 1.80391,0.25164 1.89514,0.16041 0.26975,-0.26974 -0.40797,-3.43356 -1.23783,-5.77866 -0.42401,-1.1982 -0.73184,-2.21763 -0.68407,-2.2654 0.19484,-0.19485 1.81268,4.45077 2.21473,6.3596 0.34199,1.62372 0.52948,2.05052 0.90074,2.05052 0.32752,0 0.46885,-0.20564 0.46885,-0.68216 z"
       id="path4179"
       sodipodi:nodetypes="ssscssssssscssssssssssssssssssssccsssssssssssscssccccsssssscsssscssccsssscsssssscssssssssssssssssssssssssssscssssscsssssssssssssscsssssss" />
    <path
       id="rect4988"
       style="fill:none;stroke:#000000;stroke-width:0.879417;stroke-linecap:round;stroke-opacity:1"
       d="m 87.806987,38.523736 c 0,0 2.789624,4.742448 6.861857,11.483723 4.072287,6.741167 9.427046,15.48107 14.557336,23.475927 10.26051,15.989731 18.75041,32.311444 16.03003,42.639274 -2.72031,10.32777 -5.88006,14.30036 -12.11529,19.83138 -6.23536,5.531 -14.673753,9.30813 -25.333969,9.30809 -10.660234,0 -19.098619,-3.77709 -25.333856,-9.30809 C 56.237751,130.42302 53.077939,126.4505 50.357687,116.1227 47.637326,105.79483 56.1273,89.473117 66.387798,73.483386 71.517983,65.488529 76.872844,56.748626 80.945041,50.007459 85.017256,43.266184 87.806987,38.523736 87.806987,38.523736 Z"
       sodipodi:nodetypes="csszacszssc" />
  </g>
  <g
     inkscape:groupmode="layer"
     id="layer2"
     inkscape:label="Layer 3" />
  <g
     inkscape:groupmode="layer"
     id="layer4"
     inkscape:label="Layer 4">
    <path
       id="path4908-1"
       style="display:inline;fill:#cccccc;fill-opacity:1;stroke:#cccccc;stroke-width:2.02791;stroke-linecap:butt;stroke-linejoin:miter;stroke-miterlimit:4;stroke-dasharray:none;stroke-opacity:1"
       d="m 150.00001,87.523161 c 9.96884,0.613009 22.02709,-0.656406 30.35193,-1.517598 89.90352,49.290687 84.46379,162.530617 -30.85779,169.970717 M 150.00001,87.523161 C 140.03117,88.13617 127.97291,86.866755 119.64808,86.005563 29.744557,135.29626 35.184283,248.53618 150.50587,255.97628" />
    <path
       style="fill:none;stroke:#cccccc;stroke-width:2.02791;stroke-linecap:butt;stroke-linejoin:miter;stroke-miterlimit:4;stroke-dasharray:none;stroke-opacity:1"
       d="M 119.64808,86.005561 C 113.54509,68.472858 96.402111,57.402188 85.249236,44.018747"
       id="path4958" />
    <path
       style="fill:none;stroke:#cccccc;stroke-width:2.02791;stroke-linecap:butt;stroke-linejoin:miter;stroke-miterlimit:4;stroke-dasharray:none;stroke-opacity:1"
       d="M 180.35194,86.005563 C 186.45493,68.47286 203.5979,57.40219 214.75078,44.018749"
       id="path4958-5" />
    <path
       style="fill:#cccccc;fill-opacity:1;stroke:none;stroke-width:1.91193;stroke-miterlimit:4;stroke-dasharray:none;stroke-opacity:1"
       d="M 143.231,254.46466 C 116.59427,251.01462 97.280652,243.28314 82.276366,230.06374 51.933628,203.33053 50.577415,158.06606 79.01663,121.26825 88.250181,109.32086 102.27128,97.161498 116.07076,89.134211 l 2.43287,-1.415223 11.98429,0.402086 c 15.10093,0.506659 24.03947,0.50681 39.12316,5.36e-4 l 11.96292,-0.401426 4.27069,2.57962 c 30.1091,18.186746 50.49793,46.317596 54.81809,75.633506 0.9948,6.75051 0.70992,20.2537 -0.54582,25.87216 -2.94374,13.17098 -9.02481,24.5847 -18.10806,33.98746 -6.91576,7.15905 -13.78661,12.10804 -23.38566,16.84438 -11.21337,5.53289 -20.10917,8.33274 -33.89296,10.66742 -5.84152,0.98943 -17.82396,1.63583 -21.49928,1.1598 z"
       id="path4982" />
    <path
       style="fill:none;stroke:#cccccc;stroke-width:2.02791;stroke-linecap:butt;stroke-linejoin:miter;stroke-miterlimit:4;stroke-dasharray:none;stroke-opacity:1"
       d="m 85.249236,44.018747 c 0,0 62.727364,16.187688 129.501544,0"
       id="path4984" />
    <path
       style="fill:#cccccc;fill-opacity:1;stroke:none;stroke-width:1.91193;stroke-miterlimit:4;stroke-dasharray:none;stroke-opacity:1"
       d="M 100.02549,58.2049 C 93.373353,51.417121 88.251469,45.864171 88.643521,45.865013 c 0.392058,0.0011 2.989228,0.443084 5.771487,0.982758 15.901152,3.084342 31.246432,4.562546 51.180872,4.930218 22.46825,0.41441 38.80611,-0.843019 57.51323,-4.42645 4.4148,-0.845675 8.16121,-1.403301 8.32535,-1.239165 0.16413,0.164136 -4.14144,4.67116 -9.56795,10.015606 -5.42651,5.344452 -10.7369,10.798467 -11.80088,12.12004 l -1.9345,2.402859 -38.00542,-0.05226 -38.00542,-0.05226 z"
       id="path4986" />
    <path
       id="rect4933-4"
       style="fill:#cccccc;fill-opacity:1;stroke:#cccccc;stroke-width:2.02791;stroke-miterlimit:4;stroke-dasharray:none;stroke-opacity:1"
       d="m 109.01603,71.312523 h 80.64431 c 1.85631,0 3.35074,0.747212 3.35074,1.675366 v 4.589794 c 0,0.928152 -1.49443,1.675364 -3.35074,1.675364 h -80.64431 c -1.85628,0 -3.35071,-0.747212 -3.35071,-1.675364 v -4.589794 c 0,-0.928154 1.49443,-1.675366 3.35071,-1.675366 z m 0,7.940522 h 80.64431 c 1.85631,0 3.35074,0.747212 3.35074,1.675364 v 4.589796 c 0,0.928152 -1.49443,1.675364 -3.35074,1.675364 h -80.64431 c -1.85628,0 -3.35071,-0.747212 -3.35071,-1.675364 v -4.589796 c 0,-0.928152 1.49443,-1.675364 3.35071,-1.675364 z" />
    <path
       style="fill:#cccccc;fill-opacity:1;stroke:none;stroke-width:0.207778;stroke-miterlimit:4;stroke-dasharray:none;stroke-opacity:1"
       d="m 149.39166,254.90045 c -1.70052,-0.14497 -3.53505,-0.27363 -4.59038,-0.32193 -2.39534,-0.10964 -9.87708,-1.26247 -15.21161,-2.34389 -13.49548,-2.73582 -25.39494,-7.23776 -35.557382,-13.45249 -0.589602,-0.36056 -1.857453,-1.17759 -2.817444,-1.81563 l -1.745443,-1.16006 V 216.6591 197.51175 h 59.619899 59.61989 v 19.76369 19.76369 l -0.64595,0.41989 c -6.34795,4.12631 -13.21852,7.46824 -21.09781,10.26224 -6.6643,2.36315 -12.52373,3.87406 -20.49223,5.28411 -4.12619,0.73014 -10.01443,1.44525 -14.93753,1.81411 -0.61984,0.0464 -1.23831,0.0937 -1.37437,0.10497 -0.13606,0.0113 -0.4824,6.6e-4 -0.76964,-0.024 z"
       id="path5005" />
  </g>
</svg>
