<?xml version="1.0" encoding="UTF-8" standalone="no"?>
<svg
   width="300mm"
   height="300mm"
   viewBox="0 0 300 300"
   version="1.1"
   id="svg61"
   inkscape:version="1.2.2 (732a01da63, 2022-12-09)"
   sodipodi:docname="lightningBolt.svg"
   xmlns:inkscape="http://www.inkscape.org/namespaces/inkscape"
   xmlns:sodipodi="http://sodipodi.sourceforge.net/DTD/sodipodi-0.dtd"
   xmlns="http://www.w3.org/2000/svg"
   xmlns:svg="http://www.w3.org/2000/svg"
   xmlns:rdf="http://www.w3.org/1999/02/22-rdf-syntax-ns#"
   xmlns:cc="http://creativecommons.org/ns#"
   xmlns:dc="http://purl.org/dc/elements/1.1/">
  <defs
     id="defs55" />
  <sodipodi:namedview
     id="base"
     pagecolor="#ffffff"
     bordercolor="#666666"
     borderopacity="1.0"
     inkscape:pageopacity="0.0"
     inkscape:pageshadow="2"
     inkscape:zoom="0.74999999"
     inkscape:cx="626.00001"
     inkscape:cy="472.00001"
     inkscape:document-units="mm"
     inkscape:current-layer="layer1"
     inkscape:document-rotation="0"
     showgrid="false"
     inkscape:window-width="2560"
     inkscape:window-height="1346"
     inkscape:window-x="-11"
     inkscape:window-y="-11"
     inkscape:window-maximized="1"
     inkscape:snap-global="true"
     inkscape:showpageshadow="2"
     inkscape:pagecheckerboard="0"
     inkscape:deskcolor="#d1d1d1"
     showguides="true" />
  <metadata
     id="metadata58">
    <rdf:RDF>
      <cc:Work
         rdf:about="">
        <dc:format>image/svg+xml</dc:format>
        <dc:type
           rdf:resource="http://purl.org/dc/dcmitype/StillImage" />
        <dc:title />
      </cc:Work>
    </rdf:RDF>
  </metadata>
  <g
     inkscape:label="Layer 1"
     inkscape:groupmode="layer"
     id="layer1">
    <path
       style="display:inline;fill:#fff30b;fill-opacity:1;stroke:#000000;stroke-width:1.40702;stroke-miterlimit:4;stroke-dasharray:none;stroke-opacity:1"
       d="m 116.35824,253.47759 c -0.004,-0.10735 2.35059,-6.41312 5.23673,-14.01292 2.88616,-7.59978 6.2876,-16.57658 7.55881,-19.94845 1.27121,-3.37185 4.57901,-12.09936 7.35066,-19.39449 2.77165,-7.29511 4.97714,-13.46255 4.90106,-13.70544 -0.10528,-0.33688 -3.62569,-0.84736 -14.84,-2.15205 -8.08595,-0.94072 -14.77559,-1.75586 -14.86593,-1.81141 -0.0901,-0.0554 3.0303,-3.95652 6.93475,-8.66882 3.90443,-4.7123 13.98374,-16.9099 22.39842,-27.10574 23.91245,-28.97404 30.61151,-37.03139 30.72913,-36.95963 0.0599,0.0366 -1.07082,4.13075 -2.51286,9.09815 -1.442,4.96737 -3.78528,13.03845 -5.20729,17.93568 -8.07476,27.80884 -9.13678,31.68039 -8.73247,31.83405 0.24119,0.0916 7.22157,0.73385 15.51191,1.42707 8.29037,0.69322 15.24214,1.32062 15.44842,1.39424 0.32314,0.11533 -2.91004,4.11285 -8.45081,10.4487 -0.84251,0.96339 -4.04382,4.70746 -7.11407,8.32016 -3.07025,3.61272 -7.55956,8.86755 -9.97627,11.67744 -3.77569,4.38998 -9.58993,11.20211 -22.67443,26.56614 -1.57256,1.84649 -4.61172,5.3935 -6.75378,7.88226 -2.14202,2.48875 -5.62413,6.56126 -7.73797,9.05001 -5.08964,5.99231 -7.19089,8.36222 -7.20401,8.12505 z"
       id="path8495" />
  </g>
  <g
     inkscape:groupmode="layer"
     id="layer4"
     inkscape:label="Layer 4">
    <path
       id="path1231"
       style="fill:#ffffff;fill-opacity:1;stroke:#000000;stroke-width:0.419969;stroke-opacity:1"
       d="m 149.89453,43.685251 a 38.831521,24.548283 0 0 0 -27.60148,7.287773 38.831521,24.548283 0 0 0 -7.37867,-0.44869 38.831521,24.548283 0 0 0 -35.97395,15.34554 38.831521,24.548283 0 0 0 -19.224274,21.171322 38.831521,24.548283 0 0 0 17.810215,20.639624 38.831521,24.548283 0 0 0 37.388009,17.95393 38.831521,24.548283 0 0 0 7.3627,-0.45941 38.831521,24.548283 0 0 0 27.61745,7.2985 38.831521,24.548283 0 0 0 28.44951,-7.86241 38.831521,24.548283 0 0 0 2.03836,0.0466 38.831521,24.548283 0 0 0 35.62042,-14.80524 38.831521,24.548283 0 0 0 24.071,-22.689136 38.831521,24.548283 0 0 0 -25.83293,-23.131375 38.831521,24.548283 0 0 0 -33.85849,-12.531046 38.831521,24.548283 0 0 0 -2.01016,0.0458 38.831521,24.548283 0 0 0 -28.47771,-7.861692 z" />
  </g>
  <g
     inkscape:groupmode="layer"
     id="layer3"
     inkscape:label="Layer 2"
     style="display:inline" />
  <g
     inkscape:groupmode="layer"
     id="layer2"
     inkscape:label="Layer 3" />
</svg>
