<?xml version="1.0" encoding="UTF-8" standalone="no"?>
<svg
   width="300mm"
   height="300mm"
   viewBox="0 0 300 300"
   version="1.1"
   id="svg61"
   inkscape:version="1.2.2 (732a01da63, 2022-12-09)"
   sodipodi:docname="ostinato.svg"
   xml:space="preserve"
   xmlns:inkscape="http://www.inkscape.org/namespaces/inkscape"
   xmlns:sodipodi="http://sodipodi.sourceforge.net/DTD/sodipodi-0.dtd"
   xmlns="http://www.w3.org/2000/svg"
   xmlns:svg="http://www.w3.org/2000/svg"
   xmlns:rdf="http://www.w3.org/1999/02/22-rdf-syntax-ns#"
   xmlns:cc="http://creativecommons.org/ns#"
   xmlns:dc="http://purl.org/dc/elements/1.1/"><defs
     id="defs55" /><sodipodi:namedview
     id="base"
     pagecolor="#ffffff"
     bordercolor="#666666"
     borderopacity="1.0"
     inkscape:pageopacity="0.0"
     inkscape:pageshadow="2"
     inkscape:zoom="0.74999999"
     inkscape:cx="396.66667"
     inkscape:cy="514.66667"
     inkscape:document-units="mm"
     inkscape:current-layer="svg61"
     inkscape:document-rotation="0"
     showgrid="false"
     inkscape:window-width="2560"
     inkscape:window-height="1346"
     inkscape:window-x="-11"
     inkscape:window-y="-11"
     inkscape:window-maximized="1"
     inkscape:snap-global="true"
     inkscape:showpageshadow="2"
     inkscape:pagecheckerboard="0"
     inkscape:deskcolor="#d1d1d1" /><metadata
     id="metadata58"><rdf:RDF><cc:Work
         rdf:about=""><dc:format>image/svg+xml</dc:format><dc:type
           rdf:resource="http://purl.org/dc/dcmitype/StillImage" /></cc:Work></rdf:RDF></metadata><g
     inkscape:groupmode="layer"
     id="layer3"
     inkscape:label="Layer 2"
     style="display:inline" /><g
     inkscape:groupmode="layer"
     id="layer2"
     inkscape:label="Layer 3" /><path
     style="fill:#ffffff;stroke-width:0.313885"
     d="m 139.11859,281.86275 c -6.24227,-1.3022 -10.28992,-3.55276 -14.42789,-8.02214 -2.32674,-2.5131 -4.54673,-6.57136 -5.40147,-9.87421 -2.79004,-10.78118 2.81005,-21.00728 12.47884,-22.78708 7.00853,-1.29011 14.12745,3.65989 16.08784,11.18635 0.93254,3.58024 0.4678,8.39259 -1.10892,11.48325 -1.95661,3.83526 -6.74678,6.41679 -12.29927,6.62838 -1.37536,0.0524 -2.11832,0.21092 -2.11873,0.45206 -9.4e-4,0.61962 2.60246,2.54966 4.73661,3.51136 3.03059,1.36564 6.21059,1.98125 10.17234,1.96921 10.98905,-0.0333 18.2885,-6.04749 20.77348,-17.11558 0.337,-1.50104 0.50589,-3.82884 0.51499,-7.09866 0.0119,-4.21317 -0.22799,-6.65212 -1.78866,-18.19769 -0.99121,-7.33286 -1.82921,-13.35898 -1.86221,-13.39139 -0.033,-0.0323 -0.69563,0.0692 -1.47249,0.22608 -2.69429,0.54361 -10.10876,0.7111 -13.3606,0.30178 -13.24558,-1.66722 -27.05155,-9.93145 -35.64302,-21.33586 -2.96497,-3.93571 -6.35546,-10.5296 -7.95985,-15.48035 -4.67285,-14.41945 -3.64349,-28.32914 3.11848,-42.13955 6.0784,-12.41429 16.50123,-24.13096 35.16879,-39.53443 2.07164,-1.70941 3.82837,-3.15658 3.90383,-3.215936 0.0755,-0.05925 -0.11192,-1.976544 -0.41632,-4.260463 -1.43461,-10.762765 -1.79423,-14.696933 -1.97257,-21.580333 -0.30145,-11.634332 0.74594,-19.602235 3.76112,-28.612438 4.42248,-13.215635 10.85424,-22.795661 17.55495,-26.14789 3.34855,-1.675213 5.09078,-1.444191 7.21115,0.956205 7.65439,8.665272 11.89183,27.968475 10.15894,46.277964 -1.17652,12.43097 -2.64708,18.433221 -6.3378,25.868418 -1.9585,3.945553 -4.27539,7.530713 -7.1433,11.053603 -1.94322,2.38702 -8.6671,9.14188 -13.25278,13.31383 l -2.22706,2.02614 1.82635,13.49709 c 1.00449,7.4234 1.83013,13.56771 1.83475,13.65404 0.005,0.0864 1.80929,0.17662 4.0104,0.20066 2.28879,0.025 4.94723,0.25222 6.20999,0.53075 16.53489,3.64714 26.51256,17.45823 26.51256,36.69864 0,10.91435 -3.53215,19.83255 -10.6658,26.92975 -3.98338,3.96302 -10.10696,7.76296 -14.68047,9.10987 -0.73371,0.21607 -1.33401,0.55315 -1.33401,0.74906 0,0.19591 0.92705,7.20066 2.06011,15.56615 1.99333,14.71671 2.05567,15.37786 1.92238,20.38904 -0.22277,8.37661 -2.09744,13.43685 -6.78398,18.31187 -3.56884,3.71235 -7.42825,5.90705 -12.89281,7.33162 -3.79133,0.98838 -11.4557,1.28264 -14.86789,0.57083 z m 23.18587,-65.82479 c 1.83031,-0.39843 1.88049,-0.43648 1.78293,-1.35163 -0.40088,-3.76099 -6.70466,-50.53979 -6.82707,-50.66221 -0.30894,-0.30894 -3.17409,0.63516 -5.75022,1.89474 -4.58754,2.24305 -8.62085,6.96256 -10.42591,12.19978 -0.95291,2.76474 -1.17609,7.87052 -0.46743,10.69351 1.29769,5.16937 4.51419,9.38329 8.93583,11.7068 2.31431,1.21613 2.74744,1.8959 1.74051,2.73159 -0.74471,0.61805 -3.51208,-0.056 -6.72319,-1.63756 -6.22337,-3.06517 -11.07304,-10.2733 -12.55961,-18.66752 -0.56163,-3.17121 -0.24914,-9.6082 0.62287,-12.83092 1.46602,-5.41813 4.84027,-11.24156 8.8399,-15.25639 3.41023,-3.42317 7.32851,-5.93119 11.96411,-7.65799 0.92743,-0.34548 1.49289,-0.7469 1.49606,-1.06206 0.009,-0.9953 -2.87745,-22.80371 -3.09332,-23.36328 -0.18291,-0.47411 -1.46802,0.53775 -7.5902,5.97631 -11.85451,10.5308 -17.64076,16.62947 -22.09478,23.28776 -7.93543,11.86265 -10.55419,25.15299 -7.22198,36.65179 3.92487,13.54387 16.13865,24.56403 30.57861,27.59022 2.54653,0.53368 13.98552,0.3682 16.79289,-0.24294 z m 9.88739,-3.24198 c 8.25559,-4.14069 12.79487,-11.68861 13.37822,-22.2453 0.6115,-11.06597 -4.6441,-20.26546 -14.10717,-24.69353 -2.31111,-1.08144 -6.41359,-2.17727 -8.15112,-2.17727 -1.22878,0 -1.2442,0.0145 -1.09125,1.02013 0.0854,0.56107 1.61972,11.9307 3.40973,25.26584 3.1499,23.46602 3.27494,24.2394 3.88796,24.04959 0.34837,-0.1078 1.5515,-0.65663 2.67363,-1.21946 z M 156.82873,92.349321 c 4.33076,-3.921779 8.80924,-8.809668 12.15693,-13.268287 9.83089,-13.093243 13.76245,-31.083515 7.94209,-36.341862 -3.13334,-2.830786 -7.69143,-2.322761 -11.73462,1.30789 -4.39109,3.943053 -9.33314,13.568195 -11.78678,22.955984 -1.44426,5.52585 -1.74526,7.860655 -1.76022,13.654033 -0.0133,5.162468 0.91276,14.909579 1.41661,14.909579 0.1172,0 1.81193,-1.447804 3.76599,-3.217337 z"
     id="path229" /></svg>
