<?xml version="1.0" encoding="UTF-8" standalone="no"?>
<svg
   width="300mm"
   height="300mm"
   viewBox="0 0 300 300"
   version="1.1"
   id="svg61"
   inkscape:version="1.2.2 (732a01da63, 2022-12-09)"
   sodipodi:docname="outburst.svg"
   xmlns:inkscape="http://www.inkscape.org/namespaces/inkscape"
   xmlns:sodipodi="http://sodipodi.sourceforge.net/DTD/sodipodi-0.dtd"
   xmlns="http://www.w3.org/2000/svg"
   xmlns:svg="http://www.w3.org/2000/svg"
   xmlns:rdf="http://www.w3.org/1999/02/22-rdf-syntax-ns#"
   xmlns:cc="http://creativecommons.org/ns#"
   xmlns:dc="http://purl.org/dc/elements/1.1/">
  <defs
     id="defs55" />
  <sodipodi:namedview
     id="base"
     pagecolor="#ffffff"
     bordercolor="#666666"
     borderopacity="1.0"
     inkscape:pageopacity="0.0"
     inkscape:pageshadow="2"
     inkscape:zoom="0.375"
     inkscape:cx="353.33333"
     inkscape:cy="614.66667"
     inkscape:document-units="mm"
     inkscape:current-layer="layer2"
     inkscape:document-rotation="0"
     showgrid="false"
     inkscape:window-width="1920"
     inkscape:window-height="991"
     inkscape:window-x="-9"
     inkscape:window-y="-9"
     inkscape:window-maximized="1"
     inkscape:snap-global="true"
     showguides="true"
     inkscape:guide-bbox="true"
     inkscape:showpageshadow="2"
     inkscape:pagecheckerboard="0"
     inkscape:deskcolor="#d1d1d1">
    <sodipodi:guide
       position="107.95,192.75555"
       orientation="0,-1"
       id="guide14678"
       inkscape:locked="false" />
    <sodipodi:guide
       position="220.83889,36.827774"
       orientation="1,0"
       id="guide14680"
       inkscape:locked="false" />
    <sodipodi:guide
       position="5.6444445,115.14444"
       orientation="0,-1"
       id="guide14682"
       inkscape:locked="false" />
  </sodipodi:namedview>
  <metadata
     id="metadata58">
    <rdf:RDF>
      <cc:Work
         rdf:about="">
        <dc:format>image/svg+xml</dc:format>
        <dc:type
           rdf:resource="http://purl.org/dc/dcmitype/StillImage" />
      </cc:Work>
    </rdf:RDF>
  </metadata>
  <g
     inkscape:label="Layer 1"
     inkscape:groupmode="layer"
     id="layer1"
     style="display:inline" />
  <g
     inkscape:groupmode="layer"
     id="layer3"
     inkscape:label="Layer 2"
     style="display:inline" />
  <g
     inkscape:groupmode="layer"
     id="layer2"
     inkscape:label="Layer 3">
    <path
       sodipodi:type="star"
       style="fill:#fe565c;fill-opacity:1;stroke:#000000;stroke-width:0.7;stroke-opacity:1"
       id="path24682"
       inkscape:flatsided="false"
       sodipodi:sides="7"
       sodipodi:cx="107.24445"
       sodipodi:cy="78.316666"
       sodipodi:r1="149.4729"
       sodipodi:r2="74.73645"
       sodipodi:arg1="0.84885799"
       sodipodi:arg2="1.2976569"
       inkscape:rounded="0"
       inkscape:randomized="0"
       d="m 206.02223,190.49999 -78.61719,-40.21745 -46.28211,75.20686 -17.573742,-86.54056 -87.655516,10.7059 56.703085,-67.696865 -63.022525,-61.856827 88.281332,2.123955 9.067713,-87.840094 53.381933,70.3453886 74.32978,-47.6779796 -21.71515,85.59531 83.62001,28.386626 -80.46028,36.390216 z"
       inkscape:transform-center-x="-4.427938"
       inkscape:transform-center-y="1.2344628"
       transform="matrix(0.76178472,0,0,0.76178472,63.846639,89.183745)" />
    <path
       sodipodi:type="star"
       style="fill:#ac9cff;fill-opacity:1;stroke:#000000;stroke-width:0.7;stroke-opacity:1"
       id="path24682-5"
       inkscape:flatsided="false"
       sodipodi:sides="7"
       sodipodi:cx="107.24445"
       sodipodi:cy="78.316666"
       sodipodi:r1="149.4729"
       sodipodi:r2="74.73645"
       sodipodi:arg1="0.84885799"
       sodipodi:arg2="1.2976569"
       inkscape:rounded="0"
       inkscape:randomized="0"
       d="m 206.02223,190.49999 -78.61719,-40.21745 -46.28211,75.20686 -17.573742,-86.54056 -87.655516,10.7059 56.703085,-67.696865 -63.022525,-61.856827 88.281332,2.123955 9.067713,-87.840094 53.381933,70.3453886 74.32978,-47.6779796 -21.71515,85.59531 83.62001,28.386626 -80.46028,36.390216 z"
       inkscape:transform-center-x="-3.8241268"
       inkscape:transform-center-y="1.0661268"
       transform="matrix(0.65790499,0,0,0.65790499,75.594825,97.422325)" />
    <path
       sodipodi:type="star"
       style="fill:#c0845d;fill-opacity:1;stroke:#000000;stroke-width:0.7;stroke-opacity:1"
       id="path24682-5-0"
       inkscape:flatsided="false"
       sodipodi:sides="7"
       sodipodi:cx="107.24445"
       sodipodi:cy="78.316666"
       sodipodi:r1="149.4729"
       sodipodi:r2="74.73645"
       sodipodi:arg1="0.84885799"
       sodipodi:arg2="1.2976569"
       inkscape:rounded="0"
       inkscape:randomized="0"
       d="m 206.02223,190.49999 -78.61719,-40.21745 -46.28211,75.20686 -17.573742,-86.54056 -87.655516,10.7059 56.703085,-67.696865 -63.022525,-61.856827 88.281332,2.123955 9.067713,-87.840094 53.381933,70.3453886 74.32978,-47.6779796 -21.71515,85.59531 83.62001,28.386626 -80.46028,36.390216 z"
       inkscape:transform-center-x="-3.2203212"
       inkscape:transform-center-y="0.89778757"
       transform="matrix(0.55402525,0,0,0.55402525,87.34301,105.71091)" />
    <path
       sodipodi:type="star"
       style="fill:#fff30b;fill-opacity:1;stroke:#000000;stroke-width:0.7;stroke-opacity:1"
       id="path24682-5-0-7"
       inkscape:flatsided="false"
       sodipodi:sides="7"
       sodipodi:cx="107.24445"
       sodipodi:cy="78.316666"
       sodipodi:r1="149.4729"
       sodipodi:r2="74.73645"
       sodipodi:arg1="0.84885799"
       sodipodi:arg2="1.2976569"
       inkscape:rounded="0"
       inkscape:randomized="0"
       d="m 206.02223,190.49999 -78.61719,-40.21745 -46.28211,75.20686 -17.573742,-86.54056 -87.655516,10.7059 56.703085,-67.696865 -63.022525,-61.856827 88.281332,2.123955 9.067713,-87.840094 53.381933,70.3453886 74.32978,-47.6779796 -21.71515,85.59531 83.62001,28.386626 -80.46028,36.390216 z"
       inkscape:transform-center-x="-2.6165114"
       inkscape:transform-center-y="0.72945232"
       transform="matrix(0.45014552,0,0,0.45014552,99.091196,114.01449)" />
    <path
       sodipodi:type="star"
       style="fill:#00baa1;fill-opacity:1;stroke:#000000;stroke-width:0.7;stroke-opacity:1"
       id="path24682-5-0-7-5"
       inkscape:flatsided="false"
       sodipodi:sides="7"
       sodipodi:cx="107.24445"
       sodipodi:cy="78.316666"
       sodipodi:r1="149.4729"
       sodipodi:r2="74.73645"
       sodipodi:arg1="0.84885799"
       sodipodi:arg2="1.2976569"
       inkscape:rounded="0"
       inkscape:randomized="0"
       d="m 206.02223,190.49999 -78.61719,-40.21745 -46.28211,75.20686 -17.573742,-86.54056 -87.655516,10.7059 56.703085,-67.696865 -63.022525,-61.856827 88.281332,2.123955 9.067713,-87.840094 53.381933,70.3453886 74.32978,-47.6779796 -21.71515,85.59531 83.62001,28.386626 -80.46028,36.390216 z"
       inkscape:transform-center-x="-2.0127054"
       inkscape:transform-center-y="0.56111695"
       transform="matrix(0.34626578,0,0,0.34626578,110.83938,122.33807)" />
    <path
       sodipodi:type="star"
       style="fill:#d9dbbf;fill-opacity:1;stroke:#000000;stroke-width:0.7;stroke-opacity:1"
       id="path24682-5-0-7-5-6"
       inkscape:flatsided="false"
       sodipodi:sides="7"
       sodipodi:cx="107.24445"
       sodipodi:cy="78.316666"
       sodipodi:r1="149.4729"
       sodipodi:r2="74.73645"
       sodipodi:arg1="0.84885799"
       sodipodi:arg2="1.2976569"
       inkscape:rounded="0"
       inkscape:randomized="0"
       d="m 206.02223,190.49999 -78.61719,-40.21745 -46.28211,75.20686 -17.573742,-86.54056 -87.655516,10.7059 56.703085,-67.696865 -63.022525,-61.856827 88.281332,2.123955 9.067713,-87.840094 53.381933,70.3453886 74.32978,-47.6779796 -21.71515,85.59531 83.62001,28.386626 -80.46028,36.390216 z"
       inkscape:transform-center-x="-1.4088985"
       inkscape:transform-center-y="0.39278166"
       transform="matrix(0.24238605,0,0,0.24238605,122.58757,130.62665)" />
  </g>
</svg>
