<?xml version="1.0" encoding="UTF-8" standalone="no"?>
<svg
   width="300mm"
   height="300mm"
   viewBox="0 0 300 300"
   version="1.1"
   id="svg61"
   inkscape:version="1.2.2 (732a01da63, 2022-12-09)"
   sodipodi:docname="tentative.svg"
   xml:space="preserve"
   xmlns:inkscape="http://www.inkscape.org/namespaces/inkscape"
   xmlns:sodipodi="http://sodipodi.sourceforge.net/DTD/sodipodi-0.dtd"
   xmlns:xlink="http://www.w3.org/1999/xlink"
   xmlns="http://www.w3.org/2000/svg"
   xmlns:svg="http://www.w3.org/2000/svg"
   xmlns:rdf="http://www.w3.org/1999/02/22-rdf-syntax-ns#"
   xmlns:cc="http://creativecommons.org/ns#"
   xmlns:dc="http://purl.org/dc/elements/1.1/"><defs
     id="defs55"><linearGradient
       inkscape:collect="always"
       id="linearGradient9766"><stop
         style="stop-color:#678f57;stop-opacity:1;"
         offset="0"
         id="stop9762" /><stop
         style="stop-color:#678f57;stop-opacity:0;"
         offset="1"
         id="stop9764" /></linearGradient><linearGradient
       inkscape:collect="always"
       xlink:href="#linearGradient9766"
       id="linearGradient9768"
       x1="95.592445"
       y1="223.45706"
       x2="205.2457"
       y2="223.45706"
       gradientUnits="userSpaceOnUse"
       gradientTransform="matrix(1.1058333,0,0,1.1058333,-15.875,-15.875)" /><linearGradient
       inkscape:collect="always"
       xlink:href="#linearGradient9766"
       id="linearGradient9770"
       x1="183.40296"
       y1="190.82525"
       x2="250.00001"
       y2="190.82525"
       gradientUnits="userSpaceOnUse"
       gradientTransform="matrix(1.1058333,0,0,1.1058333,-15.875,-15.875)" /><linearGradient
       inkscape:collect="always"
       xlink:href="#linearGradient9766"
       id="linearGradient9772"
       x1="50"
       y1="191.1244"
       x2="117.59575"
       y2="191.1244"
       gradientUnits="userSpaceOnUse"
       gradientTransform="matrix(1.1058333,0,0,1.1058333,-15.875,-15.875)" /><linearGradient
       inkscape:collect="always"
       xlink:href="#linearGradient9766"
       id="linearGradient9774"
       x1="90.142885"
       y1="148.89024"
       x2="210.64262"
       y2="148.89024"
       gradientUnits="userSpaceOnUse"
       gradientTransform="matrix(1.1058333,0,0,1.1058333,-15.875,-15.875)" /><linearGradient
       inkscape:collect="always"
       xlink:href="#linearGradient9766"
       id="linearGradient9776"
       x1="183.79302"
       y1="107.67664"
       x2="249.92832"
       y2="107.67664"
       gradientUnits="userSpaceOnUse"
       gradientTransform="matrix(1.1058333,0,0,1.1058333,-15.875,-15.875)" /><linearGradient
       inkscape:collect="always"
       xlink:href="#linearGradient9766"
       id="linearGradient9778"
       x1="50.017324"
       y1="107.43556"
       x2="117.19731"
       y2="107.43556"
       gradientUnits="userSpaceOnUse"
       gradientTransform="matrix(1.1058333,0,0,1.1058333,-15.875,-15.875)" /><linearGradient
       inkscape:collect="always"
       xlink:href="#linearGradient9766"
       id="linearGradient9780"
       x1="96.028511"
       y1="75.42205"
       x2="204.66261"
       y2="75.42205"
       gradientUnits="userSpaceOnUse"
       gradientTransform="matrix(1.1058333,0,0,1.1058333,-15.875,-15.875)" /></defs><sodipodi:namedview
     id="base"
     pagecolor="#ffffff"
     bordercolor="#666666"
     borderopacity="1.0"
     inkscape:pageopacity="0.0"
     inkscape:pageshadow="2"
     inkscape:zoom="0.74999999"
     inkscape:cx="524.00001"
     inkscape:cy="602.00001"
     inkscape:document-units="mm"
     inkscape:current-layer="layer1"
     inkscape:document-rotation="0"
     showgrid="false"
     inkscape:window-width="1920"
     inkscape:window-height="991"
     inkscape:window-x="-9"
     inkscape:window-y="-9"
     inkscape:window-maximized="1"
     inkscape:snap-global="true"
     inkscape:showpageshadow="2"
     inkscape:pagecheckerboard="0"
     inkscape:deskcolor="#d1d1d1"
     showguides="true" /><metadata
     id="metadata58"><rdf:RDF><cc:Work
         rdf:about=""><dc:format>image/svg+xml</dc:format><dc:type
           rdf:resource="http://purl.org/dc/dcmitype/StillImage" /></cc:Work></rdf:RDF></metadata><g
     inkscape:label="Layer 1"
     inkscape:groupmode="layer"
     id="layer1" /><g
     inkscape:groupmode="layer"
     id="layer3"
     inkscape:label="Layer 2"
     style="display:inline"><path
       id="path9498"
       style="fill:#69aa60;fill-opacity:1;stroke:url(#linearGradient9768);stroke-width:0.0574291"
       d="m 184.02574,201.87921 13.56009,20.12435 c 7.45807,11.06836 13.53612,20.1432 13.5066,20.16611 -0.0295,0.0229 -0.55358,0.36487 -1.16459,0.76016 -15.13045,9.78859 -32.34368,15.69106 -50.29941,17.24847 -1.47413,0.12787 -3.32118,0.24872 -4.96813,0.32431 -1.67383,0.0767 -6.29235,0.10771 -7.96113,0.0532 -9.62169,-0.31375 -18.68774,-1.74474 -27.71075,-4.37388 -8.41283,-2.45136 -16.51194,-5.90851 -24.100067,-10.2864 -2.648145,-1.52779 -5.064357,-3.0489 -5.054007,-3.18189 0.0033,-0.0477 6.170866,-9.24873 13.704764,-20.44695 l 13.6975,-20.36059 33.39491,-0.0137 z" /><path
       id="path9734"
       style="fill:#69aa60;fill-opacity:1;stroke:url(#linearGradient9770);stroke-width:0.0574291"
       d="m 260.58335,150.04286 -0.0417,1.80343 c -0.0853,3.64982 -0.26747,6.63387 -0.59583,9.76648 -2.52781,24.11573 -12.86074,46.57553 -29.58674,64.31054 -4.71036,4.99451 -10.04357,9.67589 -15.64023,13.72796 h -6.5e-4 c -0.45389,0.32863 -0.84597,0.59771 -0.87128,0.59771 -0.0508,0 -26.90882,-39.83483 -26.90882,-39.9101 0,-0.0256 7.53412,-11.34716 16.7427,-25.15831 l 16.74337,-25.11083 20.07921,-0.0137 z" /><path
       id="path9732"
       style="fill:#69aa60;fill-opacity:1;stroke:url(#linearGradient9772);stroke-width:0.0574291"
       d="m 39.416667,150.04286 20.514531,0.0137 20.513871,0.0132 16.860934,25.28757 16.860297,25.28816 -13.52047,20.1089 c -7.436281,11.05997 -13.537462,20.12608 -13.558108,20.14667 -0.04125,0.0409 -0.103617,-9.8e-4 -1.673215,-1.12908 -6.963975,-5.00522 -13.519462,-11.01233 -19.163014,-17.55905 -15.535944,-18.02223 -24.793149,-40.32772 -26.535588,-63.9399 -0.175612,-2.37969 -0.223228,-3.45447 -0.260924,-5.83873 z" /><path
       id="path9730"
       style="fill:#69aa60;fill-opacity:1;stroke:url(#linearGradient9774);stroke-width:0.0574291"
       d="m 117.11109,98.821382 h 33.32356 33.32358 l 16.65153,24.973558 16.65087,24.97356 -16.65022,24.97757 -16.65088,24.97813 -33.32686,-5.7e-4 -33.32685,-5.8e-4 -16.6489,-24.97698 -16.648912,-24.97757 16.651552,-24.97356 z" /><path
       id="path9728"
       style="fill:#69aa60;fill-opacity:1;stroke:url(#linearGradient9776);stroke-width:0.0574291"
       d="m 213.15999,59.292217 c 0.0422,-0.04021 1.99439,1.352922 3.52544,2.515544 3.73195,2.833892 8.12453,6.662107 11.41392,9.946639 5.60988,5.601589 10.6641,11.869694 14.9605,18.554854 9.68754,15.073836 15.50953,32.137646 17.07101,50.034626 0.18469,2.11675 0.37257,5.32012 0.37321,6.34605 v 0.41354 l -20.16576,-10e-4 -20.16575,-0.001 -16.35494,-24.53143 c -8.99517,-13.49221 -16.3931,-24.598568 -16.4395,-24.680699 -0.0828,-0.14639 0.17064,-0.527991 12.82951,-19.354481 7.10244,-10.562881 12.93102,-19.222001 12.95236,-19.242367 z" /><path
       id="path9726"
       style="fill:#69aa60;fill-opacity:1;stroke:url(#linearGradient9778);stroke-width:0.0574291"
       d="m 87.581156,58.759136 c 0.02057,0.01982 5.911652,8.756503 13.091104,19.415106 l 13.05343,19.379645 -16.516126,24.773943 -16.516121,24.7745 -20.628809,5.8e-4 -20.628809,0.001 6.59e-4,-0.147 c 0.0049,-0.86275 0.200036,-4.31224 0.342173,-6.05206 2.147572,-26.28688 13.62321,-50.882588 32.427175,-69.498352 3.235622,-3.203238 7.352865,-6.774788 11.016914,-9.557688 1.972862,-1.498414 4.298838,-3.147363 4.35841,-3.089808 z" /><path
       id="path9724"
       style="fill:#69aa60;fill-opacity:1;stroke:url(#linearGradient9780);stroke-width:0.0574291"
       d="m 149.9379,39.416667 c 2.32143,-1.28e-4 4.65358,0.06497 6.82101,0.195044 16.91521,1.015147 33.40236,5.94173 48.10768,14.374868 2.28175,1.308526 5.59007,3.364432 5.58113,3.469027 -0.002,0.03118 -5.77365,8.629823 -12.82423,19.107953 l -12.81894,19.051338 -34.22326,0.01316 -34.22325,0.01371 -13.03561,-19.347616 C 96.152509,65.653188 90.299537,56.927456 90.316567,56.903659 c 0.08869,-0.124221 3.167029,-1.99903 4.950932,-3.015451 14.745891,-8.401815 30.972091,-13.236145 47.913481,-14.275345 2.12447,-0.130312 4.4355,-0.196057 6.75692,-0.196187 z" /><circle
       style="fill:none;fill-opacity:1;stroke:#678f57;stroke-width:3.45419;stroke-opacity:1"
       id="path9737"
       cx="149.99998"
       cy="149.99998"
       r="119.91457" /></g><g
     inkscape:groupmode="layer"
     id="layer2"
     inkscape:label="Layer 3" /></svg>
