<?xml version="1.0" encoding="UTF-8" standalone="no"?>
<svg
   xmlns:dc="http://purl.org/dc/elements/1.1/"
   xmlns:cc="http://creativecommons.org/ns#"
   xmlns:rdf="http://www.w3.org/1999/02/22-rdf-syntax-ns#"
   xmlns:svg="http://www.w3.org/2000/svg"
   xmlns="http://www.w3.org/2000/svg"
   xmlns:sodipodi="http://sodipodi.sourceforge.net/DTD/sodipodi-0.dtd"
   xmlns:inkscape="http://www.inkscape.org/namespaces/inkscape"
   version="1.0"
   width="300pt"
   height="300pt"
   viewBox="0 0 300 300"
   preserveAspectRatio="xMidYMid meet"
   id="svg2258"
   sodipodi:docname="thorns.svg"
   inkscape:version="1.0.2 (e86c870879, 2021-01-15)">
  <defs
     id="defs2262" />
  <sodipodi:namedview
     pagecolor="#ffffff"
     bordercolor="#666666"
     borderopacity="1"
     objecttolerance="10"
     gridtolerance="10"
     guidetolerance="10"
     inkscape:pageopacity="0"
     inkscape:pageshadow="2"
     inkscape:window-width="1920"
     inkscape:window-height="1002"
     id="namedview2260"
     showgrid="false"
     inkscape:zoom="1.2210937"
     inkscape:cx="256.51018"
     inkscape:cy="245.64035"
     inkscape:window-x="-8"
     inkscape:window-y="-8"
     inkscape:window-maximized="1"
     inkscape:current-layer="svg2258" />
  <metadata
     id="metadata2252">
Created by potrace 1.15, written by Peter Selinger 2001-2017
<rdf:RDF>
  <cc:Work
     rdf:about="">
    <dc:format>image/svg+xml</dc:format>
    <dc:type
       rdf:resource="http://purl.org/dc/dcmitype/StillImage" />
    <dc:title></dc:title>
  </cc:Work>
</rdf:RDF>
</metadata>
  <path
     id="path2837"
     style="fill:#8e7000;fill-opacity:1;stroke:none;stroke-width:0.0671727"
     d="m 294.50217,121.03795 c -12.74164,-10.08116 -22.54149,-17.75 -35.98363,-28.406609 -3.52482,-2.830348 -7.94411,-6.176067 -9.83803,-7.205287 -3.20915,-1.886901 -3.41995,-2.143477 -3.26213,-4.373441 0.10528,-1.286529 1.21015,-12.951031 2.5254,-25.730533 1.31523,-12.865268 2.31466,-24.616384 2.20943,-26.160214 -0.15782,-2.487282 -0.99938,-0.170696 -6.36552,17.154527 -6.62876,21.184797 -8.73286,26.759654 -12.09986,32.506144 -1.68348,2.916152 -2.63051,3.773752 -4.52444,4.202568 -8.20704,1.801164 -18.46579,7.461361 -31.77592,17.496275 -4.5244,3.43073 -8.41789,6.08938 -8.57571,5.83207 -0.15784,-0.25729 -1.10428,-4.28781 -2.10386,-8.833543 -1.68349,-7.719158 -2.78855,-15.952937 -6.83946,-50.174547 -1.31523,-11.064128 -1.52576,-12.09293 -1.94665,-9.434114 -1.10478,7.376092 -0.42091,54.548901 0.99953,64.926884 0.10528,1.11499 0.0524,1.97251 -0.15799,1.97251 -0.26304,0 -3.26166,-4.0311 -6.73387,-9.005698 -6.2605,-9.005677 -10.73202,-13.551586 -14.46728,-14.752329 -1.52565,-0.428848 -1.73581,-0.343225 -1.26232,0.685996 0.31566,0.686124 2.78773,5.660213 5.4708,11.063625 2.68308,5.403409 6.05037,12.693546 7.41821,16.124276 2.84091,7.03302 4.68186,14.0672 3.84011,14.49604 -1.26262,0.68616 -10.20572,9.34835 -17.67624,17.15328 -4.36656,4.54572 -9.83802,9.86326 -12.20544,11.92174 -4.31395,3.77379 -10.78464,8.06216 -12.09988,8.06216 -0.99957,0 -3.20941,-8.49066 -4.47203,-17.15329 -0.57871,-4.03113 -1.78845,-12.09333 -2.6302,-18.01138 -0.84174,-5.91801 -2.10447,-12.69415 -2.73579,-15.00989 l -1.1575,-4.28801 -0.52635,4.28801 c -0.36827,3.0019 -0.31552,10.46349 0.15797,24.18646 0.68392,21.44209 0.47318,28.98973 -1.10509,36.02273 -1.47305,6.34687 -2.05155,6.86207 -4.78723,4.03169 -1.26262,-1.28653 -7.47041,-6.60475 -13.836135,-11.75085 -6.365706,-5.14612 -13.205071,-10.89259 -15.151615,-12.86526 l -3.577326,-3.60202 0.368362,-5.57454 c 0.736534,-11.57874 3.419549,-21.95755 10.469192,-40.312 4.366577,-11.321443 7.417957,-21.184144 6.891867,-22.041824 -0.73654,-1.28653 -9.469871,14.838097 -14.941231,27.617604 -6.260499,14.66641 -10.416682,23.15679 -10.837555,22.04183 -0.105202,-0.34307 -0.473483,-3.6878 -0.789138,-7.4616 -0.315656,-3.68806 -1.157145,-8.8339 -1.841066,-11.3212 C 65.54783,98.892424 59.339531,86.799265 56.814286,86.799265 c -0.368263,0 0.631927,4.202485 2.210206,9.691653 3.787863,12.693732 5.05038,20.841662 5.155603,32.506142 0.0526,4.97458 -1.58e-4,9.34804 -0.157985,9.51958 -0.157828,0.25729 -1.946536,-0.3431 -3.945692,-1.28652 -2.735674,-1.28654 -5.786655,-1.8861 -11.731495,-2.14338 -12.205343,-0.68616 -18.308475,1.28685 -32.039482,10.20679 -7.9966026,5.14609 -10.6795726,7.97594 -10.6795726,11.06361 0,2.05845 -0.157981,2.05794 3.787712,-0.51511 15.9405956,-10.12069 35.9321026,-9.60616 56.0288266,1.62952 8.101821,4.54571 14.520302,9.09196 22.253864,15.95344 4.524394,3.94534 12.363059,11.49339 13.046979,12.43684 0.42088,0.60038 -10.732379,5.66037 -14.572866,6.51805 -5.576575,1.28653 -20.201991,0.51464 -26.62031,-1.28652 -9.364447,-2.74459 -29.145156,-11.83671 -33.038239,-15.26746 -0.526093,-0.42884 -1.104691,-0.68571 -1.209909,-0.42842 -0.420874,0.68614 7.312631,8.57744 12.836599,13.0374 11.78447,9.43451 27.093855,16.72441 41.403566,19.72634 4.682211,1.02921 4.471266,0.60017 4.471266,8.40512 0,9.7776 -1.156882,20.58493 -3.682131,33.96481 -1.21001,6.26111 -2.315367,12.09334 -2.420586,12.86526 -0.157828,0.77193 0.789192,-0.60028 2.157027,-2.91606 3.05134,-5.4034 6.365967,-15.95332 9.206875,-29.16165 4.734843,-21.95675 5.155343,-23.41423 6.996673,-24.27192 0.94696,-0.42883 5.471755,-3.34589 10.153995,-6.51932 l 8.47014,-5.83207 7.04984,3.85959 c 3.89308,2.1442 10.83718,5.31782 15.46679,7.03314 22.35895,8.49111 24.20037,9.34919 24.04254,11.15032 -0.0526,0.94345 -0.26351,5.3175 -0.47394,9.6917 -0.26304,7.20454 -0.2104,7.89077 0.57874,7.37617 1.26263,-0.77192 2.26226,-4.37411 2.94618,-10.63522 1.15741,-10.80684 1.21016,-10.89258 4.8928,-11.57873 6.89181,-1.28654 14.67804,-5.14686 29.77687,-14.92446 l 2.78821,-1.88708 -0.36838,4.11715 c -0.21044,2.22995 -1.26241,9.09118 -2.41983,15.18075 -1.1048,6.17534 -2.05144,11.75069 -2.05144,12.43683 0,2.14423 3.52456,-4.03145 6.57588,-11.4933 1.52568,-3.77378 4.68208,-13.20791 6.94427,-21.01284 l 4.20926,-14.1518 12.04746,-13.03737 c 6.62877,-7.11881 14.09927,-14.58007 16.57191,-16.55273 l 4.52444,-3.68748 6.25993,7.71918 c 13.36275,16.46754 20.41248,22.72847 27.98822,25.12995 l 2.31501,0.68598 -1.78866,-3.00269 c -0.94697,-1.62962 -5.26108,-7.29008 -9.62765,-12.60772 -8.36486,-10.20647 -12.20533,-16.38186 -14.20449,-22.8145 l -1.20991,-3.94503 5.68195,-4.88855 c 9.36435,3.56835 19.80392,8.27074 31.09082,13.9043 z m -65.91848,-16.99998 c 3.52481,-0.0856 6.41868,0.25748 6.41868,0.60056 0,1.45805 -4.41922,7.54769 -10.0484,13.8088 -3.20917,3.60227 -6.47131,7.80486 -7.20784,9.34868 l -1.36789,2.91603 2.63097,-0.60052 c 4.68222,-1.11503 8.78545,-3.688 17.04509,-10.63524 10.41662,-8.66259 12.88936,-9.8633 19.30768,-9.34869 2.73568,0.25732 5.05074,0.68592 5.26119,1.029 0.52609,0.77191 -1.78933,4.5458 -5.36676,8.66271 -3.26177,3.77379 -17.62383,16.8106 -25.51522,23.15747 -9.41705,7.63338 -13.67825,7.20463 -28.251,-2.91605 -7.52311,-5.14608 -10.67957,-6.77562 -10.67957,-5.48909 0,1.28653 2.73517,6.77536 4.47127,9.09113 0.89435,1.11496 2.99872,3.51742 4.73484,5.23278 3.4722,3.60226 7.10224,8.91955 7.10224,10.37765 0,1.20076 -8.15423,12.17878 -13.46775,18.09679 -6.94442,7.80494 -14.20439,12.78026 -21.72752,14.92449 -1.78872,0.51458 -3.3673,0.8575 -3.47251,0.68598 -0.10528,-0.17164 0.21085,-2.7448 0.68433,-5.74668 0.68392,-4.80301 0.73648,-6.9468 0.21039,-15.86673 -1.15741,-18.95483 -0.78925,-22.47226 2.78816,-28.39027 3.10397,-5.06037 7.89114,-9.60584 22.35868,-21.61338 17.88715,-14.75221 22.77996,-17.23965 34.09094,-17.32542 z m -70.91688,56.00663 c 0.47348,0.0857 1.10417,2.31582 1.73548,6.08965 1.42044,8.91989 2.47298,19.12643 2.47298,24.101 v 4.46014 l -3.73529,0.60052 c -6.62877,1.11502 -14.67798,-0.7715 -23.67417,-5.57453 -4.94525,-2.57304 -6.73418,-3.85941 -6.26069,-4.54552 2.05175,-2.91615 11.94241,-14.15214 14.57286,-16.63942 5.78703,-5.23189 12.31097,-9.00645 14.88883,-8.49184 z" />
  <g
     inkscape:groupmode="layer"
     id="layer1"
     inkscape:label="Layer 1" />
</svg>
